M48
INCH,TZ
T1C0.0120
T2C0.0390
T3C0.0394
T4C0.0433
T5C0.1260
%
G90
G05
T1
X29700Y-41174
X30300Y-41174
X32700Y-29500
X32700Y-29850
X32700Y-31400
X33050Y-29500
X33050Y-29850
X33050Y-31400
X33050Y-31750
X33050Y-32100
X33050Y-32450
X33400Y-29500
X33400Y-29850
X33400Y-31400
X33400Y-31750
X33400Y-32100
X33400Y-32450
X33750Y-29500
X33750Y-29850
X33750Y-31400
X33750Y-31750
X33750Y-32100
X33750Y-32450
X34600Y-26300
X34600Y-26650
X36400Y-41174
X37000Y-41174
X41231Y-24719
X42393Y-30057
X42743Y-30057
X43050Y-41174
X43500Y-31400
X43650Y-41174
X43850Y-29428
X43850Y-30057
X45150Y-26300
X45472Y-26650
X46157Y-29743
X46400Y-26650
X47100Y-27350
X47257Y-29743
X47607Y-29743
X47950Y-33950
X47950Y-34350
X48550Y-33000
X48550Y-33300
X48550Y-33600
X48700Y-34500
X49000Y-27850
X49000Y-28150
X49700Y-41174
X50100Y-35000
X50100Y-35500
X50300Y-41174
T2
X28720Y-46218
X28720Y-47990
X31280Y-46218
X31280Y-47990
X35390Y-46218
X35390Y-47990
X37950Y-46218
X37950Y-47990
X42050Y-46218
X42050Y-47990
X44610Y-46218
X44610Y-47990
X48720Y-46218
X48720Y-47990
X51280Y-46218
X51280Y-47990
T3
X40350Y-21700
X41350Y-21700
X42350Y-21700
X43350Y-21700
X44350Y-21700
X45350Y-21700
X46350Y-21700
X47350Y-21700
X48350Y-21700
X49350Y-21700
X50350Y-21700
X51350Y-21700
X52350Y-21700
X53350Y-21700
X54350Y-21700
X55350Y-21700
T4
X36500Y-37150
X37500Y-37150
X38500Y-37150
X39500Y-37150
X40500Y-37150
X41500Y-37150
X42500Y-37150
X43500Y-37150
T5
X21700Y-21700
X21700Y-43350
X58300Y-21700
X58300Y-43350
T0
M30
