G04 #@! TF.GenerationSoftware,KiCad,Pcbnew,6.0.11-2627ca5db0~126~ubuntu22.04.1*
G04 #@! TF.CreationDate,2025-05-14T16:21:12-06:00*
G04 #@! TF.ProjectId,i2c-headunit,6932632d-6865-4616-9475-6e69742e6b69,rev?*
G04 #@! TF.SameCoordinates,Original*
G04 #@! TF.FileFunction,Copper,L2,Bot*
G04 #@! TF.FilePolarity,Positive*
%FSLAX46Y46*%
G04 Gerber Fmt 4.6, Leading zero omitted, Abs format (unit mm)*
G04 Created by KiCad (PCBNEW 6.0.11-2627ca5db0~126~ubuntu22.04.1) date 2025-05-14 16:21:12*
%MOMM*%
%LPD*%
G01*
G04 APERTURE LIST*
G04 #@! TA.AperFunction,ComponentPad*
%ADD10C,6.400000*%
G04 #@! TD*
G04 #@! TA.AperFunction,ComponentPad*
%ADD11R,2.100000X2.100000*%
G04 #@! TD*
G04 #@! TA.AperFunction,ComponentPad*
%ADD12C,2.100000*%
G04 #@! TD*
G04 #@! TA.AperFunction,ComponentPad*
%ADD13R,1.498600X1.498600*%
G04 #@! TD*
G04 #@! TA.AperFunction,ComponentPad*
%ADD14C,1.498600*%
G04 #@! TD*
G04 #@! TA.AperFunction,ComponentPad*
%ADD15R,1.700000X1.700000*%
G04 #@! TD*
G04 #@! TA.AperFunction,ComponentPad*
%ADD16O,1.700000X1.700000*%
G04 #@! TD*
G04 #@! TA.AperFunction,ViaPad*
%ADD17C,0.609600*%
G04 #@! TD*
G04 #@! TA.AperFunction,Conductor*
%ADD18C,0.254000*%
G04 #@! TD*
G04 APERTURE END LIST*
D10*
X148082000Y-55118000D03*
X148082000Y-110109000D03*
D11*
X92710000Y-94361000D03*
D12*
X95250000Y-94361000D03*
X97790000Y-94361000D03*
X100330000Y-94361000D03*
X102870000Y-94361000D03*
X105410000Y-94361000D03*
X107950000Y-94361000D03*
X110490000Y-94361000D03*
D10*
X55118000Y-110109000D03*
X55118000Y-55118000D03*
D13*
X79450001Y-117394599D03*
D14*
X72950000Y-117394599D03*
X79450001Y-121894600D03*
X72950000Y-121894600D03*
D15*
X140589000Y-55118000D03*
D16*
X138049000Y-55118000D03*
X135509000Y-55118000D03*
X132969000Y-55118000D03*
X130429000Y-55118000D03*
X127889000Y-55118000D03*
X125349000Y-55118000D03*
X122809000Y-55118000D03*
X120269000Y-55118000D03*
X117729000Y-55118000D03*
X115189000Y-55118000D03*
X112649000Y-55118000D03*
X110109000Y-55118000D03*
X107569000Y-55118000D03*
X105029000Y-55118000D03*
X102489000Y-55118000D03*
D13*
X113308201Y-117394599D03*
D14*
X106808200Y-117394599D03*
X113308201Y-121894600D03*
X106808200Y-121894600D03*
D13*
X130250001Y-117394599D03*
D14*
X123750000Y-117394599D03*
X130250001Y-121894600D03*
X123750000Y-121894600D03*
D13*
X96391801Y-117394599D03*
D14*
X89891800Y-117394599D03*
X96391801Y-121894600D03*
X89891800Y-121894600D03*
D17*
X117856000Y-67691000D03*
X119634000Y-69469000D03*
X121793000Y-87249000D03*
X127254000Y-90170000D03*
X121793000Y-86233000D03*
X127254000Y-88900000D03*
X123317000Y-83820000D03*
X85725000Y-75819000D03*
X126238000Y-104582000D03*
X84836000Y-79756000D03*
X123317000Y-85344000D03*
X107677000Y-76346000D03*
X110871000Y-104582000D03*
X83947000Y-79756000D03*
X83947000Y-74930000D03*
X124460000Y-71501000D03*
X123698000Y-87630000D03*
X76962000Y-104582000D03*
X123317000Y-84582000D03*
X124460000Y-70739000D03*
X83058000Y-74930000D03*
X108566000Y-76346000D03*
X83947000Y-82423000D03*
X83947000Y-75819000D03*
X84836000Y-74930000D03*
X75438000Y-104582000D03*
X85725000Y-74930000D03*
X93980000Y-104582000D03*
X84836000Y-81534000D03*
X84836000Y-82423000D03*
X120923000Y-75546000D03*
X104726500Y-62786500D03*
X85725000Y-81534000D03*
X92456000Y-104582000D03*
X111379000Y-76346000D03*
X85725000Y-82423000D03*
X84836000Y-80645000D03*
X84836000Y-75819000D03*
X85725000Y-79756000D03*
X109347000Y-104582000D03*
X117240000Y-75546000D03*
X83947000Y-80645000D03*
X83058000Y-75819000D03*
X127762000Y-104582000D03*
X120034000Y-75546000D03*
X83947000Y-81534000D03*
X85725000Y-80645000D03*
X83058000Y-79756000D03*
X115500000Y-67691000D03*
X87884000Y-67691000D03*
X114681000Y-66802000D03*
X87884000Y-66802000D03*
X110490000Y-79756000D03*
X111379000Y-74746000D03*
D18*
X117856000Y-67691000D02*
X119634000Y-69469000D01*
X121793000Y-88392000D02*
X123571000Y-90170000D01*
X123571000Y-90170000D02*
X127254000Y-90170000D01*
X121793000Y-87249000D02*
X121793000Y-88392000D01*
X122555000Y-88138000D02*
X123317000Y-88900000D01*
X121793000Y-86233000D02*
X122555000Y-86995000D01*
X122555000Y-86995000D02*
X122555000Y-88138000D01*
X123317000Y-88900000D02*
X127254000Y-88900000D01*
X88519000Y-67691000D02*
X88900000Y-67310000D01*
X114326895Y-67310000D02*
X114428495Y-67411600D01*
X115035105Y-67310000D02*
X115119000Y-67310000D01*
X114933505Y-67411600D02*
X115035105Y-67310000D01*
X88900000Y-67310000D02*
X114326895Y-67310000D01*
X115119000Y-67310000D02*
X115500000Y-67691000D01*
X87884000Y-67691000D02*
X88519000Y-67691000D01*
X114428495Y-67411600D02*
X114933505Y-67411600D01*
X87884000Y-66802000D02*
X114681000Y-66802000D01*
X112141000Y-75438000D02*
X111449000Y-74746000D01*
X110490000Y-79756000D02*
X112141000Y-78105000D01*
X111449000Y-74746000D02*
X111379000Y-74746000D01*
X112141000Y-78105000D02*
X112141000Y-75438000D01*
G04 #@! TA.AperFunction,Conductor*
G36*
X152087621Y-51074502D02*
G01*
X152134114Y-51128158D01*
X152145500Y-51180500D01*
X152145500Y-113919500D01*
X152125498Y-113987621D01*
X152071842Y-114034114D01*
X152019500Y-114045500D01*
X133641476Y-114045500D01*
X133616897Y-114043079D01*
X133604000Y-114040514D01*
X133591828Y-114042935D01*
X133578933Y-114045500D01*
X133504699Y-114060266D01*
X133420516Y-114116516D01*
X133364266Y-114200699D01*
X133344514Y-114300000D01*
X133346935Y-114312170D01*
X133347079Y-114312894D01*
X133349500Y-114337476D01*
X133349500Y-124079500D01*
X133329498Y-124147621D01*
X133275842Y-124194114D01*
X133223500Y-124205500D01*
X69976500Y-124205500D01*
X69908379Y-124185498D01*
X69861886Y-124131842D01*
X69850500Y-124079500D01*
X69850500Y-121880517D01*
X71941441Y-121880517D01*
X71957914Y-122076682D01*
X71959613Y-122082607D01*
X71971459Y-122123918D01*
X72012174Y-122265911D01*
X72014993Y-122271396D01*
X72099339Y-122435516D01*
X72099342Y-122435521D01*
X72102157Y-122440998D01*
X72224433Y-122595272D01*
X72229127Y-122599266D01*
X72229127Y-122599267D01*
X72263864Y-122628830D01*
X72374346Y-122722858D01*
X72546185Y-122818896D01*
X72733406Y-122879727D01*
X72928876Y-122903036D01*
X72935011Y-122902564D01*
X72935013Y-122902564D01*
X73119010Y-122888406D01*
X73119015Y-122888405D01*
X73125151Y-122887933D01*
X73131081Y-122886277D01*
X73131083Y-122886277D01*
X73308827Y-122836650D01*
X73308826Y-122836650D01*
X73314755Y-122834995D01*
X73342857Y-122820800D01*
X73484971Y-122749012D01*
X73490465Y-122746237D01*
X73645590Y-122625041D01*
X73667838Y-122599267D01*
X73770195Y-122480684D01*
X73770195Y-122480683D01*
X73774219Y-122476022D01*
X73794116Y-122440998D01*
X73868407Y-122310221D01*
X73871454Y-122304858D01*
X73933591Y-122118066D01*
X73939595Y-122070540D01*
X73957822Y-121926266D01*
X73957823Y-121926256D01*
X73958264Y-121922763D01*
X73958657Y-121894600D01*
X73957276Y-121880517D01*
X78441442Y-121880517D01*
X78457915Y-122076682D01*
X78459614Y-122082607D01*
X78471460Y-122123918D01*
X78512175Y-122265911D01*
X78514994Y-122271396D01*
X78599340Y-122435516D01*
X78599343Y-122435521D01*
X78602158Y-122440998D01*
X78724434Y-122595272D01*
X78729128Y-122599266D01*
X78729128Y-122599267D01*
X78763865Y-122628830D01*
X78874347Y-122722858D01*
X79046186Y-122818896D01*
X79233407Y-122879727D01*
X79428877Y-122903036D01*
X79435012Y-122902564D01*
X79435014Y-122902564D01*
X79619011Y-122888406D01*
X79619016Y-122888405D01*
X79625152Y-122887933D01*
X79631082Y-122886277D01*
X79631084Y-122886277D01*
X79808828Y-122836650D01*
X79808827Y-122836650D01*
X79814756Y-122834995D01*
X79842858Y-122820800D01*
X79984972Y-122749012D01*
X79990466Y-122746237D01*
X80145591Y-122625041D01*
X80167839Y-122599267D01*
X80270196Y-122480684D01*
X80270196Y-122480683D01*
X80274220Y-122476022D01*
X80294117Y-122440998D01*
X80368408Y-122310221D01*
X80371455Y-122304858D01*
X80433592Y-122118066D01*
X80439596Y-122070540D01*
X80457823Y-121926266D01*
X80457824Y-121926256D01*
X80458265Y-121922763D01*
X80458658Y-121894600D01*
X80457277Y-121880517D01*
X88883241Y-121880517D01*
X88899714Y-122076682D01*
X88901413Y-122082607D01*
X88913259Y-122123918D01*
X88953974Y-122265911D01*
X88956793Y-122271396D01*
X89041139Y-122435516D01*
X89041142Y-122435521D01*
X89043957Y-122440998D01*
X89166233Y-122595272D01*
X89170927Y-122599266D01*
X89170927Y-122599267D01*
X89205664Y-122628830D01*
X89316146Y-122722858D01*
X89487985Y-122818896D01*
X89675206Y-122879727D01*
X89870676Y-122903036D01*
X89876811Y-122902564D01*
X89876813Y-122902564D01*
X90060810Y-122888406D01*
X90060815Y-122888405D01*
X90066951Y-122887933D01*
X90072881Y-122886277D01*
X90072883Y-122886277D01*
X90250627Y-122836650D01*
X90250626Y-122836650D01*
X90256555Y-122834995D01*
X90284657Y-122820800D01*
X90426771Y-122749012D01*
X90432265Y-122746237D01*
X90587390Y-122625041D01*
X90609638Y-122599267D01*
X90711995Y-122480684D01*
X90711995Y-122480683D01*
X90716019Y-122476022D01*
X90735916Y-122440998D01*
X90810207Y-122310221D01*
X90813254Y-122304858D01*
X90875391Y-122118066D01*
X90881395Y-122070540D01*
X90899622Y-121926266D01*
X90899623Y-121926256D01*
X90900064Y-121922763D01*
X90900457Y-121894600D01*
X90899076Y-121880517D01*
X95383242Y-121880517D01*
X95399715Y-122076682D01*
X95401414Y-122082607D01*
X95413260Y-122123918D01*
X95453975Y-122265911D01*
X95456794Y-122271396D01*
X95541140Y-122435516D01*
X95541143Y-122435521D01*
X95543958Y-122440998D01*
X95666234Y-122595272D01*
X95670928Y-122599266D01*
X95670928Y-122599267D01*
X95705665Y-122628830D01*
X95816147Y-122722858D01*
X95987986Y-122818896D01*
X96175207Y-122879727D01*
X96370677Y-122903036D01*
X96376812Y-122902564D01*
X96376814Y-122902564D01*
X96560811Y-122888406D01*
X96560816Y-122888405D01*
X96566952Y-122887933D01*
X96572882Y-122886277D01*
X96572884Y-122886277D01*
X96750628Y-122836650D01*
X96750627Y-122836650D01*
X96756556Y-122834995D01*
X96784658Y-122820800D01*
X96926772Y-122749012D01*
X96932266Y-122746237D01*
X97087391Y-122625041D01*
X97109639Y-122599267D01*
X97211996Y-122480684D01*
X97211996Y-122480683D01*
X97216020Y-122476022D01*
X97235917Y-122440998D01*
X97310208Y-122310221D01*
X97313255Y-122304858D01*
X97375392Y-122118066D01*
X97381396Y-122070540D01*
X97399623Y-121926266D01*
X97399624Y-121926256D01*
X97400065Y-121922763D01*
X97400458Y-121894600D01*
X97399077Y-121880517D01*
X105799641Y-121880517D01*
X105816114Y-122076682D01*
X105817813Y-122082607D01*
X105829659Y-122123918D01*
X105870374Y-122265911D01*
X105873193Y-122271396D01*
X105957539Y-122435516D01*
X105957542Y-122435521D01*
X105960357Y-122440998D01*
X106082633Y-122595272D01*
X106087327Y-122599266D01*
X106087327Y-122599267D01*
X106122064Y-122628830D01*
X106232546Y-122722858D01*
X106404385Y-122818896D01*
X106591606Y-122879727D01*
X106787076Y-122903036D01*
X106793211Y-122902564D01*
X106793213Y-122902564D01*
X106977210Y-122888406D01*
X106977215Y-122888405D01*
X106983351Y-122887933D01*
X106989281Y-122886277D01*
X106989283Y-122886277D01*
X107167027Y-122836650D01*
X107167026Y-122836650D01*
X107172955Y-122834995D01*
X107201057Y-122820800D01*
X107343171Y-122749012D01*
X107348665Y-122746237D01*
X107503790Y-122625041D01*
X107526038Y-122599267D01*
X107628395Y-122480684D01*
X107628395Y-122480683D01*
X107632419Y-122476022D01*
X107652316Y-122440998D01*
X107726607Y-122310221D01*
X107729654Y-122304858D01*
X107791791Y-122118066D01*
X107797795Y-122070540D01*
X107816022Y-121926266D01*
X107816023Y-121926256D01*
X107816464Y-121922763D01*
X107816857Y-121894600D01*
X107815476Y-121880517D01*
X112299642Y-121880517D01*
X112316115Y-122076682D01*
X112317814Y-122082607D01*
X112329660Y-122123918D01*
X112370375Y-122265911D01*
X112373194Y-122271396D01*
X112457540Y-122435516D01*
X112457543Y-122435521D01*
X112460358Y-122440998D01*
X112582634Y-122595272D01*
X112587328Y-122599266D01*
X112587328Y-122599267D01*
X112622065Y-122628830D01*
X112732547Y-122722858D01*
X112904386Y-122818896D01*
X113091607Y-122879727D01*
X113287077Y-122903036D01*
X113293212Y-122902564D01*
X113293214Y-122902564D01*
X113477211Y-122888406D01*
X113477216Y-122888405D01*
X113483352Y-122887933D01*
X113489282Y-122886277D01*
X113489284Y-122886277D01*
X113667028Y-122836650D01*
X113667027Y-122836650D01*
X113672956Y-122834995D01*
X113701058Y-122820800D01*
X113843172Y-122749012D01*
X113848666Y-122746237D01*
X114003791Y-122625041D01*
X114026039Y-122599267D01*
X114128396Y-122480684D01*
X114128396Y-122480683D01*
X114132420Y-122476022D01*
X114152317Y-122440998D01*
X114226608Y-122310221D01*
X114229655Y-122304858D01*
X114291792Y-122118066D01*
X114297796Y-122070540D01*
X114316023Y-121926266D01*
X114316024Y-121926256D01*
X114316465Y-121922763D01*
X114316858Y-121894600D01*
X114315477Y-121880517D01*
X122741441Y-121880517D01*
X122757914Y-122076682D01*
X122759613Y-122082607D01*
X122771459Y-122123918D01*
X122812174Y-122265911D01*
X122814993Y-122271396D01*
X122899339Y-122435516D01*
X122899342Y-122435521D01*
X122902157Y-122440998D01*
X123024433Y-122595272D01*
X123029127Y-122599266D01*
X123029127Y-122599267D01*
X123063864Y-122628830D01*
X123174346Y-122722858D01*
X123346185Y-122818896D01*
X123533406Y-122879727D01*
X123728876Y-122903036D01*
X123735011Y-122902564D01*
X123735013Y-122902564D01*
X123919010Y-122888406D01*
X123919015Y-122888405D01*
X123925151Y-122887933D01*
X123931081Y-122886277D01*
X123931083Y-122886277D01*
X124108827Y-122836650D01*
X124108826Y-122836650D01*
X124114755Y-122834995D01*
X124142857Y-122820800D01*
X124284971Y-122749012D01*
X124290465Y-122746237D01*
X124445590Y-122625041D01*
X124467838Y-122599267D01*
X124570195Y-122480684D01*
X124570195Y-122480683D01*
X124574219Y-122476022D01*
X124594116Y-122440998D01*
X124668407Y-122310221D01*
X124671454Y-122304858D01*
X124733591Y-122118066D01*
X124739595Y-122070540D01*
X124757822Y-121926266D01*
X124757823Y-121926256D01*
X124758264Y-121922763D01*
X124758657Y-121894600D01*
X124757276Y-121880517D01*
X129241442Y-121880517D01*
X129257915Y-122076682D01*
X129259614Y-122082607D01*
X129271460Y-122123918D01*
X129312175Y-122265911D01*
X129314994Y-122271396D01*
X129399340Y-122435516D01*
X129399343Y-122435521D01*
X129402158Y-122440998D01*
X129524434Y-122595272D01*
X129529128Y-122599266D01*
X129529128Y-122599267D01*
X129563865Y-122628830D01*
X129674347Y-122722858D01*
X129846186Y-122818896D01*
X130033407Y-122879727D01*
X130228877Y-122903036D01*
X130235012Y-122902564D01*
X130235014Y-122902564D01*
X130419011Y-122888406D01*
X130419016Y-122888405D01*
X130425152Y-122887933D01*
X130431082Y-122886277D01*
X130431084Y-122886277D01*
X130608828Y-122836650D01*
X130608827Y-122836650D01*
X130614756Y-122834995D01*
X130642858Y-122820800D01*
X130784972Y-122749012D01*
X130790466Y-122746237D01*
X130945591Y-122625041D01*
X130967839Y-122599267D01*
X131070196Y-122480684D01*
X131070196Y-122480683D01*
X131074220Y-122476022D01*
X131094117Y-122440998D01*
X131168408Y-122310221D01*
X131171455Y-122304858D01*
X131233592Y-122118066D01*
X131239596Y-122070540D01*
X131257823Y-121926266D01*
X131257824Y-121926256D01*
X131258265Y-121922763D01*
X131258658Y-121894600D01*
X131239448Y-121698684D01*
X131237667Y-121692785D01*
X131237666Y-121692780D01*
X131184332Y-121516130D01*
X131182551Y-121510231D01*
X131090133Y-121336418D01*
X131086243Y-121331648D01*
X131086240Y-121331644D01*
X130969609Y-121188641D01*
X130969606Y-121188638D01*
X130965714Y-121183866D01*
X130959423Y-121178661D01*
X130818783Y-121062313D01*
X130814035Y-121058385D01*
X130808618Y-121055456D01*
X130808615Y-121055454D01*
X130646291Y-120967686D01*
X130646286Y-120967684D01*
X130640871Y-120964756D01*
X130617918Y-120957651D01*
X130458707Y-120908367D01*
X130458704Y-120908366D01*
X130452820Y-120906545D01*
X130446695Y-120905901D01*
X130446694Y-120905901D01*
X130263171Y-120886612D01*
X130263170Y-120886612D01*
X130257043Y-120885968D01*
X130174105Y-120893516D01*
X130067137Y-120903250D01*
X130067134Y-120903251D01*
X130060998Y-120903809D01*
X129872151Y-120959390D01*
X129697698Y-121050592D01*
X129544281Y-121173942D01*
X129540322Y-121178660D01*
X129540321Y-121178661D01*
X129531947Y-121188641D01*
X129417744Y-121324742D01*
X129322909Y-121497248D01*
X129321045Y-121503123D01*
X129321044Y-121503126D01*
X129318791Y-121510231D01*
X129263386Y-121684888D01*
X129241442Y-121880517D01*
X124757276Y-121880517D01*
X124739447Y-121698684D01*
X124737666Y-121692785D01*
X124737665Y-121692780D01*
X124684331Y-121516130D01*
X124682550Y-121510231D01*
X124590132Y-121336418D01*
X124586242Y-121331648D01*
X124586239Y-121331644D01*
X124469608Y-121188641D01*
X124469605Y-121188638D01*
X124465713Y-121183866D01*
X124459422Y-121178661D01*
X124318782Y-121062313D01*
X124314034Y-121058385D01*
X124308617Y-121055456D01*
X124308614Y-121055454D01*
X124146290Y-120967686D01*
X124146285Y-120967684D01*
X124140870Y-120964756D01*
X124117917Y-120957651D01*
X123958706Y-120908367D01*
X123958703Y-120908366D01*
X123952819Y-120906545D01*
X123946694Y-120905901D01*
X123946693Y-120905901D01*
X123763170Y-120886612D01*
X123763169Y-120886612D01*
X123757042Y-120885968D01*
X123674104Y-120893516D01*
X123567136Y-120903250D01*
X123567133Y-120903251D01*
X123560997Y-120903809D01*
X123372150Y-120959390D01*
X123197697Y-121050592D01*
X123044280Y-121173942D01*
X123040321Y-121178660D01*
X123040320Y-121178661D01*
X123031946Y-121188641D01*
X122917743Y-121324742D01*
X122822908Y-121497248D01*
X122821044Y-121503123D01*
X122821043Y-121503126D01*
X122818790Y-121510231D01*
X122763385Y-121684888D01*
X122741441Y-121880517D01*
X114315477Y-121880517D01*
X114297648Y-121698684D01*
X114295867Y-121692785D01*
X114295866Y-121692780D01*
X114242532Y-121516130D01*
X114240751Y-121510231D01*
X114148333Y-121336418D01*
X114144443Y-121331648D01*
X114144440Y-121331644D01*
X114027809Y-121188641D01*
X114027806Y-121188638D01*
X114023914Y-121183866D01*
X114017623Y-121178661D01*
X113876983Y-121062313D01*
X113872235Y-121058385D01*
X113866818Y-121055456D01*
X113866815Y-121055454D01*
X113704491Y-120967686D01*
X113704486Y-120967684D01*
X113699071Y-120964756D01*
X113676118Y-120957651D01*
X113516907Y-120908367D01*
X113516904Y-120908366D01*
X113511020Y-120906545D01*
X113504895Y-120905901D01*
X113504894Y-120905901D01*
X113321371Y-120886612D01*
X113321370Y-120886612D01*
X113315243Y-120885968D01*
X113232305Y-120893516D01*
X113125337Y-120903250D01*
X113125334Y-120903251D01*
X113119198Y-120903809D01*
X112930351Y-120959390D01*
X112755898Y-121050592D01*
X112602481Y-121173942D01*
X112598522Y-121178660D01*
X112598521Y-121178661D01*
X112590147Y-121188641D01*
X112475944Y-121324742D01*
X112381109Y-121497248D01*
X112379245Y-121503123D01*
X112379244Y-121503126D01*
X112376991Y-121510231D01*
X112321586Y-121684888D01*
X112299642Y-121880517D01*
X107815476Y-121880517D01*
X107797647Y-121698684D01*
X107795866Y-121692785D01*
X107795865Y-121692780D01*
X107742531Y-121516130D01*
X107740750Y-121510231D01*
X107648332Y-121336418D01*
X107644442Y-121331648D01*
X107644439Y-121331644D01*
X107527808Y-121188641D01*
X107527805Y-121188638D01*
X107523913Y-121183866D01*
X107517622Y-121178661D01*
X107376982Y-121062313D01*
X107372234Y-121058385D01*
X107366817Y-121055456D01*
X107366814Y-121055454D01*
X107204490Y-120967686D01*
X107204485Y-120967684D01*
X107199070Y-120964756D01*
X107176117Y-120957651D01*
X107016906Y-120908367D01*
X107016903Y-120908366D01*
X107011019Y-120906545D01*
X107004894Y-120905901D01*
X107004893Y-120905901D01*
X106821370Y-120886612D01*
X106821369Y-120886612D01*
X106815242Y-120885968D01*
X106732304Y-120893516D01*
X106625336Y-120903250D01*
X106625333Y-120903251D01*
X106619197Y-120903809D01*
X106430350Y-120959390D01*
X106255897Y-121050592D01*
X106102480Y-121173942D01*
X106098521Y-121178660D01*
X106098520Y-121178661D01*
X106090146Y-121188641D01*
X105975943Y-121324742D01*
X105881108Y-121497248D01*
X105879244Y-121503123D01*
X105879243Y-121503126D01*
X105876990Y-121510231D01*
X105821585Y-121684888D01*
X105799641Y-121880517D01*
X97399077Y-121880517D01*
X97381248Y-121698684D01*
X97379467Y-121692785D01*
X97379466Y-121692780D01*
X97326132Y-121516130D01*
X97324351Y-121510231D01*
X97231933Y-121336418D01*
X97228043Y-121331648D01*
X97228040Y-121331644D01*
X97111409Y-121188641D01*
X97111406Y-121188638D01*
X97107514Y-121183866D01*
X97101223Y-121178661D01*
X96960583Y-121062313D01*
X96955835Y-121058385D01*
X96950418Y-121055456D01*
X96950415Y-121055454D01*
X96788091Y-120967686D01*
X96788086Y-120967684D01*
X96782671Y-120964756D01*
X96759718Y-120957651D01*
X96600507Y-120908367D01*
X96600504Y-120908366D01*
X96594620Y-120906545D01*
X96588495Y-120905901D01*
X96588494Y-120905901D01*
X96404971Y-120886612D01*
X96404970Y-120886612D01*
X96398843Y-120885968D01*
X96315905Y-120893516D01*
X96208937Y-120903250D01*
X96208934Y-120903251D01*
X96202798Y-120903809D01*
X96013951Y-120959390D01*
X95839498Y-121050592D01*
X95686081Y-121173942D01*
X95682122Y-121178660D01*
X95682121Y-121178661D01*
X95673747Y-121188641D01*
X95559544Y-121324742D01*
X95464709Y-121497248D01*
X95462845Y-121503123D01*
X95462844Y-121503126D01*
X95460591Y-121510231D01*
X95405186Y-121684888D01*
X95383242Y-121880517D01*
X90899076Y-121880517D01*
X90881247Y-121698684D01*
X90879466Y-121692785D01*
X90879465Y-121692780D01*
X90826131Y-121516130D01*
X90824350Y-121510231D01*
X90731932Y-121336418D01*
X90728042Y-121331648D01*
X90728039Y-121331644D01*
X90611408Y-121188641D01*
X90611405Y-121188638D01*
X90607513Y-121183866D01*
X90601222Y-121178661D01*
X90460582Y-121062313D01*
X90455834Y-121058385D01*
X90450417Y-121055456D01*
X90450414Y-121055454D01*
X90288090Y-120967686D01*
X90288085Y-120967684D01*
X90282670Y-120964756D01*
X90259717Y-120957651D01*
X90100506Y-120908367D01*
X90100503Y-120908366D01*
X90094619Y-120906545D01*
X90088494Y-120905901D01*
X90088493Y-120905901D01*
X89904970Y-120886612D01*
X89904969Y-120886612D01*
X89898842Y-120885968D01*
X89815904Y-120893516D01*
X89708936Y-120903250D01*
X89708933Y-120903251D01*
X89702797Y-120903809D01*
X89513950Y-120959390D01*
X89339497Y-121050592D01*
X89186080Y-121173942D01*
X89182121Y-121178660D01*
X89182120Y-121178661D01*
X89173746Y-121188641D01*
X89059543Y-121324742D01*
X88964708Y-121497248D01*
X88962844Y-121503123D01*
X88962843Y-121503126D01*
X88960590Y-121510231D01*
X88905185Y-121684888D01*
X88883241Y-121880517D01*
X80457277Y-121880517D01*
X80439448Y-121698684D01*
X80437667Y-121692785D01*
X80437666Y-121692780D01*
X80384332Y-121516130D01*
X80382551Y-121510231D01*
X80290133Y-121336418D01*
X80286243Y-121331648D01*
X80286240Y-121331644D01*
X80169609Y-121188641D01*
X80169606Y-121188638D01*
X80165714Y-121183866D01*
X80159423Y-121178661D01*
X80018783Y-121062313D01*
X80014035Y-121058385D01*
X80008618Y-121055456D01*
X80008615Y-121055454D01*
X79846291Y-120967686D01*
X79846286Y-120967684D01*
X79840871Y-120964756D01*
X79817918Y-120957651D01*
X79658707Y-120908367D01*
X79658704Y-120908366D01*
X79652820Y-120906545D01*
X79646695Y-120905901D01*
X79646694Y-120905901D01*
X79463171Y-120886612D01*
X79463170Y-120886612D01*
X79457043Y-120885968D01*
X79374105Y-120893516D01*
X79267137Y-120903250D01*
X79267134Y-120903251D01*
X79260998Y-120903809D01*
X79072151Y-120959390D01*
X78897698Y-121050592D01*
X78744281Y-121173942D01*
X78740322Y-121178660D01*
X78740321Y-121178661D01*
X78731947Y-121188641D01*
X78617744Y-121324742D01*
X78522909Y-121497248D01*
X78521045Y-121503123D01*
X78521044Y-121503126D01*
X78518791Y-121510231D01*
X78463386Y-121684888D01*
X78441442Y-121880517D01*
X73957276Y-121880517D01*
X73939447Y-121698684D01*
X73937666Y-121692785D01*
X73937665Y-121692780D01*
X73884331Y-121516130D01*
X73882550Y-121510231D01*
X73790132Y-121336418D01*
X73786242Y-121331648D01*
X73786239Y-121331644D01*
X73669608Y-121188641D01*
X73669605Y-121188638D01*
X73665713Y-121183866D01*
X73659422Y-121178661D01*
X73518782Y-121062313D01*
X73514034Y-121058385D01*
X73508617Y-121055456D01*
X73508614Y-121055454D01*
X73346290Y-120967686D01*
X73346285Y-120967684D01*
X73340870Y-120964756D01*
X73317917Y-120957651D01*
X73158706Y-120908367D01*
X73158703Y-120908366D01*
X73152819Y-120906545D01*
X73146694Y-120905901D01*
X73146693Y-120905901D01*
X72963170Y-120886612D01*
X72963169Y-120886612D01*
X72957042Y-120885968D01*
X72874104Y-120893516D01*
X72767136Y-120903250D01*
X72767133Y-120903251D01*
X72760997Y-120903809D01*
X72572150Y-120959390D01*
X72397697Y-121050592D01*
X72244280Y-121173942D01*
X72240321Y-121178660D01*
X72240320Y-121178661D01*
X72231946Y-121188641D01*
X72117743Y-121324742D01*
X72022908Y-121497248D01*
X72021044Y-121503123D01*
X72021043Y-121503126D01*
X72018790Y-121510231D01*
X71963385Y-121684888D01*
X71941441Y-121880517D01*
X69850500Y-121880517D01*
X69850500Y-118444258D01*
X72264896Y-118444258D01*
X72274192Y-118456273D01*
X72314440Y-118484455D01*
X72323935Y-118489938D01*
X72513353Y-118578265D01*
X72523645Y-118582011D01*
X72725523Y-118636104D01*
X72736318Y-118638007D01*
X72944525Y-118656223D01*
X72955475Y-118656223D01*
X73163682Y-118638007D01*
X73174477Y-118636104D01*
X73376355Y-118582011D01*
X73386647Y-118578265D01*
X73576065Y-118489938D01*
X73585560Y-118484455D01*
X73626646Y-118455686D01*
X73635021Y-118445209D01*
X73627953Y-118431762D01*
X73384759Y-118188568D01*
X78192702Y-118188568D01*
X78193072Y-118195389D01*
X78198596Y-118246251D01*
X78202222Y-118261503D01*
X78247377Y-118381953D01*
X78255915Y-118397548D01*
X78332416Y-118499623D01*
X78344977Y-118512184D01*
X78447052Y-118588685D01*
X78462647Y-118597223D01*
X78583095Y-118642377D01*
X78598350Y-118646004D01*
X78649215Y-118651530D01*
X78656029Y-118651899D01*
X79177886Y-118651899D01*
X79193125Y-118647424D01*
X79194330Y-118646034D01*
X79196001Y-118638351D01*
X79196001Y-118633783D01*
X79704001Y-118633783D01*
X79708476Y-118649022D01*
X79709866Y-118650227D01*
X79717549Y-118651898D01*
X80243970Y-118651898D01*
X80250791Y-118651528D01*
X80301653Y-118646004D01*
X80316905Y-118642378D01*
X80437355Y-118597223D01*
X80452950Y-118588685D01*
X80555025Y-118512184D01*
X80567586Y-118499623D01*
X80609080Y-118444258D01*
X89206696Y-118444258D01*
X89215992Y-118456273D01*
X89256240Y-118484455D01*
X89265735Y-118489938D01*
X89455153Y-118578265D01*
X89465445Y-118582011D01*
X89667323Y-118636104D01*
X89678118Y-118638007D01*
X89886325Y-118656223D01*
X89897275Y-118656223D01*
X90105482Y-118638007D01*
X90116277Y-118636104D01*
X90318155Y-118582011D01*
X90328447Y-118578265D01*
X90517865Y-118489938D01*
X90527360Y-118484455D01*
X90568446Y-118455686D01*
X90576821Y-118445209D01*
X90569753Y-118431762D01*
X90326559Y-118188568D01*
X95134502Y-118188568D01*
X95134872Y-118195389D01*
X95140396Y-118246251D01*
X95144022Y-118261503D01*
X95189177Y-118381953D01*
X95197715Y-118397548D01*
X95274216Y-118499623D01*
X95286777Y-118512184D01*
X95388852Y-118588685D01*
X95404447Y-118597223D01*
X95524895Y-118642377D01*
X95540150Y-118646004D01*
X95591015Y-118651530D01*
X95597829Y-118651899D01*
X96119686Y-118651899D01*
X96134925Y-118647424D01*
X96136130Y-118646034D01*
X96137801Y-118638351D01*
X96137801Y-118633783D01*
X96645801Y-118633783D01*
X96650276Y-118649022D01*
X96651666Y-118650227D01*
X96659349Y-118651898D01*
X97185770Y-118651898D01*
X97192591Y-118651528D01*
X97243453Y-118646004D01*
X97258705Y-118642378D01*
X97379155Y-118597223D01*
X97394750Y-118588685D01*
X97496825Y-118512184D01*
X97509386Y-118499623D01*
X97550880Y-118444258D01*
X106123096Y-118444258D01*
X106132392Y-118456273D01*
X106172640Y-118484455D01*
X106182135Y-118489938D01*
X106371553Y-118578265D01*
X106381845Y-118582011D01*
X106583723Y-118636104D01*
X106594518Y-118638007D01*
X106802725Y-118656223D01*
X106813675Y-118656223D01*
X107021882Y-118638007D01*
X107032677Y-118636104D01*
X107234555Y-118582011D01*
X107244847Y-118578265D01*
X107434265Y-118489938D01*
X107443760Y-118484455D01*
X107484846Y-118455686D01*
X107493221Y-118445209D01*
X107486153Y-118431762D01*
X107242959Y-118188568D01*
X112050902Y-118188568D01*
X112051272Y-118195389D01*
X112056796Y-118246251D01*
X112060422Y-118261503D01*
X112105577Y-118381953D01*
X112114115Y-118397548D01*
X112190616Y-118499623D01*
X112203177Y-118512184D01*
X112305252Y-118588685D01*
X112320847Y-118597223D01*
X112441295Y-118642377D01*
X112456550Y-118646004D01*
X112507415Y-118651530D01*
X112514229Y-118651899D01*
X113036086Y-118651899D01*
X113051325Y-118647424D01*
X113052530Y-118646034D01*
X113054201Y-118638351D01*
X113054201Y-118633783D01*
X113562201Y-118633783D01*
X113566676Y-118649022D01*
X113568066Y-118650227D01*
X113575749Y-118651898D01*
X114102170Y-118651898D01*
X114108991Y-118651528D01*
X114159853Y-118646004D01*
X114175105Y-118642378D01*
X114295555Y-118597223D01*
X114311150Y-118588685D01*
X114413225Y-118512184D01*
X114425786Y-118499623D01*
X114467280Y-118444258D01*
X123064896Y-118444258D01*
X123074192Y-118456273D01*
X123114440Y-118484455D01*
X123123935Y-118489938D01*
X123313353Y-118578265D01*
X123323645Y-118582011D01*
X123525523Y-118636104D01*
X123536318Y-118638007D01*
X123744525Y-118656223D01*
X123755475Y-118656223D01*
X123963682Y-118638007D01*
X123974477Y-118636104D01*
X124176355Y-118582011D01*
X124186647Y-118578265D01*
X124376065Y-118489938D01*
X124385560Y-118484455D01*
X124426646Y-118455686D01*
X124435021Y-118445209D01*
X124427953Y-118431762D01*
X124184759Y-118188568D01*
X128992702Y-118188568D01*
X128993072Y-118195389D01*
X128998596Y-118246251D01*
X129002222Y-118261503D01*
X129047377Y-118381953D01*
X129055915Y-118397548D01*
X129132416Y-118499623D01*
X129144977Y-118512184D01*
X129247052Y-118588685D01*
X129262647Y-118597223D01*
X129383095Y-118642377D01*
X129398350Y-118646004D01*
X129449215Y-118651530D01*
X129456029Y-118651899D01*
X129977886Y-118651899D01*
X129993125Y-118647424D01*
X129994330Y-118646034D01*
X129996001Y-118638351D01*
X129996001Y-118633783D01*
X130504001Y-118633783D01*
X130508476Y-118649022D01*
X130509866Y-118650227D01*
X130517549Y-118651898D01*
X131043970Y-118651898D01*
X131050791Y-118651528D01*
X131101653Y-118646004D01*
X131116905Y-118642378D01*
X131237355Y-118597223D01*
X131252950Y-118588685D01*
X131355025Y-118512184D01*
X131367586Y-118499623D01*
X131444087Y-118397548D01*
X131452625Y-118381953D01*
X131497779Y-118261505D01*
X131501406Y-118246250D01*
X131506932Y-118195385D01*
X131507301Y-118188571D01*
X131507301Y-117666714D01*
X131502826Y-117651475D01*
X131501436Y-117650270D01*
X131493753Y-117648599D01*
X130522116Y-117648599D01*
X130506877Y-117653074D01*
X130505672Y-117654464D01*
X130504001Y-117662147D01*
X130504001Y-118633783D01*
X129996001Y-118633783D01*
X129996001Y-117666714D01*
X129991526Y-117651475D01*
X129990136Y-117650270D01*
X129982453Y-117648599D01*
X129010817Y-117648599D01*
X128995578Y-117653074D01*
X128994373Y-117654464D01*
X128992702Y-117662147D01*
X128992702Y-118188568D01*
X124184759Y-118188568D01*
X123762812Y-117766621D01*
X123748868Y-117759007D01*
X123747035Y-117759138D01*
X123740420Y-117763389D01*
X123071326Y-118432483D01*
X123064896Y-118444258D01*
X114467280Y-118444258D01*
X114502287Y-118397548D01*
X114510825Y-118381953D01*
X114555979Y-118261505D01*
X114559606Y-118246250D01*
X114565132Y-118195385D01*
X114565501Y-118188571D01*
X114565501Y-117666714D01*
X114561026Y-117651475D01*
X114559636Y-117650270D01*
X114551953Y-117648599D01*
X113580316Y-117648599D01*
X113565077Y-117653074D01*
X113563872Y-117654464D01*
X113562201Y-117662147D01*
X113562201Y-118633783D01*
X113054201Y-118633783D01*
X113054201Y-117666714D01*
X113049726Y-117651475D01*
X113048336Y-117650270D01*
X113040653Y-117648599D01*
X112069017Y-117648599D01*
X112053778Y-117653074D01*
X112052573Y-117654464D01*
X112050902Y-117662147D01*
X112050902Y-118188568D01*
X107242959Y-118188568D01*
X106821012Y-117766621D01*
X106807068Y-117759007D01*
X106805235Y-117759138D01*
X106798620Y-117763389D01*
X106129526Y-118432483D01*
X106123096Y-118444258D01*
X97550880Y-118444258D01*
X97585887Y-118397548D01*
X97594425Y-118381953D01*
X97639579Y-118261505D01*
X97643206Y-118246250D01*
X97648732Y-118195385D01*
X97649101Y-118188571D01*
X97649101Y-117666714D01*
X97644626Y-117651475D01*
X97643236Y-117650270D01*
X97635553Y-117648599D01*
X96663916Y-117648599D01*
X96648677Y-117653074D01*
X96647472Y-117654464D01*
X96645801Y-117662147D01*
X96645801Y-118633783D01*
X96137801Y-118633783D01*
X96137801Y-117666714D01*
X96133326Y-117651475D01*
X96131936Y-117650270D01*
X96124253Y-117648599D01*
X95152617Y-117648599D01*
X95137378Y-117653074D01*
X95136173Y-117654464D01*
X95134502Y-117662147D01*
X95134502Y-118188568D01*
X90326559Y-118188568D01*
X89904612Y-117766621D01*
X89890668Y-117759007D01*
X89888835Y-117759138D01*
X89882220Y-117763389D01*
X89213126Y-118432483D01*
X89206696Y-118444258D01*
X80609080Y-118444258D01*
X80644087Y-118397548D01*
X80652625Y-118381953D01*
X80697779Y-118261505D01*
X80701406Y-118246250D01*
X80706932Y-118195385D01*
X80707301Y-118188571D01*
X80707301Y-117666714D01*
X80702826Y-117651475D01*
X80701436Y-117650270D01*
X80693753Y-117648599D01*
X79722116Y-117648599D01*
X79706877Y-117653074D01*
X79705672Y-117654464D01*
X79704001Y-117662147D01*
X79704001Y-118633783D01*
X79196001Y-118633783D01*
X79196001Y-117666714D01*
X79191526Y-117651475D01*
X79190136Y-117650270D01*
X79182453Y-117648599D01*
X78210817Y-117648599D01*
X78195578Y-117653074D01*
X78194373Y-117654464D01*
X78192702Y-117662147D01*
X78192702Y-118188568D01*
X73384759Y-118188568D01*
X72962812Y-117766621D01*
X72948868Y-117759007D01*
X72947035Y-117759138D01*
X72940420Y-117763389D01*
X72271326Y-118432483D01*
X72264896Y-118444258D01*
X69850500Y-118444258D01*
X69850500Y-117400074D01*
X71688376Y-117400074D01*
X71706592Y-117608281D01*
X71708495Y-117619076D01*
X71762588Y-117820954D01*
X71766334Y-117831246D01*
X71854661Y-118020663D01*
X71860144Y-118030159D01*
X71888913Y-118071245D01*
X71899390Y-118079620D01*
X71912838Y-118072551D01*
X72577978Y-117407411D01*
X72584356Y-117395731D01*
X73314408Y-117395731D01*
X73314539Y-117397564D01*
X73318790Y-117404179D01*
X73987884Y-118073273D01*
X73999659Y-118079703D01*
X74011674Y-118070407D01*
X74039856Y-118030159D01*
X74045339Y-118020663D01*
X74133666Y-117831246D01*
X74137412Y-117820954D01*
X74191505Y-117619076D01*
X74193408Y-117608281D01*
X74211624Y-117400074D01*
X88630176Y-117400074D01*
X88648392Y-117608281D01*
X88650295Y-117619076D01*
X88704388Y-117820954D01*
X88708134Y-117831246D01*
X88796461Y-118020663D01*
X88801944Y-118030159D01*
X88830713Y-118071245D01*
X88841190Y-118079620D01*
X88854638Y-118072551D01*
X89519778Y-117407411D01*
X89526156Y-117395731D01*
X90256208Y-117395731D01*
X90256339Y-117397564D01*
X90260590Y-117404179D01*
X90929684Y-118073273D01*
X90941459Y-118079703D01*
X90953474Y-118070407D01*
X90981656Y-118030159D01*
X90987139Y-118020663D01*
X91075466Y-117831246D01*
X91079212Y-117820954D01*
X91133305Y-117619076D01*
X91135208Y-117608281D01*
X91153424Y-117400074D01*
X105546576Y-117400074D01*
X105564792Y-117608281D01*
X105566695Y-117619076D01*
X105620788Y-117820954D01*
X105624534Y-117831246D01*
X105712861Y-118020663D01*
X105718344Y-118030159D01*
X105747113Y-118071245D01*
X105757590Y-118079620D01*
X105771038Y-118072551D01*
X106436178Y-117407411D01*
X106442556Y-117395731D01*
X107172608Y-117395731D01*
X107172739Y-117397564D01*
X107176990Y-117404179D01*
X107846084Y-118073273D01*
X107857859Y-118079703D01*
X107869874Y-118070407D01*
X107898056Y-118030159D01*
X107903539Y-118020663D01*
X107991866Y-117831246D01*
X107995612Y-117820954D01*
X108049705Y-117619076D01*
X108051608Y-117608281D01*
X108069824Y-117400074D01*
X122488376Y-117400074D01*
X122506592Y-117608281D01*
X122508495Y-117619076D01*
X122562588Y-117820954D01*
X122566334Y-117831246D01*
X122654661Y-118020663D01*
X122660144Y-118030159D01*
X122688913Y-118071245D01*
X122699390Y-118079620D01*
X122712838Y-118072551D01*
X123377978Y-117407411D01*
X123384356Y-117395731D01*
X124114408Y-117395731D01*
X124114539Y-117397564D01*
X124118790Y-117404179D01*
X124787884Y-118073273D01*
X124799659Y-118079703D01*
X124811674Y-118070407D01*
X124839856Y-118030159D01*
X124845339Y-118020663D01*
X124933666Y-117831246D01*
X124937412Y-117820954D01*
X124991505Y-117619076D01*
X124993408Y-117608281D01*
X125011624Y-117400074D01*
X125011624Y-117389124D01*
X124993408Y-117180917D01*
X124991505Y-117170122D01*
X124978740Y-117122484D01*
X128992701Y-117122484D01*
X128997176Y-117137723D01*
X128998566Y-117138928D01*
X129006249Y-117140599D01*
X129977886Y-117140599D01*
X129993125Y-117136124D01*
X129994330Y-117134734D01*
X129996001Y-117127051D01*
X129996001Y-117122484D01*
X130504001Y-117122484D01*
X130508476Y-117137723D01*
X130509866Y-117138928D01*
X130517549Y-117140599D01*
X131489185Y-117140599D01*
X131504424Y-117136124D01*
X131505629Y-117134734D01*
X131507300Y-117127051D01*
X131507300Y-116600630D01*
X131506930Y-116593809D01*
X131501406Y-116542947D01*
X131497780Y-116527695D01*
X131452625Y-116407245D01*
X131444087Y-116391650D01*
X131367586Y-116289575D01*
X131355025Y-116277014D01*
X131252950Y-116200513D01*
X131237355Y-116191975D01*
X131116907Y-116146821D01*
X131101652Y-116143194D01*
X131050787Y-116137668D01*
X131043973Y-116137299D01*
X130522116Y-116137299D01*
X130506877Y-116141774D01*
X130505672Y-116143164D01*
X130504001Y-116150847D01*
X130504001Y-117122484D01*
X129996001Y-117122484D01*
X129996001Y-116155415D01*
X129991526Y-116140176D01*
X129990136Y-116138971D01*
X129982453Y-116137300D01*
X129456032Y-116137300D01*
X129449211Y-116137670D01*
X129398349Y-116143194D01*
X129383097Y-116146820D01*
X129262647Y-116191975D01*
X129247052Y-116200513D01*
X129144977Y-116277014D01*
X129132416Y-116289575D01*
X129055915Y-116391650D01*
X129047377Y-116407245D01*
X129002223Y-116527693D01*
X128998596Y-116542948D01*
X128993070Y-116593813D01*
X128992701Y-116600627D01*
X128992701Y-117122484D01*
X124978740Y-117122484D01*
X124937412Y-116968244D01*
X124933666Y-116957952D01*
X124845339Y-116768535D01*
X124839856Y-116759039D01*
X124811087Y-116717953D01*
X124800610Y-116709578D01*
X124787162Y-116716647D01*
X124122022Y-117381787D01*
X124114408Y-117395731D01*
X123384356Y-117395731D01*
X123385592Y-117393467D01*
X123385461Y-117391634D01*
X123381210Y-117385019D01*
X122712116Y-116715925D01*
X122700341Y-116709495D01*
X122688326Y-116718791D01*
X122660144Y-116759039D01*
X122654661Y-116768535D01*
X122566334Y-116957952D01*
X122562588Y-116968244D01*
X122508495Y-117170122D01*
X122506592Y-117180917D01*
X122488376Y-117389124D01*
X122488376Y-117400074D01*
X108069824Y-117400074D01*
X108069824Y-117389124D01*
X108051608Y-117180917D01*
X108049705Y-117170122D01*
X108036940Y-117122484D01*
X112050901Y-117122484D01*
X112055376Y-117137723D01*
X112056766Y-117138928D01*
X112064449Y-117140599D01*
X113036086Y-117140599D01*
X113051325Y-117136124D01*
X113052530Y-117134734D01*
X113054201Y-117127051D01*
X113054201Y-117122484D01*
X113562201Y-117122484D01*
X113566676Y-117137723D01*
X113568066Y-117138928D01*
X113575749Y-117140599D01*
X114547385Y-117140599D01*
X114562624Y-117136124D01*
X114563829Y-117134734D01*
X114565500Y-117127051D01*
X114565500Y-116600630D01*
X114565130Y-116593809D01*
X114559606Y-116542947D01*
X114555980Y-116527695D01*
X114510825Y-116407245D01*
X114502287Y-116391650D01*
X114466567Y-116343989D01*
X123064979Y-116343989D01*
X123072048Y-116357437D01*
X123737188Y-117022577D01*
X123751132Y-117030191D01*
X123752965Y-117030060D01*
X123759580Y-117025809D01*
X124428674Y-116356715D01*
X124435104Y-116344940D01*
X124425808Y-116332925D01*
X124385560Y-116304743D01*
X124376065Y-116299260D01*
X124186647Y-116210933D01*
X124176355Y-116207187D01*
X123974477Y-116153094D01*
X123963682Y-116151191D01*
X123755475Y-116132975D01*
X123744525Y-116132975D01*
X123536318Y-116151191D01*
X123525523Y-116153094D01*
X123323645Y-116207187D01*
X123313353Y-116210933D01*
X123123936Y-116299260D01*
X123114440Y-116304743D01*
X123073354Y-116333512D01*
X123064979Y-116343989D01*
X114466567Y-116343989D01*
X114425786Y-116289575D01*
X114413225Y-116277014D01*
X114311150Y-116200513D01*
X114295555Y-116191975D01*
X114175107Y-116146821D01*
X114159852Y-116143194D01*
X114108987Y-116137668D01*
X114102173Y-116137299D01*
X113580316Y-116137299D01*
X113565077Y-116141774D01*
X113563872Y-116143164D01*
X113562201Y-116150847D01*
X113562201Y-117122484D01*
X113054201Y-117122484D01*
X113054201Y-116155415D01*
X113049726Y-116140176D01*
X113048336Y-116138971D01*
X113040653Y-116137300D01*
X112514232Y-116137300D01*
X112507411Y-116137670D01*
X112456549Y-116143194D01*
X112441297Y-116146820D01*
X112320847Y-116191975D01*
X112305252Y-116200513D01*
X112203177Y-116277014D01*
X112190616Y-116289575D01*
X112114115Y-116391650D01*
X112105577Y-116407245D01*
X112060423Y-116527693D01*
X112056796Y-116542948D01*
X112051270Y-116593813D01*
X112050901Y-116600627D01*
X112050901Y-117122484D01*
X108036940Y-117122484D01*
X107995612Y-116968244D01*
X107991866Y-116957952D01*
X107903539Y-116768535D01*
X107898056Y-116759039D01*
X107869287Y-116717953D01*
X107858810Y-116709578D01*
X107845362Y-116716647D01*
X107180222Y-117381787D01*
X107172608Y-117395731D01*
X106442556Y-117395731D01*
X106443792Y-117393467D01*
X106443661Y-117391634D01*
X106439410Y-117385019D01*
X105770316Y-116715925D01*
X105758541Y-116709495D01*
X105746526Y-116718791D01*
X105718344Y-116759039D01*
X105712861Y-116768535D01*
X105624534Y-116957952D01*
X105620788Y-116968244D01*
X105566695Y-117170122D01*
X105564792Y-117180917D01*
X105546576Y-117389124D01*
X105546576Y-117400074D01*
X91153424Y-117400074D01*
X91153424Y-117389124D01*
X91135208Y-117180917D01*
X91133305Y-117170122D01*
X91120540Y-117122484D01*
X95134501Y-117122484D01*
X95138976Y-117137723D01*
X95140366Y-117138928D01*
X95148049Y-117140599D01*
X96119686Y-117140599D01*
X96134925Y-117136124D01*
X96136130Y-117134734D01*
X96137801Y-117127051D01*
X96137801Y-117122484D01*
X96645801Y-117122484D01*
X96650276Y-117137723D01*
X96651666Y-117138928D01*
X96659349Y-117140599D01*
X97630985Y-117140599D01*
X97646224Y-117136124D01*
X97647429Y-117134734D01*
X97649100Y-117127051D01*
X97649100Y-116600630D01*
X97648730Y-116593809D01*
X97643206Y-116542947D01*
X97639580Y-116527695D01*
X97594425Y-116407245D01*
X97585887Y-116391650D01*
X97550167Y-116343989D01*
X106123179Y-116343989D01*
X106130248Y-116357437D01*
X106795388Y-117022577D01*
X106809332Y-117030191D01*
X106811165Y-117030060D01*
X106817780Y-117025809D01*
X107486874Y-116356715D01*
X107493304Y-116344940D01*
X107484008Y-116332925D01*
X107443760Y-116304743D01*
X107434265Y-116299260D01*
X107244847Y-116210933D01*
X107234555Y-116207187D01*
X107032677Y-116153094D01*
X107021882Y-116151191D01*
X106813675Y-116132975D01*
X106802725Y-116132975D01*
X106594518Y-116151191D01*
X106583723Y-116153094D01*
X106381845Y-116207187D01*
X106371553Y-116210933D01*
X106182136Y-116299260D01*
X106172640Y-116304743D01*
X106131554Y-116333512D01*
X106123179Y-116343989D01*
X97550167Y-116343989D01*
X97509386Y-116289575D01*
X97496825Y-116277014D01*
X97394750Y-116200513D01*
X97379155Y-116191975D01*
X97258707Y-116146821D01*
X97243452Y-116143194D01*
X97192587Y-116137668D01*
X97185773Y-116137299D01*
X96663916Y-116137299D01*
X96648677Y-116141774D01*
X96647472Y-116143164D01*
X96645801Y-116150847D01*
X96645801Y-117122484D01*
X96137801Y-117122484D01*
X96137801Y-116155415D01*
X96133326Y-116140176D01*
X96131936Y-116138971D01*
X96124253Y-116137300D01*
X95597832Y-116137300D01*
X95591011Y-116137670D01*
X95540149Y-116143194D01*
X95524897Y-116146820D01*
X95404447Y-116191975D01*
X95388852Y-116200513D01*
X95286777Y-116277014D01*
X95274216Y-116289575D01*
X95197715Y-116391650D01*
X95189177Y-116407245D01*
X95144023Y-116527693D01*
X95140396Y-116542948D01*
X95134870Y-116593813D01*
X95134501Y-116600627D01*
X95134501Y-117122484D01*
X91120540Y-117122484D01*
X91079212Y-116968244D01*
X91075466Y-116957952D01*
X90987139Y-116768535D01*
X90981656Y-116759039D01*
X90952887Y-116717953D01*
X90942410Y-116709578D01*
X90928962Y-116716647D01*
X90263822Y-117381787D01*
X90256208Y-117395731D01*
X89526156Y-117395731D01*
X89527392Y-117393467D01*
X89527261Y-117391634D01*
X89523010Y-117385019D01*
X88853916Y-116715925D01*
X88842141Y-116709495D01*
X88830126Y-116718791D01*
X88801944Y-116759039D01*
X88796461Y-116768535D01*
X88708134Y-116957952D01*
X88704388Y-116968244D01*
X88650295Y-117170122D01*
X88648392Y-117180917D01*
X88630176Y-117389124D01*
X88630176Y-117400074D01*
X74211624Y-117400074D01*
X74211624Y-117389124D01*
X74193408Y-117180917D01*
X74191505Y-117170122D01*
X74178740Y-117122484D01*
X78192701Y-117122484D01*
X78197176Y-117137723D01*
X78198566Y-117138928D01*
X78206249Y-117140599D01*
X79177886Y-117140599D01*
X79193125Y-117136124D01*
X79194330Y-117134734D01*
X79196001Y-117127051D01*
X79196001Y-117122484D01*
X79704001Y-117122484D01*
X79708476Y-117137723D01*
X79709866Y-117138928D01*
X79717549Y-117140599D01*
X80689185Y-117140599D01*
X80704424Y-117136124D01*
X80705629Y-117134734D01*
X80707300Y-117127051D01*
X80707300Y-116600630D01*
X80706930Y-116593809D01*
X80701406Y-116542947D01*
X80697780Y-116527695D01*
X80652625Y-116407245D01*
X80644087Y-116391650D01*
X80608367Y-116343989D01*
X89206779Y-116343989D01*
X89213848Y-116357437D01*
X89878988Y-117022577D01*
X89892932Y-117030191D01*
X89894765Y-117030060D01*
X89901380Y-117025809D01*
X90570474Y-116356715D01*
X90576904Y-116344940D01*
X90567608Y-116332925D01*
X90527360Y-116304743D01*
X90517865Y-116299260D01*
X90328447Y-116210933D01*
X90318155Y-116207187D01*
X90116277Y-116153094D01*
X90105482Y-116151191D01*
X89897275Y-116132975D01*
X89886325Y-116132975D01*
X89678118Y-116151191D01*
X89667323Y-116153094D01*
X89465445Y-116207187D01*
X89455153Y-116210933D01*
X89265736Y-116299260D01*
X89256240Y-116304743D01*
X89215154Y-116333512D01*
X89206779Y-116343989D01*
X80608367Y-116343989D01*
X80567586Y-116289575D01*
X80555025Y-116277014D01*
X80452950Y-116200513D01*
X80437355Y-116191975D01*
X80316907Y-116146821D01*
X80301652Y-116143194D01*
X80250787Y-116137668D01*
X80243973Y-116137299D01*
X79722116Y-116137299D01*
X79706877Y-116141774D01*
X79705672Y-116143164D01*
X79704001Y-116150847D01*
X79704001Y-117122484D01*
X79196001Y-117122484D01*
X79196001Y-116155415D01*
X79191526Y-116140176D01*
X79190136Y-116138971D01*
X79182453Y-116137300D01*
X78656032Y-116137300D01*
X78649211Y-116137670D01*
X78598349Y-116143194D01*
X78583097Y-116146820D01*
X78462647Y-116191975D01*
X78447052Y-116200513D01*
X78344977Y-116277014D01*
X78332416Y-116289575D01*
X78255915Y-116391650D01*
X78247377Y-116407245D01*
X78202223Y-116527693D01*
X78198596Y-116542948D01*
X78193070Y-116593813D01*
X78192701Y-116600627D01*
X78192701Y-117122484D01*
X74178740Y-117122484D01*
X74137412Y-116968244D01*
X74133666Y-116957952D01*
X74045339Y-116768535D01*
X74039856Y-116759039D01*
X74011087Y-116717953D01*
X74000610Y-116709578D01*
X73987162Y-116716647D01*
X73322022Y-117381787D01*
X73314408Y-117395731D01*
X72584356Y-117395731D01*
X72585592Y-117393467D01*
X72585461Y-117391634D01*
X72581210Y-117385019D01*
X71912116Y-116715925D01*
X71900341Y-116709495D01*
X71888326Y-116718791D01*
X71860144Y-116759039D01*
X71854661Y-116768535D01*
X71766334Y-116957952D01*
X71762588Y-116968244D01*
X71708495Y-117170122D01*
X71706592Y-117180917D01*
X71688376Y-117389124D01*
X71688376Y-117400074D01*
X69850500Y-117400074D01*
X69850500Y-116343989D01*
X72264979Y-116343989D01*
X72272048Y-116357437D01*
X72937188Y-117022577D01*
X72951132Y-117030191D01*
X72952965Y-117030060D01*
X72959580Y-117025809D01*
X73628674Y-116356715D01*
X73635104Y-116344940D01*
X73625808Y-116332925D01*
X73585560Y-116304743D01*
X73576065Y-116299260D01*
X73386647Y-116210933D01*
X73376355Y-116207187D01*
X73174477Y-116153094D01*
X73163682Y-116151191D01*
X72955475Y-116132975D01*
X72944525Y-116132975D01*
X72736318Y-116151191D01*
X72725523Y-116153094D01*
X72523645Y-116207187D01*
X72513353Y-116210933D01*
X72323936Y-116299260D01*
X72314440Y-116304743D01*
X72273354Y-116333512D01*
X72264979Y-116343989D01*
X69850500Y-116343989D01*
X69850500Y-114337476D01*
X69852921Y-114312894D01*
X69853065Y-114312170D01*
X69855486Y-114300000D01*
X69835734Y-114200699D01*
X69779484Y-114116516D01*
X69695301Y-114060266D01*
X69621067Y-114045500D01*
X69608172Y-114042935D01*
X69596000Y-114040514D01*
X69583103Y-114043079D01*
X69558524Y-114045500D01*
X51180500Y-114045500D01*
X51112379Y-114025498D01*
X51065886Y-113971842D01*
X51054500Y-113919500D01*
X51054500Y-110096924D01*
X51658447Y-110096924D01*
X51677378Y-110470624D01*
X51736557Y-110840094D01*
X51835293Y-111201011D01*
X51972430Y-111549154D01*
X52146365Y-111880450D01*
X52148262Y-111883274D01*
X52148265Y-111883278D01*
X52344014Y-112174585D01*
X52355061Y-112191024D01*
X52357256Y-112193630D01*
X52357260Y-112193636D01*
X52376961Y-112217031D01*
X52596079Y-112477241D01*
X52866598Y-112735755D01*
X53163455Y-112963541D01*
X53483176Y-113157935D01*
X53822021Y-113316661D01*
X53825239Y-113317763D01*
X53825242Y-113317764D01*
X54172803Y-113436761D01*
X54172811Y-113436763D01*
X54176026Y-113437864D01*
X54541051Y-113520126D01*
X54628200Y-113530056D01*
X54909442Y-113562100D01*
X54909450Y-113562100D01*
X54912825Y-113562485D01*
X54916229Y-113562503D01*
X54916232Y-113562503D01*
X55119556Y-113563567D01*
X55286999Y-113564444D01*
X55290385Y-113564094D01*
X55290387Y-113564094D01*
X55655805Y-113526332D01*
X55655814Y-113526331D01*
X55659197Y-113525981D01*
X55662530Y-113525267D01*
X55662533Y-113525266D01*
X55842820Y-113486616D01*
X56025063Y-113447546D01*
X56380318Y-113330056D01*
X56720807Y-113174887D01*
X56818707Y-113116758D01*
X57039601Y-112985601D01*
X57039606Y-112985598D01*
X57042546Y-112983852D01*
X57072354Y-112961472D01*
X57144828Y-112907056D01*
X57341771Y-112759187D01*
X57614983Y-112503521D01*
X57858985Y-112219842D01*
X57880737Y-112188192D01*
X58068992Y-111914280D01*
X58068997Y-111914273D01*
X58070922Y-111911471D01*
X58072534Y-111908477D01*
X58072539Y-111908469D01*
X58246694Y-111585027D01*
X58248316Y-111582015D01*
X58389091Y-111235327D01*
X58491601Y-110875463D01*
X58554647Y-110506634D01*
X58556850Y-110470624D01*
X58577380Y-110134948D01*
X58577490Y-110133152D01*
X58577574Y-110109000D01*
X58576920Y-110096924D01*
X144622447Y-110096924D01*
X144641378Y-110470624D01*
X144700557Y-110840094D01*
X144799293Y-111201011D01*
X144936430Y-111549154D01*
X145110365Y-111880450D01*
X145112262Y-111883274D01*
X145112265Y-111883278D01*
X145308014Y-112174585D01*
X145319061Y-112191024D01*
X145321256Y-112193630D01*
X145321260Y-112193636D01*
X145340961Y-112217031D01*
X145560079Y-112477241D01*
X145830598Y-112735755D01*
X146127455Y-112963541D01*
X146447176Y-113157935D01*
X146786021Y-113316661D01*
X146789239Y-113317763D01*
X146789242Y-113317764D01*
X147136803Y-113436761D01*
X147136811Y-113436763D01*
X147140026Y-113437864D01*
X147505051Y-113520126D01*
X147592200Y-113530056D01*
X147873442Y-113562100D01*
X147873450Y-113562100D01*
X147876825Y-113562485D01*
X147880229Y-113562503D01*
X147880232Y-113562503D01*
X148083556Y-113563567D01*
X148250999Y-113564444D01*
X148254385Y-113564094D01*
X148254387Y-113564094D01*
X148619805Y-113526332D01*
X148619814Y-113526331D01*
X148623197Y-113525981D01*
X148626530Y-113525267D01*
X148626533Y-113525266D01*
X148806820Y-113486616D01*
X148989063Y-113447546D01*
X149344318Y-113330056D01*
X149684807Y-113174887D01*
X149782707Y-113116758D01*
X150003601Y-112985601D01*
X150003606Y-112985598D01*
X150006546Y-112983852D01*
X150036354Y-112961472D01*
X150108828Y-112907056D01*
X150305771Y-112759187D01*
X150578983Y-112503521D01*
X150822985Y-112219842D01*
X150844737Y-112188192D01*
X151032992Y-111914280D01*
X151032997Y-111914273D01*
X151034922Y-111911471D01*
X151036534Y-111908477D01*
X151036539Y-111908469D01*
X151210694Y-111585027D01*
X151212316Y-111582015D01*
X151353091Y-111235327D01*
X151455601Y-110875463D01*
X151518647Y-110506634D01*
X151520850Y-110470624D01*
X151541380Y-110134948D01*
X151541490Y-110133152D01*
X151541574Y-110109000D01*
X151521339Y-109735368D01*
X151460870Y-109366107D01*
X151360875Y-109005537D01*
X151357627Y-108997373D01*
X151223783Y-108661039D01*
X151223779Y-108661031D01*
X151222523Y-108657874D01*
X151047434Y-108327188D01*
X151045534Y-108324382D01*
X151045530Y-108324375D01*
X150839561Y-108020162D01*
X150837654Y-108017345D01*
X150595639Y-107731970D01*
X150324219Y-107474402D01*
X150321512Y-107472340D01*
X150321504Y-107472333D01*
X150029281Y-107249720D01*
X150026569Y-107247654D01*
X149706172Y-107054377D01*
X149703082Y-107052943D01*
X149703077Y-107052940D01*
X149369871Y-106898272D01*
X149369869Y-106898271D01*
X149366775Y-106896835D01*
X149363540Y-106895740D01*
X149363535Y-106895738D01*
X149015583Y-106777963D01*
X149012348Y-106776868D01*
X148647038Y-106695881D01*
X148514294Y-106681226D01*
X148278500Y-106655193D01*
X148278495Y-106655193D01*
X148275119Y-106654820D01*
X148271720Y-106654814D01*
X148271719Y-106654814D01*
X148094987Y-106654506D01*
X147900940Y-106654167D01*
X147762079Y-106669007D01*
X147532263Y-106693567D01*
X147532257Y-106693568D01*
X147528879Y-106693929D01*
X147163289Y-106773641D01*
X146808446Y-106892369D01*
X146468501Y-107048727D01*
X146465567Y-107050483D01*
X146465565Y-107050484D01*
X146456110Y-107056143D01*
X146147431Y-107240883D01*
X145848991Y-107466591D01*
X145846509Y-107468930D01*
X145846503Y-107468935D01*
X145840702Y-107474402D01*
X145576674Y-107723210D01*
X145333664Y-108007738D01*
X145331736Y-108010565D01*
X145331734Y-108010567D01*
X145327111Y-108017345D01*
X145122804Y-108316847D01*
X144946561Y-108646921D01*
X144945288Y-108650089D01*
X144945287Y-108650090D01*
X144943368Y-108654865D01*
X144806997Y-108994098D01*
X144705744Y-109354317D01*
X144643986Y-109723365D01*
X144622447Y-110096924D01*
X58576920Y-110096924D01*
X58557339Y-109735368D01*
X58496870Y-109366107D01*
X58396875Y-109005537D01*
X58393627Y-108997373D01*
X58259783Y-108661039D01*
X58259779Y-108661031D01*
X58258523Y-108657874D01*
X58083434Y-108327188D01*
X58081534Y-108324382D01*
X58081530Y-108324375D01*
X57875561Y-108020162D01*
X57873654Y-108017345D01*
X57631639Y-107731970D01*
X57360219Y-107474402D01*
X57357512Y-107472340D01*
X57357504Y-107472333D01*
X57065281Y-107249720D01*
X57062569Y-107247654D01*
X56742172Y-107054377D01*
X56739082Y-107052943D01*
X56739077Y-107052940D01*
X56405871Y-106898272D01*
X56405869Y-106898271D01*
X56402775Y-106896835D01*
X56399540Y-106895740D01*
X56399535Y-106895738D01*
X56051583Y-106777963D01*
X56048348Y-106776868D01*
X55683038Y-106695881D01*
X55550294Y-106681226D01*
X55314500Y-106655193D01*
X55314495Y-106655193D01*
X55311119Y-106654820D01*
X55307720Y-106654814D01*
X55307719Y-106654814D01*
X55130987Y-106654506D01*
X54936940Y-106654167D01*
X54798079Y-106669007D01*
X54568263Y-106693567D01*
X54568257Y-106693568D01*
X54564879Y-106693929D01*
X54199289Y-106773641D01*
X53844446Y-106892369D01*
X53504501Y-107048727D01*
X53501567Y-107050483D01*
X53501565Y-107050484D01*
X53492110Y-107056143D01*
X53183431Y-107240883D01*
X52884991Y-107466591D01*
X52882509Y-107468930D01*
X52882503Y-107468935D01*
X52876702Y-107474402D01*
X52612674Y-107723210D01*
X52369664Y-108007738D01*
X52367736Y-108010565D01*
X52367734Y-108010567D01*
X52363111Y-108017345D01*
X52158804Y-108316847D01*
X51982561Y-108646921D01*
X51981288Y-108650089D01*
X51981287Y-108650090D01*
X51979368Y-108654865D01*
X51842997Y-108994098D01*
X51741744Y-109354317D01*
X51679986Y-109723365D01*
X51658447Y-110096924D01*
X51054500Y-110096924D01*
X51054500Y-95455669D01*
X91152001Y-95455669D01*
X91152371Y-95462490D01*
X91157895Y-95513352D01*
X91161521Y-95528604D01*
X91206676Y-95649054D01*
X91215214Y-95664649D01*
X91291715Y-95766724D01*
X91304276Y-95779285D01*
X91406351Y-95855786D01*
X91421946Y-95864324D01*
X91542394Y-95909478D01*
X91557649Y-95913105D01*
X91608514Y-95918631D01*
X91615328Y-95919000D01*
X92437885Y-95919000D01*
X92453124Y-95914525D01*
X92454329Y-95913135D01*
X92456000Y-95905452D01*
X92456000Y-95900884D01*
X92964000Y-95900884D01*
X92968475Y-95916123D01*
X92969865Y-95917328D01*
X92977548Y-95918999D01*
X93804669Y-95918999D01*
X93811490Y-95918629D01*
X93862352Y-95913105D01*
X93877604Y-95909479D01*
X93998054Y-95864324D01*
X94013649Y-95855786D01*
X94115724Y-95779285D01*
X94128285Y-95766724D01*
X94204786Y-95664649D01*
X94213324Y-95649054D01*
X94258478Y-95528606D01*
X94262106Y-95513351D01*
X94264494Y-95491363D01*
X94291736Y-95425801D01*
X94350098Y-95385374D01*
X94421052Y-95382918D01*
X94462028Y-95401757D01*
X94535340Y-95453091D01*
X94595258Y-95495046D01*
X94600240Y-95497369D01*
X94600245Y-95497372D01*
X94797148Y-95589189D01*
X94802130Y-95591512D01*
X94807438Y-95592934D01*
X94807440Y-95592935D01*
X95016882Y-95649054D01*
X95022611Y-95650589D01*
X95250000Y-95670483D01*
X95477389Y-95650589D01*
X95483118Y-95649054D01*
X95692560Y-95592935D01*
X95692562Y-95592934D01*
X95697870Y-95591512D01*
X95702852Y-95589189D01*
X95899755Y-95497372D01*
X95899760Y-95497369D01*
X95904742Y-95495046D01*
X96037971Y-95401757D01*
X96087208Y-95367281D01*
X96087210Y-95367279D01*
X96091719Y-95364122D01*
X96253122Y-95202719D01*
X96384046Y-95015741D01*
X96386369Y-95010759D01*
X96386372Y-95010754D01*
X96405805Y-94969079D01*
X96452723Y-94915794D01*
X96521000Y-94896333D01*
X96588960Y-94916875D01*
X96634195Y-94969079D01*
X96653628Y-95010754D01*
X96653631Y-95010759D01*
X96655954Y-95015741D01*
X96786878Y-95202719D01*
X96948281Y-95364122D01*
X96952790Y-95367279D01*
X96952792Y-95367281D01*
X97002029Y-95401757D01*
X97135258Y-95495046D01*
X97140240Y-95497369D01*
X97140245Y-95497372D01*
X97337148Y-95589189D01*
X97342130Y-95591512D01*
X97347438Y-95592934D01*
X97347440Y-95592935D01*
X97556882Y-95649054D01*
X97562611Y-95650589D01*
X97790000Y-95670483D01*
X98017389Y-95650589D01*
X98023118Y-95649054D01*
X98232560Y-95592935D01*
X98232562Y-95592934D01*
X98237870Y-95591512D01*
X98242852Y-95589189D01*
X98439755Y-95497372D01*
X98439760Y-95497369D01*
X98444742Y-95495046D01*
X98577971Y-95401757D01*
X98627208Y-95367281D01*
X98627210Y-95367279D01*
X98631719Y-95364122D01*
X98793122Y-95202719D01*
X98924046Y-95015741D01*
X98926369Y-95010759D01*
X98926372Y-95010754D01*
X98945805Y-94969079D01*
X98992723Y-94915794D01*
X99061000Y-94896333D01*
X99128960Y-94916875D01*
X99174195Y-94969079D01*
X99193628Y-95010754D01*
X99193631Y-95010759D01*
X99195954Y-95015741D01*
X99326878Y-95202719D01*
X99488281Y-95364122D01*
X99492790Y-95367279D01*
X99492792Y-95367281D01*
X99542029Y-95401757D01*
X99675258Y-95495046D01*
X99680240Y-95497369D01*
X99680245Y-95497372D01*
X99877148Y-95589189D01*
X99882130Y-95591512D01*
X99887438Y-95592934D01*
X99887440Y-95592935D01*
X100096882Y-95649054D01*
X100102611Y-95650589D01*
X100330000Y-95670483D01*
X100557389Y-95650589D01*
X100563118Y-95649054D01*
X100772560Y-95592935D01*
X100772562Y-95592934D01*
X100777870Y-95591512D01*
X100782852Y-95589189D01*
X100979755Y-95497372D01*
X100979760Y-95497369D01*
X100984742Y-95495046D01*
X101117971Y-95401757D01*
X101167208Y-95367281D01*
X101167210Y-95367279D01*
X101171719Y-95364122D01*
X101333122Y-95202719D01*
X101464046Y-95015741D01*
X101466369Y-95010759D01*
X101466372Y-95010754D01*
X101485805Y-94969079D01*
X101532723Y-94915794D01*
X101601000Y-94896333D01*
X101668960Y-94916875D01*
X101714195Y-94969079D01*
X101733628Y-95010754D01*
X101733631Y-95010759D01*
X101735954Y-95015741D01*
X101866878Y-95202719D01*
X102028281Y-95364122D01*
X102032790Y-95367279D01*
X102032792Y-95367281D01*
X102082029Y-95401757D01*
X102215258Y-95495046D01*
X102220240Y-95497369D01*
X102220245Y-95497372D01*
X102417148Y-95589189D01*
X102422130Y-95591512D01*
X102427438Y-95592934D01*
X102427440Y-95592935D01*
X102636882Y-95649054D01*
X102642611Y-95650589D01*
X102870000Y-95670483D01*
X103097389Y-95650589D01*
X103103118Y-95649054D01*
X103312560Y-95592935D01*
X103312562Y-95592934D01*
X103317870Y-95591512D01*
X103322852Y-95589189D01*
X103519755Y-95497372D01*
X103519760Y-95497369D01*
X103524742Y-95495046D01*
X103657971Y-95401757D01*
X103707208Y-95367281D01*
X103707210Y-95367279D01*
X103711719Y-95364122D01*
X103873122Y-95202719D01*
X104004046Y-95015741D01*
X104006369Y-95010759D01*
X104006372Y-95010754D01*
X104025805Y-94969079D01*
X104072723Y-94915794D01*
X104141000Y-94896333D01*
X104208960Y-94916875D01*
X104254195Y-94969079D01*
X104273628Y-95010754D01*
X104273631Y-95010759D01*
X104275954Y-95015741D01*
X104406878Y-95202719D01*
X104568281Y-95364122D01*
X104572790Y-95367279D01*
X104572792Y-95367281D01*
X104622029Y-95401757D01*
X104755258Y-95495046D01*
X104760240Y-95497369D01*
X104760245Y-95497372D01*
X104957148Y-95589189D01*
X104962130Y-95591512D01*
X104967438Y-95592934D01*
X104967440Y-95592935D01*
X105176882Y-95649054D01*
X105182611Y-95650589D01*
X105410000Y-95670483D01*
X105637389Y-95650589D01*
X105643118Y-95649054D01*
X105852560Y-95592935D01*
X105852562Y-95592934D01*
X105857870Y-95591512D01*
X105862852Y-95589189D01*
X106059755Y-95497372D01*
X106059760Y-95497369D01*
X106064742Y-95495046D01*
X106197971Y-95401757D01*
X106247208Y-95367281D01*
X106247210Y-95367279D01*
X106251719Y-95364122D01*
X106413122Y-95202719D01*
X106544046Y-95015741D01*
X106546369Y-95010759D01*
X106546372Y-95010754D01*
X106565805Y-94969079D01*
X106612723Y-94915794D01*
X106681000Y-94896333D01*
X106748960Y-94916875D01*
X106794195Y-94969079D01*
X106813628Y-95010754D01*
X106813631Y-95010759D01*
X106815954Y-95015741D01*
X106946878Y-95202719D01*
X107108281Y-95364122D01*
X107112790Y-95367279D01*
X107112792Y-95367281D01*
X107162029Y-95401757D01*
X107295258Y-95495046D01*
X107300240Y-95497369D01*
X107300245Y-95497372D01*
X107497148Y-95589189D01*
X107502130Y-95591512D01*
X107507438Y-95592934D01*
X107507440Y-95592935D01*
X107716882Y-95649054D01*
X107722611Y-95650589D01*
X107950000Y-95670483D01*
X108177389Y-95650589D01*
X108183118Y-95649054D01*
X108392560Y-95592935D01*
X108392562Y-95592934D01*
X108397870Y-95591512D01*
X108402852Y-95589189D01*
X108599755Y-95497372D01*
X108599760Y-95497369D01*
X108604742Y-95495046D01*
X108737971Y-95401757D01*
X108787208Y-95367281D01*
X108787210Y-95367279D01*
X108791719Y-95364122D01*
X108953122Y-95202719D01*
X109084046Y-95015741D01*
X109086369Y-95010759D01*
X109086372Y-95010754D01*
X109105805Y-94969079D01*
X109152723Y-94915794D01*
X109221000Y-94896333D01*
X109288960Y-94916875D01*
X109334195Y-94969079D01*
X109353628Y-95010754D01*
X109353631Y-95010759D01*
X109355954Y-95015741D01*
X109486878Y-95202719D01*
X109648281Y-95364122D01*
X109652790Y-95367279D01*
X109652792Y-95367281D01*
X109702029Y-95401757D01*
X109835258Y-95495046D01*
X109840240Y-95497369D01*
X109840245Y-95497372D01*
X110037148Y-95589189D01*
X110042130Y-95591512D01*
X110047438Y-95592934D01*
X110047440Y-95592935D01*
X110256882Y-95649054D01*
X110262611Y-95650589D01*
X110490000Y-95670483D01*
X110717389Y-95650589D01*
X110723118Y-95649054D01*
X110932560Y-95592935D01*
X110932562Y-95592934D01*
X110937870Y-95591512D01*
X110942852Y-95589189D01*
X111139755Y-95497372D01*
X111139760Y-95497369D01*
X111144742Y-95495046D01*
X111277971Y-95401757D01*
X111327208Y-95367281D01*
X111327210Y-95367279D01*
X111331719Y-95364122D01*
X111493122Y-95202719D01*
X111624046Y-95015741D01*
X111626369Y-95010759D01*
X111626372Y-95010754D01*
X111718189Y-94813852D01*
X111718190Y-94813850D01*
X111720512Y-94808870D01*
X111779589Y-94588389D01*
X111799483Y-94361000D01*
X111779589Y-94133611D01*
X111720512Y-93913130D01*
X111679727Y-93825667D01*
X111626372Y-93711246D01*
X111626369Y-93711241D01*
X111624046Y-93706259D01*
X111493122Y-93519281D01*
X111331719Y-93357878D01*
X111144742Y-93226954D01*
X111139760Y-93224631D01*
X111139755Y-93224628D01*
X110942852Y-93132811D01*
X110942851Y-93132810D01*
X110937870Y-93130488D01*
X110932562Y-93129066D01*
X110932560Y-93129065D01*
X110722704Y-93072835D01*
X110722703Y-93072835D01*
X110717389Y-93071411D01*
X110490000Y-93051517D01*
X110262611Y-93071411D01*
X110257297Y-93072835D01*
X110257296Y-93072835D01*
X110047440Y-93129065D01*
X110047438Y-93129066D01*
X110042130Y-93130488D01*
X110037150Y-93132810D01*
X110037148Y-93132811D01*
X109840246Y-93224628D01*
X109840241Y-93224631D01*
X109835259Y-93226954D01*
X109730572Y-93300257D01*
X109702028Y-93320244D01*
X109648281Y-93357878D01*
X109486878Y-93519281D01*
X109355954Y-93706259D01*
X109353631Y-93711241D01*
X109353628Y-93711246D01*
X109334195Y-93752921D01*
X109287277Y-93806206D01*
X109219000Y-93825667D01*
X109151040Y-93805125D01*
X109105805Y-93752921D01*
X109086372Y-93711246D01*
X109086369Y-93711241D01*
X109084046Y-93706259D01*
X108953122Y-93519281D01*
X108791719Y-93357878D01*
X108604742Y-93226954D01*
X108599760Y-93224631D01*
X108599755Y-93224628D01*
X108402852Y-93132811D01*
X108402851Y-93132810D01*
X108397870Y-93130488D01*
X108392562Y-93129066D01*
X108392560Y-93129065D01*
X108182704Y-93072835D01*
X108182703Y-93072835D01*
X108177389Y-93071411D01*
X107950000Y-93051517D01*
X107722611Y-93071411D01*
X107717297Y-93072835D01*
X107717296Y-93072835D01*
X107507440Y-93129065D01*
X107507438Y-93129066D01*
X107502130Y-93130488D01*
X107497150Y-93132810D01*
X107497148Y-93132811D01*
X107300246Y-93224628D01*
X107300241Y-93224631D01*
X107295259Y-93226954D01*
X107190572Y-93300257D01*
X107162028Y-93320244D01*
X107108281Y-93357878D01*
X106946878Y-93519281D01*
X106815954Y-93706259D01*
X106813631Y-93711241D01*
X106813628Y-93711246D01*
X106794195Y-93752921D01*
X106747277Y-93806206D01*
X106679000Y-93825667D01*
X106611040Y-93805125D01*
X106565805Y-93752921D01*
X106546372Y-93711246D01*
X106546369Y-93711241D01*
X106544046Y-93706259D01*
X106413122Y-93519281D01*
X106251719Y-93357878D01*
X106064742Y-93226954D01*
X106059760Y-93224631D01*
X106059755Y-93224628D01*
X105862852Y-93132811D01*
X105862851Y-93132810D01*
X105857870Y-93130488D01*
X105852562Y-93129066D01*
X105852560Y-93129065D01*
X105642704Y-93072835D01*
X105642703Y-93072835D01*
X105637389Y-93071411D01*
X105410000Y-93051517D01*
X105182611Y-93071411D01*
X105177297Y-93072835D01*
X105177296Y-93072835D01*
X104967440Y-93129065D01*
X104967438Y-93129066D01*
X104962130Y-93130488D01*
X104957150Y-93132810D01*
X104957148Y-93132811D01*
X104760246Y-93224628D01*
X104760241Y-93224631D01*
X104755259Y-93226954D01*
X104650572Y-93300257D01*
X104622028Y-93320244D01*
X104568281Y-93357878D01*
X104406878Y-93519281D01*
X104275954Y-93706259D01*
X104273631Y-93711241D01*
X104273628Y-93711246D01*
X104254195Y-93752921D01*
X104207277Y-93806206D01*
X104139000Y-93825667D01*
X104071040Y-93805125D01*
X104025805Y-93752921D01*
X104006372Y-93711246D01*
X104006369Y-93711241D01*
X104004046Y-93706259D01*
X103873122Y-93519281D01*
X103711719Y-93357878D01*
X103524742Y-93226954D01*
X103519760Y-93224631D01*
X103519755Y-93224628D01*
X103322852Y-93132811D01*
X103322851Y-93132810D01*
X103317870Y-93130488D01*
X103312562Y-93129066D01*
X103312560Y-93129065D01*
X103102704Y-93072835D01*
X103102703Y-93072835D01*
X103097389Y-93071411D01*
X102870000Y-93051517D01*
X102642611Y-93071411D01*
X102637297Y-93072835D01*
X102637296Y-93072835D01*
X102427440Y-93129065D01*
X102427438Y-93129066D01*
X102422130Y-93130488D01*
X102417150Y-93132810D01*
X102417148Y-93132811D01*
X102220246Y-93224628D01*
X102220241Y-93224631D01*
X102215259Y-93226954D01*
X102110572Y-93300257D01*
X102082028Y-93320244D01*
X102028281Y-93357878D01*
X101866878Y-93519281D01*
X101735954Y-93706259D01*
X101733631Y-93711241D01*
X101733628Y-93711246D01*
X101714195Y-93752921D01*
X101667277Y-93806206D01*
X101599000Y-93825667D01*
X101531040Y-93805125D01*
X101485805Y-93752921D01*
X101466372Y-93711246D01*
X101466369Y-93711241D01*
X101464046Y-93706259D01*
X101333122Y-93519281D01*
X101171719Y-93357878D01*
X100984742Y-93226954D01*
X100979760Y-93224631D01*
X100979755Y-93224628D01*
X100782852Y-93132811D01*
X100782851Y-93132810D01*
X100777870Y-93130488D01*
X100772562Y-93129066D01*
X100772560Y-93129065D01*
X100562704Y-93072835D01*
X100562703Y-93072835D01*
X100557389Y-93071411D01*
X100330000Y-93051517D01*
X100102611Y-93071411D01*
X100097297Y-93072835D01*
X100097296Y-93072835D01*
X99887440Y-93129065D01*
X99887438Y-93129066D01*
X99882130Y-93130488D01*
X99877150Y-93132810D01*
X99877148Y-93132811D01*
X99680246Y-93224628D01*
X99680241Y-93224631D01*
X99675259Y-93226954D01*
X99570572Y-93300257D01*
X99542028Y-93320244D01*
X99488281Y-93357878D01*
X99326878Y-93519281D01*
X99195954Y-93706259D01*
X99193631Y-93711241D01*
X99193628Y-93711246D01*
X99174195Y-93752921D01*
X99127277Y-93806206D01*
X99059000Y-93825667D01*
X98991040Y-93805125D01*
X98945805Y-93752921D01*
X98926372Y-93711246D01*
X98926369Y-93711241D01*
X98924046Y-93706259D01*
X98793122Y-93519281D01*
X98631719Y-93357878D01*
X98444742Y-93226954D01*
X98439760Y-93224631D01*
X98439755Y-93224628D01*
X98242852Y-93132811D01*
X98242851Y-93132810D01*
X98237870Y-93130488D01*
X98232562Y-93129066D01*
X98232560Y-93129065D01*
X98022704Y-93072835D01*
X98022703Y-93072835D01*
X98017389Y-93071411D01*
X97790000Y-93051517D01*
X97562611Y-93071411D01*
X97557297Y-93072835D01*
X97557296Y-93072835D01*
X97347440Y-93129065D01*
X97347438Y-93129066D01*
X97342130Y-93130488D01*
X97337150Y-93132810D01*
X97337148Y-93132811D01*
X97140246Y-93224628D01*
X97140241Y-93224631D01*
X97135259Y-93226954D01*
X97030572Y-93300257D01*
X97002028Y-93320244D01*
X96948281Y-93357878D01*
X96786878Y-93519281D01*
X96655954Y-93706259D01*
X96653631Y-93711241D01*
X96653628Y-93711246D01*
X96634195Y-93752921D01*
X96587277Y-93806206D01*
X96519000Y-93825667D01*
X96451040Y-93805125D01*
X96405805Y-93752921D01*
X96386372Y-93711246D01*
X96386369Y-93711241D01*
X96384046Y-93706259D01*
X96253122Y-93519281D01*
X96091719Y-93357878D01*
X95904742Y-93226954D01*
X95899760Y-93224631D01*
X95899755Y-93224628D01*
X95702852Y-93132811D01*
X95702851Y-93132810D01*
X95697870Y-93130488D01*
X95692562Y-93129066D01*
X95692560Y-93129065D01*
X95482704Y-93072835D01*
X95482703Y-93072835D01*
X95477389Y-93071411D01*
X95250000Y-93051517D01*
X95022611Y-93071411D01*
X95017297Y-93072835D01*
X95017296Y-93072835D01*
X94807440Y-93129065D01*
X94807438Y-93129066D01*
X94802130Y-93130488D01*
X94797150Y-93132810D01*
X94797148Y-93132811D01*
X94600246Y-93224628D01*
X94600241Y-93224631D01*
X94595259Y-93226954D01*
X94590752Y-93230110D01*
X94590750Y-93230111D01*
X94462027Y-93320244D01*
X94394753Y-93342932D01*
X94325892Y-93325647D01*
X94277308Y-93273877D01*
X94264493Y-93230635D01*
X94262105Y-93208648D01*
X94258479Y-93193396D01*
X94213324Y-93072946D01*
X94204786Y-93057351D01*
X94128285Y-92955276D01*
X94115724Y-92942715D01*
X94013649Y-92866214D01*
X93998054Y-92857676D01*
X93877606Y-92812522D01*
X93862351Y-92808895D01*
X93811486Y-92803369D01*
X93804672Y-92803000D01*
X92982115Y-92803000D01*
X92966876Y-92807475D01*
X92965671Y-92808865D01*
X92964000Y-92816548D01*
X92964000Y-95900884D01*
X92456000Y-95900884D01*
X92456000Y-94633115D01*
X92451525Y-94617876D01*
X92450135Y-94616671D01*
X92442452Y-94615000D01*
X91170116Y-94615000D01*
X91154877Y-94619475D01*
X91153672Y-94620865D01*
X91152001Y-94628548D01*
X91152001Y-95455669D01*
X51054500Y-95455669D01*
X51054500Y-94088885D01*
X91152000Y-94088885D01*
X91156475Y-94104124D01*
X91157865Y-94105329D01*
X91165548Y-94107000D01*
X92437885Y-94107000D01*
X92453124Y-94102525D01*
X92454329Y-94101135D01*
X92456000Y-94093452D01*
X92456000Y-92821116D01*
X92451525Y-92805877D01*
X92450135Y-92804672D01*
X92442452Y-92803001D01*
X91615331Y-92803001D01*
X91608510Y-92803371D01*
X91557648Y-92808895D01*
X91542396Y-92812521D01*
X91421946Y-92857676D01*
X91406351Y-92866214D01*
X91304276Y-92942715D01*
X91291715Y-92955276D01*
X91215214Y-93057351D01*
X91206676Y-93072946D01*
X91161522Y-93193394D01*
X91157895Y-93208649D01*
X91152369Y-93259514D01*
X91152000Y-93266328D01*
X91152000Y-94088885D01*
X51054500Y-94088885D01*
X51054500Y-87249000D01*
X121228874Y-87249000D01*
X121248096Y-87395007D01*
X121304453Y-87531063D01*
X121385464Y-87636638D01*
X121411063Y-87702856D01*
X121411500Y-87713340D01*
X121411500Y-88337865D01*
X121408914Y-88362164D01*
X121408846Y-88363602D01*
X121406655Y-88373780D01*
X121407879Y-88384120D01*
X121410627Y-88407342D01*
X121410979Y-88413320D01*
X121411072Y-88413312D01*
X121411500Y-88418490D01*
X121411500Y-88423692D01*
X121412354Y-88428822D01*
X121414686Y-88442832D01*
X121415522Y-88448704D01*
X121421582Y-88499907D01*
X121425567Y-88508206D01*
X121427078Y-88517283D01*
X121451558Y-88562651D01*
X121454239Y-88567914D01*
X121473127Y-88607250D01*
X121473130Y-88607254D01*
X121476560Y-88614398D01*
X121480170Y-88618692D01*
X121482102Y-88620624D01*
X121483889Y-88622573D01*
X121483918Y-88622626D01*
X121483788Y-88622745D01*
X121484289Y-88623313D01*
X121487388Y-88629057D01*
X121495033Y-88636124D01*
X121527209Y-88665867D01*
X121530775Y-88669297D01*
X123262954Y-90401476D01*
X123278318Y-90420499D01*
X123279282Y-90421558D01*
X123284929Y-90430304D01*
X123293108Y-90436752D01*
X123293110Y-90436754D01*
X123311477Y-90451234D01*
X123315950Y-90455209D01*
X123316011Y-90455137D01*
X123319968Y-90458490D01*
X123323649Y-90462171D01*
X123327881Y-90465195D01*
X123339439Y-90473455D01*
X123344185Y-90477018D01*
X123384670Y-90508934D01*
X123393355Y-90511984D01*
X123400843Y-90517335D01*
X123450266Y-90532115D01*
X123455840Y-90533927D01*
X123504502Y-90551016D01*
X123510091Y-90551500D01*
X123512802Y-90551500D01*
X123515469Y-90551615D01*
X123515532Y-90551634D01*
X123515525Y-90551808D01*
X123516271Y-90551855D01*
X123522524Y-90553725D01*
X123576688Y-90551597D01*
X123581634Y-90551500D01*
X125041639Y-90551500D01*
X125109760Y-90571502D01*
X125156253Y-90625158D01*
X125166357Y-90695432D01*
X125136863Y-90760012D01*
X125110724Y-90782872D01*
X124991767Y-90860864D01*
X124871525Y-90987795D01*
X124867850Y-90994122D01*
X124867847Y-90994126D01*
X124826114Y-91065976D01*
X124783708Y-91138983D01*
X124733027Y-91306318D01*
X124722201Y-91480824D01*
X124751810Y-91653141D01*
X124820267Y-91814024D01*
X124923898Y-91954843D01*
X125057146Y-92068045D01*
X125212862Y-92147558D01*
X125219967Y-92149297D01*
X125219971Y-92149298D01*
X125301084Y-92169146D01*
X125382693Y-92189115D01*
X125388295Y-92189463D01*
X125388298Y-92189463D01*
X125391795Y-92189680D01*
X125391805Y-92189680D01*
X125393734Y-92189800D01*
X125519779Y-92189800D01*
X125611182Y-92179144D01*
X125642393Y-92175505D01*
X125642395Y-92175505D01*
X125649665Y-92174657D01*
X125656543Y-92172161D01*
X125656545Y-92172160D01*
X125807136Y-92117498D01*
X125814015Y-92115001D01*
X125960233Y-92019136D01*
X126080475Y-91892205D01*
X126084150Y-91885878D01*
X126084153Y-91885874D01*
X126164615Y-91747347D01*
X126168292Y-91741017D01*
X126218973Y-91573682D01*
X126229799Y-91399176D01*
X126200190Y-91226859D01*
X126131733Y-91065976D01*
X126028102Y-90925157D01*
X125894854Y-90811955D01*
X125851304Y-90789717D01*
X125799731Y-90740923D01*
X125782725Y-90671993D01*
X125805685Y-90604812D01*
X125861322Y-90560708D01*
X125908605Y-90551500D01*
X126789660Y-90551500D01*
X126857781Y-90571502D01*
X126866350Y-90577527D01*
X126971937Y-90658547D01*
X127107993Y-90714904D01*
X127116177Y-90715981D01*
X127116179Y-90715982D01*
X127245812Y-90733048D01*
X127254000Y-90734126D01*
X127262188Y-90733048D01*
X127391821Y-90715982D01*
X127391823Y-90715981D01*
X127400007Y-90714904D01*
X127536063Y-90658547D01*
X127652897Y-90568897D01*
X127742547Y-90452063D01*
X127798904Y-90316007D01*
X127818126Y-90170000D01*
X127798904Y-90023993D01*
X127742547Y-89887937D01*
X127652897Y-89771103D01*
X127536063Y-89681453D01*
X127528441Y-89678296D01*
X127528436Y-89678293D01*
X127463532Y-89651409D01*
X127408251Y-89606860D01*
X127385830Y-89539497D01*
X127403388Y-89470706D01*
X127455351Y-89422327D01*
X127463532Y-89418591D01*
X127528436Y-89391707D01*
X127528441Y-89391704D01*
X127536063Y-89388547D01*
X127652897Y-89298897D01*
X127742547Y-89182063D01*
X127798904Y-89046007D01*
X127818126Y-88900000D01*
X127798904Y-88753993D01*
X127742547Y-88617937D01*
X127652897Y-88501103D01*
X127536063Y-88411453D01*
X127400007Y-88355096D01*
X127391823Y-88354019D01*
X127391821Y-88354018D01*
X127262188Y-88336952D01*
X127254000Y-88335874D01*
X127245812Y-88336952D01*
X127116179Y-88354018D01*
X127116177Y-88354019D01*
X127107993Y-88355096D01*
X126971937Y-88411453D01*
X126866362Y-88492464D01*
X126800144Y-88518063D01*
X126789660Y-88518500D01*
X123527213Y-88518500D01*
X123459092Y-88498498D01*
X123438118Y-88481595D01*
X122973405Y-88016882D01*
X122939379Y-87954570D01*
X122936500Y-87927787D01*
X122936500Y-87049140D01*
X122939087Y-87024824D01*
X122939154Y-87023401D01*
X122941346Y-87013220D01*
X122937373Y-86979652D01*
X122937021Y-86973678D01*
X122936928Y-86973686D01*
X122936500Y-86968508D01*
X122936500Y-86963308D01*
X122935646Y-86958176D01*
X122933314Y-86944165D01*
X122932477Y-86938286D01*
X122927642Y-86897433D01*
X122927642Y-86897432D01*
X122926418Y-86887093D01*
X122922433Y-86878794D01*
X122920922Y-86869717D01*
X122896442Y-86824349D01*
X122893761Y-86819086D01*
X122874869Y-86779743D01*
X122871440Y-86772602D01*
X122867831Y-86768308D01*
X122865905Y-86766382D01*
X122864109Y-86764424D01*
X122864079Y-86764367D01*
X122864208Y-86764249D01*
X122863710Y-86763684D01*
X122860612Y-86757943D01*
X122834737Y-86734024D01*
X122820805Y-86721146D01*
X122817239Y-86717716D01*
X122500347Y-86400824D01*
X123706201Y-86400824D01*
X123735810Y-86573141D01*
X123738676Y-86579875D01*
X123738676Y-86579877D01*
X123798080Y-86719483D01*
X123804267Y-86734024D01*
X123907898Y-86874843D01*
X124041146Y-86988045D01*
X124090448Y-87013220D01*
X124160793Y-87049140D01*
X124196862Y-87067558D01*
X124203967Y-87069297D01*
X124203971Y-87069298D01*
X124285084Y-87089146D01*
X124366693Y-87109115D01*
X124372295Y-87109463D01*
X124372298Y-87109463D01*
X124375795Y-87109680D01*
X124375805Y-87109680D01*
X124377734Y-87109800D01*
X124503779Y-87109800D01*
X124595182Y-87099144D01*
X124626393Y-87095505D01*
X124626395Y-87095505D01*
X124633665Y-87094657D01*
X124640543Y-87092161D01*
X124640545Y-87092160D01*
X124791136Y-87037498D01*
X124798015Y-87035001D01*
X124944233Y-86939136D01*
X125064475Y-86812205D01*
X125068150Y-86805878D01*
X125068153Y-86805874D01*
X125148615Y-86667347D01*
X125152292Y-86661017D01*
X125158344Y-86641037D01*
X125200851Y-86500688D01*
X125202973Y-86493682D01*
X125208734Y-86400824D01*
X125738201Y-86400824D01*
X125767810Y-86573141D01*
X125770676Y-86579875D01*
X125770676Y-86579877D01*
X125830080Y-86719483D01*
X125836267Y-86734024D01*
X125939898Y-86874843D01*
X126073146Y-86988045D01*
X126122448Y-87013220D01*
X126192793Y-87049140D01*
X126228862Y-87067558D01*
X126235967Y-87069297D01*
X126235971Y-87069298D01*
X126317084Y-87089146D01*
X126398693Y-87109115D01*
X126404295Y-87109463D01*
X126404298Y-87109463D01*
X126407795Y-87109680D01*
X126407805Y-87109680D01*
X126409734Y-87109800D01*
X126535779Y-87109800D01*
X126627182Y-87099144D01*
X126658393Y-87095505D01*
X126658395Y-87095505D01*
X126665665Y-87094657D01*
X126672543Y-87092161D01*
X126672545Y-87092160D01*
X126823136Y-87037498D01*
X126830015Y-87035001D01*
X126976233Y-86939136D01*
X127096475Y-86812205D01*
X127100150Y-86805878D01*
X127100153Y-86805874D01*
X127180615Y-86667347D01*
X127184292Y-86661017D01*
X127190344Y-86641037D01*
X127232851Y-86500688D01*
X127234973Y-86493682D01*
X127245799Y-86319176D01*
X127216190Y-86146859D01*
X127147733Y-85985976D01*
X127044102Y-85845157D01*
X126910854Y-85731955D01*
X126755138Y-85652442D01*
X126748033Y-85650703D01*
X126748029Y-85650702D01*
X126654597Y-85627840D01*
X126585307Y-85610885D01*
X126579705Y-85610537D01*
X126579702Y-85610537D01*
X126576205Y-85610320D01*
X126576195Y-85610320D01*
X126574266Y-85610200D01*
X126448221Y-85610200D01*
X126356818Y-85620856D01*
X126325607Y-85624495D01*
X126325605Y-85624495D01*
X126318335Y-85625343D01*
X126311457Y-85627839D01*
X126311455Y-85627840D01*
X126195439Y-85669952D01*
X126153985Y-85684999D01*
X126007767Y-85780864D01*
X125887525Y-85907795D01*
X125883850Y-85914122D01*
X125883847Y-85914126D01*
X125842114Y-85985976D01*
X125799708Y-86058983D01*
X125797587Y-86065987D01*
X125797585Y-86065991D01*
X125788745Y-86095179D01*
X125749027Y-86226318D01*
X125738201Y-86400824D01*
X125208734Y-86400824D01*
X125213799Y-86319176D01*
X125184190Y-86146859D01*
X125115733Y-85985976D01*
X125012102Y-85845157D01*
X124878854Y-85731955D01*
X124723138Y-85652442D01*
X124716033Y-85650703D01*
X124716029Y-85650702D01*
X124622597Y-85627840D01*
X124553307Y-85610885D01*
X124547705Y-85610537D01*
X124547702Y-85610537D01*
X124544205Y-85610320D01*
X124544195Y-85610320D01*
X124542266Y-85610200D01*
X124416221Y-85610200D01*
X124324818Y-85620856D01*
X124293607Y-85624495D01*
X124293605Y-85624495D01*
X124286335Y-85625343D01*
X124279457Y-85627839D01*
X124279455Y-85627840D01*
X124163439Y-85669952D01*
X124121985Y-85684999D01*
X123975767Y-85780864D01*
X123855525Y-85907795D01*
X123851850Y-85914122D01*
X123851847Y-85914126D01*
X123810114Y-85985976D01*
X123767708Y-86058983D01*
X123765587Y-86065987D01*
X123765585Y-86065991D01*
X123756745Y-86095179D01*
X123717027Y-86226318D01*
X123706201Y-86400824D01*
X122500347Y-86400824D01*
X122391100Y-86291577D01*
X122357074Y-86229265D01*
X122355273Y-86218928D01*
X122338982Y-86095179D01*
X122338981Y-86095177D01*
X122337904Y-86086993D01*
X122281547Y-85950937D01*
X122191897Y-85834103D01*
X122075063Y-85744453D01*
X121939007Y-85688096D01*
X121930823Y-85687019D01*
X121930821Y-85687018D01*
X121801188Y-85669952D01*
X121793000Y-85668874D01*
X121784812Y-85669952D01*
X121655179Y-85687018D01*
X121655177Y-85687019D01*
X121646993Y-85688096D01*
X121510937Y-85744453D01*
X121394103Y-85834103D01*
X121304453Y-85950937D01*
X121248096Y-86086993D01*
X121247019Y-86095177D01*
X121247018Y-86095179D01*
X121239265Y-86154072D01*
X121228874Y-86233000D01*
X121229952Y-86241188D01*
X121241182Y-86326487D01*
X121248096Y-86379007D01*
X121304453Y-86515063D01*
X121394103Y-86631897D01*
X121406016Y-86641038D01*
X121447883Y-86698374D01*
X121452105Y-86769245D01*
X121417342Y-86831149D01*
X121406019Y-86840959D01*
X121394103Y-86850103D01*
X121304453Y-86966937D01*
X121248096Y-87102993D01*
X121228874Y-87249000D01*
X51054500Y-87249000D01*
X51054500Y-79756000D01*
X109925874Y-79756000D01*
X109945096Y-79902007D01*
X110001453Y-80038063D01*
X110091103Y-80154897D01*
X110207937Y-80244547D01*
X110343993Y-80300904D01*
X110352177Y-80301981D01*
X110352179Y-80301982D01*
X110481812Y-80319048D01*
X110490000Y-80320126D01*
X110498188Y-80319048D01*
X110627821Y-80301982D01*
X110627823Y-80301981D01*
X110636007Y-80300904D01*
X110772063Y-80244547D01*
X110888897Y-80154897D01*
X110978547Y-80038063D01*
X111034904Y-79902007D01*
X111052274Y-79770070D01*
X111080997Y-79705142D01*
X111088101Y-79697421D01*
X112372476Y-78413046D01*
X112391499Y-78397682D01*
X112392558Y-78396718D01*
X112401304Y-78391071D01*
X112407752Y-78382892D01*
X112407754Y-78382890D01*
X112422234Y-78364523D01*
X112426209Y-78360050D01*
X112426137Y-78359989D01*
X112429490Y-78356032D01*
X112433171Y-78352351D01*
X112444455Y-78336560D01*
X112448019Y-78331814D01*
X112473487Y-78299508D01*
X112479934Y-78291330D01*
X112482984Y-78282645D01*
X112488335Y-78275157D01*
X112503110Y-78225750D01*
X112504926Y-78220163D01*
X112522016Y-78171498D01*
X112522500Y-78165909D01*
X112522500Y-78163198D01*
X112522615Y-78160529D01*
X112522634Y-78160468D01*
X112522808Y-78160475D01*
X112522855Y-78159728D01*
X112524725Y-78153475D01*
X112522597Y-78099311D01*
X112522500Y-78094365D01*
X112522500Y-75492140D01*
X112525087Y-75467824D01*
X112525154Y-75466401D01*
X112527346Y-75456220D01*
X112523373Y-75422652D01*
X112523021Y-75416678D01*
X112522928Y-75416686D01*
X112522500Y-75411508D01*
X112522500Y-75406308D01*
X112521646Y-75401176D01*
X112519314Y-75387165D01*
X112518477Y-75381286D01*
X112513642Y-75340433D01*
X112513642Y-75340432D01*
X112512418Y-75330093D01*
X112508433Y-75321794D01*
X112506922Y-75312717D01*
X112482442Y-75267349D01*
X112479761Y-75262086D01*
X112460869Y-75222743D01*
X112457440Y-75215602D01*
X112453831Y-75211308D01*
X112451905Y-75209382D01*
X112450109Y-75207424D01*
X112450079Y-75207367D01*
X112450208Y-75207249D01*
X112449710Y-75206684D01*
X112446612Y-75200943D01*
X112406804Y-75164145D01*
X112403239Y-75160716D01*
X111966488Y-74723965D01*
X111932462Y-74661653D01*
X111930661Y-74651317D01*
X111924982Y-74608178D01*
X111924981Y-74608175D01*
X111923904Y-74599993D01*
X111867547Y-74463937D01*
X111777897Y-74347103D01*
X111661063Y-74257453D01*
X111525007Y-74201096D01*
X111516823Y-74200019D01*
X111516821Y-74200018D01*
X111387188Y-74182952D01*
X111379000Y-74181874D01*
X111370812Y-74182952D01*
X111241179Y-74200018D01*
X111241177Y-74200019D01*
X111232993Y-74201096D01*
X111096937Y-74257453D01*
X110980103Y-74347103D01*
X110890453Y-74463937D01*
X110834096Y-74599993D01*
X110814874Y-74746000D01*
X110834096Y-74892007D01*
X110890453Y-75028063D01*
X110980103Y-75144897D01*
X111096937Y-75234547D01*
X111232993Y-75290904D01*
X111241177Y-75291981D01*
X111241179Y-75291982D01*
X111329080Y-75303554D01*
X111357003Y-75307230D01*
X111370812Y-75309048D01*
X111379000Y-75310126D01*
X111400994Y-75307230D01*
X111471140Y-75318168D01*
X111506535Y-75343057D01*
X111722595Y-75559117D01*
X111756621Y-75621429D01*
X111759500Y-75648212D01*
X111759500Y-77894787D01*
X111739498Y-77962908D01*
X111722595Y-77983882D01*
X110548577Y-79157900D01*
X110486265Y-79191926D01*
X110475937Y-79193725D01*
X110405224Y-79203035D01*
X110352179Y-79210018D01*
X110352177Y-79210019D01*
X110343993Y-79211096D01*
X110207937Y-79267453D01*
X110091103Y-79357103D01*
X110001453Y-79473937D01*
X109945096Y-79609993D01*
X109944019Y-79618177D01*
X109944018Y-79618179D01*
X109928933Y-79732768D01*
X109925874Y-79756000D01*
X51054500Y-79756000D01*
X51054500Y-67691000D01*
X87319874Y-67691000D01*
X87320952Y-67699188D01*
X87333609Y-67795325D01*
X87339096Y-67837007D01*
X87395453Y-67973063D01*
X87485103Y-68089897D01*
X87601937Y-68179547D01*
X87737993Y-68235904D01*
X87746177Y-68236981D01*
X87746179Y-68236982D01*
X87875812Y-68254048D01*
X87884000Y-68255126D01*
X87892188Y-68254048D01*
X88021821Y-68236982D01*
X88021823Y-68236981D01*
X88030007Y-68235904D01*
X88166063Y-68179547D01*
X88271638Y-68098536D01*
X88337856Y-68072937D01*
X88348340Y-68072500D01*
X88464865Y-68072500D01*
X88489164Y-68075086D01*
X88490602Y-68075154D01*
X88500780Y-68077345D01*
X88534341Y-68073373D01*
X88540320Y-68073021D01*
X88540312Y-68072928D01*
X88545490Y-68072500D01*
X88550692Y-68072500D01*
X88569846Y-68069312D01*
X88575704Y-68068478D01*
X88592318Y-68066512D01*
X88616567Y-68063642D01*
X88616568Y-68063642D01*
X88626907Y-68062418D01*
X88635206Y-68058433D01*
X88644283Y-68056922D01*
X88689651Y-68032442D01*
X88694914Y-68029761D01*
X88734250Y-68010873D01*
X88734254Y-68010870D01*
X88741398Y-68007440D01*
X88745692Y-68003830D01*
X88747624Y-68001898D01*
X88749573Y-68000111D01*
X88749626Y-68000082D01*
X88749745Y-68000212D01*
X88750313Y-67999711D01*
X88756057Y-67996612D01*
X88792853Y-67956806D01*
X88796283Y-67953239D01*
X89021119Y-67728404D01*
X89083431Y-67694379D01*
X89110214Y-67691500D01*
X114123577Y-67691500D01*
X114196728Y-67714909D01*
X114196856Y-67715000D01*
X114201697Y-67718632D01*
X114242165Y-67750534D01*
X114250850Y-67753584D01*
X114258337Y-67758934D01*
X114307742Y-67773709D01*
X114313337Y-67775527D01*
X114361997Y-67792616D01*
X114367586Y-67793100D01*
X114370299Y-67793100D01*
X114372964Y-67793215D01*
X114373027Y-67793234D01*
X114373020Y-67793408D01*
X114373766Y-67793455D01*
X114380019Y-67795325D01*
X114429878Y-67793366D01*
X114434173Y-67793197D01*
X114439120Y-67793100D01*
X114852718Y-67793100D01*
X114920839Y-67813102D01*
X114969126Y-67870881D01*
X115008291Y-67965432D01*
X115008295Y-67965439D01*
X115011453Y-67973063D01*
X115101103Y-68089897D01*
X115217937Y-68179547D01*
X115353993Y-68235904D01*
X115362177Y-68236981D01*
X115362179Y-68236982D01*
X115491812Y-68254048D01*
X115500000Y-68255126D01*
X115508188Y-68254048D01*
X115637821Y-68236982D01*
X115637823Y-68236981D01*
X115646007Y-68235904D01*
X115782063Y-68179547D01*
X115898897Y-68089897D01*
X115988547Y-67973063D01*
X116044904Y-67837007D01*
X116050392Y-67795325D01*
X116063048Y-67699188D01*
X116064126Y-67691000D01*
X117291874Y-67691000D01*
X117292952Y-67699188D01*
X117305609Y-67795325D01*
X117311096Y-67837007D01*
X117367453Y-67973063D01*
X117457103Y-68089897D01*
X117573937Y-68179547D01*
X117709993Y-68235904D01*
X117718177Y-68236981D01*
X117718179Y-68236982D01*
X117841930Y-68253274D01*
X117906858Y-68281997D01*
X117914579Y-68289101D01*
X119035899Y-69410421D01*
X119069925Y-69472733D01*
X119071726Y-69483070D01*
X119089096Y-69615007D01*
X119145453Y-69751063D01*
X119235103Y-69867897D01*
X119351937Y-69957547D01*
X119487993Y-70013904D01*
X119496177Y-70014981D01*
X119496179Y-70014982D01*
X119625812Y-70032048D01*
X119634000Y-70033126D01*
X119642188Y-70032048D01*
X119771821Y-70014982D01*
X119771823Y-70014981D01*
X119780007Y-70013904D01*
X119916063Y-69957547D01*
X120032897Y-69867897D01*
X120122547Y-69751063D01*
X120178904Y-69615007D01*
X120198126Y-69469000D01*
X120178904Y-69322993D01*
X120122547Y-69186937D01*
X120032897Y-69070103D01*
X119916063Y-68980453D01*
X119780007Y-68924096D01*
X119771823Y-68923019D01*
X119771821Y-68923018D01*
X119718776Y-68916035D01*
X119648071Y-68906726D01*
X119583145Y-68878005D01*
X119575423Y-68870900D01*
X118454100Y-67749577D01*
X118420074Y-67687265D01*
X118418273Y-67676928D01*
X118401982Y-67553179D01*
X118401981Y-67553177D01*
X118400904Y-67544993D01*
X118344547Y-67408937D01*
X118254897Y-67292103D01*
X118138063Y-67202453D01*
X118002007Y-67146096D01*
X117993823Y-67145019D01*
X117993821Y-67145018D01*
X117864188Y-67127952D01*
X117856000Y-67126874D01*
X117847812Y-67127952D01*
X117718179Y-67145018D01*
X117718177Y-67145019D01*
X117709993Y-67146096D01*
X117573937Y-67202453D01*
X117457103Y-67292103D01*
X117367453Y-67408937D01*
X117311096Y-67544993D01*
X117291874Y-67691000D01*
X116064126Y-67691000D01*
X116044904Y-67544993D01*
X115988547Y-67408937D01*
X115898897Y-67292103D01*
X115782063Y-67202453D01*
X115646007Y-67146096D01*
X115637823Y-67145019D01*
X115637821Y-67145018D01*
X115584776Y-67138035D01*
X115514071Y-67128726D01*
X115449145Y-67100005D01*
X115441423Y-67092900D01*
X115427043Y-67078520D01*
X115411684Y-67059504D01*
X115410720Y-67058444D01*
X115405071Y-67049696D01*
X115396896Y-67043252D01*
X115396894Y-67043249D01*
X115378528Y-67028771D01*
X115374053Y-67024794D01*
X115373992Y-67024865D01*
X115370035Y-67021512D01*
X115366352Y-67017829D01*
X115350561Y-67006545D01*
X115345815Y-67002982D01*
X115313507Y-66977512D01*
X115313506Y-66977511D01*
X115305330Y-66971066D01*
X115298073Y-66968517D01*
X115292010Y-66964704D01*
X115291146Y-66964087D01*
X115247336Y-66908224D01*
X115239451Y-66845104D01*
X115244048Y-66810187D01*
X115245126Y-66802000D01*
X115225904Y-66655993D01*
X115169547Y-66519937D01*
X115079897Y-66403103D01*
X114963063Y-66313453D01*
X114827007Y-66257096D01*
X114818823Y-66256019D01*
X114818821Y-66256018D01*
X114689188Y-66238952D01*
X114681000Y-66237874D01*
X114672812Y-66238952D01*
X114543179Y-66256018D01*
X114543177Y-66256019D01*
X114534993Y-66257096D01*
X114398937Y-66313453D01*
X114293362Y-66394464D01*
X114227144Y-66420063D01*
X114216660Y-66420500D01*
X88348340Y-66420500D01*
X88280219Y-66400498D01*
X88271650Y-66394473D01*
X88166063Y-66313453D01*
X88030007Y-66257096D01*
X88021823Y-66256019D01*
X88021821Y-66256018D01*
X87892188Y-66238952D01*
X87884000Y-66237874D01*
X87875812Y-66238952D01*
X87746179Y-66256018D01*
X87746177Y-66256019D01*
X87737993Y-66257096D01*
X87601937Y-66313453D01*
X87485103Y-66403103D01*
X87395453Y-66519937D01*
X87339096Y-66655993D01*
X87319874Y-66802000D01*
X87320952Y-66810187D01*
X87320952Y-66810188D01*
X87333859Y-66908224D01*
X87339096Y-66948007D01*
X87395453Y-67084063D01*
X87461240Y-67169798D01*
X87486839Y-67236017D01*
X87472574Y-67305565D01*
X87461242Y-67323199D01*
X87395453Y-67408937D01*
X87339096Y-67544993D01*
X87319874Y-67691000D01*
X51054500Y-67691000D01*
X51054500Y-55105924D01*
X51658447Y-55105924D01*
X51658619Y-55109319D01*
X51658619Y-55109320D01*
X51672612Y-55385548D01*
X51677378Y-55479624D01*
X51677915Y-55482979D01*
X51677916Y-55482985D01*
X51704794Y-55650791D01*
X51736557Y-55849094D01*
X51835293Y-56210011D01*
X51972430Y-56558154D01*
X52146365Y-56889450D01*
X52148262Y-56892274D01*
X52148265Y-56892278D01*
X52344014Y-57183585D01*
X52355061Y-57200024D01*
X52357256Y-57202630D01*
X52357260Y-57202636D01*
X52376961Y-57226031D01*
X52596079Y-57486241D01*
X52866598Y-57744755D01*
X53163455Y-57972541D01*
X53483176Y-58166935D01*
X53822021Y-58325661D01*
X53825239Y-58326763D01*
X53825242Y-58326764D01*
X54172803Y-58445761D01*
X54172811Y-58445763D01*
X54176026Y-58446864D01*
X54541051Y-58529126D01*
X54628200Y-58539056D01*
X54909442Y-58571100D01*
X54909450Y-58571100D01*
X54912825Y-58571485D01*
X54916229Y-58571503D01*
X54916232Y-58571503D01*
X55119556Y-58572567D01*
X55286999Y-58573444D01*
X55290385Y-58573094D01*
X55290387Y-58573094D01*
X55655805Y-58535332D01*
X55655814Y-58535331D01*
X55659197Y-58534981D01*
X55662530Y-58534267D01*
X55662533Y-58534266D01*
X55842820Y-58495616D01*
X56025063Y-58456546D01*
X56380318Y-58339056D01*
X56720807Y-58183887D01*
X56818707Y-58125758D01*
X57039601Y-57994601D01*
X57039606Y-57994598D01*
X57042546Y-57992852D01*
X57072354Y-57970472D01*
X57144828Y-57916056D01*
X57341771Y-57768187D01*
X57614983Y-57512521D01*
X57858985Y-57228842D01*
X57880737Y-57197192D01*
X58068992Y-56923280D01*
X58068997Y-56923273D01*
X58070922Y-56920471D01*
X58072534Y-56917477D01*
X58072539Y-56917469D01*
X58246694Y-56594027D01*
X58248316Y-56591015D01*
X58389091Y-56244327D01*
X58394459Y-56225485D01*
X58450584Y-56028453D01*
X58491601Y-55884463D01*
X58515222Y-55746276D01*
X58554075Y-55518981D01*
X58554075Y-55518979D01*
X58554647Y-55515634D01*
X58556850Y-55479624D01*
X58575192Y-55179727D01*
X58577490Y-55142152D01*
X58577574Y-55118000D01*
X58576001Y-55088964D01*
X101380148Y-55088964D01*
X101393424Y-55291522D01*
X101394845Y-55297118D01*
X101394846Y-55297123D01*
X101440334Y-55476229D01*
X101443392Y-55488269D01*
X101445809Y-55493512D01*
X101483010Y-55574208D01*
X101528377Y-55672616D01*
X101645533Y-55838389D01*
X101790938Y-55980035D01*
X101795742Y-55983245D01*
X101849980Y-56019486D01*
X101959720Y-56092812D01*
X101965023Y-56095090D01*
X101965026Y-56095092D01*
X102053707Y-56133192D01*
X102146228Y-56172942D01*
X102219244Y-56189464D01*
X102338579Y-56216467D01*
X102338584Y-56216468D01*
X102344216Y-56217742D01*
X102349987Y-56217969D01*
X102349989Y-56217969D01*
X102409756Y-56220317D01*
X102547053Y-56225712D01*
X102655341Y-56210011D01*
X102742231Y-56197413D01*
X102742236Y-56197412D01*
X102747945Y-56196584D01*
X102753409Y-56194729D01*
X102753414Y-56194728D01*
X102934693Y-56133192D01*
X102934698Y-56133190D01*
X102940165Y-56131334D01*
X103117276Y-56032147D01*
X103132495Y-56019490D01*
X103268913Y-55906031D01*
X103273345Y-55902345D01*
X103403147Y-55746276D01*
X103502334Y-55569165D01*
X103504190Y-55563698D01*
X103504192Y-55563693D01*
X103565728Y-55382414D01*
X103565729Y-55382409D01*
X103567584Y-55376945D01*
X103568412Y-55371236D01*
X103568413Y-55371231D01*
X103596179Y-55179727D01*
X103596712Y-55176053D01*
X103598232Y-55118000D01*
X103595564Y-55088964D01*
X103920148Y-55088964D01*
X103933424Y-55291522D01*
X103934845Y-55297118D01*
X103934846Y-55297123D01*
X103980334Y-55476229D01*
X103983392Y-55488269D01*
X103985809Y-55493512D01*
X104023010Y-55574208D01*
X104068377Y-55672616D01*
X104185533Y-55838389D01*
X104330938Y-55980035D01*
X104335742Y-55983245D01*
X104389980Y-56019486D01*
X104499720Y-56092812D01*
X104505023Y-56095090D01*
X104505026Y-56095092D01*
X104593707Y-56133192D01*
X104686228Y-56172942D01*
X104759244Y-56189464D01*
X104878579Y-56216467D01*
X104878584Y-56216468D01*
X104884216Y-56217742D01*
X104889987Y-56217969D01*
X104889989Y-56217969D01*
X104949756Y-56220317D01*
X105087053Y-56225712D01*
X105195341Y-56210011D01*
X105282231Y-56197413D01*
X105282236Y-56197412D01*
X105287945Y-56196584D01*
X105293409Y-56194729D01*
X105293414Y-56194728D01*
X105474693Y-56133192D01*
X105474698Y-56133190D01*
X105480165Y-56131334D01*
X105657276Y-56032147D01*
X105672495Y-56019490D01*
X105808913Y-55906031D01*
X105813345Y-55902345D01*
X105943147Y-55746276D01*
X106042334Y-55569165D01*
X106044190Y-55563698D01*
X106044192Y-55563693D01*
X106105728Y-55382414D01*
X106105729Y-55382409D01*
X106107584Y-55376945D01*
X106108412Y-55371236D01*
X106108413Y-55371231D01*
X106136179Y-55179727D01*
X106136712Y-55176053D01*
X106138232Y-55118000D01*
X106135564Y-55088964D01*
X106460148Y-55088964D01*
X106473424Y-55291522D01*
X106474845Y-55297118D01*
X106474846Y-55297123D01*
X106520334Y-55476229D01*
X106523392Y-55488269D01*
X106525809Y-55493512D01*
X106563010Y-55574208D01*
X106608377Y-55672616D01*
X106725533Y-55838389D01*
X106870938Y-55980035D01*
X106875742Y-55983245D01*
X106929980Y-56019486D01*
X107039720Y-56092812D01*
X107045023Y-56095090D01*
X107045026Y-56095092D01*
X107133707Y-56133192D01*
X107226228Y-56172942D01*
X107299244Y-56189464D01*
X107418579Y-56216467D01*
X107418584Y-56216468D01*
X107424216Y-56217742D01*
X107429987Y-56217969D01*
X107429989Y-56217969D01*
X107489756Y-56220317D01*
X107627053Y-56225712D01*
X107735341Y-56210011D01*
X107822231Y-56197413D01*
X107822236Y-56197412D01*
X107827945Y-56196584D01*
X107833409Y-56194729D01*
X107833414Y-56194728D01*
X108014693Y-56133192D01*
X108014698Y-56133190D01*
X108020165Y-56131334D01*
X108197276Y-56032147D01*
X108212495Y-56019490D01*
X108348913Y-55906031D01*
X108353345Y-55902345D01*
X108483147Y-55746276D01*
X108582334Y-55569165D01*
X108584190Y-55563698D01*
X108584192Y-55563693D01*
X108645728Y-55382414D01*
X108645729Y-55382409D01*
X108647584Y-55376945D01*
X108648412Y-55371236D01*
X108648413Y-55371231D01*
X108676179Y-55179727D01*
X108676712Y-55176053D01*
X108678232Y-55118000D01*
X108675564Y-55088964D01*
X109000148Y-55088964D01*
X109013424Y-55291522D01*
X109014845Y-55297118D01*
X109014846Y-55297123D01*
X109060334Y-55476229D01*
X109063392Y-55488269D01*
X109065809Y-55493512D01*
X109103010Y-55574208D01*
X109148377Y-55672616D01*
X109265533Y-55838389D01*
X109410938Y-55980035D01*
X109415742Y-55983245D01*
X109469980Y-56019486D01*
X109579720Y-56092812D01*
X109585023Y-56095090D01*
X109585026Y-56095092D01*
X109673707Y-56133192D01*
X109766228Y-56172942D01*
X109839244Y-56189464D01*
X109958579Y-56216467D01*
X109958584Y-56216468D01*
X109964216Y-56217742D01*
X109969987Y-56217969D01*
X109969989Y-56217969D01*
X110029756Y-56220317D01*
X110167053Y-56225712D01*
X110275341Y-56210011D01*
X110362231Y-56197413D01*
X110362236Y-56197412D01*
X110367945Y-56196584D01*
X110373409Y-56194729D01*
X110373414Y-56194728D01*
X110554693Y-56133192D01*
X110554698Y-56133190D01*
X110560165Y-56131334D01*
X110737276Y-56032147D01*
X110752495Y-56019490D01*
X110888913Y-55906031D01*
X110893345Y-55902345D01*
X111023147Y-55746276D01*
X111122334Y-55569165D01*
X111124190Y-55563698D01*
X111124192Y-55563693D01*
X111185728Y-55382414D01*
X111185729Y-55382409D01*
X111187584Y-55376945D01*
X111188412Y-55371236D01*
X111188413Y-55371231D01*
X111216179Y-55179727D01*
X111216712Y-55176053D01*
X111218232Y-55118000D01*
X111215564Y-55088964D01*
X111540148Y-55088964D01*
X111553424Y-55291522D01*
X111554845Y-55297118D01*
X111554846Y-55297123D01*
X111600334Y-55476229D01*
X111603392Y-55488269D01*
X111605809Y-55493512D01*
X111643010Y-55574208D01*
X111688377Y-55672616D01*
X111805533Y-55838389D01*
X111950938Y-55980035D01*
X111955742Y-55983245D01*
X112009980Y-56019486D01*
X112119720Y-56092812D01*
X112125023Y-56095090D01*
X112125026Y-56095092D01*
X112213707Y-56133192D01*
X112306228Y-56172942D01*
X112379244Y-56189464D01*
X112498579Y-56216467D01*
X112498584Y-56216468D01*
X112504216Y-56217742D01*
X112509987Y-56217969D01*
X112509989Y-56217969D01*
X112569756Y-56220317D01*
X112707053Y-56225712D01*
X112815341Y-56210011D01*
X112902231Y-56197413D01*
X112902236Y-56197412D01*
X112907945Y-56196584D01*
X112913409Y-56194729D01*
X112913414Y-56194728D01*
X113094693Y-56133192D01*
X113094698Y-56133190D01*
X113100165Y-56131334D01*
X113277276Y-56032147D01*
X113292495Y-56019490D01*
X113428913Y-55906031D01*
X113433345Y-55902345D01*
X113563147Y-55746276D01*
X113662334Y-55569165D01*
X113664190Y-55563698D01*
X113664192Y-55563693D01*
X113725728Y-55382414D01*
X113725729Y-55382409D01*
X113727584Y-55376945D01*
X113728412Y-55371236D01*
X113728413Y-55371231D01*
X113756179Y-55179727D01*
X113756712Y-55176053D01*
X113758232Y-55118000D01*
X113755564Y-55088964D01*
X114080148Y-55088964D01*
X114093424Y-55291522D01*
X114094845Y-55297118D01*
X114094846Y-55297123D01*
X114140334Y-55476229D01*
X114143392Y-55488269D01*
X114145809Y-55493512D01*
X114183010Y-55574208D01*
X114228377Y-55672616D01*
X114345533Y-55838389D01*
X114490938Y-55980035D01*
X114495742Y-55983245D01*
X114549980Y-56019486D01*
X114659720Y-56092812D01*
X114665023Y-56095090D01*
X114665026Y-56095092D01*
X114753707Y-56133192D01*
X114846228Y-56172942D01*
X114919244Y-56189464D01*
X115038579Y-56216467D01*
X115038584Y-56216468D01*
X115044216Y-56217742D01*
X115049987Y-56217969D01*
X115049989Y-56217969D01*
X115109756Y-56220317D01*
X115247053Y-56225712D01*
X115355341Y-56210011D01*
X115442231Y-56197413D01*
X115442236Y-56197412D01*
X115447945Y-56196584D01*
X115453409Y-56194729D01*
X115453414Y-56194728D01*
X115634693Y-56133192D01*
X115634698Y-56133190D01*
X115640165Y-56131334D01*
X115817276Y-56032147D01*
X115832495Y-56019490D01*
X115968913Y-55906031D01*
X115973345Y-55902345D01*
X116103147Y-55746276D01*
X116202334Y-55569165D01*
X116204190Y-55563698D01*
X116204192Y-55563693D01*
X116265728Y-55382414D01*
X116265729Y-55382409D01*
X116267584Y-55376945D01*
X116268412Y-55371236D01*
X116268413Y-55371231D01*
X116296179Y-55179727D01*
X116296712Y-55176053D01*
X116298232Y-55118000D01*
X116295564Y-55088964D01*
X116620148Y-55088964D01*
X116633424Y-55291522D01*
X116634845Y-55297118D01*
X116634846Y-55297123D01*
X116680334Y-55476229D01*
X116683392Y-55488269D01*
X116685809Y-55493512D01*
X116723010Y-55574208D01*
X116768377Y-55672616D01*
X116885533Y-55838389D01*
X117030938Y-55980035D01*
X117035742Y-55983245D01*
X117089980Y-56019486D01*
X117199720Y-56092812D01*
X117205023Y-56095090D01*
X117205026Y-56095092D01*
X117293707Y-56133192D01*
X117386228Y-56172942D01*
X117459244Y-56189464D01*
X117578579Y-56216467D01*
X117578584Y-56216468D01*
X117584216Y-56217742D01*
X117589987Y-56217969D01*
X117589989Y-56217969D01*
X117649756Y-56220317D01*
X117787053Y-56225712D01*
X117895341Y-56210011D01*
X117982231Y-56197413D01*
X117982236Y-56197412D01*
X117987945Y-56196584D01*
X117993409Y-56194729D01*
X117993414Y-56194728D01*
X118174693Y-56133192D01*
X118174698Y-56133190D01*
X118180165Y-56131334D01*
X118357276Y-56032147D01*
X118372495Y-56019490D01*
X118508913Y-55906031D01*
X118513345Y-55902345D01*
X118643147Y-55746276D01*
X118742334Y-55569165D01*
X118744190Y-55563698D01*
X118744192Y-55563693D01*
X118805728Y-55382414D01*
X118805729Y-55382409D01*
X118807584Y-55376945D01*
X118808412Y-55371236D01*
X118808413Y-55371231D01*
X118836179Y-55179727D01*
X118836712Y-55176053D01*
X118838232Y-55118000D01*
X118835564Y-55088964D01*
X119160148Y-55088964D01*
X119173424Y-55291522D01*
X119174845Y-55297118D01*
X119174846Y-55297123D01*
X119220334Y-55476229D01*
X119223392Y-55488269D01*
X119225809Y-55493512D01*
X119263010Y-55574208D01*
X119308377Y-55672616D01*
X119425533Y-55838389D01*
X119570938Y-55980035D01*
X119575742Y-55983245D01*
X119629980Y-56019486D01*
X119739720Y-56092812D01*
X119745023Y-56095090D01*
X119745026Y-56095092D01*
X119833707Y-56133192D01*
X119926228Y-56172942D01*
X119999244Y-56189464D01*
X120118579Y-56216467D01*
X120118584Y-56216468D01*
X120124216Y-56217742D01*
X120129987Y-56217969D01*
X120129989Y-56217969D01*
X120189756Y-56220317D01*
X120327053Y-56225712D01*
X120435341Y-56210011D01*
X120522231Y-56197413D01*
X120522236Y-56197412D01*
X120527945Y-56196584D01*
X120533409Y-56194729D01*
X120533414Y-56194728D01*
X120714693Y-56133192D01*
X120714698Y-56133190D01*
X120720165Y-56131334D01*
X120897276Y-56032147D01*
X120912495Y-56019490D01*
X121048913Y-55906031D01*
X121053345Y-55902345D01*
X121183147Y-55746276D01*
X121282334Y-55569165D01*
X121284190Y-55563698D01*
X121284192Y-55563693D01*
X121345728Y-55382414D01*
X121345729Y-55382409D01*
X121347584Y-55376945D01*
X121348412Y-55371236D01*
X121348413Y-55371231D01*
X121376179Y-55179727D01*
X121376712Y-55176053D01*
X121378232Y-55118000D01*
X121375564Y-55088964D01*
X121700148Y-55088964D01*
X121713424Y-55291522D01*
X121714845Y-55297118D01*
X121714846Y-55297123D01*
X121760334Y-55476229D01*
X121763392Y-55488269D01*
X121765809Y-55493512D01*
X121803010Y-55574208D01*
X121848377Y-55672616D01*
X121965533Y-55838389D01*
X122110938Y-55980035D01*
X122115742Y-55983245D01*
X122169980Y-56019486D01*
X122279720Y-56092812D01*
X122285023Y-56095090D01*
X122285026Y-56095092D01*
X122373707Y-56133192D01*
X122466228Y-56172942D01*
X122539244Y-56189464D01*
X122658579Y-56216467D01*
X122658584Y-56216468D01*
X122664216Y-56217742D01*
X122669987Y-56217969D01*
X122669989Y-56217969D01*
X122729756Y-56220317D01*
X122867053Y-56225712D01*
X122975341Y-56210011D01*
X123062231Y-56197413D01*
X123062236Y-56197412D01*
X123067945Y-56196584D01*
X123073409Y-56194729D01*
X123073414Y-56194728D01*
X123254693Y-56133192D01*
X123254698Y-56133190D01*
X123260165Y-56131334D01*
X123437276Y-56032147D01*
X123452495Y-56019490D01*
X123588913Y-55906031D01*
X123593345Y-55902345D01*
X123723147Y-55746276D01*
X123822334Y-55569165D01*
X123824190Y-55563698D01*
X123824192Y-55563693D01*
X123885728Y-55382414D01*
X123885729Y-55382409D01*
X123887584Y-55376945D01*
X123888412Y-55371236D01*
X123888413Y-55371231D01*
X123916179Y-55179727D01*
X123916712Y-55176053D01*
X123918232Y-55118000D01*
X123915564Y-55088964D01*
X124240148Y-55088964D01*
X124253424Y-55291522D01*
X124254845Y-55297118D01*
X124254846Y-55297123D01*
X124300334Y-55476229D01*
X124303392Y-55488269D01*
X124305809Y-55493512D01*
X124343010Y-55574208D01*
X124388377Y-55672616D01*
X124505533Y-55838389D01*
X124650938Y-55980035D01*
X124655742Y-55983245D01*
X124709980Y-56019486D01*
X124819720Y-56092812D01*
X124825023Y-56095090D01*
X124825026Y-56095092D01*
X124913707Y-56133192D01*
X125006228Y-56172942D01*
X125079244Y-56189464D01*
X125198579Y-56216467D01*
X125198584Y-56216468D01*
X125204216Y-56217742D01*
X125209987Y-56217969D01*
X125209989Y-56217969D01*
X125269756Y-56220317D01*
X125407053Y-56225712D01*
X125515341Y-56210011D01*
X125602231Y-56197413D01*
X125602236Y-56197412D01*
X125607945Y-56196584D01*
X125613409Y-56194729D01*
X125613414Y-56194728D01*
X125794693Y-56133192D01*
X125794698Y-56133190D01*
X125800165Y-56131334D01*
X125977276Y-56032147D01*
X125992495Y-56019490D01*
X126128913Y-55906031D01*
X126133345Y-55902345D01*
X126263147Y-55746276D01*
X126362334Y-55569165D01*
X126364190Y-55563698D01*
X126364192Y-55563693D01*
X126425728Y-55382414D01*
X126425729Y-55382409D01*
X126427584Y-55376945D01*
X126428412Y-55371236D01*
X126428413Y-55371231D01*
X126456179Y-55179727D01*
X126456712Y-55176053D01*
X126458232Y-55118000D01*
X126455564Y-55088964D01*
X126780148Y-55088964D01*
X126793424Y-55291522D01*
X126794845Y-55297118D01*
X126794846Y-55297123D01*
X126840334Y-55476229D01*
X126843392Y-55488269D01*
X126845809Y-55493512D01*
X126883010Y-55574208D01*
X126928377Y-55672616D01*
X127045533Y-55838389D01*
X127190938Y-55980035D01*
X127195742Y-55983245D01*
X127249980Y-56019486D01*
X127359720Y-56092812D01*
X127365023Y-56095090D01*
X127365026Y-56095092D01*
X127453707Y-56133192D01*
X127546228Y-56172942D01*
X127619244Y-56189464D01*
X127738579Y-56216467D01*
X127738584Y-56216468D01*
X127744216Y-56217742D01*
X127749987Y-56217969D01*
X127749989Y-56217969D01*
X127809756Y-56220317D01*
X127947053Y-56225712D01*
X128055341Y-56210011D01*
X128142231Y-56197413D01*
X128142236Y-56197412D01*
X128147945Y-56196584D01*
X128153409Y-56194729D01*
X128153414Y-56194728D01*
X128334693Y-56133192D01*
X128334698Y-56133190D01*
X128340165Y-56131334D01*
X128517276Y-56032147D01*
X128532495Y-56019490D01*
X128668913Y-55906031D01*
X128673345Y-55902345D01*
X128803147Y-55746276D01*
X128902334Y-55569165D01*
X128904190Y-55563698D01*
X128904192Y-55563693D01*
X128965728Y-55382414D01*
X128965729Y-55382409D01*
X128967584Y-55376945D01*
X128968412Y-55371236D01*
X128968413Y-55371231D01*
X128996179Y-55179727D01*
X128996712Y-55176053D01*
X128998232Y-55118000D01*
X128995564Y-55088964D01*
X129320148Y-55088964D01*
X129333424Y-55291522D01*
X129334845Y-55297118D01*
X129334846Y-55297123D01*
X129380334Y-55476229D01*
X129383392Y-55488269D01*
X129385809Y-55493512D01*
X129423010Y-55574208D01*
X129468377Y-55672616D01*
X129585533Y-55838389D01*
X129730938Y-55980035D01*
X129735742Y-55983245D01*
X129789980Y-56019486D01*
X129899720Y-56092812D01*
X129905023Y-56095090D01*
X129905026Y-56095092D01*
X129993707Y-56133192D01*
X130086228Y-56172942D01*
X130159244Y-56189464D01*
X130278579Y-56216467D01*
X130278584Y-56216468D01*
X130284216Y-56217742D01*
X130289987Y-56217969D01*
X130289989Y-56217969D01*
X130349756Y-56220317D01*
X130487053Y-56225712D01*
X130595341Y-56210011D01*
X130682231Y-56197413D01*
X130682236Y-56197412D01*
X130687945Y-56196584D01*
X130693409Y-56194729D01*
X130693414Y-56194728D01*
X130874693Y-56133192D01*
X130874698Y-56133190D01*
X130880165Y-56131334D01*
X131057276Y-56032147D01*
X131072495Y-56019490D01*
X131208913Y-55906031D01*
X131213345Y-55902345D01*
X131343147Y-55746276D01*
X131442334Y-55569165D01*
X131444190Y-55563698D01*
X131444192Y-55563693D01*
X131505728Y-55382414D01*
X131505729Y-55382409D01*
X131507584Y-55376945D01*
X131508412Y-55371236D01*
X131508413Y-55371231D01*
X131536179Y-55179727D01*
X131536712Y-55176053D01*
X131538232Y-55118000D01*
X131535564Y-55088964D01*
X131860148Y-55088964D01*
X131873424Y-55291522D01*
X131874845Y-55297118D01*
X131874846Y-55297123D01*
X131920334Y-55476229D01*
X131923392Y-55488269D01*
X131925809Y-55493512D01*
X131963010Y-55574208D01*
X132008377Y-55672616D01*
X132125533Y-55838389D01*
X132270938Y-55980035D01*
X132275742Y-55983245D01*
X132329980Y-56019486D01*
X132439720Y-56092812D01*
X132445023Y-56095090D01*
X132445026Y-56095092D01*
X132533707Y-56133192D01*
X132626228Y-56172942D01*
X132699244Y-56189464D01*
X132818579Y-56216467D01*
X132818584Y-56216468D01*
X132824216Y-56217742D01*
X132829987Y-56217969D01*
X132829989Y-56217969D01*
X132889756Y-56220317D01*
X133027053Y-56225712D01*
X133135341Y-56210011D01*
X133222231Y-56197413D01*
X133222236Y-56197412D01*
X133227945Y-56196584D01*
X133233409Y-56194729D01*
X133233414Y-56194728D01*
X133414693Y-56133192D01*
X133414698Y-56133190D01*
X133420165Y-56131334D01*
X133597276Y-56032147D01*
X133612495Y-56019490D01*
X133748913Y-55906031D01*
X133753345Y-55902345D01*
X133883147Y-55746276D01*
X133982334Y-55569165D01*
X133984190Y-55563698D01*
X133984192Y-55563693D01*
X134045728Y-55382414D01*
X134045729Y-55382409D01*
X134047584Y-55376945D01*
X134048412Y-55371236D01*
X134048413Y-55371231D01*
X134076179Y-55179727D01*
X134076712Y-55176053D01*
X134078232Y-55118000D01*
X134075564Y-55088964D01*
X134400148Y-55088964D01*
X134413424Y-55291522D01*
X134414845Y-55297118D01*
X134414846Y-55297123D01*
X134460334Y-55476229D01*
X134463392Y-55488269D01*
X134465809Y-55493512D01*
X134503010Y-55574208D01*
X134548377Y-55672616D01*
X134665533Y-55838389D01*
X134810938Y-55980035D01*
X134815742Y-55983245D01*
X134869980Y-56019486D01*
X134979720Y-56092812D01*
X134985023Y-56095090D01*
X134985026Y-56095092D01*
X135073707Y-56133192D01*
X135166228Y-56172942D01*
X135239244Y-56189464D01*
X135358579Y-56216467D01*
X135358584Y-56216468D01*
X135364216Y-56217742D01*
X135369987Y-56217969D01*
X135369989Y-56217969D01*
X135429756Y-56220317D01*
X135567053Y-56225712D01*
X135675341Y-56210011D01*
X135762231Y-56197413D01*
X135762236Y-56197412D01*
X135767945Y-56196584D01*
X135773409Y-56194729D01*
X135773414Y-56194728D01*
X135954693Y-56133192D01*
X135954698Y-56133190D01*
X135960165Y-56131334D01*
X136137276Y-56032147D01*
X136152495Y-56019490D01*
X136288913Y-55906031D01*
X136293345Y-55902345D01*
X136423147Y-55746276D01*
X136522334Y-55569165D01*
X136524190Y-55563698D01*
X136524192Y-55563693D01*
X136585728Y-55382414D01*
X136585729Y-55382409D01*
X136587584Y-55376945D01*
X136588412Y-55371236D01*
X136588413Y-55371231D01*
X136616179Y-55179727D01*
X136616712Y-55176053D01*
X136618232Y-55118000D01*
X136615564Y-55088964D01*
X136940148Y-55088964D01*
X136953424Y-55291522D01*
X136954845Y-55297118D01*
X136954846Y-55297123D01*
X137000334Y-55476229D01*
X137003392Y-55488269D01*
X137005809Y-55493512D01*
X137043010Y-55574208D01*
X137088377Y-55672616D01*
X137205533Y-55838389D01*
X137350938Y-55980035D01*
X137355742Y-55983245D01*
X137409980Y-56019486D01*
X137519720Y-56092812D01*
X137525023Y-56095090D01*
X137525026Y-56095092D01*
X137613707Y-56133192D01*
X137706228Y-56172942D01*
X137779244Y-56189464D01*
X137898579Y-56216467D01*
X137898584Y-56216468D01*
X137904216Y-56217742D01*
X137909987Y-56217969D01*
X137909989Y-56217969D01*
X137969756Y-56220317D01*
X138107053Y-56225712D01*
X138215341Y-56210011D01*
X138302231Y-56197413D01*
X138302236Y-56197412D01*
X138307945Y-56196584D01*
X138313409Y-56194729D01*
X138313414Y-56194728D01*
X138494693Y-56133192D01*
X138494698Y-56133190D01*
X138500165Y-56131334D01*
X138677276Y-56032147D01*
X138692495Y-56019490D01*
X138828913Y-55906031D01*
X138833345Y-55902345D01*
X138963147Y-55746276D01*
X138965969Y-55741236D01*
X138965973Y-55741231D01*
X138995067Y-55689279D01*
X139045804Y-55639617D01*
X139115335Y-55625270D01*
X139181586Y-55650791D01*
X139223522Y-55708080D01*
X139231001Y-55750845D01*
X139231001Y-56012669D01*
X139231371Y-56019490D01*
X139236895Y-56070352D01*
X139240521Y-56085604D01*
X139285676Y-56206054D01*
X139294214Y-56221649D01*
X139370715Y-56323724D01*
X139383276Y-56336285D01*
X139485351Y-56412786D01*
X139500946Y-56421324D01*
X139621394Y-56466478D01*
X139636649Y-56470105D01*
X139687514Y-56475631D01*
X139694328Y-56476000D01*
X140316885Y-56476000D01*
X140332124Y-56471525D01*
X140333329Y-56470135D01*
X140335000Y-56462452D01*
X140335000Y-56457884D01*
X140843000Y-56457884D01*
X140847475Y-56473123D01*
X140848865Y-56474328D01*
X140856548Y-56475999D01*
X141483669Y-56475999D01*
X141490490Y-56475629D01*
X141541352Y-56470105D01*
X141556604Y-56466479D01*
X141677054Y-56421324D01*
X141692649Y-56412786D01*
X141794724Y-56336285D01*
X141807285Y-56323724D01*
X141883786Y-56221649D01*
X141892324Y-56206054D01*
X141937478Y-56085606D01*
X141941105Y-56070351D01*
X141946631Y-56019486D01*
X141947000Y-56012672D01*
X141947000Y-55390115D01*
X141942525Y-55374876D01*
X141941135Y-55373671D01*
X141933452Y-55372000D01*
X140861115Y-55372000D01*
X140845876Y-55376475D01*
X140844671Y-55377865D01*
X140843000Y-55385548D01*
X140843000Y-56457884D01*
X140335000Y-56457884D01*
X140335000Y-55105924D01*
X144622447Y-55105924D01*
X144622619Y-55109319D01*
X144622619Y-55109320D01*
X144636612Y-55385548D01*
X144641378Y-55479624D01*
X144641915Y-55482979D01*
X144641916Y-55482985D01*
X144668794Y-55650791D01*
X144700557Y-55849094D01*
X144799293Y-56210011D01*
X144936430Y-56558154D01*
X145110365Y-56889450D01*
X145112262Y-56892274D01*
X145112265Y-56892278D01*
X145308014Y-57183585D01*
X145319061Y-57200024D01*
X145321256Y-57202630D01*
X145321260Y-57202636D01*
X145340961Y-57226031D01*
X145560079Y-57486241D01*
X145830598Y-57744755D01*
X146127455Y-57972541D01*
X146447176Y-58166935D01*
X146786021Y-58325661D01*
X146789239Y-58326763D01*
X146789242Y-58326764D01*
X147136803Y-58445761D01*
X147136811Y-58445763D01*
X147140026Y-58446864D01*
X147505051Y-58529126D01*
X147592200Y-58539056D01*
X147873442Y-58571100D01*
X147873450Y-58571100D01*
X147876825Y-58571485D01*
X147880229Y-58571503D01*
X147880232Y-58571503D01*
X148083556Y-58572567D01*
X148250999Y-58573444D01*
X148254385Y-58573094D01*
X148254387Y-58573094D01*
X148619805Y-58535332D01*
X148619814Y-58535331D01*
X148623197Y-58534981D01*
X148626530Y-58534267D01*
X148626533Y-58534266D01*
X148806820Y-58495616D01*
X148989063Y-58456546D01*
X149344318Y-58339056D01*
X149684807Y-58183887D01*
X149782707Y-58125758D01*
X150003601Y-57994601D01*
X150003606Y-57994598D01*
X150006546Y-57992852D01*
X150036354Y-57970472D01*
X150108828Y-57916056D01*
X150305771Y-57768187D01*
X150578983Y-57512521D01*
X150822985Y-57228842D01*
X150844737Y-57197192D01*
X151032992Y-56923280D01*
X151032997Y-56923273D01*
X151034922Y-56920471D01*
X151036534Y-56917477D01*
X151036539Y-56917469D01*
X151210694Y-56594027D01*
X151212316Y-56591015D01*
X151353091Y-56244327D01*
X151358459Y-56225485D01*
X151414584Y-56028453D01*
X151455601Y-55884463D01*
X151479222Y-55746276D01*
X151518075Y-55518981D01*
X151518075Y-55518979D01*
X151518647Y-55515634D01*
X151520850Y-55479624D01*
X151539192Y-55179727D01*
X151541490Y-55142152D01*
X151541574Y-55118000D01*
X151521339Y-54744368D01*
X151460870Y-54375107D01*
X151360875Y-54014537D01*
X151357627Y-54006373D01*
X151223783Y-53670039D01*
X151223779Y-53670031D01*
X151222523Y-53666874D01*
X151047434Y-53336188D01*
X151045534Y-53333382D01*
X151045530Y-53333375D01*
X150839561Y-53029162D01*
X150837654Y-53026345D01*
X150595639Y-52740970D01*
X150324219Y-52483402D01*
X150321512Y-52481340D01*
X150321504Y-52481333D01*
X150029281Y-52258720D01*
X150026569Y-52256654D01*
X149706172Y-52063377D01*
X149703082Y-52061943D01*
X149703077Y-52061940D01*
X149369871Y-51907272D01*
X149369869Y-51907271D01*
X149366775Y-51905835D01*
X149363540Y-51904740D01*
X149363535Y-51904738D01*
X149015583Y-51786963D01*
X149012348Y-51785868D01*
X148647038Y-51704881D01*
X148514294Y-51690226D01*
X148278500Y-51664193D01*
X148278495Y-51664193D01*
X148275119Y-51663820D01*
X148271720Y-51663814D01*
X148271719Y-51663814D01*
X148094987Y-51663506D01*
X147900940Y-51663167D01*
X147762079Y-51678007D01*
X147532263Y-51702567D01*
X147532257Y-51702568D01*
X147528879Y-51702929D01*
X147163289Y-51782641D01*
X146808446Y-51901369D01*
X146468501Y-52057727D01*
X146465567Y-52059483D01*
X146465565Y-52059484D01*
X146456110Y-52065143D01*
X146147431Y-52249883D01*
X145848991Y-52475591D01*
X145846509Y-52477930D01*
X145846503Y-52477935D01*
X145840702Y-52483402D01*
X145576674Y-52732210D01*
X145333664Y-53016738D01*
X145331736Y-53019565D01*
X145331734Y-53019567D01*
X145327111Y-53026345D01*
X145122804Y-53325847D01*
X144946561Y-53655921D01*
X144945288Y-53659089D01*
X144945287Y-53659090D01*
X144848557Y-53899715D01*
X144806997Y-54003098D01*
X144761306Y-54165648D01*
X144741840Y-54234903D01*
X144705744Y-54363317D01*
X144705182Y-54366674D01*
X144705182Y-54366675D01*
X144646841Y-54715307D01*
X144643986Y-54732365D01*
X144622447Y-55105924D01*
X140335000Y-55105924D01*
X140335000Y-54845885D01*
X140843000Y-54845885D01*
X140847475Y-54861124D01*
X140848865Y-54862329D01*
X140856548Y-54864000D01*
X141928884Y-54864000D01*
X141944123Y-54859525D01*
X141945328Y-54858135D01*
X141946999Y-54850452D01*
X141946999Y-54223331D01*
X141946629Y-54216510D01*
X141941105Y-54165648D01*
X141937479Y-54150396D01*
X141892324Y-54029946D01*
X141883786Y-54014351D01*
X141807285Y-53912276D01*
X141794724Y-53899715D01*
X141692649Y-53823214D01*
X141677054Y-53814676D01*
X141556606Y-53769522D01*
X141541351Y-53765895D01*
X141490486Y-53760369D01*
X141483672Y-53760000D01*
X140861115Y-53760000D01*
X140845876Y-53764475D01*
X140844671Y-53765865D01*
X140843000Y-53773548D01*
X140843000Y-54845885D01*
X140335000Y-54845885D01*
X140335000Y-53778116D01*
X140330525Y-53762877D01*
X140329135Y-53761672D01*
X140321452Y-53760001D01*
X139694331Y-53760001D01*
X139687510Y-53760371D01*
X139636648Y-53765895D01*
X139621396Y-53769521D01*
X139500946Y-53814676D01*
X139485351Y-53823214D01*
X139383276Y-53899715D01*
X139370715Y-53912276D01*
X139294214Y-54014351D01*
X139285676Y-54029946D01*
X139240522Y-54150394D01*
X139236895Y-54165649D01*
X139231369Y-54216514D01*
X139231000Y-54223328D01*
X139231000Y-54478160D01*
X139210998Y-54546281D01*
X139157342Y-54592774D01*
X139087068Y-54602878D01*
X139022488Y-54573384D01*
X138997567Y-54543994D01*
X138997331Y-54543608D01*
X138994776Y-54538428D01*
X138873320Y-54375779D01*
X138724258Y-54237987D01*
X138719375Y-54234906D01*
X138719371Y-54234903D01*
X138557464Y-54132748D01*
X138552581Y-54129667D01*
X138364039Y-54054446D01*
X138358379Y-54053320D01*
X138358375Y-54053319D01*
X138170613Y-54015971D01*
X138170610Y-54015971D01*
X138164946Y-54014844D01*
X138159171Y-54014768D01*
X138159167Y-54014768D01*
X138057793Y-54013441D01*
X137961971Y-54012187D01*
X137956274Y-54013166D01*
X137956273Y-54013166D01*
X137858620Y-54029946D01*
X137761910Y-54046564D01*
X137571463Y-54116824D01*
X137397010Y-54220612D01*
X137392670Y-54224418D01*
X137392666Y-54224421D01*
X137372723Y-54241911D01*
X137244392Y-54354455D01*
X137240817Y-54358990D01*
X137240816Y-54358991D01*
X137230712Y-54371808D01*
X137118720Y-54513869D01*
X137116031Y-54518980D01*
X137116029Y-54518983D01*
X137103073Y-54543609D01*
X137024203Y-54693515D01*
X136964007Y-54887378D01*
X136940148Y-55088964D01*
X136615564Y-55088964D01*
X136599658Y-54915859D01*
X136598090Y-54910299D01*
X136546125Y-54726046D01*
X136546124Y-54726044D01*
X136544557Y-54720487D01*
X136533978Y-54699033D01*
X136457331Y-54543609D01*
X136454776Y-54538428D01*
X136333320Y-54375779D01*
X136184258Y-54237987D01*
X136179375Y-54234906D01*
X136179371Y-54234903D01*
X136017464Y-54132748D01*
X136012581Y-54129667D01*
X135824039Y-54054446D01*
X135818379Y-54053320D01*
X135818375Y-54053319D01*
X135630613Y-54015971D01*
X135630610Y-54015971D01*
X135624946Y-54014844D01*
X135619171Y-54014768D01*
X135619167Y-54014768D01*
X135517793Y-54013441D01*
X135421971Y-54012187D01*
X135416274Y-54013166D01*
X135416273Y-54013166D01*
X135318620Y-54029946D01*
X135221910Y-54046564D01*
X135031463Y-54116824D01*
X134857010Y-54220612D01*
X134852670Y-54224418D01*
X134852666Y-54224421D01*
X134832723Y-54241911D01*
X134704392Y-54354455D01*
X134700817Y-54358990D01*
X134700816Y-54358991D01*
X134690712Y-54371808D01*
X134578720Y-54513869D01*
X134576031Y-54518980D01*
X134576029Y-54518983D01*
X134563073Y-54543609D01*
X134484203Y-54693515D01*
X134424007Y-54887378D01*
X134400148Y-55088964D01*
X134075564Y-55088964D01*
X134059658Y-54915859D01*
X134058090Y-54910299D01*
X134006125Y-54726046D01*
X134006124Y-54726044D01*
X134004557Y-54720487D01*
X133993978Y-54699033D01*
X133917331Y-54543609D01*
X133914776Y-54538428D01*
X133793320Y-54375779D01*
X133644258Y-54237987D01*
X133639375Y-54234906D01*
X133639371Y-54234903D01*
X133477464Y-54132748D01*
X133472581Y-54129667D01*
X133284039Y-54054446D01*
X133278379Y-54053320D01*
X133278375Y-54053319D01*
X133090613Y-54015971D01*
X133090610Y-54015971D01*
X133084946Y-54014844D01*
X133079171Y-54014768D01*
X133079167Y-54014768D01*
X132977793Y-54013441D01*
X132881971Y-54012187D01*
X132876274Y-54013166D01*
X132876273Y-54013166D01*
X132778620Y-54029946D01*
X132681910Y-54046564D01*
X132491463Y-54116824D01*
X132317010Y-54220612D01*
X132312670Y-54224418D01*
X132312666Y-54224421D01*
X132292723Y-54241911D01*
X132164392Y-54354455D01*
X132160817Y-54358990D01*
X132160816Y-54358991D01*
X132150712Y-54371808D01*
X132038720Y-54513869D01*
X132036031Y-54518980D01*
X132036029Y-54518983D01*
X132023073Y-54543609D01*
X131944203Y-54693515D01*
X131884007Y-54887378D01*
X131860148Y-55088964D01*
X131535564Y-55088964D01*
X131519658Y-54915859D01*
X131518090Y-54910299D01*
X131466125Y-54726046D01*
X131466124Y-54726044D01*
X131464557Y-54720487D01*
X131453978Y-54699033D01*
X131377331Y-54543609D01*
X131374776Y-54538428D01*
X131253320Y-54375779D01*
X131104258Y-54237987D01*
X131099375Y-54234906D01*
X131099371Y-54234903D01*
X130937464Y-54132748D01*
X130932581Y-54129667D01*
X130744039Y-54054446D01*
X130738379Y-54053320D01*
X130738375Y-54053319D01*
X130550613Y-54015971D01*
X130550610Y-54015971D01*
X130544946Y-54014844D01*
X130539171Y-54014768D01*
X130539167Y-54014768D01*
X130437793Y-54013441D01*
X130341971Y-54012187D01*
X130336274Y-54013166D01*
X130336273Y-54013166D01*
X130238620Y-54029946D01*
X130141910Y-54046564D01*
X129951463Y-54116824D01*
X129777010Y-54220612D01*
X129772670Y-54224418D01*
X129772666Y-54224421D01*
X129752723Y-54241911D01*
X129624392Y-54354455D01*
X129620817Y-54358990D01*
X129620816Y-54358991D01*
X129610712Y-54371808D01*
X129498720Y-54513869D01*
X129496031Y-54518980D01*
X129496029Y-54518983D01*
X129483073Y-54543609D01*
X129404203Y-54693515D01*
X129344007Y-54887378D01*
X129320148Y-55088964D01*
X128995564Y-55088964D01*
X128979658Y-54915859D01*
X128978090Y-54910299D01*
X128926125Y-54726046D01*
X128926124Y-54726044D01*
X128924557Y-54720487D01*
X128913978Y-54699033D01*
X128837331Y-54543609D01*
X128834776Y-54538428D01*
X128713320Y-54375779D01*
X128564258Y-54237987D01*
X128559375Y-54234906D01*
X128559371Y-54234903D01*
X128397464Y-54132748D01*
X128392581Y-54129667D01*
X128204039Y-54054446D01*
X128198379Y-54053320D01*
X128198375Y-54053319D01*
X128010613Y-54015971D01*
X128010610Y-54015971D01*
X128004946Y-54014844D01*
X127999171Y-54014768D01*
X127999167Y-54014768D01*
X127897793Y-54013441D01*
X127801971Y-54012187D01*
X127796274Y-54013166D01*
X127796273Y-54013166D01*
X127698620Y-54029946D01*
X127601910Y-54046564D01*
X127411463Y-54116824D01*
X127237010Y-54220612D01*
X127232670Y-54224418D01*
X127232666Y-54224421D01*
X127212723Y-54241911D01*
X127084392Y-54354455D01*
X127080817Y-54358990D01*
X127080816Y-54358991D01*
X127070712Y-54371808D01*
X126958720Y-54513869D01*
X126956031Y-54518980D01*
X126956029Y-54518983D01*
X126943073Y-54543609D01*
X126864203Y-54693515D01*
X126804007Y-54887378D01*
X126780148Y-55088964D01*
X126455564Y-55088964D01*
X126439658Y-54915859D01*
X126438090Y-54910299D01*
X126386125Y-54726046D01*
X126386124Y-54726044D01*
X126384557Y-54720487D01*
X126373978Y-54699033D01*
X126297331Y-54543609D01*
X126294776Y-54538428D01*
X126173320Y-54375779D01*
X126024258Y-54237987D01*
X126019375Y-54234906D01*
X126019371Y-54234903D01*
X125857464Y-54132748D01*
X125852581Y-54129667D01*
X125664039Y-54054446D01*
X125658379Y-54053320D01*
X125658375Y-54053319D01*
X125470613Y-54015971D01*
X125470610Y-54015971D01*
X125464946Y-54014844D01*
X125459171Y-54014768D01*
X125459167Y-54014768D01*
X125357793Y-54013441D01*
X125261971Y-54012187D01*
X125256274Y-54013166D01*
X125256273Y-54013166D01*
X125158620Y-54029946D01*
X125061910Y-54046564D01*
X124871463Y-54116824D01*
X124697010Y-54220612D01*
X124692670Y-54224418D01*
X124692666Y-54224421D01*
X124672723Y-54241911D01*
X124544392Y-54354455D01*
X124540817Y-54358990D01*
X124540816Y-54358991D01*
X124530712Y-54371808D01*
X124418720Y-54513869D01*
X124416031Y-54518980D01*
X124416029Y-54518983D01*
X124403073Y-54543609D01*
X124324203Y-54693515D01*
X124264007Y-54887378D01*
X124240148Y-55088964D01*
X123915564Y-55088964D01*
X123899658Y-54915859D01*
X123898090Y-54910299D01*
X123846125Y-54726046D01*
X123846124Y-54726044D01*
X123844557Y-54720487D01*
X123833978Y-54699033D01*
X123757331Y-54543609D01*
X123754776Y-54538428D01*
X123633320Y-54375779D01*
X123484258Y-54237987D01*
X123479375Y-54234906D01*
X123479371Y-54234903D01*
X123317464Y-54132748D01*
X123312581Y-54129667D01*
X123124039Y-54054446D01*
X123118379Y-54053320D01*
X123118375Y-54053319D01*
X122930613Y-54015971D01*
X122930610Y-54015971D01*
X122924946Y-54014844D01*
X122919171Y-54014768D01*
X122919167Y-54014768D01*
X122817793Y-54013441D01*
X122721971Y-54012187D01*
X122716274Y-54013166D01*
X122716273Y-54013166D01*
X122618620Y-54029946D01*
X122521910Y-54046564D01*
X122331463Y-54116824D01*
X122157010Y-54220612D01*
X122152670Y-54224418D01*
X122152666Y-54224421D01*
X122132723Y-54241911D01*
X122004392Y-54354455D01*
X122000817Y-54358990D01*
X122000816Y-54358991D01*
X121990712Y-54371808D01*
X121878720Y-54513869D01*
X121876031Y-54518980D01*
X121876029Y-54518983D01*
X121863073Y-54543609D01*
X121784203Y-54693515D01*
X121724007Y-54887378D01*
X121700148Y-55088964D01*
X121375564Y-55088964D01*
X121359658Y-54915859D01*
X121358090Y-54910299D01*
X121306125Y-54726046D01*
X121306124Y-54726044D01*
X121304557Y-54720487D01*
X121293978Y-54699033D01*
X121217331Y-54543609D01*
X121214776Y-54538428D01*
X121093320Y-54375779D01*
X120944258Y-54237987D01*
X120939375Y-54234906D01*
X120939371Y-54234903D01*
X120777464Y-54132748D01*
X120772581Y-54129667D01*
X120584039Y-54054446D01*
X120578379Y-54053320D01*
X120578375Y-54053319D01*
X120390613Y-54015971D01*
X120390610Y-54015971D01*
X120384946Y-54014844D01*
X120379171Y-54014768D01*
X120379167Y-54014768D01*
X120277793Y-54013441D01*
X120181971Y-54012187D01*
X120176274Y-54013166D01*
X120176273Y-54013166D01*
X120078620Y-54029946D01*
X119981910Y-54046564D01*
X119791463Y-54116824D01*
X119617010Y-54220612D01*
X119612670Y-54224418D01*
X119612666Y-54224421D01*
X119592723Y-54241911D01*
X119464392Y-54354455D01*
X119460817Y-54358990D01*
X119460816Y-54358991D01*
X119450712Y-54371808D01*
X119338720Y-54513869D01*
X119336031Y-54518980D01*
X119336029Y-54518983D01*
X119323073Y-54543609D01*
X119244203Y-54693515D01*
X119184007Y-54887378D01*
X119160148Y-55088964D01*
X118835564Y-55088964D01*
X118819658Y-54915859D01*
X118818090Y-54910299D01*
X118766125Y-54726046D01*
X118766124Y-54726044D01*
X118764557Y-54720487D01*
X118753978Y-54699033D01*
X118677331Y-54543609D01*
X118674776Y-54538428D01*
X118553320Y-54375779D01*
X118404258Y-54237987D01*
X118399375Y-54234906D01*
X118399371Y-54234903D01*
X118237464Y-54132748D01*
X118232581Y-54129667D01*
X118044039Y-54054446D01*
X118038379Y-54053320D01*
X118038375Y-54053319D01*
X117850613Y-54015971D01*
X117850610Y-54015971D01*
X117844946Y-54014844D01*
X117839171Y-54014768D01*
X117839167Y-54014768D01*
X117737793Y-54013441D01*
X117641971Y-54012187D01*
X117636274Y-54013166D01*
X117636273Y-54013166D01*
X117538620Y-54029946D01*
X117441910Y-54046564D01*
X117251463Y-54116824D01*
X117077010Y-54220612D01*
X117072670Y-54224418D01*
X117072666Y-54224421D01*
X117052723Y-54241911D01*
X116924392Y-54354455D01*
X116920817Y-54358990D01*
X116920816Y-54358991D01*
X116910712Y-54371808D01*
X116798720Y-54513869D01*
X116796031Y-54518980D01*
X116796029Y-54518983D01*
X116783073Y-54543609D01*
X116704203Y-54693515D01*
X116644007Y-54887378D01*
X116620148Y-55088964D01*
X116295564Y-55088964D01*
X116279658Y-54915859D01*
X116278090Y-54910299D01*
X116226125Y-54726046D01*
X116226124Y-54726044D01*
X116224557Y-54720487D01*
X116213978Y-54699033D01*
X116137331Y-54543609D01*
X116134776Y-54538428D01*
X116013320Y-54375779D01*
X115864258Y-54237987D01*
X115859375Y-54234906D01*
X115859371Y-54234903D01*
X115697464Y-54132748D01*
X115692581Y-54129667D01*
X115504039Y-54054446D01*
X115498379Y-54053320D01*
X115498375Y-54053319D01*
X115310613Y-54015971D01*
X115310610Y-54015971D01*
X115304946Y-54014844D01*
X115299171Y-54014768D01*
X115299167Y-54014768D01*
X115197793Y-54013441D01*
X115101971Y-54012187D01*
X115096274Y-54013166D01*
X115096273Y-54013166D01*
X114998620Y-54029946D01*
X114901910Y-54046564D01*
X114711463Y-54116824D01*
X114537010Y-54220612D01*
X114532670Y-54224418D01*
X114532666Y-54224421D01*
X114512723Y-54241911D01*
X114384392Y-54354455D01*
X114380817Y-54358990D01*
X114380816Y-54358991D01*
X114370712Y-54371808D01*
X114258720Y-54513869D01*
X114256031Y-54518980D01*
X114256029Y-54518983D01*
X114243073Y-54543609D01*
X114164203Y-54693515D01*
X114104007Y-54887378D01*
X114080148Y-55088964D01*
X113755564Y-55088964D01*
X113739658Y-54915859D01*
X113738090Y-54910299D01*
X113686125Y-54726046D01*
X113686124Y-54726044D01*
X113684557Y-54720487D01*
X113673978Y-54699033D01*
X113597331Y-54543609D01*
X113594776Y-54538428D01*
X113473320Y-54375779D01*
X113324258Y-54237987D01*
X113319375Y-54234906D01*
X113319371Y-54234903D01*
X113157464Y-54132748D01*
X113152581Y-54129667D01*
X112964039Y-54054446D01*
X112958379Y-54053320D01*
X112958375Y-54053319D01*
X112770613Y-54015971D01*
X112770610Y-54015971D01*
X112764946Y-54014844D01*
X112759171Y-54014768D01*
X112759167Y-54014768D01*
X112657793Y-54013441D01*
X112561971Y-54012187D01*
X112556274Y-54013166D01*
X112556273Y-54013166D01*
X112458620Y-54029946D01*
X112361910Y-54046564D01*
X112171463Y-54116824D01*
X111997010Y-54220612D01*
X111992670Y-54224418D01*
X111992666Y-54224421D01*
X111972723Y-54241911D01*
X111844392Y-54354455D01*
X111840817Y-54358990D01*
X111840816Y-54358991D01*
X111830712Y-54371808D01*
X111718720Y-54513869D01*
X111716031Y-54518980D01*
X111716029Y-54518983D01*
X111703073Y-54543609D01*
X111624203Y-54693515D01*
X111564007Y-54887378D01*
X111540148Y-55088964D01*
X111215564Y-55088964D01*
X111199658Y-54915859D01*
X111198090Y-54910299D01*
X111146125Y-54726046D01*
X111146124Y-54726044D01*
X111144557Y-54720487D01*
X111133978Y-54699033D01*
X111057331Y-54543609D01*
X111054776Y-54538428D01*
X110933320Y-54375779D01*
X110784258Y-54237987D01*
X110779375Y-54234906D01*
X110779371Y-54234903D01*
X110617464Y-54132748D01*
X110612581Y-54129667D01*
X110424039Y-54054446D01*
X110418379Y-54053320D01*
X110418375Y-54053319D01*
X110230613Y-54015971D01*
X110230610Y-54015971D01*
X110224946Y-54014844D01*
X110219171Y-54014768D01*
X110219167Y-54014768D01*
X110117793Y-54013441D01*
X110021971Y-54012187D01*
X110016274Y-54013166D01*
X110016273Y-54013166D01*
X109918620Y-54029946D01*
X109821910Y-54046564D01*
X109631463Y-54116824D01*
X109457010Y-54220612D01*
X109452670Y-54224418D01*
X109452666Y-54224421D01*
X109432723Y-54241911D01*
X109304392Y-54354455D01*
X109300817Y-54358990D01*
X109300816Y-54358991D01*
X109290712Y-54371808D01*
X109178720Y-54513869D01*
X109176031Y-54518980D01*
X109176029Y-54518983D01*
X109163073Y-54543609D01*
X109084203Y-54693515D01*
X109024007Y-54887378D01*
X109000148Y-55088964D01*
X108675564Y-55088964D01*
X108659658Y-54915859D01*
X108658090Y-54910299D01*
X108606125Y-54726046D01*
X108606124Y-54726044D01*
X108604557Y-54720487D01*
X108593978Y-54699033D01*
X108517331Y-54543609D01*
X108514776Y-54538428D01*
X108393320Y-54375779D01*
X108244258Y-54237987D01*
X108239375Y-54234906D01*
X108239371Y-54234903D01*
X108077464Y-54132748D01*
X108072581Y-54129667D01*
X107884039Y-54054446D01*
X107878379Y-54053320D01*
X107878375Y-54053319D01*
X107690613Y-54015971D01*
X107690610Y-54015971D01*
X107684946Y-54014844D01*
X107679171Y-54014768D01*
X107679167Y-54014768D01*
X107577793Y-54013441D01*
X107481971Y-54012187D01*
X107476274Y-54013166D01*
X107476273Y-54013166D01*
X107378620Y-54029946D01*
X107281910Y-54046564D01*
X107091463Y-54116824D01*
X106917010Y-54220612D01*
X106912670Y-54224418D01*
X106912666Y-54224421D01*
X106892723Y-54241911D01*
X106764392Y-54354455D01*
X106760817Y-54358990D01*
X106760816Y-54358991D01*
X106750712Y-54371808D01*
X106638720Y-54513869D01*
X106636031Y-54518980D01*
X106636029Y-54518983D01*
X106623073Y-54543609D01*
X106544203Y-54693515D01*
X106484007Y-54887378D01*
X106460148Y-55088964D01*
X106135564Y-55088964D01*
X106119658Y-54915859D01*
X106118090Y-54910299D01*
X106066125Y-54726046D01*
X106066124Y-54726044D01*
X106064557Y-54720487D01*
X106053978Y-54699033D01*
X105977331Y-54543609D01*
X105974776Y-54538428D01*
X105853320Y-54375779D01*
X105704258Y-54237987D01*
X105699375Y-54234906D01*
X105699371Y-54234903D01*
X105537464Y-54132748D01*
X105532581Y-54129667D01*
X105344039Y-54054446D01*
X105338379Y-54053320D01*
X105338375Y-54053319D01*
X105150613Y-54015971D01*
X105150610Y-54015971D01*
X105144946Y-54014844D01*
X105139171Y-54014768D01*
X105139167Y-54014768D01*
X105037793Y-54013441D01*
X104941971Y-54012187D01*
X104936274Y-54013166D01*
X104936273Y-54013166D01*
X104838620Y-54029946D01*
X104741910Y-54046564D01*
X104551463Y-54116824D01*
X104377010Y-54220612D01*
X104372670Y-54224418D01*
X104372666Y-54224421D01*
X104352723Y-54241911D01*
X104224392Y-54354455D01*
X104220817Y-54358990D01*
X104220816Y-54358991D01*
X104210712Y-54371808D01*
X104098720Y-54513869D01*
X104096031Y-54518980D01*
X104096029Y-54518983D01*
X104083073Y-54543609D01*
X104004203Y-54693515D01*
X103944007Y-54887378D01*
X103920148Y-55088964D01*
X103595564Y-55088964D01*
X103579658Y-54915859D01*
X103578090Y-54910299D01*
X103526125Y-54726046D01*
X103526124Y-54726044D01*
X103524557Y-54720487D01*
X103513978Y-54699033D01*
X103437331Y-54543609D01*
X103434776Y-54538428D01*
X103313320Y-54375779D01*
X103164258Y-54237987D01*
X103159375Y-54234906D01*
X103159371Y-54234903D01*
X102997464Y-54132748D01*
X102992581Y-54129667D01*
X102804039Y-54054446D01*
X102798379Y-54053320D01*
X102798375Y-54053319D01*
X102610613Y-54015971D01*
X102610610Y-54015971D01*
X102604946Y-54014844D01*
X102599171Y-54014768D01*
X102599167Y-54014768D01*
X102497793Y-54013441D01*
X102401971Y-54012187D01*
X102396274Y-54013166D01*
X102396273Y-54013166D01*
X102298620Y-54029946D01*
X102201910Y-54046564D01*
X102011463Y-54116824D01*
X101837010Y-54220612D01*
X101832670Y-54224418D01*
X101832666Y-54224421D01*
X101812723Y-54241911D01*
X101684392Y-54354455D01*
X101680817Y-54358990D01*
X101680816Y-54358991D01*
X101670712Y-54371808D01*
X101558720Y-54513869D01*
X101556031Y-54518980D01*
X101556029Y-54518983D01*
X101543073Y-54543609D01*
X101464203Y-54693515D01*
X101404007Y-54887378D01*
X101380148Y-55088964D01*
X58576001Y-55088964D01*
X58557339Y-54744368D01*
X58496870Y-54375107D01*
X58396875Y-54014537D01*
X58393627Y-54006373D01*
X58259783Y-53670039D01*
X58259779Y-53670031D01*
X58258523Y-53666874D01*
X58083434Y-53336188D01*
X58081534Y-53333382D01*
X58081530Y-53333375D01*
X57875561Y-53029162D01*
X57873654Y-53026345D01*
X57631639Y-52740970D01*
X57360219Y-52483402D01*
X57357512Y-52481340D01*
X57357504Y-52481333D01*
X57065281Y-52258720D01*
X57062569Y-52256654D01*
X56742172Y-52063377D01*
X56739082Y-52061943D01*
X56739077Y-52061940D01*
X56405871Y-51907272D01*
X56405869Y-51907271D01*
X56402775Y-51905835D01*
X56399540Y-51904740D01*
X56399535Y-51904738D01*
X56051583Y-51786963D01*
X56048348Y-51785868D01*
X55683038Y-51704881D01*
X55550294Y-51690226D01*
X55314500Y-51664193D01*
X55314495Y-51664193D01*
X55311119Y-51663820D01*
X55307720Y-51663814D01*
X55307719Y-51663814D01*
X55130987Y-51663506D01*
X54936940Y-51663167D01*
X54798079Y-51678007D01*
X54568263Y-51702567D01*
X54568257Y-51702568D01*
X54564879Y-51702929D01*
X54199289Y-51782641D01*
X53844446Y-51901369D01*
X53504501Y-52057727D01*
X53501567Y-52059483D01*
X53501565Y-52059484D01*
X53492110Y-52065143D01*
X53183431Y-52249883D01*
X52884991Y-52475591D01*
X52882509Y-52477930D01*
X52882503Y-52477935D01*
X52876702Y-52483402D01*
X52612674Y-52732210D01*
X52369664Y-53016738D01*
X52367736Y-53019565D01*
X52367734Y-53019567D01*
X52363111Y-53026345D01*
X52158804Y-53325847D01*
X51982561Y-53655921D01*
X51981288Y-53659089D01*
X51981287Y-53659090D01*
X51884557Y-53899715D01*
X51842997Y-54003098D01*
X51797306Y-54165648D01*
X51777840Y-54234903D01*
X51741744Y-54363317D01*
X51741182Y-54366674D01*
X51741182Y-54366675D01*
X51682841Y-54715307D01*
X51679986Y-54732365D01*
X51658447Y-55105924D01*
X51054500Y-55105924D01*
X51054500Y-51180500D01*
X51074502Y-51112379D01*
X51128158Y-51065886D01*
X51180500Y-51054500D01*
X152019500Y-51054500D01*
X152087621Y-51074502D01*
G37*
G04 #@! TD.AperFunction*
M02*
