G04 #@! TF.GenerationSoftware,KiCad,Pcbnew,6.0.11-2627ca5db0~126~ubuntu22.04.1*
G04 #@! TF.CreationDate,2025-05-14T16:21:12-06:00*
G04 #@! TF.ProjectId,i2c-headunit,6932632d-6865-4616-9475-6e69742e6b69,rev?*
G04 #@! TF.SameCoordinates,Original*
G04 #@! TF.FileFunction,Soldermask,Bot*
G04 #@! TF.FilePolarity,Negative*
%FSLAX46Y46*%
G04 Gerber Fmt 4.6, Leading zero omitted, Abs format (unit mm)*
G04 Created by KiCad (PCBNEW 6.0.11-2627ca5db0~126~ubuntu22.04.1) date 2025-05-14 16:21:12*
%MOMM*%
%LPD*%
G01*
G04 APERTURE LIST*
%ADD10C,1.143000*%
%ADD11C,6.552400*%
%ADD12C,2.252400*%
%ADD13C,1.651000*%
%ADD14O,1.852400X1.852400*%
G04 APERTURE END LIST*
D10*
X126492000Y-86360000D03*
X125476000Y-91440000D03*
X124460000Y-86360000D03*
D11*
X148082000Y-55118000D03*
X148082000Y-110109000D03*
G36*
G01*
X91583800Y-95411000D02*
X91583800Y-93311000D01*
G75*
G02*
X91660000Y-93234800I76200J0D01*
G01*
X93760000Y-93234800D01*
G75*
G02*
X93836200Y-93311000I0J-76200D01*
G01*
X93836200Y-95411000D01*
G75*
G02*
X93760000Y-95487200I-76200J0D01*
G01*
X91660000Y-95487200D01*
G75*
G02*
X91583800Y-95411000I0J76200D01*
G01*
G37*
D12*
X95250000Y-94361000D03*
X97790000Y-94361000D03*
X100330000Y-94361000D03*
X102870000Y-94361000D03*
X105410000Y-94361000D03*
X107950000Y-94361000D03*
X110490000Y-94361000D03*
D11*
X55118000Y-110109000D03*
X55118000Y-55118000D03*
G36*
G01*
X80275501Y-116645299D02*
X80275501Y-118143899D01*
G75*
G02*
X80199301Y-118220099I-76200J0D01*
G01*
X78700701Y-118220099D01*
G75*
G02*
X78624501Y-118143899I0J76200D01*
G01*
X78624501Y-116645299D01*
G75*
G02*
X78700701Y-116569099I76200J0D01*
G01*
X80199301Y-116569099D01*
G75*
G02*
X80275501Y-116645299I0J-76200D01*
G01*
G37*
D13*
X72950000Y-117394599D03*
X79450001Y-121894600D03*
X72950000Y-121894600D03*
G36*
G01*
X141439000Y-56044200D02*
X139739000Y-56044200D01*
G75*
G02*
X139662800Y-55968000I0J76200D01*
G01*
X139662800Y-54268000D01*
G75*
G02*
X139739000Y-54191800I76200J0D01*
G01*
X141439000Y-54191800D01*
G75*
G02*
X141515200Y-54268000I0J-76200D01*
G01*
X141515200Y-55968000D01*
G75*
G02*
X141439000Y-56044200I-76200J0D01*
G01*
G37*
D14*
X138049000Y-55118000D03*
X135509000Y-55118000D03*
X132969000Y-55118000D03*
X130429000Y-55118000D03*
X127889000Y-55118000D03*
X125349000Y-55118000D03*
X122809000Y-55118000D03*
X120269000Y-55118000D03*
X117729000Y-55118000D03*
X115189000Y-55118000D03*
X112649000Y-55118000D03*
X110109000Y-55118000D03*
X107569000Y-55118000D03*
X105029000Y-55118000D03*
X102489000Y-55118000D03*
G36*
G01*
X114133701Y-116645299D02*
X114133701Y-118143899D01*
G75*
G02*
X114057501Y-118220099I-76200J0D01*
G01*
X112558901Y-118220099D01*
G75*
G02*
X112482701Y-118143899I0J76200D01*
G01*
X112482701Y-116645299D01*
G75*
G02*
X112558901Y-116569099I76200J0D01*
G01*
X114057501Y-116569099D01*
G75*
G02*
X114133701Y-116645299I0J-76200D01*
G01*
G37*
D13*
X106808200Y-117394599D03*
X113308201Y-121894600D03*
X106808200Y-121894600D03*
G36*
G01*
X131075501Y-116645299D02*
X131075501Y-118143899D01*
G75*
G02*
X130999301Y-118220099I-76200J0D01*
G01*
X129500701Y-118220099D01*
G75*
G02*
X129424501Y-118143899I0J76200D01*
G01*
X129424501Y-116645299D01*
G75*
G02*
X129500701Y-116569099I76200J0D01*
G01*
X130999301Y-116569099D01*
G75*
G02*
X131075501Y-116645299I0J-76200D01*
G01*
G37*
X123750000Y-117394599D03*
X130250001Y-121894600D03*
X123750000Y-121894600D03*
G36*
G01*
X97217301Y-116645299D02*
X97217301Y-118143899D01*
G75*
G02*
X97141101Y-118220099I-76200J0D01*
G01*
X95642501Y-118220099D01*
G75*
G02*
X95566301Y-118143899I0J76200D01*
G01*
X95566301Y-116645299D01*
G75*
G02*
X95642501Y-116569099I76200J0D01*
G01*
X97141101Y-116569099D01*
G75*
G02*
X97217301Y-116645299I0J-76200D01*
G01*
G37*
X89891800Y-117394599D03*
X96391801Y-121894600D03*
X89891800Y-121894600D03*
M02*
