G04 #@! TF.GenerationSoftware,KiCad,Pcbnew,9.0.9-9.0.9~ubuntu24.04.1*
G04 #@! TF.CreationDate,2026-05-29T11:46:23-06:00*
G04 #@! TF.ProjectId,i2c-headunit,6932632d-6865-4616-9475-6e69742e6b69,rev?*
G04 #@! TF.SameCoordinates,Original*
G04 #@! TF.FileFunction,Copper,L2,Bot*
G04 #@! TF.FilePolarity,Positive*
%FSLAX46Y46*%
G04 Gerber Fmt 4.6, Leading zero omitted, Abs format (unit mm)*
G04 Created by KiCad (PCBNEW 9.0.9-9.0.9~ubuntu24.04.1) date 2026-05-29 11:46:23*
%MOMM*%
%LPD*%
G01*
G04 APERTURE LIST*
G04 #@! TA.AperFunction,ComponentPad*
%ADD10C,6.400000*%
G04 #@! TD*
G04 #@! TA.AperFunction,ComponentPad*
%ADD11C,2.100000*%
G04 #@! TD*
G04 #@! TA.AperFunction,ComponentPad*
%ADD12R,1.498600X1.498600*%
G04 #@! TD*
G04 #@! TA.AperFunction,ComponentPad*
%ADD13C,1.498600*%
G04 #@! TD*
G04 #@! TA.AperFunction,ComponentPad*
%ADD14R,1.700000X1.700000*%
G04 #@! TD*
G04 #@! TA.AperFunction,ComponentPad*
%ADD15C,1.700000*%
G04 #@! TD*
G04 #@! TA.AperFunction,ViaPad*
%ADD16C,0.609600*%
G04 #@! TD*
G04 #@! TA.AperFunction,Conductor*
%ADD17C,0.254000*%
G04 #@! TD*
G04 APERTURE END LIST*
D10*
X148082000Y-55118000D03*
X148082000Y-110109000D03*
G04 #@! TA.AperFunction,ComponentPad*
G36*
G01*
X91660000Y-95160999D02*
X91660000Y-93561001D01*
G75*
G02*
X91910001Y-93311000I250001J0D01*
G01*
X93509999Y-93311000D01*
G75*
G02*
X93760000Y-93561001I0J-250001D01*
G01*
X93760000Y-95160999D01*
G75*
G02*
X93509999Y-95411000I-250001J0D01*
G01*
X91910001Y-95411000D01*
G75*
G02*
X91660000Y-95160999I0J250001D01*
G01*
G37*
G04 #@! TD.AperFunction*
D11*
X95250000Y-94361000D03*
X97790000Y-94361000D03*
X100330000Y-94361000D03*
X102870000Y-94361000D03*
X105410000Y-94361000D03*
X107950000Y-94361000D03*
X110490000Y-94361000D03*
D10*
X55118000Y-110109000D03*
X55118000Y-55118000D03*
D12*
X79450001Y-117394599D03*
D13*
X72950000Y-117394599D03*
X79450001Y-121894600D03*
X72950000Y-121894600D03*
D14*
X140589000Y-55118000D03*
D15*
X138049000Y-55118000D03*
X135509000Y-55118000D03*
X132969000Y-55118000D03*
X130429000Y-55118000D03*
X127889000Y-55118000D03*
X125349000Y-55118000D03*
X122809000Y-55118000D03*
X120269000Y-55118000D03*
X117729000Y-55118000D03*
X115189000Y-55118000D03*
X112649000Y-55118000D03*
X110109000Y-55118000D03*
X107569000Y-55118000D03*
X105029000Y-55118000D03*
X102489000Y-55118000D03*
D12*
X113308201Y-117394599D03*
D13*
X106808200Y-117394599D03*
X113308201Y-121894600D03*
X106808200Y-121894600D03*
D12*
X130250001Y-117394599D03*
D13*
X123750000Y-117394599D03*
X130250001Y-121894600D03*
X123750000Y-121894600D03*
D12*
X96391801Y-117394599D03*
D13*
X89891800Y-117394599D03*
X96391801Y-121894600D03*
X89891800Y-121894600D03*
D16*
X117856000Y-67691000D03*
X119634000Y-69469000D03*
X121793000Y-87249000D03*
X127254000Y-90170000D03*
X121793000Y-86233000D03*
X127254000Y-88900000D03*
X76962000Y-69342000D03*
X76962000Y-70231000D03*
X123317000Y-83820000D03*
X89535000Y-75819000D03*
X126238000Y-104582000D03*
X88646000Y-79756000D03*
X123317000Y-85344000D03*
X107677000Y-76346000D03*
X110871000Y-104582000D03*
X87757000Y-79756000D03*
X67818000Y-70231000D03*
X87757000Y-74930000D03*
X124460000Y-71501000D03*
X139065000Y-63373000D03*
X123698000Y-87630000D03*
X76962000Y-104582000D03*
X123317000Y-84582000D03*
X124460000Y-70739000D03*
X86868000Y-74930000D03*
X108566000Y-76346000D03*
X87757000Y-82423000D03*
X87757000Y-75819000D03*
X88646000Y-74930000D03*
X75438000Y-104582000D03*
X89535000Y-74930000D03*
X93980000Y-104582000D03*
X88646000Y-81534000D03*
X67818000Y-68453000D03*
X76962000Y-68453000D03*
X88646000Y-82423000D03*
X120923000Y-75546000D03*
X104726500Y-62786500D03*
X89535000Y-81534000D03*
X92456000Y-104582000D03*
X111379000Y-76346000D03*
X67818000Y-69342000D03*
X89535000Y-82423000D03*
X88646000Y-80645000D03*
X88646000Y-75819000D03*
X89535000Y-79756000D03*
X109347000Y-104582000D03*
X117240000Y-75546000D03*
X87757000Y-80645000D03*
X86868000Y-75819000D03*
X127762000Y-104582000D03*
X120034000Y-75546000D03*
X87757000Y-81534000D03*
X89535000Y-80645000D03*
X86868000Y-79756000D03*
X79629000Y-73533000D03*
X115500000Y-67691000D03*
X91694000Y-67691000D03*
X69723000Y-73533000D03*
X114681000Y-66802000D03*
X91694000Y-66802000D03*
X69723000Y-72644000D03*
X79629000Y-72644000D03*
X110490000Y-79756000D03*
X111379000Y-74746000D03*
D17*
X117856000Y-67691000D02*
X119634000Y-69469000D01*
X121793000Y-88392000D02*
X123571000Y-90170000D01*
X123571000Y-90170000D02*
X127254000Y-90170000D01*
X121793000Y-87249000D02*
X121793000Y-88392000D01*
X122555000Y-88138000D02*
X123317000Y-88900000D01*
X121793000Y-86233000D02*
X122555000Y-86995000D01*
X122555000Y-86995000D02*
X122555000Y-88138000D01*
X123317000Y-88900000D02*
X127254000Y-88900000D01*
X114326895Y-67310000D02*
X114428495Y-67411600D01*
X114933505Y-67411600D02*
X115035105Y-67310000D01*
X115119000Y-67310000D02*
X115500000Y-67691000D01*
X92329000Y-67691000D02*
X92710000Y-67310000D01*
X114428495Y-67411600D02*
X114933505Y-67411600D01*
X115035105Y-67310000D02*
X115119000Y-67310000D01*
X79629000Y-73533000D02*
X69723000Y-73533000D01*
X91694000Y-67691000D02*
X92329000Y-67691000D01*
X92710000Y-67310000D02*
X114326895Y-67310000D01*
X79629000Y-72644000D02*
X69723000Y-72644000D01*
X91694000Y-66802000D02*
X114681000Y-66802000D01*
X112141000Y-75438000D02*
X111449000Y-74746000D01*
X110490000Y-79756000D02*
X112141000Y-78105000D01*
X111449000Y-74746000D02*
X111379000Y-74746000D01*
X112141000Y-78105000D02*
X112141000Y-75438000D01*
G04 #@! TA.AperFunction,Conductor*
G36*
X152214621Y-50947502D02*
G01*
X152261114Y-51001158D01*
X152272500Y-51053500D01*
X152272500Y-114046500D01*
X152252498Y-114114621D01*
X152198842Y-114161114D01*
X152146500Y-114172500D01*
X133578639Y-114172500D01*
X133531775Y-114191911D01*
X133495911Y-114227775D01*
X133476500Y-114274638D01*
X133476500Y-124206500D01*
X133456498Y-124274621D01*
X133402842Y-124321114D01*
X133350500Y-124332500D01*
X69849500Y-124332500D01*
X69781379Y-124312498D01*
X69734886Y-124258842D01*
X69723500Y-124206500D01*
X69723500Y-121795731D01*
X71946200Y-121795731D01*
X71946200Y-121795734D01*
X71946200Y-121993466D01*
X71984775Y-122187398D01*
X72060444Y-122370078D01*
X72133845Y-122479931D01*
X72170297Y-122534484D01*
X72170302Y-122534490D01*
X72310109Y-122674297D01*
X72310115Y-122674302D01*
X72474522Y-122784156D01*
X72657202Y-122859825D01*
X72851134Y-122898400D01*
X72851135Y-122898400D01*
X73048865Y-122898400D01*
X73048866Y-122898400D01*
X73242798Y-122859825D01*
X73425478Y-122784156D01*
X73589885Y-122674302D01*
X73729702Y-122534485D01*
X73839556Y-122370078D01*
X73915225Y-122187398D01*
X73953800Y-121993466D01*
X73953800Y-121795734D01*
X73953799Y-121795731D01*
X78446201Y-121795731D01*
X78446201Y-121795734D01*
X78446201Y-121993466D01*
X78484776Y-122187398D01*
X78560445Y-122370078D01*
X78633846Y-122479931D01*
X78670298Y-122534484D01*
X78670303Y-122534490D01*
X78810110Y-122674297D01*
X78810116Y-122674302D01*
X78974523Y-122784156D01*
X79157203Y-122859825D01*
X79351135Y-122898400D01*
X79351136Y-122898400D01*
X79548866Y-122898400D01*
X79548867Y-122898400D01*
X79742799Y-122859825D01*
X79925479Y-122784156D01*
X80089886Y-122674302D01*
X80229703Y-122534485D01*
X80339557Y-122370078D01*
X80415226Y-122187398D01*
X80453801Y-121993466D01*
X80453801Y-121795734D01*
X80453800Y-121795731D01*
X88888000Y-121795731D01*
X88888000Y-121795734D01*
X88888000Y-121993466D01*
X88926575Y-122187398D01*
X89002244Y-122370078D01*
X89075645Y-122479931D01*
X89112097Y-122534484D01*
X89112102Y-122534490D01*
X89251909Y-122674297D01*
X89251915Y-122674302D01*
X89416322Y-122784156D01*
X89599002Y-122859825D01*
X89792934Y-122898400D01*
X89792935Y-122898400D01*
X89990665Y-122898400D01*
X89990666Y-122898400D01*
X90184598Y-122859825D01*
X90367278Y-122784156D01*
X90531685Y-122674302D01*
X90671502Y-122534485D01*
X90781356Y-122370078D01*
X90857025Y-122187398D01*
X90895600Y-121993466D01*
X90895600Y-121795734D01*
X90895599Y-121795731D01*
X95388001Y-121795731D01*
X95388001Y-121795734D01*
X95388001Y-121993466D01*
X95426576Y-122187398D01*
X95502245Y-122370078D01*
X95575646Y-122479931D01*
X95612098Y-122534484D01*
X95612103Y-122534490D01*
X95751910Y-122674297D01*
X95751916Y-122674302D01*
X95916323Y-122784156D01*
X96099003Y-122859825D01*
X96292935Y-122898400D01*
X96292936Y-122898400D01*
X96490666Y-122898400D01*
X96490667Y-122898400D01*
X96684599Y-122859825D01*
X96867279Y-122784156D01*
X97031686Y-122674302D01*
X97171503Y-122534485D01*
X97281357Y-122370078D01*
X97357026Y-122187398D01*
X97395601Y-121993466D01*
X97395601Y-121795734D01*
X97395600Y-121795731D01*
X105804400Y-121795731D01*
X105804400Y-121795734D01*
X105804400Y-121993466D01*
X105842975Y-122187398D01*
X105918644Y-122370078D01*
X105992045Y-122479931D01*
X106028497Y-122534484D01*
X106028502Y-122534490D01*
X106168309Y-122674297D01*
X106168315Y-122674302D01*
X106332722Y-122784156D01*
X106515402Y-122859825D01*
X106709334Y-122898400D01*
X106709335Y-122898400D01*
X106907065Y-122898400D01*
X106907066Y-122898400D01*
X107100998Y-122859825D01*
X107283678Y-122784156D01*
X107448085Y-122674302D01*
X107587902Y-122534485D01*
X107697756Y-122370078D01*
X107773425Y-122187398D01*
X107812000Y-121993466D01*
X107812000Y-121795734D01*
X107811999Y-121795731D01*
X112304401Y-121795731D01*
X112304401Y-121795734D01*
X112304401Y-121993466D01*
X112342976Y-122187398D01*
X112418645Y-122370078D01*
X112492046Y-122479931D01*
X112528498Y-122534484D01*
X112528503Y-122534490D01*
X112668310Y-122674297D01*
X112668316Y-122674302D01*
X112832723Y-122784156D01*
X113015403Y-122859825D01*
X113209335Y-122898400D01*
X113209336Y-122898400D01*
X113407066Y-122898400D01*
X113407067Y-122898400D01*
X113600999Y-122859825D01*
X113783679Y-122784156D01*
X113948086Y-122674302D01*
X114087903Y-122534485D01*
X114197757Y-122370078D01*
X114273426Y-122187398D01*
X114312001Y-121993466D01*
X114312001Y-121795734D01*
X114312000Y-121795731D01*
X122746200Y-121795731D01*
X122746200Y-121795734D01*
X122746200Y-121993466D01*
X122784775Y-122187398D01*
X122860444Y-122370078D01*
X122933845Y-122479931D01*
X122970297Y-122534484D01*
X122970302Y-122534490D01*
X123110109Y-122674297D01*
X123110115Y-122674302D01*
X123274522Y-122784156D01*
X123457202Y-122859825D01*
X123651134Y-122898400D01*
X123651135Y-122898400D01*
X123848865Y-122898400D01*
X123848866Y-122898400D01*
X124042798Y-122859825D01*
X124225478Y-122784156D01*
X124389885Y-122674302D01*
X124529702Y-122534485D01*
X124639556Y-122370078D01*
X124715225Y-122187398D01*
X124753800Y-121993466D01*
X124753800Y-121795734D01*
X124753799Y-121795731D01*
X129246201Y-121795731D01*
X129246201Y-121795734D01*
X129246201Y-121993466D01*
X129284776Y-122187398D01*
X129360445Y-122370078D01*
X129433846Y-122479931D01*
X129470298Y-122534484D01*
X129470303Y-122534490D01*
X129610110Y-122674297D01*
X129610116Y-122674302D01*
X129774523Y-122784156D01*
X129957203Y-122859825D01*
X130151135Y-122898400D01*
X130151136Y-122898400D01*
X130348866Y-122898400D01*
X130348867Y-122898400D01*
X130542799Y-122859825D01*
X130725479Y-122784156D01*
X130889886Y-122674302D01*
X131029703Y-122534485D01*
X131139557Y-122370078D01*
X131215226Y-122187398D01*
X131253801Y-121993466D01*
X131253801Y-121795734D01*
X131215226Y-121601802D01*
X131139557Y-121419122D01*
X131029703Y-121254715D01*
X131029698Y-121254709D01*
X130889891Y-121114902D01*
X130889885Y-121114897D01*
X130835332Y-121078445D01*
X130725479Y-121005044D01*
X130542799Y-120929375D01*
X130348869Y-120890800D01*
X130348867Y-120890800D01*
X130151135Y-120890800D01*
X130151132Y-120890800D01*
X129957202Y-120929375D01*
X129957197Y-120929377D01*
X129774523Y-121005044D01*
X129610116Y-121114897D01*
X129610110Y-121114902D01*
X129470303Y-121254709D01*
X129470298Y-121254715D01*
X129360445Y-121419122D01*
X129284778Y-121601796D01*
X129284776Y-121601801D01*
X129246201Y-121795731D01*
X124753799Y-121795731D01*
X124715225Y-121601802D01*
X124639556Y-121419122D01*
X124529702Y-121254715D01*
X124529697Y-121254709D01*
X124389890Y-121114902D01*
X124389884Y-121114897D01*
X124335331Y-121078445D01*
X124225478Y-121005044D01*
X124042798Y-120929375D01*
X123848868Y-120890800D01*
X123848866Y-120890800D01*
X123651134Y-120890800D01*
X123651131Y-120890800D01*
X123457201Y-120929375D01*
X123457196Y-120929377D01*
X123274522Y-121005044D01*
X123110115Y-121114897D01*
X123110109Y-121114902D01*
X122970302Y-121254709D01*
X122970297Y-121254715D01*
X122860444Y-121419122D01*
X122784777Y-121601796D01*
X122784775Y-121601801D01*
X122746200Y-121795731D01*
X114312000Y-121795731D01*
X114273426Y-121601802D01*
X114197757Y-121419122D01*
X114087903Y-121254715D01*
X114087898Y-121254709D01*
X113948091Y-121114902D01*
X113948085Y-121114897D01*
X113893532Y-121078445D01*
X113783679Y-121005044D01*
X113600999Y-120929375D01*
X113407069Y-120890800D01*
X113407067Y-120890800D01*
X113209335Y-120890800D01*
X113209332Y-120890800D01*
X113015402Y-120929375D01*
X113015397Y-120929377D01*
X112832723Y-121005044D01*
X112668316Y-121114897D01*
X112668310Y-121114902D01*
X112528503Y-121254709D01*
X112528498Y-121254715D01*
X112418645Y-121419122D01*
X112342978Y-121601796D01*
X112342976Y-121601801D01*
X112304401Y-121795731D01*
X107811999Y-121795731D01*
X107773425Y-121601802D01*
X107697756Y-121419122D01*
X107587902Y-121254715D01*
X107587897Y-121254709D01*
X107448090Y-121114902D01*
X107448084Y-121114897D01*
X107393531Y-121078445D01*
X107283678Y-121005044D01*
X107100998Y-120929375D01*
X106907068Y-120890800D01*
X106907066Y-120890800D01*
X106709334Y-120890800D01*
X106709331Y-120890800D01*
X106515401Y-120929375D01*
X106515396Y-120929377D01*
X106332722Y-121005044D01*
X106168315Y-121114897D01*
X106168309Y-121114902D01*
X106028502Y-121254709D01*
X106028497Y-121254715D01*
X105918644Y-121419122D01*
X105842977Y-121601796D01*
X105842975Y-121601801D01*
X105804400Y-121795731D01*
X97395600Y-121795731D01*
X97357026Y-121601802D01*
X97281357Y-121419122D01*
X97171503Y-121254715D01*
X97171498Y-121254709D01*
X97031691Y-121114902D01*
X97031685Y-121114897D01*
X96977132Y-121078445D01*
X96867279Y-121005044D01*
X96684599Y-120929375D01*
X96490669Y-120890800D01*
X96490667Y-120890800D01*
X96292935Y-120890800D01*
X96292932Y-120890800D01*
X96099002Y-120929375D01*
X96098997Y-120929377D01*
X95916323Y-121005044D01*
X95751916Y-121114897D01*
X95751910Y-121114902D01*
X95612103Y-121254709D01*
X95612098Y-121254715D01*
X95502245Y-121419122D01*
X95426578Y-121601796D01*
X95426576Y-121601801D01*
X95388001Y-121795731D01*
X90895599Y-121795731D01*
X90857025Y-121601802D01*
X90781356Y-121419122D01*
X90671502Y-121254715D01*
X90671497Y-121254709D01*
X90531690Y-121114902D01*
X90531684Y-121114897D01*
X90477131Y-121078445D01*
X90367278Y-121005044D01*
X90184598Y-120929375D01*
X89990668Y-120890800D01*
X89990666Y-120890800D01*
X89792934Y-120890800D01*
X89792931Y-120890800D01*
X89599001Y-120929375D01*
X89598996Y-120929377D01*
X89416322Y-121005044D01*
X89251915Y-121114897D01*
X89251909Y-121114902D01*
X89112102Y-121254709D01*
X89112097Y-121254715D01*
X89002244Y-121419122D01*
X88926577Y-121601796D01*
X88926575Y-121601801D01*
X88888000Y-121795731D01*
X80453800Y-121795731D01*
X80415226Y-121601802D01*
X80339557Y-121419122D01*
X80229703Y-121254715D01*
X80229698Y-121254709D01*
X80089891Y-121114902D01*
X80089885Y-121114897D01*
X80035332Y-121078445D01*
X79925479Y-121005044D01*
X79742799Y-120929375D01*
X79548869Y-120890800D01*
X79548867Y-120890800D01*
X79351135Y-120890800D01*
X79351132Y-120890800D01*
X79157202Y-120929375D01*
X79157197Y-120929377D01*
X78974523Y-121005044D01*
X78810116Y-121114897D01*
X78810110Y-121114902D01*
X78670303Y-121254709D01*
X78670298Y-121254715D01*
X78560445Y-121419122D01*
X78484778Y-121601796D01*
X78484776Y-121601801D01*
X78446201Y-121795731D01*
X73953799Y-121795731D01*
X73915225Y-121601802D01*
X73839556Y-121419122D01*
X73729702Y-121254715D01*
X73729697Y-121254709D01*
X73589890Y-121114902D01*
X73589884Y-121114897D01*
X73535331Y-121078445D01*
X73425478Y-121005044D01*
X73242798Y-120929375D01*
X73048868Y-120890800D01*
X73048866Y-120890800D01*
X72851134Y-120890800D01*
X72851131Y-120890800D01*
X72657201Y-120929375D01*
X72657196Y-120929377D01*
X72474522Y-121005044D01*
X72310115Y-121114897D01*
X72310109Y-121114902D01*
X72170302Y-121254709D01*
X72170297Y-121254715D01*
X72060444Y-121419122D01*
X71984777Y-121601796D01*
X71984775Y-121601801D01*
X71946200Y-121795731D01*
X69723500Y-121795731D01*
X69723500Y-117295650D01*
X71692700Y-117295650D01*
X71692700Y-117493547D01*
X71723660Y-117689022D01*
X71784812Y-117877230D01*
X71784815Y-117877236D01*
X71874660Y-118053567D01*
X71898713Y-118086673D01*
X72469678Y-117515707D01*
X72488454Y-117585778D01*
X72553661Y-117698720D01*
X72645879Y-117790938D01*
X72758821Y-117856145D01*
X72828888Y-117874919D01*
X72257924Y-118445883D01*
X72257924Y-118445885D01*
X72291026Y-118469936D01*
X72467362Y-118559783D01*
X72467368Y-118559786D01*
X72655577Y-118620938D01*
X72655574Y-118620938D01*
X72851051Y-118651899D01*
X73048949Y-118651899D01*
X73244423Y-118620938D01*
X73432631Y-118559786D01*
X73432637Y-118559783D01*
X73608972Y-118469936D01*
X73642074Y-118445885D01*
X73071110Y-117874919D01*
X73141179Y-117856145D01*
X73254121Y-117790938D01*
X73346339Y-117698720D01*
X73411546Y-117585778D01*
X73430320Y-117515708D01*
X74001286Y-118086673D01*
X74025337Y-118053571D01*
X74115184Y-117877236D01*
X74115187Y-117877230D01*
X74176339Y-117689022D01*
X74194130Y-117576697D01*
X74207300Y-117493547D01*
X74207300Y-117295650D01*
X74176339Y-117100175D01*
X74115187Y-116911967D01*
X74115184Y-116911961D01*
X74025337Y-116735626D01*
X74001286Y-116702523D01*
X74001284Y-116702523D01*
X73430320Y-117273487D01*
X73411546Y-117203420D01*
X73346339Y-117090478D01*
X73254121Y-116998260D01*
X73141179Y-116933053D01*
X73071109Y-116914278D01*
X73388685Y-116596701D01*
X78192701Y-116596701D01*
X78192701Y-117140599D01*
X79024725Y-117140599D01*
X78988455Y-117203420D01*
X78954701Y-117329392D01*
X78954701Y-117459806D01*
X78988455Y-117585778D01*
X79024725Y-117648599D01*
X78192701Y-117648599D01*
X78192701Y-118192496D01*
X78199206Y-118252992D01*
X78250256Y-118389863D01*
X78250256Y-118389864D01*
X78337796Y-118506803D01*
X78454735Y-118594343D01*
X78591607Y-118645393D01*
X78652103Y-118651898D01*
X78652116Y-118651899D01*
X79196001Y-118651899D01*
X79196001Y-117819875D01*
X79258822Y-117856145D01*
X79384794Y-117889899D01*
X79515208Y-117889899D01*
X79641180Y-117856145D01*
X79704001Y-117819875D01*
X79704001Y-118651899D01*
X80247886Y-118651899D01*
X80247898Y-118651898D01*
X80308394Y-118645393D01*
X80445265Y-118594343D01*
X80445266Y-118594343D01*
X80562205Y-118506803D01*
X80649744Y-118389865D01*
X80663185Y-118353830D01*
X80663185Y-118353829D01*
X80700795Y-118252992D01*
X80707300Y-118192496D01*
X80707301Y-118192484D01*
X80707301Y-117648599D01*
X79875277Y-117648599D01*
X79911547Y-117585778D01*
X79945301Y-117459806D01*
X79945301Y-117329392D01*
X79936260Y-117295650D01*
X88634500Y-117295650D01*
X88634500Y-117493547D01*
X88665460Y-117689022D01*
X88726612Y-117877230D01*
X88726615Y-117877236D01*
X88816460Y-118053567D01*
X88840513Y-118086673D01*
X89411478Y-117515707D01*
X89430254Y-117585778D01*
X89495461Y-117698720D01*
X89587679Y-117790938D01*
X89700621Y-117856145D01*
X89770688Y-117874919D01*
X89199724Y-118445883D01*
X89199724Y-118445885D01*
X89232826Y-118469936D01*
X89409162Y-118559783D01*
X89409168Y-118559786D01*
X89597377Y-118620938D01*
X89597374Y-118620938D01*
X89792851Y-118651899D01*
X89990749Y-118651899D01*
X90186223Y-118620938D01*
X90374431Y-118559786D01*
X90374437Y-118559783D01*
X90550772Y-118469936D01*
X90583874Y-118445885D01*
X90012910Y-117874919D01*
X90082979Y-117856145D01*
X90195921Y-117790938D01*
X90288139Y-117698720D01*
X90353346Y-117585778D01*
X90372120Y-117515708D01*
X90943086Y-118086673D01*
X90967137Y-118053571D01*
X91056984Y-117877236D01*
X91056987Y-117877230D01*
X91118139Y-117689022D01*
X91135930Y-117576697D01*
X91149100Y-117493547D01*
X91149100Y-117295650D01*
X91118139Y-117100175D01*
X91056987Y-116911967D01*
X91056984Y-116911961D01*
X90967137Y-116735626D01*
X90943086Y-116702523D01*
X90943084Y-116702523D01*
X90372120Y-117273487D01*
X90353346Y-117203420D01*
X90288139Y-117090478D01*
X90195921Y-116998260D01*
X90082979Y-116933053D01*
X90012909Y-116914278D01*
X90330485Y-116596701D01*
X95134501Y-116596701D01*
X95134501Y-117140599D01*
X95966525Y-117140599D01*
X95930255Y-117203420D01*
X95896501Y-117329392D01*
X95896501Y-117459806D01*
X95930255Y-117585778D01*
X95966525Y-117648599D01*
X95134501Y-117648599D01*
X95134501Y-118192496D01*
X95141006Y-118252992D01*
X95192056Y-118389863D01*
X95192056Y-118389864D01*
X95279596Y-118506803D01*
X95396535Y-118594343D01*
X95533407Y-118645393D01*
X95593903Y-118651898D01*
X95593916Y-118651899D01*
X96137801Y-118651899D01*
X96137801Y-117819875D01*
X96200622Y-117856145D01*
X96326594Y-117889899D01*
X96457008Y-117889899D01*
X96582980Y-117856145D01*
X96645801Y-117819875D01*
X96645801Y-118651899D01*
X97189686Y-118651899D01*
X97189698Y-118651898D01*
X97250194Y-118645393D01*
X97387065Y-118594343D01*
X97387066Y-118594343D01*
X97504005Y-118506803D01*
X97591544Y-118389865D01*
X97604985Y-118353830D01*
X97604985Y-118353829D01*
X97642595Y-118252992D01*
X97649100Y-118192496D01*
X97649101Y-118192484D01*
X97649101Y-117648599D01*
X96817077Y-117648599D01*
X96853347Y-117585778D01*
X96887101Y-117459806D01*
X96887101Y-117329392D01*
X96878060Y-117295650D01*
X105550900Y-117295650D01*
X105550900Y-117493547D01*
X105581860Y-117689022D01*
X105643012Y-117877230D01*
X105643015Y-117877236D01*
X105732860Y-118053567D01*
X105756913Y-118086673D01*
X106327878Y-117515707D01*
X106346654Y-117585778D01*
X106411861Y-117698720D01*
X106504079Y-117790938D01*
X106617021Y-117856145D01*
X106687088Y-117874919D01*
X106116124Y-118445883D01*
X106116124Y-118445885D01*
X106149226Y-118469936D01*
X106325562Y-118559783D01*
X106325568Y-118559786D01*
X106513777Y-118620938D01*
X106513774Y-118620938D01*
X106709251Y-118651899D01*
X106907149Y-118651899D01*
X107102623Y-118620938D01*
X107290831Y-118559786D01*
X107290837Y-118559783D01*
X107467172Y-118469936D01*
X107500274Y-118445885D01*
X106929310Y-117874919D01*
X106999379Y-117856145D01*
X107112321Y-117790938D01*
X107204539Y-117698720D01*
X107269746Y-117585778D01*
X107288520Y-117515708D01*
X107859486Y-118086673D01*
X107883537Y-118053571D01*
X107973384Y-117877236D01*
X107973387Y-117877230D01*
X108034539Y-117689022D01*
X108052330Y-117576697D01*
X108065500Y-117493547D01*
X108065500Y-117295650D01*
X108034539Y-117100175D01*
X107973387Y-116911967D01*
X107973384Y-116911961D01*
X107883537Y-116735626D01*
X107859486Y-116702523D01*
X107859484Y-116702523D01*
X107288520Y-117273487D01*
X107269746Y-117203420D01*
X107204539Y-117090478D01*
X107112321Y-116998260D01*
X106999379Y-116933053D01*
X106929309Y-116914278D01*
X107246885Y-116596701D01*
X112050901Y-116596701D01*
X112050901Y-117140599D01*
X112882925Y-117140599D01*
X112846655Y-117203420D01*
X112812901Y-117329392D01*
X112812901Y-117459806D01*
X112846655Y-117585778D01*
X112882925Y-117648599D01*
X112050901Y-117648599D01*
X112050901Y-118192496D01*
X112057406Y-118252992D01*
X112108456Y-118389863D01*
X112108456Y-118389864D01*
X112195996Y-118506803D01*
X112312935Y-118594343D01*
X112449807Y-118645393D01*
X112510303Y-118651898D01*
X112510316Y-118651899D01*
X113054201Y-118651899D01*
X113054201Y-117819875D01*
X113117022Y-117856145D01*
X113242994Y-117889899D01*
X113373408Y-117889899D01*
X113499380Y-117856145D01*
X113562201Y-117819875D01*
X113562201Y-118651899D01*
X114106086Y-118651899D01*
X114106098Y-118651898D01*
X114166594Y-118645393D01*
X114303465Y-118594343D01*
X114303466Y-118594343D01*
X114420405Y-118506803D01*
X114507944Y-118389865D01*
X114521385Y-118353830D01*
X114521385Y-118353829D01*
X114558995Y-118252992D01*
X114565500Y-118192496D01*
X114565501Y-118192484D01*
X114565501Y-117648599D01*
X113733477Y-117648599D01*
X113769747Y-117585778D01*
X113803501Y-117459806D01*
X113803501Y-117329392D01*
X113794460Y-117295650D01*
X122492700Y-117295650D01*
X122492700Y-117493547D01*
X122523660Y-117689022D01*
X122584812Y-117877230D01*
X122584815Y-117877236D01*
X122674660Y-118053567D01*
X122698713Y-118086673D01*
X123269678Y-117515707D01*
X123288454Y-117585778D01*
X123353661Y-117698720D01*
X123445879Y-117790938D01*
X123558821Y-117856145D01*
X123628888Y-117874919D01*
X123057924Y-118445883D01*
X123057924Y-118445885D01*
X123091026Y-118469936D01*
X123267362Y-118559783D01*
X123267368Y-118559786D01*
X123455577Y-118620938D01*
X123455574Y-118620938D01*
X123651051Y-118651899D01*
X123848949Y-118651899D01*
X124044423Y-118620938D01*
X124232631Y-118559786D01*
X124232637Y-118559783D01*
X124408972Y-118469936D01*
X124442074Y-118445885D01*
X123871110Y-117874919D01*
X123941179Y-117856145D01*
X124054121Y-117790938D01*
X124146339Y-117698720D01*
X124211546Y-117585778D01*
X124230320Y-117515708D01*
X124801286Y-118086673D01*
X124825337Y-118053571D01*
X124915184Y-117877236D01*
X124915187Y-117877230D01*
X124976339Y-117689022D01*
X124994130Y-117576697D01*
X125007300Y-117493547D01*
X125007300Y-117295650D01*
X124976339Y-117100175D01*
X124915187Y-116911967D01*
X124915184Y-116911961D01*
X124825337Y-116735626D01*
X124801286Y-116702523D01*
X124801284Y-116702523D01*
X124230320Y-117273487D01*
X124211546Y-117203420D01*
X124146339Y-117090478D01*
X124054121Y-116998260D01*
X123941179Y-116933053D01*
X123871109Y-116914278D01*
X124188685Y-116596701D01*
X128992701Y-116596701D01*
X128992701Y-117140599D01*
X129824725Y-117140599D01*
X129788455Y-117203420D01*
X129754701Y-117329392D01*
X129754701Y-117459806D01*
X129788455Y-117585778D01*
X129824725Y-117648599D01*
X128992701Y-117648599D01*
X128992701Y-118192496D01*
X128999206Y-118252992D01*
X129050256Y-118389863D01*
X129050256Y-118389864D01*
X129137796Y-118506803D01*
X129254735Y-118594343D01*
X129391607Y-118645393D01*
X129452103Y-118651898D01*
X129452116Y-118651899D01*
X129996001Y-118651899D01*
X129996001Y-117819875D01*
X130058822Y-117856145D01*
X130184794Y-117889899D01*
X130315208Y-117889899D01*
X130441180Y-117856145D01*
X130504001Y-117819875D01*
X130504001Y-118651899D01*
X131047886Y-118651899D01*
X131047898Y-118651898D01*
X131108394Y-118645393D01*
X131245265Y-118594343D01*
X131245266Y-118594343D01*
X131362205Y-118506803D01*
X131449745Y-118389864D01*
X131449745Y-118389863D01*
X131500795Y-118252992D01*
X131507300Y-118192496D01*
X131507301Y-118192484D01*
X131507301Y-117648599D01*
X130675277Y-117648599D01*
X130711547Y-117585778D01*
X130745301Y-117459806D01*
X130745301Y-117329392D01*
X130711547Y-117203420D01*
X130675277Y-117140599D01*
X131507301Y-117140599D01*
X131507301Y-116596713D01*
X131507300Y-116596701D01*
X131500795Y-116536205D01*
X131449745Y-116399334D01*
X131449745Y-116399333D01*
X131362205Y-116282394D01*
X131245266Y-116194854D01*
X131108394Y-116143804D01*
X131047898Y-116137299D01*
X130504001Y-116137299D01*
X130504001Y-116969322D01*
X130441180Y-116933053D01*
X130315208Y-116899299D01*
X130184794Y-116899299D01*
X130058822Y-116933053D01*
X129996001Y-116969322D01*
X129996001Y-116137299D01*
X129452103Y-116137299D01*
X129391607Y-116143804D01*
X129254736Y-116194854D01*
X129254735Y-116194854D01*
X129137796Y-116282394D01*
X129050256Y-116399333D01*
X129050256Y-116399334D01*
X128999206Y-116536205D01*
X128992701Y-116596701D01*
X124188685Y-116596701D01*
X124442074Y-116343312D01*
X124408968Y-116319259D01*
X124232637Y-116229414D01*
X124232631Y-116229411D01*
X124044422Y-116168259D01*
X124044425Y-116168259D01*
X123848949Y-116137299D01*
X123651051Y-116137299D01*
X123455576Y-116168259D01*
X123267368Y-116229411D01*
X123267356Y-116229416D01*
X123091032Y-116319257D01*
X123057924Y-116343311D01*
X123057924Y-116343313D01*
X123628889Y-116914278D01*
X123558821Y-116933053D01*
X123445879Y-116998260D01*
X123353661Y-117090478D01*
X123288454Y-117203420D01*
X123269679Y-117273488D01*
X122698714Y-116702523D01*
X122698712Y-116702523D01*
X122674658Y-116735631D01*
X122584817Y-116911955D01*
X122584812Y-116911967D01*
X122523660Y-117100175D01*
X122492700Y-117295650D01*
X113794460Y-117295650D01*
X113769747Y-117203420D01*
X113733477Y-117140599D01*
X114565501Y-117140599D01*
X114565501Y-116596713D01*
X114565500Y-116596701D01*
X114558995Y-116536204D01*
X114521385Y-116435366D01*
X114521384Y-116435363D01*
X114507947Y-116399338D01*
X114507945Y-116399333D01*
X114420405Y-116282394D01*
X114303466Y-116194854D01*
X114166594Y-116143804D01*
X114106098Y-116137299D01*
X113562201Y-116137299D01*
X113562201Y-116969322D01*
X113499380Y-116933053D01*
X113373408Y-116899299D01*
X113242994Y-116899299D01*
X113117022Y-116933053D01*
X113054201Y-116969322D01*
X113054201Y-116137299D01*
X112510303Y-116137299D01*
X112449807Y-116143804D01*
X112312936Y-116194854D01*
X112312935Y-116194854D01*
X112195996Y-116282394D01*
X112108456Y-116399333D01*
X112108456Y-116399334D01*
X112057406Y-116536205D01*
X112050901Y-116596701D01*
X107246885Y-116596701D01*
X107500274Y-116343312D01*
X107467168Y-116319259D01*
X107290837Y-116229414D01*
X107290831Y-116229411D01*
X107102622Y-116168259D01*
X107102625Y-116168259D01*
X106907149Y-116137299D01*
X106709251Y-116137299D01*
X106513776Y-116168259D01*
X106325568Y-116229411D01*
X106325556Y-116229416D01*
X106149232Y-116319257D01*
X106116124Y-116343311D01*
X106116124Y-116343313D01*
X106687089Y-116914278D01*
X106617021Y-116933053D01*
X106504079Y-116998260D01*
X106411861Y-117090478D01*
X106346654Y-117203420D01*
X106327879Y-117273488D01*
X105756914Y-116702523D01*
X105756912Y-116702523D01*
X105732858Y-116735631D01*
X105643017Y-116911955D01*
X105643012Y-116911967D01*
X105581860Y-117100175D01*
X105550900Y-117295650D01*
X96878060Y-117295650D01*
X96853347Y-117203420D01*
X96817077Y-117140599D01*
X97649101Y-117140599D01*
X97649101Y-116596713D01*
X97649100Y-116596701D01*
X97642595Y-116536204D01*
X97604985Y-116435366D01*
X97604984Y-116435363D01*
X97591547Y-116399338D01*
X97591545Y-116399333D01*
X97504005Y-116282394D01*
X97387066Y-116194854D01*
X97250194Y-116143804D01*
X97189698Y-116137299D01*
X96645801Y-116137299D01*
X96645801Y-116969322D01*
X96582980Y-116933053D01*
X96457008Y-116899299D01*
X96326594Y-116899299D01*
X96200622Y-116933053D01*
X96137801Y-116969322D01*
X96137801Y-116137299D01*
X95593903Y-116137299D01*
X95533407Y-116143804D01*
X95396536Y-116194854D01*
X95396535Y-116194854D01*
X95279596Y-116282394D01*
X95192056Y-116399333D01*
X95192056Y-116399334D01*
X95141006Y-116536205D01*
X95134501Y-116596701D01*
X90330485Y-116596701D01*
X90583874Y-116343312D01*
X90550768Y-116319259D01*
X90374437Y-116229414D01*
X90374431Y-116229411D01*
X90186222Y-116168259D01*
X90186225Y-116168259D01*
X89990749Y-116137299D01*
X89792851Y-116137299D01*
X89597376Y-116168259D01*
X89409168Y-116229411D01*
X89409156Y-116229416D01*
X89232832Y-116319257D01*
X89199724Y-116343311D01*
X89199724Y-116343313D01*
X89770689Y-116914278D01*
X89700621Y-116933053D01*
X89587679Y-116998260D01*
X89495461Y-117090478D01*
X89430254Y-117203420D01*
X89411479Y-117273488D01*
X88840514Y-116702523D01*
X88840512Y-116702523D01*
X88816458Y-116735631D01*
X88726617Y-116911955D01*
X88726612Y-116911967D01*
X88665460Y-117100175D01*
X88634500Y-117295650D01*
X79936260Y-117295650D01*
X79911547Y-117203420D01*
X79875277Y-117140599D01*
X80707301Y-117140599D01*
X80707301Y-116596713D01*
X80707300Y-116596701D01*
X80700795Y-116536204D01*
X80663185Y-116435366D01*
X80663184Y-116435363D01*
X80649747Y-116399338D01*
X80649745Y-116399333D01*
X80562205Y-116282394D01*
X80445266Y-116194854D01*
X80308394Y-116143804D01*
X80247898Y-116137299D01*
X79704001Y-116137299D01*
X79704001Y-116969322D01*
X79641180Y-116933053D01*
X79515208Y-116899299D01*
X79384794Y-116899299D01*
X79258822Y-116933053D01*
X79196001Y-116969322D01*
X79196001Y-116137299D01*
X78652103Y-116137299D01*
X78591607Y-116143804D01*
X78454736Y-116194854D01*
X78454735Y-116194854D01*
X78337796Y-116282394D01*
X78250256Y-116399333D01*
X78250256Y-116399334D01*
X78199206Y-116536205D01*
X78192701Y-116596701D01*
X73388685Y-116596701D01*
X73642074Y-116343312D01*
X73608968Y-116319259D01*
X73432637Y-116229414D01*
X73432631Y-116229411D01*
X73244422Y-116168259D01*
X73244425Y-116168259D01*
X73048949Y-116137299D01*
X72851051Y-116137299D01*
X72655576Y-116168259D01*
X72467368Y-116229411D01*
X72467356Y-116229416D01*
X72291032Y-116319257D01*
X72257924Y-116343311D01*
X72257924Y-116343313D01*
X72828889Y-116914278D01*
X72758821Y-116933053D01*
X72645879Y-116998260D01*
X72553661Y-117090478D01*
X72488454Y-117203420D01*
X72469679Y-117273488D01*
X71898714Y-116702523D01*
X71898712Y-116702523D01*
X71874658Y-116735631D01*
X71784817Y-116911955D01*
X71784812Y-116911967D01*
X71723660Y-117100175D01*
X71692700Y-117295650D01*
X69723500Y-117295650D01*
X69723500Y-114274638D01*
X69704088Y-114227775D01*
X69668224Y-114191911D01*
X69621361Y-114172500D01*
X51053500Y-114172500D01*
X50985379Y-114152498D01*
X50938886Y-114098842D01*
X50927500Y-114046500D01*
X50927500Y-109939284D01*
X51663500Y-109939284D01*
X51663500Y-110278715D01*
X51696767Y-110616476D01*
X51696770Y-110616497D01*
X51762985Y-110949383D01*
X51861514Y-111274189D01*
X51861515Y-111274193D01*
X51991403Y-111587770D01*
X52151404Y-111887112D01*
X52339966Y-112169316D01*
X52339971Y-112169322D01*
X52555292Y-112431692D01*
X52555310Y-112431711D01*
X52795288Y-112671689D01*
X52795307Y-112671707D01*
X52948261Y-112797233D01*
X53057675Y-112887027D01*
X53057679Y-112887029D01*
X53057683Y-112887033D01*
X53339887Y-113075595D01*
X53339890Y-113075597D01*
X53639230Y-113235597D01*
X53952811Y-113365486D01*
X54277613Y-113464014D01*
X54610508Y-113530231D01*
X54948291Y-113563500D01*
X54948300Y-113563500D01*
X55287700Y-113563500D01*
X55287709Y-113563500D01*
X55625492Y-113530231D01*
X55958387Y-113464014D01*
X56283189Y-113365486D01*
X56596770Y-113235597D01*
X56896110Y-113075597D01*
X57178325Y-112887027D01*
X57440698Y-112671702D01*
X57680702Y-112431698D01*
X57896027Y-112169325D01*
X58084597Y-111887110D01*
X58244597Y-111587770D01*
X58374486Y-111274189D01*
X58473014Y-110949387D01*
X58539231Y-110616492D01*
X58572500Y-110278709D01*
X58572500Y-109939291D01*
X58572499Y-109939284D01*
X144627500Y-109939284D01*
X144627500Y-110278715D01*
X144660767Y-110616476D01*
X144660770Y-110616497D01*
X144726985Y-110949383D01*
X144825514Y-111274189D01*
X144825515Y-111274193D01*
X144955403Y-111587770D01*
X145115404Y-111887112D01*
X145303966Y-112169316D01*
X145303971Y-112169322D01*
X145519292Y-112431692D01*
X145519310Y-112431711D01*
X145759288Y-112671689D01*
X145759307Y-112671707D01*
X145912261Y-112797233D01*
X146021675Y-112887027D01*
X146021679Y-112887029D01*
X146021683Y-112887033D01*
X146303887Y-113075595D01*
X146303890Y-113075597D01*
X146603230Y-113235597D01*
X146916811Y-113365486D01*
X147241613Y-113464014D01*
X147574508Y-113530231D01*
X147912291Y-113563500D01*
X147912300Y-113563500D01*
X148251700Y-113563500D01*
X148251709Y-113563500D01*
X148589492Y-113530231D01*
X148922387Y-113464014D01*
X149247189Y-113365486D01*
X149560770Y-113235597D01*
X149860110Y-113075597D01*
X150142325Y-112887027D01*
X150404698Y-112671702D01*
X150644702Y-112431698D01*
X150860027Y-112169325D01*
X151048597Y-111887110D01*
X151208597Y-111587770D01*
X151338486Y-111274189D01*
X151437014Y-110949387D01*
X151503231Y-110616492D01*
X151536500Y-110278709D01*
X151536500Y-109939291D01*
X151503231Y-109601508D01*
X151437014Y-109268613D01*
X151338486Y-108943811D01*
X151208597Y-108630230D01*
X151048597Y-108330890D01*
X151048595Y-108330887D01*
X150860033Y-108048683D01*
X150860028Y-108048677D01*
X150860027Y-108048675D01*
X150770233Y-107939261D01*
X150644707Y-107786307D01*
X150644689Y-107786288D01*
X150404711Y-107546310D01*
X150404692Y-107546292D01*
X150221146Y-107395660D01*
X150142325Y-107330973D01*
X150142321Y-107330970D01*
X150142316Y-107330966D01*
X149860112Y-107142404D01*
X149560770Y-106982403D01*
X149247193Y-106852515D01*
X149247189Y-106852514D01*
X148922387Y-106753986D01*
X148922384Y-106753985D01*
X148922383Y-106753985D01*
X148589497Y-106687770D01*
X148589492Y-106687769D01*
X148589485Y-106687768D01*
X148589476Y-106687767D01*
X148251715Y-106654500D01*
X148251709Y-106654500D01*
X147912291Y-106654500D01*
X147912284Y-106654500D01*
X147574523Y-106687767D01*
X147574511Y-106687768D01*
X147574508Y-106687769D01*
X147574505Y-106687769D01*
X147574502Y-106687770D01*
X147241616Y-106753985D01*
X146916810Y-106852514D01*
X146916806Y-106852515D01*
X146603229Y-106982403D01*
X146303887Y-107142404D01*
X146021683Y-107330966D01*
X146021677Y-107330971D01*
X145759307Y-107546292D01*
X145759288Y-107546310D01*
X145519310Y-107786288D01*
X145519292Y-107786307D01*
X145303971Y-108048677D01*
X145303966Y-108048683D01*
X145115404Y-108330887D01*
X144955403Y-108630229D01*
X144825515Y-108943806D01*
X144825514Y-108943810D01*
X144726985Y-109268616D01*
X144660770Y-109601502D01*
X144660767Y-109601523D01*
X144627500Y-109939284D01*
X58572499Y-109939284D01*
X58539231Y-109601508D01*
X58473014Y-109268613D01*
X58374486Y-108943811D01*
X58244597Y-108630230D01*
X58084597Y-108330890D01*
X58084595Y-108330887D01*
X57896033Y-108048683D01*
X57896028Y-108048677D01*
X57896027Y-108048675D01*
X57806233Y-107939261D01*
X57680707Y-107786307D01*
X57680689Y-107786288D01*
X57440711Y-107546310D01*
X57440692Y-107546292D01*
X57257146Y-107395660D01*
X57178325Y-107330973D01*
X57178321Y-107330970D01*
X57178316Y-107330966D01*
X56896112Y-107142404D01*
X56596770Y-106982403D01*
X56283193Y-106852515D01*
X56283189Y-106852514D01*
X55958387Y-106753986D01*
X55958384Y-106753985D01*
X55958383Y-106753985D01*
X55625497Y-106687770D01*
X55625492Y-106687769D01*
X55625485Y-106687768D01*
X55625476Y-106687767D01*
X55287715Y-106654500D01*
X55287709Y-106654500D01*
X54948291Y-106654500D01*
X54948284Y-106654500D01*
X54610523Y-106687767D01*
X54610511Y-106687768D01*
X54610508Y-106687769D01*
X54610505Y-106687769D01*
X54610502Y-106687770D01*
X54277616Y-106753985D01*
X53952810Y-106852514D01*
X53952806Y-106852515D01*
X53639229Y-106982403D01*
X53339887Y-107142404D01*
X53057683Y-107330966D01*
X53057677Y-107330971D01*
X52795307Y-107546292D01*
X52795288Y-107546310D01*
X52555310Y-107786288D01*
X52555292Y-107786307D01*
X52339971Y-108048677D01*
X52339966Y-108048683D01*
X52151404Y-108330887D01*
X51991403Y-108630229D01*
X51861515Y-108943806D01*
X51861514Y-108943810D01*
X51762985Y-109268616D01*
X51696770Y-109601502D01*
X51696767Y-109601523D01*
X51663500Y-109939284D01*
X50927500Y-109939284D01*
X50927500Y-93510484D01*
X91152000Y-93510484D01*
X91152000Y-94107000D01*
X92221562Y-94107000D01*
X92197482Y-94148708D01*
X92160000Y-94288591D01*
X92160000Y-94433409D01*
X92197482Y-94573292D01*
X92221562Y-94615000D01*
X91152001Y-94615000D01*
X91152001Y-95211507D01*
X91162605Y-95315318D01*
X91218342Y-95483525D01*
X91311366Y-95634339D01*
X91311371Y-95634345D01*
X91436654Y-95759628D01*
X91436660Y-95759633D01*
X91587474Y-95852657D01*
X91755678Y-95908393D01*
X91755681Y-95908394D01*
X91859484Y-95918999D01*
X92456000Y-95918999D01*
X92456000Y-94849438D01*
X92497708Y-94873518D01*
X92637591Y-94911000D01*
X92782409Y-94911000D01*
X92922292Y-94873518D01*
X92964000Y-94849438D01*
X92964000Y-95918999D01*
X93560507Y-95918999D01*
X93664318Y-95908394D01*
X93832525Y-95852657D01*
X93983339Y-95759633D01*
X93983345Y-95759628D01*
X94108628Y-95634345D01*
X94108633Y-95634339D01*
X94201658Y-95483523D01*
X94220012Y-95428133D01*
X94260425Y-95369761D01*
X94325981Y-95342504D01*
X94395866Y-95355016D01*
X94413678Y-95365828D01*
X94499434Y-95428133D01*
X94566293Y-95476709D01*
X94749246Y-95569928D01*
X94944529Y-95633379D01*
X95147334Y-95665500D01*
X95147337Y-95665500D01*
X95352663Y-95665500D01*
X95352666Y-95665500D01*
X95555471Y-95633379D01*
X95750754Y-95569928D01*
X95933707Y-95476709D01*
X96099825Y-95356017D01*
X96245017Y-95210825D01*
X96365709Y-95044707D01*
X96407734Y-94962227D01*
X96456481Y-94910614D01*
X96525396Y-94893548D01*
X96592598Y-94916449D01*
X96632265Y-94962227D01*
X96674291Y-95044707D01*
X96674293Y-95044710D01*
X96794984Y-95210827D01*
X96940172Y-95356015D01*
X96959092Y-95369761D01*
X97106293Y-95476709D01*
X97289246Y-95569928D01*
X97484529Y-95633379D01*
X97687334Y-95665500D01*
X97687337Y-95665500D01*
X97892663Y-95665500D01*
X97892666Y-95665500D01*
X98095471Y-95633379D01*
X98290754Y-95569928D01*
X98473707Y-95476709D01*
X98639825Y-95356017D01*
X98785017Y-95210825D01*
X98905709Y-95044707D01*
X98947734Y-94962227D01*
X98996481Y-94910614D01*
X99065396Y-94893548D01*
X99132598Y-94916449D01*
X99172265Y-94962227D01*
X99214291Y-95044707D01*
X99214293Y-95044710D01*
X99334984Y-95210827D01*
X99480172Y-95356015D01*
X99499092Y-95369761D01*
X99646293Y-95476709D01*
X99829246Y-95569928D01*
X100024529Y-95633379D01*
X100227334Y-95665500D01*
X100227337Y-95665500D01*
X100432663Y-95665500D01*
X100432666Y-95665500D01*
X100635471Y-95633379D01*
X100830754Y-95569928D01*
X101013707Y-95476709D01*
X101179825Y-95356017D01*
X101325017Y-95210825D01*
X101445709Y-95044707D01*
X101487734Y-94962227D01*
X101536481Y-94910614D01*
X101605396Y-94893548D01*
X101672598Y-94916449D01*
X101712265Y-94962227D01*
X101754291Y-95044707D01*
X101754293Y-95044710D01*
X101874984Y-95210827D01*
X102020172Y-95356015D01*
X102039092Y-95369761D01*
X102186293Y-95476709D01*
X102369246Y-95569928D01*
X102564529Y-95633379D01*
X102767334Y-95665500D01*
X102767337Y-95665500D01*
X102972663Y-95665500D01*
X102972666Y-95665500D01*
X103175471Y-95633379D01*
X103370754Y-95569928D01*
X103553707Y-95476709D01*
X103719825Y-95356017D01*
X103865017Y-95210825D01*
X103985709Y-95044707D01*
X104027734Y-94962227D01*
X104076481Y-94910614D01*
X104145396Y-94893548D01*
X104212598Y-94916449D01*
X104252265Y-94962227D01*
X104294291Y-95044707D01*
X104294293Y-95044710D01*
X104414984Y-95210827D01*
X104560172Y-95356015D01*
X104579092Y-95369761D01*
X104726293Y-95476709D01*
X104909246Y-95569928D01*
X105104529Y-95633379D01*
X105307334Y-95665500D01*
X105307337Y-95665500D01*
X105512663Y-95665500D01*
X105512666Y-95665500D01*
X105715471Y-95633379D01*
X105910754Y-95569928D01*
X106093707Y-95476709D01*
X106259825Y-95356017D01*
X106405017Y-95210825D01*
X106525709Y-95044707D01*
X106567734Y-94962227D01*
X106616481Y-94910614D01*
X106685396Y-94893548D01*
X106752598Y-94916449D01*
X106792265Y-94962227D01*
X106834291Y-95044707D01*
X106834293Y-95044710D01*
X106954984Y-95210827D01*
X107100172Y-95356015D01*
X107119092Y-95369761D01*
X107266293Y-95476709D01*
X107449246Y-95569928D01*
X107644529Y-95633379D01*
X107847334Y-95665500D01*
X107847337Y-95665500D01*
X108052663Y-95665500D01*
X108052666Y-95665500D01*
X108255471Y-95633379D01*
X108450754Y-95569928D01*
X108633707Y-95476709D01*
X108799825Y-95356017D01*
X108945017Y-95210825D01*
X109065709Y-95044707D01*
X109107734Y-94962227D01*
X109156481Y-94910614D01*
X109225396Y-94893548D01*
X109292598Y-94916449D01*
X109332265Y-94962227D01*
X109374291Y-95044707D01*
X109374293Y-95044710D01*
X109494984Y-95210827D01*
X109640172Y-95356015D01*
X109659092Y-95369761D01*
X109806293Y-95476709D01*
X109989246Y-95569928D01*
X110184529Y-95633379D01*
X110387334Y-95665500D01*
X110387337Y-95665500D01*
X110592663Y-95665500D01*
X110592666Y-95665500D01*
X110795471Y-95633379D01*
X110990754Y-95569928D01*
X111173707Y-95476709D01*
X111339825Y-95356017D01*
X111485017Y-95210825D01*
X111605709Y-95044707D01*
X111698928Y-94861754D01*
X111762379Y-94666471D01*
X111794500Y-94463666D01*
X111794500Y-94258334D01*
X111762379Y-94055529D01*
X111698928Y-93860246D01*
X111605709Y-93677293D01*
X111485017Y-93511175D01*
X111485015Y-93511172D01*
X111339827Y-93365984D01*
X111173710Y-93245293D01*
X111173709Y-93245292D01*
X111173707Y-93245291D01*
X110990754Y-93152072D01*
X110990751Y-93152071D01*
X110990749Y-93152070D01*
X110795476Y-93088622D01*
X110795472Y-93088621D01*
X110795471Y-93088621D01*
X110592666Y-93056500D01*
X110387334Y-93056500D01*
X110190597Y-93087660D01*
X110184523Y-93088622D01*
X109989250Y-93152070D01*
X109989244Y-93152073D01*
X109806289Y-93245293D01*
X109640172Y-93365984D01*
X109494984Y-93511172D01*
X109374292Y-93677290D01*
X109332267Y-93759770D01*
X109283518Y-93811385D01*
X109214603Y-93828451D01*
X109147402Y-93805550D01*
X109107733Y-93759770D01*
X109065707Y-93677290D01*
X108945015Y-93511172D01*
X108799827Y-93365984D01*
X108633710Y-93245293D01*
X108633709Y-93245292D01*
X108633707Y-93245291D01*
X108450754Y-93152072D01*
X108450751Y-93152071D01*
X108450749Y-93152070D01*
X108255476Y-93088622D01*
X108255472Y-93088621D01*
X108255471Y-93088621D01*
X108052666Y-93056500D01*
X107847334Y-93056500D01*
X107650597Y-93087660D01*
X107644523Y-93088622D01*
X107449250Y-93152070D01*
X107449244Y-93152073D01*
X107266289Y-93245293D01*
X107100172Y-93365984D01*
X106954984Y-93511172D01*
X106834292Y-93677290D01*
X106792267Y-93759770D01*
X106743518Y-93811385D01*
X106674603Y-93828451D01*
X106607402Y-93805550D01*
X106567733Y-93759770D01*
X106525707Y-93677290D01*
X106405015Y-93511172D01*
X106259827Y-93365984D01*
X106093710Y-93245293D01*
X106093709Y-93245292D01*
X106093707Y-93245291D01*
X105910754Y-93152072D01*
X105910751Y-93152071D01*
X105910749Y-93152070D01*
X105715476Y-93088622D01*
X105715472Y-93088621D01*
X105715471Y-93088621D01*
X105512666Y-93056500D01*
X105307334Y-93056500D01*
X105110597Y-93087660D01*
X105104523Y-93088622D01*
X104909250Y-93152070D01*
X104909244Y-93152073D01*
X104726289Y-93245293D01*
X104560172Y-93365984D01*
X104414984Y-93511172D01*
X104294292Y-93677290D01*
X104252267Y-93759770D01*
X104203518Y-93811385D01*
X104134603Y-93828451D01*
X104067402Y-93805550D01*
X104027733Y-93759770D01*
X103985707Y-93677290D01*
X103865015Y-93511172D01*
X103719827Y-93365984D01*
X103553710Y-93245293D01*
X103553709Y-93245292D01*
X103553707Y-93245291D01*
X103370754Y-93152072D01*
X103370751Y-93152071D01*
X103370749Y-93152070D01*
X103175476Y-93088622D01*
X103175472Y-93088621D01*
X103175471Y-93088621D01*
X102972666Y-93056500D01*
X102767334Y-93056500D01*
X102570597Y-93087660D01*
X102564523Y-93088622D01*
X102369250Y-93152070D01*
X102369244Y-93152073D01*
X102186289Y-93245293D01*
X102020172Y-93365984D01*
X101874984Y-93511172D01*
X101754292Y-93677290D01*
X101712267Y-93759770D01*
X101663518Y-93811385D01*
X101594603Y-93828451D01*
X101527402Y-93805550D01*
X101487733Y-93759770D01*
X101445707Y-93677290D01*
X101325015Y-93511172D01*
X101179827Y-93365984D01*
X101013710Y-93245293D01*
X101013709Y-93245292D01*
X101013707Y-93245291D01*
X100830754Y-93152072D01*
X100830751Y-93152071D01*
X100830749Y-93152070D01*
X100635476Y-93088622D01*
X100635472Y-93088621D01*
X100635471Y-93088621D01*
X100432666Y-93056500D01*
X100227334Y-93056500D01*
X100030597Y-93087660D01*
X100024523Y-93088622D01*
X99829250Y-93152070D01*
X99829244Y-93152073D01*
X99646289Y-93245293D01*
X99480172Y-93365984D01*
X99334984Y-93511172D01*
X99214292Y-93677290D01*
X99172267Y-93759770D01*
X99123518Y-93811385D01*
X99054603Y-93828451D01*
X98987402Y-93805550D01*
X98947733Y-93759770D01*
X98905707Y-93677290D01*
X98785015Y-93511172D01*
X98639827Y-93365984D01*
X98473710Y-93245293D01*
X98473709Y-93245292D01*
X98473707Y-93245291D01*
X98290754Y-93152072D01*
X98290751Y-93152071D01*
X98290749Y-93152070D01*
X98095476Y-93088622D01*
X98095472Y-93088621D01*
X98095471Y-93088621D01*
X97892666Y-93056500D01*
X97687334Y-93056500D01*
X97490597Y-93087660D01*
X97484523Y-93088622D01*
X97289250Y-93152070D01*
X97289244Y-93152073D01*
X97106289Y-93245293D01*
X96940172Y-93365984D01*
X96794984Y-93511172D01*
X96674292Y-93677290D01*
X96632267Y-93759770D01*
X96583518Y-93811385D01*
X96514603Y-93828451D01*
X96447402Y-93805550D01*
X96407733Y-93759770D01*
X96365707Y-93677290D01*
X96245015Y-93511172D01*
X96099827Y-93365984D01*
X95933710Y-93245293D01*
X95933709Y-93245292D01*
X95933707Y-93245291D01*
X95750754Y-93152072D01*
X95750751Y-93152071D01*
X95750749Y-93152070D01*
X95555476Y-93088622D01*
X95555472Y-93088621D01*
X95555471Y-93088621D01*
X95352666Y-93056500D01*
X95147334Y-93056500D01*
X94950597Y-93087660D01*
X94944523Y-93088622D01*
X94749250Y-93152070D01*
X94749244Y-93152073D01*
X94566289Y-93245293D01*
X94413679Y-93356171D01*
X94346811Y-93380030D01*
X94277659Y-93363949D01*
X94228179Y-93313035D01*
X94220014Y-93293868D01*
X94201659Y-93238478D01*
X94108633Y-93087660D01*
X94108628Y-93087654D01*
X93983345Y-92962371D01*
X93983339Y-92962366D01*
X93832525Y-92869342D01*
X93664321Y-92813606D01*
X93664318Y-92813605D01*
X93560515Y-92803000D01*
X92964000Y-92803000D01*
X92964000Y-93872561D01*
X92922292Y-93848482D01*
X92782409Y-93811000D01*
X92637591Y-93811000D01*
X92497708Y-93848482D01*
X92456000Y-93872561D01*
X92456000Y-92803000D01*
X91859492Y-92803000D01*
X91755681Y-92813605D01*
X91587474Y-92869342D01*
X91436660Y-92962366D01*
X91436654Y-92962371D01*
X91311371Y-93087654D01*
X91311366Y-93087660D01*
X91218342Y-93238474D01*
X91162606Y-93406678D01*
X91162605Y-93406681D01*
X91152000Y-93510484D01*
X50927500Y-93510484D01*
X50927500Y-86306631D01*
X121233699Y-86306631D01*
X121271816Y-86448882D01*
X121345446Y-86576414D01*
X121345454Y-86576424D01*
X121420935Y-86651905D01*
X121454961Y-86714217D01*
X121449896Y-86785032D01*
X121420935Y-86830095D01*
X121345454Y-86905575D01*
X121345446Y-86905585D01*
X121271816Y-87033117D01*
X121233700Y-87175368D01*
X121233700Y-87322631D01*
X121233699Y-87322631D01*
X121271816Y-87464882D01*
X121345446Y-87592414D01*
X121345448Y-87592417D01*
X121345449Y-87592418D01*
X121374595Y-87621564D01*
X121408620Y-87683874D01*
X121411500Y-87710659D01*
X121411500Y-88442223D01*
X121411499Y-88442223D01*
X121437500Y-88539258D01*
X121487721Y-88626243D01*
X121487729Y-88626253D01*
X123336746Y-90475270D01*
X123336751Y-90475274D01*
X123336753Y-90475276D01*
X123423747Y-90525502D01*
X123520775Y-90551501D01*
X123520777Y-90551501D01*
X123628943Y-90551501D01*
X123628959Y-90551500D01*
X125040764Y-90551500D01*
X125108885Y-90571502D01*
X125155378Y-90625158D01*
X125165482Y-90695432D01*
X125135988Y-90760012D01*
X125110768Y-90782263D01*
X125044715Y-90826397D01*
X124998031Y-90857591D01*
X124998025Y-90857596D01*
X124893596Y-90962025D01*
X124893591Y-90962031D01*
X124811537Y-91084834D01*
X124755015Y-91221287D01*
X124726200Y-91366148D01*
X124726200Y-91366151D01*
X124726200Y-91513849D01*
X124755014Y-91658709D01*
X124811536Y-91795164D01*
X124893592Y-91917970D01*
X124998030Y-92022408D01*
X125120836Y-92104464D01*
X125257291Y-92160986D01*
X125402151Y-92189800D01*
X125402152Y-92189800D01*
X125549848Y-92189800D01*
X125549849Y-92189800D01*
X125694709Y-92160986D01*
X125831164Y-92104464D01*
X125953970Y-92022408D01*
X126058408Y-91917970D01*
X126140464Y-91795164D01*
X126196986Y-91658709D01*
X126225800Y-91513849D01*
X126225800Y-91366151D01*
X126196986Y-91221291D01*
X126140464Y-91084836D01*
X126058408Y-90962030D01*
X125953970Y-90857592D01*
X125841233Y-90782263D01*
X125795706Y-90727788D01*
X125786858Y-90657345D01*
X125817499Y-90593301D01*
X125877901Y-90555990D01*
X125911236Y-90551500D01*
X126792340Y-90551500D01*
X126860461Y-90571502D01*
X126881435Y-90588405D01*
X126910575Y-90617545D01*
X126910580Y-90617549D01*
X126910582Y-90617551D01*
X126910583Y-90617552D01*
X126910585Y-90617553D01*
X126960066Y-90646121D01*
X127038118Y-90691184D01*
X127180367Y-90729300D01*
X127180369Y-90729300D01*
X127327631Y-90729300D01*
X127327633Y-90729300D01*
X127469882Y-90691184D01*
X127597418Y-90617551D01*
X127701551Y-90513418D01*
X127775184Y-90385882D01*
X127813300Y-90243633D01*
X127813300Y-90096367D01*
X127775184Y-89954118D01*
X127701551Y-89826582D01*
X127701549Y-89826580D01*
X127701545Y-89826575D01*
X127597424Y-89722454D01*
X127597414Y-89722446D01*
X127462730Y-89644687D01*
X127464341Y-89641896D01*
X127420872Y-89606880D01*
X127398439Y-89539521D01*
X127415984Y-89470726D01*
X127463433Y-89426532D01*
X127462730Y-89425313D01*
X127469882Y-89421184D01*
X127597418Y-89347551D01*
X127701551Y-89243418D01*
X127775184Y-89115882D01*
X127813300Y-88973633D01*
X127813300Y-88826367D01*
X127775184Y-88684118D01*
X127701551Y-88556582D01*
X127701549Y-88556580D01*
X127701545Y-88556575D01*
X127597424Y-88452454D01*
X127597414Y-88452446D01*
X127469882Y-88378816D01*
X127327633Y-88340700D01*
X127180367Y-88340700D01*
X127085534Y-88366110D01*
X127038117Y-88378816D01*
X126910585Y-88452446D01*
X126910575Y-88452454D01*
X126881435Y-88481595D01*
X126819123Y-88515621D01*
X126792340Y-88518500D01*
X123527213Y-88518500D01*
X123459092Y-88498498D01*
X123438118Y-88481595D01*
X122973405Y-88016882D01*
X122939379Y-87954570D01*
X122936500Y-87927787D01*
X122936500Y-87055388D01*
X122936501Y-87055375D01*
X122936501Y-86944776D01*
X122936501Y-86944775D01*
X122910502Y-86847747D01*
X122883772Y-86801449D01*
X122860278Y-86760756D01*
X122860270Y-86760746D01*
X122389205Y-86289681D01*
X122387276Y-86286148D01*
X123710200Y-86286148D01*
X123710200Y-86286151D01*
X123710200Y-86433849D01*
X123739014Y-86578709D01*
X123795536Y-86715164D01*
X123877592Y-86837970D01*
X123982030Y-86942408D01*
X124104836Y-87024464D01*
X124241291Y-87080986D01*
X124386151Y-87109800D01*
X124386152Y-87109800D01*
X124533848Y-87109800D01*
X124533849Y-87109800D01*
X124678709Y-87080986D01*
X124815164Y-87024464D01*
X124937970Y-86942408D01*
X125042408Y-86837970D01*
X125124464Y-86715164D01*
X125180986Y-86578709D01*
X125209800Y-86433849D01*
X125209800Y-86286151D01*
X125209799Y-86286148D01*
X125742200Y-86286148D01*
X125742200Y-86286151D01*
X125742200Y-86433849D01*
X125771014Y-86578709D01*
X125827536Y-86715164D01*
X125909592Y-86837970D01*
X126014030Y-86942408D01*
X126136836Y-87024464D01*
X126273291Y-87080986D01*
X126418151Y-87109800D01*
X126418152Y-87109800D01*
X126565848Y-87109800D01*
X126565849Y-87109800D01*
X126710709Y-87080986D01*
X126847164Y-87024464D01*
X126969970Y-86942408D01*
X127074408Y-86837970D01*
X127156464Y-86715164D01*
X127212986Y-86578709D01*
X127241800Y-86433849D01*
X127241800Y-86286151D01*
X127212986Y-86141291D01*
X127156464Y-86004836D01*
X127074408Y-85882030D01*
X126969970Y-85777592D01*
X126847164Y-85695536D01*
X126750679Y-85655570D01*
X126710712Y-85639015D01*
X126710710Y-85639014D01*
X126710709Y-85639014D01*
X126637788Y-85624509D01*
X126565851Y-85610200D01*
X126565849Y-85610200D01*
X126418151Y-85610200D01*
X126418148Y-85610200D01*
X126310241Y-85631664D01*
X126273291Y-85639014D01*
X126273290Y-85639014D01*
X126273287Y-85639015D01*
X126136834Y-85695537D01*
X126014031Y-85777591D01*
X126014025Y-85777596D01*
X125909596Y-85882025D01*
X125909591Y-85882031D01*
X125827537Y-86004834D01*
X125771015Y-86141287D01*
X125742200Y-86286148D01*
X125209799Y-86286148D01*
X125180986Y-86141291D01*
X125124464Y-86004836D01*
X125042408Y-85882030D01*
X124937970Y-85777592D01*
X124815164Y-85695536D01*
X124718679Y-85655570D01*
X124678712Y-85639015D01*
X124678710Y-85639014D01*
X124678709Y-85639014D01*
X124605788Y-85624509D01*
X124533851Y-85610200D01*
X124533849Y-85610200D01*
X124386151Y-85610200D01*
X124386148Y-85610200D01*
X124278241Y-85631664D01*
X124241291Y-85639014D01*
X124241290Y-85639014D01*
X124241287Y-85639015D01*
X124104834Y-85695537D01*
X123982031Y-85777591D01*
X123982025Y-85777596D01*
X123877596Y-85882025D01*
X123877591Y-85882031D01*
X123795537Y-86004834D01*
X123739015Y-86141287D01*
X123710200Y-86286148D01*
X122387276Y-86286148D01*
X122355179Y-86227369D01*
X122352300Y-86200586D01*
X122352300Y-86159368D01*
X122347455Y-86141287D01*
X122314184Y-86017118D01*
X122240551Y-85889582D01*
X122240549Y-85889580D01*
X122240545Y-85889575D01*
X122136424Y-85785454D01*
X122136414Y-85785446D01*
X122008882Y-85711816D01*
X121866633Y-85673700D01*
X121719367Y-85673700D01*
X121624534Y-85699110D01*
X121577117Y-85711816D01*
X121449585Y-85785446D01*
X121449575Y-85785454D01*
X121345454Y-85889575D01*
X121345446Y-85889585D01*
X121271816Y-86017117D01*
X121233700Y-86159368D01*
X121233700Y-86306631D01*
X121233699Y-86306631D01*
X50927500Y-86306631D01*
X50927500Y-79829631D01*
X109930699Y-79829631D01*
X109968816Y-79971882D01*
X110042446Y-80099414D01*
X110042454Y-80099424D01*
X110146575Y-80203545D01*
X110146580Y-80203549D01*
X110146582Y-80203551D01*
X110274118Y-80277184D01*
X110416367Y-80315300D01*
X110416369Y-80315300D01*
X110563631Y-80315300D01*
X110563633Y-80315300D01*
X110705882Y-80277184D01*
X110833418Y-80203551D01*
X110937551Y-80099418D01*
X111011184Y-79971882D01*
X111049300Y-79829633D01*
X111049300Y-79788413D01*
X111069302Y-79720292D01*
X111086205Y-79699318D01*
X112446270Y-78339253D01*
X112446276Y-78339247D01*
X112496502Y-78252253D01*
X112522501Y-78155225D01*
X112522501Y-78054775D01*
X112522501Y-78047058D01*
X112522500Y-78047040D01*
X112522500Y-75498388D01*
X112522501Y-75498375D01*
X112522501Y-75387776D01*
X112505761Y-75325302D01*
X112496502Y-75290747D01*
X112482898Y-75267184D01*
X112446278Y-75203756D01*
X112446273Y-75203750D01*
X112331937Y-75089414D01*
X111970740Y-74728217D01*
X111938131Y-74671737D01*
X111900184Y-74530118D01*
X111826551Y-74402582D01*
X111826549Y-74402580D01*
X111826545Y-74402575D01*
X111722424Y-74298454D01*
X111722414Y-74298446D01*
X111594882Y-74224816D01*
X111452633Y-74186700D01*
X111305367Y-74186700D01*
X111210534Y-74212110D01*
X111163117Y-74224816D01*
X111035585Y-74298446D01*
X111035575Y-74298454D01*
X110931454Y-74402575D01*
X110931446Y-74402585D01*
X110857816Y-74530117D01*
X110857816Y-74530118D01*
X110819870Y-74671735D01*
X110819700Y-74672368D01*
X110819700Y-74819631D01*
X110819699Y-74819631D01*
X110857816Y-74961882D01*
X110931446Y-75089414D01*
X110931454Y-75089424D01*
X111035575Y-75193545D01*
X111035580Y-75193549D01*
X111035582Y-75193551D01*
X111035583Y-75193552D01*
X111035585Y-75193553D01*
X111085066Y-75222121D01*
X111163118Y-75267184D01*
X111305367Y-75305300D01*
X111305369Y-75305300D01*
X111416587Y-75305300D01*
X111484708Y-75325302D01*
X111505682Y-75342205D01*
X111722595Y-75559118D01*
X111756621Y-75621430D01*
X111759500Y-75648213D01*
X111759500Y-77894787D01*
X111739498Y-77962908D01*
X111722595Y-77983882D01*
X110546682Y-79159795D01*
X110484370Y-79193821D01*
X110457587Y-79196700D01*
X110416367Y-79196700D01*
X110321534Y-79222110D01*
X110274117Y-79234816D01*
X110146585Y-79308446D01*
X110146575Y-79308454D01*
X110042454Y-79412575D01*
X110042446Y-79412585D01*
X109968816Y-79540117D01*
X109930700Y-79682368D01*
X109930700Y-79829631D01*
X109930699Y-79829631D01*
X50927500Y-79829631D01*
X50927500Y-72717631D01*
X69163699Y-72717631D01*
X69201816Y-72859882D01*
X69275446Y-72987414D01*
X69275454Y-72987424D01*
X69287435Y-72999405D01*
X69321461Y-73061717D01*
X69316396Y-73132532D01*
X69287435Y-73177595D01*
X69275454Y-73189575D01*
X69275446Y-73189585D01*
X69201816Y-73317117D01*
X69163700Y-73459368D01*
X69163700Y-73606631D01*
X69163699Y-73606631D01*
X69201816Y-73748882D01*
X69275446Y-73876414D01*
X69275454Y-73876424D01*
X69379575Y-73980545D01*
X69379580Y-73980549D01*
X69379582Y-73980551D01*
X69507118Y-74054184D01*
X69649367Y-74092300D01*
X69649369Y-74092300D01*
X69796631Y-74092300D01*
X69796633Y-74092300D01*
X69938882Y-74054184D01*
X70066418Y-73980551D01*
X70066424Y-73980545D01*
X70095565Y-73951405D01*
X70157877Y-73917379D01*
X70184660Y-73914500D01*
X79167340Y-73914500D01*
X79235461Y-73934502D01*
X79256435Y-73951405D01*
X79285575Y-73980545D01*
X79285580Y-73980549D01*
X79285582Y-73980551D01*
X79413118Y-74054184D01*
X79555367Y-74092300D01*
X79555369Y-74092300D01*
X79702631Y-74092300D01*
X79702633Y-74092300D01*
X79844882Y-74054184D01*
X79972418Y-73980551D01*
X80076551Y-73876418D01*
X80150184Y-73748882D01*
X80188300Y-73606633D01*
X80188300Y-73459367D01*
X80150184Y-73317118D01*
X80076551Y-73189582D01*
X80064564Y-73177595D01*
X80030539Y-73115287D01*
X80035602Y-73044471D01*
X80064564Y-72999404D01*
X80076551Y-72987418D01*
X80150184Y-72859882D01*
X80188300Y-72717633D01*
X80188300Y-72570367D01*
X80150184Y-72428118D01*
X80076551Y-72300582D01*
X80076549Y-72300580D01*
X80076545Y-72300575D01*
X79972424Y-72196454D01*
X79972414Y-72196446D01*
X79844882Y-72122816D01*
X79702633Y-72084700D01*
X79555367Y-72084700D01*
X79460534Y-72110110D01*
X79413117Y-72122816D01*
X79285585Y-72196446D01*
X79285575Y-72196454D01*
X79256435Y-72225595D01*
X79194123Y-72259621D01*
X79167340Y-72262500D01*
X70184660Y-72262500D01*
X70116539Y-72242498D01*
X70095565Y-72225595D01*
X70066424Y-72196454D01*
X70066414Y-72196446D01*
X69938882Y-72122816D01*
X69796633Y-72084700D01*
X69649367Y-72084700D01*
X69554534Y-72110110D01*
X69507117Y-72122816D01*
X69379585Y-72196446D01*
X69379575Y-72196454D01*
X69275454Y-72300575D01*
X69275446Y-72300585D01*
X69201816Y-72428117D01*
X69163700Y-72570368D01*
X69163700Y-72717631D01*
X69163699Y-72717631D01*
X50927500Y-72717631D01*
X50927500Y-66875631D01*
X91134699Y-66875631D01*
X91172816Y-67017882D01*
X91246446Y-67145414D01*
X91246454Y-67145424D01*
X91258435Y-67157405D01*
X91292461Y-67219717D01*
X91287396Y-67290532D01*
X91258435Y-67335595D01*
X91246454Y-67347575D01*
X91246446Y-67347585D01*
X91172816Y-67475117D01*
X91134700Y-67617368D01*
X91134700Y-67764631D01*
X91134699Y-67764631D01*
X91172816Y-67906882D01*
X91246446Y-68034414D01*
X91246454Y-68034424D01*
X91350575Y-68138545D01*
X91350580Y-68138549D01*
X91350582Y-68138551D01*
X91478118Y-68212184D01*
X91620367Y-68250300D01*
X91620369Y-68250300D01*
X91767631Y-68250300D01*
X91767633Y-68250300D01*
X91909882Y-68212184D01*
X92037418Y-68138551D01*
X92037424Y-68138545D01*
X92066565Y-68109405D01*
X92128877Y-68075379D01*
X92155660Y-68072500D01*
X92379223Y-68072500D01*
X92379225Y-68072500D01*
X92476254Y-68046501D01*
X92476257Y-68046499D01*
X92476258Y-68046499D01*
X92519750Y-68021388D01*
X92563247Y-67996276D01*
X92634276Y-67925247D01*
X92651988Y-67907535D01*
X92651992Y-67907530D01*
X92831119Y-67728402D01*
X92893429Y-67694379D01*
X92920212Y-67691500D01*
X114118406Y-67691500D01*
X114186527Y-67711502D01*
X114193808Y-67716622D01*
X114281236Y-67767099D01*
X114281238Y-67767099D01*
X114281241Y-67767101D01*
X114378270Y-67793100D01*
X114851645Y-67793100D01*
X114919766Y-67813102D01*
X114966259Y-67866758D01*
X114973351Y-67886488D01*
X114978813Y-67906874D01*
X114978818Y-67906886D01*
X115052446Y-68034414D01*
X115052454Y-68034424D01*
X115156575Y-68138545D01*
X115156580Y-68138549D01*
X115156582Y-68138551D01*
X115284118Y-68212184D01*
X115426367Y-68250300D01*
X115426369Y-68250300D01*
X115573631Y-68250300D01*
X115573633Y-68250300D01*
X115715882Y-68212184D01*
X115843418Y-68138551D01*
X115947551Y-68034418D01*
X116021184Y-67906882D01*
X116059300Y-67764633D01*
X116059300Y-67764631D01*
X117296699Y-67764631D01*
X117334816Y-67906882D01*
X117408446Y-68034414D01*
X117408454Y-68034424D01*
X117512575Y-68138545D01*
X117512580Y-68138549D01*
X117512582Y-68138551D01*
X117640118Y-68212184D01*
X117782367Y-68250300D01*
X117823587Y-68250300D01*
X117891708Y-68270302D01*
X117912682Y-68287205D01*
X119037795Y-69412318D01*
X119071821Y-69474630D01*
X119074700Y-69501413D01*
X119074700Y-69542631D01*
X119074699Y-69542631D01*
X119112816Y-69684882D01*
X119186446Y-69812414D01*
X119186454Y-69812424D01*
X119290575Y-69916545D01*
X119290580Y-69916549D01*
X119290582Y-69916551D01*
X119418118Y-69990184D01*
X119560367Y-70028300D01*
X119560369Y-70028300D01*
X119707631Y-70028300D01*
X119707633Y-70028300D01*
X119849882Y-69990184D01*
X119977418Y-69916551D01*
X120081551Y-69812418D01*
X120155184Y-69684882D01*
X120193300Y-69542633D01*
X120193300Y-69395367D01*
X120155184Y-69253118D01*
X120081551Y-69125582D01*
X120081549Y-69125580D01*
X120081545Y-69125575D01*
X119977424Y-69021454D01*
X119977414Y-69021446D01*
X119849882Y-68947816D01*
X119707633Y-68909700D01*
X119707631Y-68909700D01*
X119666413Y-68909700D01*
X119598292Y-68889698D01*
X119577318Y-68872795D01*
X118452205Y-67747682D01*
X118418179Y-67685370D01*
X118415300Y-67658587D01*
X118415300Y-67617368D01*
X118415300Y-67617367D01*
X118377184Y-67475118D01*
X118303551Y-67347582D01*
X118303549Y-67347580D01*
X118303545Y-67347575D01*
X118199424Y-67243454D01*
X118199414Y-67243446D01*
X118071882Y-67169816D01*
X117929633Y-67131700D01*
X117782367Y-67131700D01*
X117687534Y-67157110D01*
X117640117Y-67169816D01*
X117512585Y-67243446D01*
X117512575Y-67243454D01*
X117408454Y-67347575D01*
X117408446Y-67347585D01*
X117334816Y-67475117D01*
X117296700Y-67617368D01*
X117296700Y-67764631D01*
X117296699Y-67764631D01*
X116059300Y-67764631D01*
X116059300Y-67617367D01*
X116021184Y-67475118D01*
X115947551Y-67347582D01*
X115947549Y-67347580D01*
X115947545Y-67347575D01*
X115843424Y-67243454D01*
X115843414Y-67243446D01*
X115715882Y-67169816D01*
X115573633Y-67131700D01*
X115573631Y-67131700D01*
X115532413Y-67131700D01*
X115507665Y-67124433D01*
X115482081Y-67121210D01*
X115471022Y-67113674D01*
X115464292Y-67111698D01*
X115451576Y-67102351D01*
X115447285Y-67098762D01*
X115353247Y-67004724D01*
X115293845Y-66970428D01*
X115285463Y-66963418D01*
X115271569Y-66942607D01*
X115254306Y-66924502D01*
X115251351Y-66912324D01*
X115246042Y-66904371D01*
X115245779Y-66889355D01*
X115240300Y-66866767D01*
X115240300Y-66728368D01*
X115240300Y-66728367D01*
X115202184Y-66586118D01*
X115128551Y-66458582D01*
X115128549Y-66458580D01*
X115128545Y-66458575D01*
X115024424Y-66354454D01*
X115024414Y-66354446D01*
X114896882Y-66280816D01*
X114754633Y-66242700D01*
X114607367Y-66242700D01*
X114512534Y-66268110D01*
X114465117Y-66280816D01*
X114337585Y-66354446D01*
X114337575Y-66354454D01*
X114308435Y-66383595D01*
X114246123Y-66417621D01*
X114219340Y-66420500D01*
X92155660Y-66420500D01*
X92087539Y-66400498D01*
X92066565Y-66383595D01*
X92037424Y-66354454D01*
X92037414Y-66354446D01*
X91909882Y-66280816D01*
X91767633Y-66242700D01*
X91620367Y-66242700D01*
X91525534Y-66268110D01*
X91478117Y-66280816D01*
X91350585Y-66354446D01*
X91350575Y-66354454D01*
X91246454Y-66458575D01*
X91246446Y-66458585D01*
X91172816Y-66586117D01*
X91134700Y-66728368D01*
X91134700Y-66875631D01*
X91134699Y-66875631D01*
X50927500Y-66875631D01*
X50927500Y-54948284D01*
X51663500Y-54948284D01*
X51663500Y-55287715D01*
X51696767Y-55625476D01*
X51696770Y-55625497D01*
X51738946Y-55837533D01*
X51762986Y-55958387D01*
X51780640Y-56016585D01*
X51861514Y-56283189D01*
X51861515Y-56283193D01*
X51991403Y-56596770D01*
X52151404Y-56896112D01*
X52339966Y-57178316D01*
X52339971Y-57178322D01*
X52555292Y-57440692D01*
X52555310Y-57440711D01*
X52795288Y-57680689D01*
X52795307Y-57680707D01*
X52948261Y-57806233D01*
X53057675Y-57896027D01*
X53057679Y-57896029D01*
X53057683Y-57896033D01*
X53339887Y-58084595D01*
X53339890Y-58084597D01*
X53639230Y-58244597D01*
X53952811Y-58374486D01*
X54277613Y-58473014D01*
X54610508Y-58539231D01*
X54948291Y-58572500D01*
X54948300Y-58572500D01*
X55287700Y-58572500D01*
X55287709Y-58572500D01*
X55625492Y-58539231D01*
X55958387Y-58473014D01*
X56283189Y-58374486D01*
X56596770Y-58244597D01*
X56896110Y-58084597D01*
X57178325Y-57896027D01*
X57440698Y-57680702D01*
X57680702Y-57440698D01*
X57896027Y-57178325D01*
X58084597Y-56896110D01*
X58244597Y-56596770D01*
X58374486Y-56283189D01*
X58473014Y-55958387D01*
X58539231Y-55625492D01*
X58572500Y-55287709D01*
X58572500Y-55031074D01*
X101384500Y-55031074D01*
X101384500Y-55204926D01*
X101411697Y-55376638D01*
X101465420Y-55541981D01*
X101542198Y-55692666D01*
X101544349Y-55696887D01*
X101646536Y-55837535D01*
X101769464Y-55960463D01*
X101769467Y-55960465D01*
X101910116Y-56062653D01*
X102065019Y-56141580D01*
X102230362Y-56195303D01*
X102402074Y-56222500D01*
X102402077Y-56222500D01*
X102575923Y-56222500D01*
X102575926Y-56222500D01*
X102747638Y-56195303D01*
X102912981Y-56141580D01*
X103067884Y-56062653D01*
X103208533Y-55960465D01*
X103331465Y-55837533D01*
X103433653Y-55696884D01*
X103512580Y-55541981D01*
X103566303Y-55376638D01*
X103593500Y-55204926D01*
X103593500Y-55031074D01*
X103924500Y-55031074D01*
X103924500Y-55204926D01*
X103951697Y-55376638D01*
X104005420Y-55541981D01*
X104082198Y-55692666D01*
X104084349Y-55696887D01*
X104186536Y-55837535D01*
X104309464Y-55960463D01*
X104309467Y-55960465D01*
X104450116Y-56062653D01*
X104605019Y-56141580D01*
X104770362Y-56195303D01*
X104942074Y-56222500D01*
X104942077Y-56222500D01*
X105115923Y-56222500D01*
X105115926Y-56222500D01*
X105287638Y-56195303D01*
X105452981Y-56141580D01*
X105607884Y-56062653D01*
X105748533Y-55960465D01*
X105871465Y-55837533D01*
X105973653Y-55696884D01*
X106052580Y-55541981D01*
X106106303Y-55376638D01*
X106133500Y-55204926D01*
X106133500Y-55031074D01*
X106464500Y-55031074D01*
X106464500Y-55204926D01*
X106491697Y-55376638D01*
X106545420Y-55541981D01*
X106622198Y-55692666D01*
X106624349Y-55696887D01*
X106726536Y-55837535D01*
X106849464Y-55960463D01*
X106849467Y-55960465D01*
X106990116Y-56062653D01*
X107145019Y-56141580D01*
X107310362Y-56195303D01*
X107482074Y-56222500D01*
X107482077Y-56222500D01*
X107655923Y-56222500D01*
X107655926Y-56222500D01*
X107827638Y-56195303D01*
X107992981Y-56141580D01*
X108147884Y-56062653D01*
X108288533Y-55960465D01*
X108411465Y-55837533D01*
X108513653Y-55696884D01*
X108592580Y-55541981D01*
X108646303Y-55376638D01*
X108673500Y-55204926D01*
X108673500Y-55031074D01*
X109004500Y-55031074D01*
X109004500Y-55204926D01*
X109031697Y-55376638D01*
X109085420Y-55541981D01*
X109162198Y-55692666D01*
X109164349Y-55696887D01*
X109266536Y-55837535D01*
X109389464Y-55960463D01*
X109389467Y-55960465D01*
X109530116Y-56062653D01*
X109685019Y-56141580D01*
X109850362Y-56195303D01*
X110022074Y-56222500D01*
X110022077Y-56222500D01*
X110195923Y-56222500D01*
X110195926Y-56222500D01*
X110367638Y-56195303D01*
X110532981Y-56141580D01*
X110687884Y-56062653D01*
X110828533Y-55960465D01*
X110951465Y-55837533D01*
X111053653Y-55696884D01*
X111132580Y-55541981D01*
X111186303Y-55376638D01*
X111213500Y-55204926D01*
X111213500Y-55031074D01*
X111544500Y-55031074D01*
X111544500Y-55204926D01*
X111571697Y-55376638D01*
X111625420Y-55541981D01*
X111702198Y-55692666D01*
X111704349Y-55696887D01*
X111806536Y-55837535D01*
X111929464Y-55960463D01*
X111929467Y-55960465D01*
X112070116Y-56062653D01*
X112225019Y-56141580D01*
X112390362Y-56195303D01*
X112562074Y-56222500D01*
X112562077Y-56222500D01*
X112735923Y-56222500D01*
X112735926Y-56222500D01*
X112907638Y-56195303D01*
X113072981Y-56141580D01*
X113227884Y-56062653D01*
X113368533Y-55960465D01*
X113491465Y-55837533D01*
X113593653Y-55696884D01*
X113672580Y-55541981D01*
X113726303Y-55376638D01*
X113753500Y-55204926D01*
X113753500Y-55031074D01*
X114084500Y-55031074D01*
X114084500Y-55204926D01*
X114111697Y-55376638D01*
X114165420Y-55541981D01*
X114242198Y-55692666D01*
X114244349Y-55696887D01*
X114346536Y-55837535D01*
X114469464Y-55960463D01*
X114469467Y-55960465D01*
X114610116Y-56062653D01*
X114765019Y-56141580D01*
X114930362Y-56195303D01*
X115102074Y-56222500D01*
X115102077Y-56222500D01*
X115275923Y-56222500D01*
X115275926Y-56222500D01*
X115447638Y-56195303D01*
X115612981Y-56141580D01*
X115767884Y-56062653D01*
X115908533Y-55960465D01*
X116031465Y-55837533D01*
X116133653Y-55696884D01*
X116212580Y-55541981D01*
X116266303Y-55376638D01*
X116293500Y-55204926D01*
X116293500Y-55031074D01*
X116624500Y-55031074D01*
X116624500Y-55204926D01*
X116651697Y-55376638D01*
X116705420Y-55541981D01*
X116782198Y-55692666D01*
X116784349Y-55696887D01*
X116886536Y-55837535D01*
X117009464Y-55960463D01*
X117009467Y-55960465D01*
X117150116Y-56062653D01*
X117305019Y-56141580D01*
X117470362Y-56195303D01*
X117642074Y-56222500D01*
X117642077Y-56222500D01*
X117815923Y-56222500D01*
X117815926Y-56222500D01*
X117987638Y-56195303D01*
X118152981Y-56141580D01*
X118307884Y-56062653D01*
X118448533Y-55960465D01*
X118571465Y-55837533D01*
X118673653Y-55696884D01*
X118752580Y-55541981D01*
X118806303Y-55376638D01*
X118833500Y-55204926D01*
X118833500Y-55031074D01*
X119164500Y-55031074D01*
X119164500Y-55204926D01*
X119191697Y-55376638D01*
X119245420Y-55541981D01*
X119322198Y-55692666D01*
X119324349Y-55696887D01*
X119426536Y-55837535D01*
X119549464Y-55960463D01*
X119549467Y-55960465D01*
X119690116Y-56062653D01*
X119845019Y-56141580D01*
X120010362Y-56195303D01*
X120182074Y-56222500D01*
X120182077Y-56222500D01*
X120355923Y-56222500D01*
X120355926Y-56222500D01*
X120527638Y-56195303D01*
X120692981Y-56141580D01*
X120847884Y-56062653D01*
X120988533Y-55960465D01*
X121111465Y-55837533D01*
X121213653Y-55696884D01*
X121292580Y-55541981D01*
X121346303Y-55376638D01*
X121373500Y-55204926D01*
X121373500Y-55031074D01*
X121704500Y-55031074D01*
X121704500Y-55204926D01*
X121731697Y-55376638D01*
X121785420Y-55541981D01*
X121862198Y-55692666D01*
X121864349Y-55696887D01*
X121966536Y-55837535D01*
X122089464Y-55960463D01*
X122089467Y-55960465D01*
X122230116Y-56062653D01*
X122385019Y-56141580D01*
X122550362Y-56195303D01*
X122722074Y-56222500D01*
X122722077Y-56222500D01*
X122895923Y-56222500D01*
X122895926Y-56222500D01*
X123067638Y-56195303D01*
X123232981Y-56141580D01*
X123387884Y-56062653D01*
X123528533Y-55960465D01*
X123651465Y-55837533D01*
X123753653Y-55696884D01*
X123832580Y-55541981D01*
X123886303Y-55376638D01*
X123913500Y-55204926D01*
X123913500Y-55031074D01*
X124244500Y-55031074D01*
X124244500Y-55204926D01*
X124271697Y-55376638D01*
X124325420Y-55541981D01*
X124402198Y-55692666D01*
X124404349Y-55696887D01*
X124506536Y-55837535D01*
X124629464Y-55960463D01*
X124629467Y-55960465D01*
X124770116Y-56062653D01*
X124925019Y-56141580D01*
X125090362Y-56195303D01*
X125262074Y-56222500D01*
X125262077Y-56222500D01*
X125435923Y-56222500D01*
X125435926Y-56222500D01*
X125607638Y-56195303D01*
X125772981Y-56141580D01*
X125927884Y-56062653D01*
X126068533Y-55960465D01*
X126191465Y-55837533D01*
X126293653Y-55696884D01*
X126372580Y-55541981D01*
X126426303Y-55376638D01*
X126453500Y-55204926D01*
X126453500Y-55031074D01*
X126784500Y-55031074D01*
X126784500Y-55204926D01*
X126811697Y-55376638D01*
X126865420Y-55541981D01*
X126942198Y-55692666D01*
X126944349Y-55696887D01*
X127046536Y-55837535D01*
X127169464Y-55960463D01*
X127169467Y-55960465D01*
X127310116Y-56062653D01*
X127465019Y-56141580D01*
X127630362Y-56195303D01*
X127802074Y-56222500D01*
X127802077Y-56222500D01*
X127975923Y-56222500D01*
X127975926Y-56222500D01*
X128147638Y-56195303D01*
X128312981Y-56141580D01*
X128467884Y-56062653D01*
X128608533Y-55960465D01*
X128731465Y-55837533D01*
X128833653Y-55696884D01*
X128912580Y-55541981D01*
X128966303Y-55376638D01*
X128993500Y-55204926D01*
X128993500Y-55031074D01*
X129324500Y-55031074D01*
X129324500Y-55204926D01*
X129351697Y-55376638D01*
X129405420Y-55541981D01*
X129482198Y-55692666D01*
X129484349Y-55696887D01*
X129586536Y-55837535D01*
X129709464Y-55960463D01*
X129709467Y-55960465D01*
X129850116Y-56062653D01*
X130005019Y-56141580D01*
X130170362Y-56195303D01*
X130342074Y-56222500D01*
X130342077Y-56222500D01*
X130515923Y-56222500D01*
X130515926Y-56222500D01*
X130687638Y-56195303D01*
X130852981Y-56141580D01*
X131007884Y-56062653D01*
X131148533Y-55960465D01*
X131271465Y-55837533D01*
X131373653Y-55696884D01*
X131452580Y-55541981D01*
X131506303Y-55376638D01*
X131533500Y-55204926D01*
X131533500Y-55031074D01*
X131864500Y-55031074D01*
X131864500Y-55204926D01*
X131891697Y-55376638D01*
X131945420Y-55541981D01*
X132022198Y-55692666D01*
X132024349Y-55696887D01*
X132126536Y-55837535D01*
X132249464Y-55960463D01*
X132249467Y-55960465D01*
X132390116Y-56062653D01*
X132545019Y-56141580D01*
X132710362Y-56195303D01*
X132882074Y-56222500D01*
X132882077Y-56222500D01*
X133055923Y-56222500D01*
X133055926Y-56222500D01*
X133227638Y-56195303D01*
X133392981Y-56141580D01*
X133547884Y-56062653D01*
X133688533Y-55960465D01*
X133811465Y-55837533D01*
X133913653Y-55696884D01*
X133992580Y-55541981D01*
X134046303Y-55376638D01*
X134073500Y-55204926D01*
X134073500Y-55031074D01*
X134404500Y-55031074D01*
X134404500Y-55204926D01*
X134431697Y-55376638D01*
X134485420Y-55541981D01*
X134562198Y-55692666D01*
X134564349Y-55696887D01*
X134666536Y-55837535D01*
X134789464Y-55960463D01*
X134789467Y-55960465D01*
X134930116Y-56062653D01*
X135085019Y-56141580D01*
X135250362Y-56195303D01*
X135422074Y-56222500D01*
X135422077Y-56222500D01*
X135595923Y-56222500D01*
X135595926Y-56222500D01*
X135767638Y-56195303D01*
X135932981Y-56141580D01*
X136087884Y-56062653D01*
X136228533Y-55960465D01*
X136351465Y-55837533D01*
X136453653Y-55696884D01*
X136532580Y-55541981D01*
X136586303Y-55376638D01*
X136613500Y-55204926D01*
X136613500Y-55031074D01*
X136944500Y-55031074D01*
X136944500Y-55204926D01*
X136971697Y-55376638D01*
X137025420Y-55541981D01*
X137102198Y-55692666D01*
X137104349Y-55696887D01*
X137206536Y-55837535D01*
X137329464Y-55960463D01*
X137329467Y-55960465D01*
X137470116Y-56062653D01*
X137625019Y-56141580D01*
X137790362Y-56195303D01*
X137962074Y-56222500D01*
X137962077Y-56222500D01*
X138135923Y-56222500D01*
X138135926Y-56222500D01*
X138307638Y-56195303D01*
X138472981Y-56141580D01*
X138627884Y-56062653D01*
X138768533Y-55960465D01*
X138891465Y-55837533D01*
X138993653Y-55696884D01*
X138993654Y-55696881D01*
X138996238Y-55692666D01*
X138997623Y-55693514D01*
X139041470Y-55647079D01*
X139110383Y-55630006D01*
X139177587Y-55652900D01*
X139221745Y-55708493D01*
X139231000Y-55755891D01*
X139231000Y-56016597D01*
X139237505Y-56077093D01*
X139288555Y-56213964D01*
X139288555Y-56213965D01*
X139376095Y-56330904D01*
X139493034Y-56418444D01*
X139629906Y-56469494D01*
X139690402Y-56475999D01*
X139690415Y-56476000D01*
X140335000Y-56476000D01*
X140335000Y-55548702D01*
X140396007Y-55583925D01*
X140523174Y-55618000D01*
X140654826Y-55618000D01*
X140781993Y-55583925D01*
X140843000Y-55548702D01*
X140843000Y-56476000D01*
X141487585Y-56476000D01*
X141487597Y-56475999D01*
X141548093Y-56469494D01*
X141684964Y-56418444D01*
X141684965Y-56418444D01*
X141801904Y-56330904D01*
X141889444Y-56213965D01*
X141889444Y-56213964D01*
X141940494Y-56077093D01*
X141946999Y-56016597D01*
X141947000Y-56016585D01*
X141947000Y-55372000D01*
X141019703Y-55372000D01*
X141054925Y-55310993D01*
X141089000Y-55183826D01*
X141089000Y-55052174D01*
X141061162Y-54948284D01*
X144627500Y-54948284D01*
X144627500Y-55287715D01*
X144660767Y-55625476D01*
X144660770Y-55625497D01*
X144702946Y-55837533D01*
X144726986Y-55958387D01*
X144744640Y-56016585D01*
X144825514Y-56283189D01*
X144825515Y-56283193D01*
X144955403Y-56596770D01*
X145115404Y-56896112D01*
X145303966Y-57178316D01*
X145303971Y-57178322D01*
X145519292Y-57440692D01*
X145519310Y-57440711D01*
X145759288Y-57680689D01*
X145759307Y-57680707D01*
X145912261Y-57806233D01*
X146021675Y-57896027D01*
X146021679Y-57896029D01*
X146021683Y-57896033D01*
X146303887Y-58084595D01*
X146303890Y-58084597D01*
X146603230Y-58244597D01*
X146916811Y-58374486D01*
X147241613Y-58473014D01*
X147574508Y-58539231D01*
X147912291Y-58572500D01*
X147912300Y-58572500D01*
X148251700Y-58572500D01*
X148251709Y-58572500D01*
X148589492Y-58539231D01*
X148922387Y-58473014D01*
X149247189Y-58374486D01*
X149560770Y-58244597D01*
X149860110Y-58084597D01*
X150142325Y-57896027D01*
X150404698Y-57680702D01*
X150644702Y-57440698D01*
X150860027Y-57178325D01*
X151048597Y-56896110D01*
X151208597Y-56596770D01*
X151338486Y-56283189D01*
X151437014Y-55958387D01*
X151503231Y-55625492D01*
X151536500Y-55287709D01*
X151536500Y-54948291D01*
X151503231Y-54610508D01*
X151437014Y-54277613D01*
X151338486Y-53952811D01*
X151208597Y-53639230D01*
X151048597Y-53339890D01*
X151048595Y-53339887D01*
X150860033Y-53057683D01*
X150860028Y-53057677D01*
X150860027Y-53057675D01*
X150770233Y-52948261D01*
X150644707Y-52795307D01*
X150644689Y-52795288D01*
X150404711Y-52555310D01*
X150404692Y-52555292D01*
X150221146Y-52404660D01*
X150142325Y-52339973D01*
X150142321Y-52339970D01*
X150142316Y-52339966D01*
X149860112Y-52151404D01*
X149560770Y-51991403D01*
X149247193Y-51861515D01*
X149247189Y-51861514D01*
X148922387Y-51762986D01*
X148922384Y-51762985D01*
X148922383Y-51762985D01*
X148589497Y-51696770D01*
X148589492Y-51696769D01*
X148589485Y-51696768D01*
X148589476Y-51696767D01*
X148251715Y-51663500D01*
X148251709Y-51663500D01*
X147912291Y-51663500D01*
X147912284Y-51663500D01*
X147574523Y-51696767D01*
X147574511Y-51696768D01*
X147574508Y-51696769D01*
X147574505Y-51696769D01*
X147574502Y-51696770D01*
X147241616Y-51762985D01*
X146916810Y-51861514D01*
X146916806Y-51861515D01*
X146603229Y-51991403D01*
X146303887Y-52151404D01*
X146021683Y-52339966D01*
X146021677Y-52339971D01*
X145759307Y-52555292D01*
X145759288Y-52555310D01*
X145519310Y-52795288D01*
X145519292Y-52795307D01*
X145303971Y-53057677D01*
X145303966Y-53057683D01*
X145115404Y-53339887D01*
X144955403Y-53639229D01*
X144825515Y-53952806D01*
X144825514Y-53952810D01*
X144726985Y-54277616D01*
X144660770Y-54610502D01*
X144660767Y-54610523D01*
X144627500Y-54948284D01*
X141061162Y-54948284D01*
X141054925Y-54925007D01*
X141019703Y-54864000D01*
X141947000Y-54864000D01*
X141947000Y-54219414D01*
X141946999Y-54219402D01*
X141940494Y-54158906D01*
X141889444Y-54022035D01*
X141889444Y-54022034D01*
X141801904Y-53905095D01*
X141684965Y-53817555D01*
X141548093Y-53766505D01*
X141487597Y-53760000D01*
X140843000Y-53760000D01*
X140843000Y-54687297D01*
X140781993Y-54652075D01*
X140654826Y-54618000D01*
X140523174Y-54618000D01*
X140396007Y-54652075D01*
X140335000Y-54687297D01*
X140335000Y-53760000D01*
X139690402Y-53760000D01*
X139629906Y-53766505D01*
X139493035Y-53817555D01*
X139493034Y-53817555D01*
X139376095Y-53905095D01*
X139288555Y-54022034D01*
X139288555Y-54022035D01*
X139237505Y-54158906D01*
X139231000Y-54219402D01*
X139231000Y-54480108D01*
X139210998Y-54548229D01*
X139157342Y-54594722D01*
X139087068Y-54604826D01*
X139022488Y-54575332D01*
X138997053Y-54542834D01*
X138996238Y-54543334D01*
X138993654Y-54539117D01*
X138891463Y-54398464D01*
X138768535Y-54275536D01*
X138627887Y-54173349D01*
X138627886Y-54173348D01*
X138627884Y-54173347D01*
X138472981Y-54094420D01*
X138472978Y-54094419D01*
X138472976Y-54094418D01*
X138307642Y-54040698D01*
X138307640Y-54040697D01*
X138307638Y-54040697D01*
X138135926Y-54013500D01*
X137962074Y-54013500D01*
X137790362Y-54040697D01*
X137790360Y-54040697D01*
X137790357Y-54040698D01*
X137625023Y-54094418D01*
X137625017Y-54094421D01*
X137470112Y-54173349D01*
X137329464Y-54275536D01*
X137206536Y-54398464D01*
X137104349Y-54539112D01*
X137025421Y-54694017D01*
X137025418Y-54694023D01*
X136971698Y-54859357D01*
X136971697Y-54859360D01*
X136971697Y-54859362D01*
X136944500Y-55031074D01*
X136613500Y-55031074D01*
X136586303Y-54859362D01*
X136532580Y-54694019D01*
X136453653Y-54539116D01*
X136351465Y-54398467D01*
X136351463Y-54398464D01*
X136228535Y-54275536D01*
X136087887Y-54173349D01*
X136087886Y-54173348D01*
X136087884Y-54173347D01*
X135932981Y-54094420D01*
X135932978Y-54094419D01*
X135932976Y-54094418D01*
X135767642Y-54040698D01*
X135767640Y-54040697D01*
X135767638Y-54040697D01*
X135595926Y-54013500D01*
X135422074Y-54013500D01*
X135250362Y-54040697D01*
X135250360Y-54040697D01*
X135250357Y-54040698D01*
X135085023Y-54094418D01*
X135085017Y-54094421D01*
X134930112Y-54173349D01*
X134789464Y-54275536D01*
X134666536Y-54398464D01*
X134564349Y-54539112D01*
X134485421Y-54694017D01*
X134485418Y-54694023D01*
X134431698Y-54859357D01*
X134431697Y-54859360D01*
X134431697Y-54859362D01*
X134404500Y-55031074D01*
X134073500Y-55031074D01*
X134046303Y-54859362D01*
X133992580Y-54694019D01*
X133913653Y-54539116D01*
X133811465Y-54398467D01*
X133811463Y-54398464D01*
X133688535Y-54275536D01*
X133547887Y-54173349D01*
X133547886Y-54173348D01*
X133547884Y-54173347D01*
X133392981Y-54094420D01*
X133392978Y-54094419D01*
X133392976Y-54094418D01*
X133227642Y-54040698D01*
X133227640Y-54040697D01*
X133227638Y-54040697D01*
X133055926Y-54013500D01*
X132882074Y-54013500D01*
X132710362Y-54040697D01*
X132710360Y-54040697D01*
X132710357Y-54040698D01*
X132545023Y-54094418D01*
X132545017Y-54094421D01*
X132390112Y-54173349D01*
X132249464Y-54275536D01*
X132126536Y-54398464D01*
X132024349Y-54539112D01*
X131945421Y-54694017D01*
X131945418Y-54694023D01*
X131891698Y-54859357D01*
X131891697Y-54859360D01*
X131891697Y-54859362D01*
X131864500Y-55031074D01*
X131533500Y-55031074D01*
X131506303Y-54859362D01*
X131452580Y-54694019D01*
X131373653Y-54539116D01*
X131271465Y-54398467D01*
X131271463Y-54398464D01*
X131148535Y-54275536D01*
X131007887Y-54173349D01*
X131007886Y-54173348D01*
X131007884Y-54173347D01*
X130852981Y-54094420D01*
X130852978Y-54094419D01*
X130852976Y-54094418D01*
X130687642Y-54040698D01*
X130687640Y-54040697D01*
X130687638Y-54040697D01*
X130515926Y-54013500D01*
X130342074Y-54013500D01*
X130170362Y-54040697D01*
X130170360Y-54040697D01*
X130170357Y-54040698D01*
X130005023Y-54094418D01*
X130005017Y-54094421D01*
X129850112Y-54173349D01*
X129709464Y-54275536D01*
X129586536Y-54398464D01*
X129484349Y-54539112D01*
X129405421Y-54694017D01*
X129405418Y-54694023D01*
X129351698Y-54859357D01*
X129351697Y-54859360D01*
X129351697Y-54859362D01*
X129324500Y-55031074D01*
X128993500Y-55031074D01*
X128966303Y-54859362D01*
X128912580Y-54694019D01*
X128833653Y-54539116D01*
X128731465Y-54398467D01*
X128731463Y-54398464D01*
X128608535Y-54275536D01*
X128467887Y-54173349D01*
X128467886Y-54173348D01*
X128467884Y-54173347D01*
X128312981Y-54094420D01*
X128312978Y-54094419D01*
X128312976Y-54094418D01*
X128147642Y-54040698D01*
X128147640Y-54040697D01*
X128147638Y-54040697D01*
X127975926Y-54013500D01*
X127802074Y-54013500D01*
X127630362Y-54040697D01*
X127630360Y-54040697D01*
X127630357Y-54040698D01*
X127465023Y-54094418D01*
X127465017Y-54094421D01*
X127310112Y-54173349D01*
X127169464Y-54275536D01*
X127046536Y-54398464D01*
X126944349Y-54539112D01*
X126865421Y-54694017D01*
X126865418Y-54694023D01*
X126811698Y-54859357D01*
X126811697Y-54859360D01*
X126811697Y-54859362D01*
X126784500Y-55031074D01*
X126453500Y-55031074D01*
X126426303Y-54859362D01*
X126372580Y-54694019D01*
X126293653Y-54539116D01*
X126191465Y-54398467D01*
X126191463Y-54398464D01*
X126068535Y-54275536D01*
X125927887Y-54173349D01*
X125927886Y-54173348D01*
X125927884Y-54173347D01*
X125772981Y-54094420D01*
X125772978Y-54094419D01*
X125772976Y-54094418D01*
X125607642Y-54040698D01*
X125607640Y-54040697D01*
X125607638Y-54040697D01*
X125435926Y-54013500D01*
X125262074Y-54013500D01*
X125090362Y-54040697D01*
X125090360Y-54040697D01*
X125090357Y-54040698D01*
X124925023Y-54094418D01*
X124925017Y-54094421D01*
X124770112Y-54173349D01*
X124629464Y-54275536D01*
X124506536Y-54398464D01*
X124404349Y-54539112D01*
X124325421Y-54694017D01*
X124325418Y-54694023D01*
X124271698Y-54859357D01*
X124271697Y-54859360D01*
X124271697Y-54859362D01*
X124244500Y-55031074D01*
X123913500Y-55031074D01*
X123886303Y-54859362D01*
X123832580Y-54694019D01*
X123753653Y-54539116D01*
X123651465Y-54398467D01*
X123651463Y-54398464D01*
X123528535Y-54275536D01*
X123387887Y-54173349D01*
X123387886Y-54173348D01*
X123387884Y-54173347D01*
X123232981Y-54094420D01*
X123232978Y-54094419D01*
X123232976Y-54094418D01*
X123067642Y-54040698D01*
X123067640Y-54040697D01*
X123067638Y-54040697D01*
X122895926Y-54013500D01*
X122722074Y-54013500D01*
X122550362Y-54040697D01*
X122550360Y-54040697D01*
X122550357Y-54040698D01*
X122385023Y-54094418D01*
X122385017Y-54094421D01*
X122230112Y-54173349D01*
X122089464Y-54275536D01*
X121966536Y-54398464D01*
X121864349Y-54539112D01*
X121785421Y-54694017D01*
X121785418Y-54694023D01*
X121731698Y-54859357D01*
X121731697Y-54859360D01*
X121731697Y-54859362D01*
X121704500Y-55031074D01*
X121373500Y-55031074D01*
X121346303Y-54859362D01*
X121292580Y-54694019D01*
X121213653Y-54539116D01*
X121111465Y-54398467D01*
X121111463Y-54398464D01*
X120988535Y-54275536D01*
X120847887Y-54173349D01*
X120847886Y-54173348D01*
X120847884Y-54173347D01*
X120692981Y-54094420D01*
X120692978Y-54094419D01*
X120692976Y-54094418D01*
X120527642Y-54040698D01*
X120527640Y-54040697D01*
X120527638Y-54040697D01*
X120355926Y-54013500D01*
X120182074Y-54013500D01*
X120010362Y-54040697D01*
X120010360Y-54040697D01*
X120010357Y-54040698D01*
X119845023Y-54094418D01*
X119845017Y-54094421D01*
X119690112Y-54173349D01*
X119549464Y-54275536D01*
X119426536Y-54398464D01*
X119324349Y-54539112D01*
X119245421Y-54694017D01*
X119245418Y-54694023D01*
X119191698Y-54859357D01*
X119191697Y-54859360D01*
X119191697Y-54859362D01*
X119164500Y-55031074D01*
X118833500Y-55031074D01*
X118806303Y-54859362D01*
X118752580Y-54694019D01*
X118673653Y-54539116D01*
X118571465Y-54398467D01*
X118571463Y-54398464D01*
X118448535Y-54275536D01*
X118307887Y-54173349D01*
X118307886Y-54173348D01*
X118307884Y-54173347D01*
X118152981Y-54094420D01*
X118152978Y-54094419D01*
X118152976Y-54094418D01*
X117987642Y-54040698D01*
X117987640Y-54040697D01*
X117987638Y-54040697D01*
X117815926Y-54013500D01*
X117642074Y-54013500D01*
X117470362Y-54040697D01*
X117470360Y-54040697D01*
X117470357Y-54040698D01*
X117305023Y-54094418D01*
X117305017Y-54094421D01*
X117150112Y-54173349D01*
X117009464Y-54275536D01*
X116886536Y-54398464D01*
X116784349Y-54539112D01*
X116705421Y-54694017D01*
X116705418Y-54694023D01*
X116651698Y-54859357D01*
X116651697Y-54859360D01*
X116651697Y-54859362D01*
X116624500Y-55031074D01*
X116293500Y-55031074D01*
X116266303Y-54859362D01*
X116212580Y-54694019D01*
X116133653Y-54539116D01*
X116031465Y-54398467D01*
X116031463Y-54398464D01*
X115908535Y-54275536D01*
X115767887Y-54173349D01*
X115767886Y-54173348D01*
X115767884Y-54173347D01*
X115612981Y-54094420D01*
X115612978Y-54094419D01*
X115612976Y-54094418D01*
X115447642Y-54040698D01*
X115447640Y-54040697D01*
X115447638Y-54040697D01*
X115275926Y-54013500D01*
X115102074Y-54013500D01*
X114930362Y-54040697D01*
X114930360Y-54040697D01*
X114930357Y-54040698D01*
X114765023Y-54094418D01*
X114765017Y-54094421D01*
X114610112Y-54173349D01*
X114469464Y-54275536D01*
X114346536Y-54398464D01*
X114244349Y-54539112D01*
X114165421Y-54694017D01*
X114165418Y-54694023D01*
X114111698Y-54859357D01*
X114111697Y-54859360D01*
X114111697Y-54859362D01*
X114084500Y-55031074D01*
X113753500Y-55031074D01*
X113726303Y-54859362D01*
X113672580Y-54694019D01*
X113593653Y-54539116D01*
X113491465Y-54398467D01*
X113491463Y-54398464D01*
X113368535Y-54275536D01*
X113227887Y-54173349D01*
X113227886Y-54173348D01*
X113227884Y-54173347D01*
X113072981Y-54094420D01*
X113072978Y-54094419D01*
X113072976Y-54094418D01*
X112907642Y-54040698D01*
X112907640Y-54040697D01*
X112907638Y-54040697D01*
X112735926Y-54013500D01*
X112562074Y-54013500D01*
X112390362Y-54040697D01*
X112390360Y-54040697D01*
X112390357Y-54040698D01*
X112225023Y-54094418D01*
X112225017Y-54094421D01*
X112070112Y-54173349D01*
X111929464Y-54275536D01*
X111806536Y-54398464D01*
X111704349Y-54539112D01*
X111625421Y-54694017D01*
X111625418Y-54694023D01*
X111571698Y-54859357D01*
X111571697Y-54859360D01*
X111571697Y-54859362D01*
X111544500Y-55031074D01*
X111213500Y-55031074D01*
X111186303Y-54859362D01*
X111132580Y-54694019D01*
X111053653Y-54539116D01*
X110951465Y-54398467D01*
X110951463Y-54398464D01*
X110828535Y-54275536D01*
X110687887Y-54173349D01*
X110687886Y-54173348D01*
X110687884Y-54173347D01*
X110532981Y-54094420D01*
X110532978Y-54094419D01*
X110532976Y-54094418D01*
X110367642Y-54040698D01*
X110367640Y-54040697D01*
X110367638Y-54040697D01*
X110195926Y-54013500D01*
X110022074Y-54013500D01*
X109850362Y-54040697D01*
X109850360Y-54040697D01*
X109850357Y-54040698D01*
X109685023Y-54094418D01*
X109685017Y-54094421D01*
X109530112Y-54173349D01*
X109389464Y-54275536D01*
X109266536Y-54398464D01*
X109164349Y-54539112D01*
X109085421Y-54694017D01*
X109085418Y-54694023D01*
X109031698Y-54859357D01*
X109031697Y-54859360D01*
X109031697Y-54859362D01*
X109004500Y-55031074D01*
X108673500Y-55031074D01*
X108646303Y-54859362D01*
X108592580Y-54694019D01*
X108513653Y-54539116D01*
X108411465Y-54398467D01*
X108411463Y-54398464D01*
X108288535Y-54275536D01*
X108147887Y-54173349D01*
X108147886Y-54173348D01*
X108147884Y-54173347D01*
X107992981Y-54094420D01*
X107992978Y-54094419D01*
X107992976Y-54094418D01*
X107827642Y-54040698D01*
X107827640Y-54040697D01*
X107827638Y-54040697D01*
X107655926Y-54013500D01*
X107482074Y-54013500D01*
X107310362Y-54040697D01*
X107310360Y-54040697D01*
X107310357Y-54040698D01*
X107145023Y-54094418D01*
X107145017Y-54094421D01*
X106990112Y-54173349D01*
X106849464Y-54275536D01*
X106726536Y-54398464D01*
X106624349Y-54539112D01*
X106545421Y-54694017D01*
X106545418Y-54694023D01*
X106491698Y-54859357D01*
X106491697Y-54859360D01*
X106491697Y-54859362D01*
X106464500Y-55031074D01*
X106133500Y-55031074D01*
X106106303Y-54859362D01*
X106052580Y-54694019D01*
X105973653Y-54539116D01*
X105871465Y-54398467D01*
X105871463Y-54398464D01*
X105748535Y-54275536D01*
X105607887Y-54173349D01*
X105607886Y-54173348D01*
X105607884Y-54173347D01*
X105452981Y-54094420D01*
X105452978Y-54094419D01*
X105452976Y-54094418D01*
X105287642Y-54040698D01*
X105287640Y-54040697D01*
X105287638Y-54040697D01*
X105115926Y-54013500D01*
X104942074Y-54013500D01*
X104770362Y-54040697D01*
X104770360Y-54040697D01*
X104770357Y-54040698D01*
X104605023Y-54094418D01*
X104605017Y-54094421D01*
X104450112Y-54173349D01*
X104309464Y-54275536D01*
X104186536Y-54398464D01*
X104084349Y-54539112D01*
X104005421Y-54694017D01*
X104005418Y-54694023D01*
X103951698Y-54859357D01*
X103951697Y-54859360D01*
X103951697Y-54859362D01*
X103924500Y-55031074D01*
X103593500Y-55031074D01*
X103566303Y-54859362D01*
X103512580Y-54694019D01*
X103433653Y-54539116D01*
X103331465Y-54398467D01*
X103331463Y-54398464D01*
X103208535Y-54275536D01*
X103067887Y-54173349D01*
X103067886Y-54173348D01*
X103067884Y-54173347D01*
X102912981Y-54094420D01*
X102912978Y-54094419D01*
X102912976Y-54094418D01*
X102747642Y-54040698D01*
X102747640Y-54040697D01*
X102747638Y-54040697D01*
X102575926Y-54013500D01*
X102402074Y-54013500D01*
X102230362Y-54040697D01*
X102230360Y-54040697D01*
X102230357Y-54040698D01*
X102065023Y-54094418D01*
X102065017Y-54094421D01*
X101910112Y-54173349D01*
X101769464Y-54275536D01*
X101646536Y-54398464D01*
X101544349Y-54539112D01*
X101465421Y-54694017D01*
X101465418Y-54694023D01*
X101411698Y-54859357D01*
X101411697Y-54859360D01*
X101411697Y-54859362D01*
X101384500Y-55031074D01*
X58572500Y-55031074D01*
X58572500Y-54948291D01*
X58539231Y-54610508D01*
X58473014Y-54277613D01*
X58374486Y-53952811D01*
X58244597Y-53639230D01*
X58084597Y-53339890D01*
X58084595Y-53339887D01*
X57896033Y-53057683D01*
X57896028Y-53057677D01*
X57896027Y-53057675D01*
X57806233Y-52948261D01*
X57680707Y-52795307D01*
X57680689Y-52795288D01*
X57440711Y-52555310D01*
X57440692Y-52555292D01*
X57257146Y-52404660D01*
X57178325Y-52339973D01*
X57178321Y-52339970D01*
X57178316Y-52339966D01*
X56896112Y-52151404D01*
X56596770Y-51991403D01*
X56283193Y-51861515D01*
X56283189Y-51861514D01*
X55958387Y-51762986D01*
X55958384Y-51762985D01*
X55958383Y-51762985D01*
X55625497Y-51696770D01*
X55625492Y-51696769D01*
X55625485Y-51696768D01*
X55625476Y-51696767D01*
X55287715Y-51663500D01*
X55287709Y-51663500D01*
X54948291Y-51663500D01*
X54948284Y-51663500D01*
X54610523Y-51696767D01*
X54610511Y-51696768D01*
X54610508Y-51696769D01*
X54610505Y-51696769D01*
X54610502Y-51696770D01*
X54277616Y-51762985D01*
X53952810Y-51861514D01*
X53952806Y-51861515D01*
X53639229Y-51991403D01*
X53339887Y-52151404D01*
X53057683Y-52339966D01*
X53057677Y-52339971D01*
X52795307Y-52555292D01*
X52795288Y-52555310D01*
X52555310Y-52795288D01*
X52555292Y-52795307D01*
X52339971Y-53057677D01*
X52339966Y-53057683D01*
X52151404Y-53339887D01*
X51991403Y-53639229D01*
X51861515Y-53952806D01*
X51861514Y-53952810D01*
X51762985Y-54277616D01*
X51696770Y-54610502D01*
X51696767Y-54610523D01*
X51663500Y-54948284D01*
X50927500Y-54948284D01*
X50927500Y-51053500D01*
X50947502Y-50985379D01*
X51001158Y-50938886D01*
X51053500Y-50927500D01*
X152146500Y-50927500D01*
X152214621Y-50947502D01*
G37*
G04 #@! TD.AperFunction*
M02*
