G04 #@! TF.GenerationSoftware,KiCad,Pcbnew,9.0.9-9.0.9~ubuntu24.04.1*
G04 #@! TF.CreationDate,2026-05-29T11:46:23-06:00*
G04 #@! TF.ProjectId,i2c-headunit,6932632d-6865-4616-9475-6e69742e6b69,rev?*
G04 #@! TF.SameCoordinates,Original*
G04 #@! TF.FileFunction,Paste,Top*
G04 #@! TF.FilePolarity,Positive*
%FSLAX46Y46*%
G04 Gerber Fmt 4.6, Leading zero omitted, Abs format (unit mm)*
G04 Created by KiCad (PCBNEW 9.0.9-9.0.9~ubuntu24.04.1) date 2026-05-29 11:46:23*
%MOMM*%
%LPD*%
G01*
G04 APERTURE LIST*
%ADD10R,1.200000X1.200000*%
%ADD11R,1.600000X1.500000*%
G04 APERTURE END LIST*
G36*
G01*
X105824000Y-73988000D02*
X106774000Y-73988000D01*
G75*
G02*
X107024000Y-74238000I0J-250000D01*
G01*
X107024000Y-74738000D01*
G75*
G02*
X106774000Y-74988000I-250000J0D01*
G01*
X105824000Y-74988000D01*
G75*
G02*
X105574000Y-74738000I0J250000D01*
G01*
X105574000Y-74238000D01*
G75*
G02*
X105824000Y-73988000I250000J0D01*
G01*
G37*
G36*
G01*
X105824000Y-75888000D02*
X106774000Y-75888000D01*
G75*
G02*
X107024000Y-76138000I0J-250000D01*
G01*
X107024000Y-76638000D01*
G75*
G02*
X106774000Y-76888000I-250000J0D01*
G01*
X105824000Y-76888000D01*
G75*
G02*
X105574000Y-76638000I0J250000D01*
G01*
X105574000Y-76138000D01*
G75*
G02*
X105824000Y-75888000I250000J0D01*
G01*
G37*
G36*
G01*
X137869000Y-59784000D02*
X137869000Y-58834000D01*
G75*
G02*
X138119000Y-58584000I250000J0D01*
G01*
X138619000Y-58584000D01*
G75*
G02*
X138869000Y-58834000I0J-250000D01*
G01*
X138869000Y-59784000D01*
G75*
G02*
X138619000Y-60034000I-250000J0D01*
G01*
X138119000Y-60034000D01*
G75*
G02*
X137869000Y-59784000I0J250000D01*
G01*
G37*
G36*
G01*
X139769000Y-59784000D02*
X139769000Y-58834000D01*
G75*
G02*
X140019000Y-58584000I250000J0D01*
G01*
X140519000Y-58584000D01*
G75*
G02*
X140769000Y-58834000I0J-250000D01*
G01*
X140769000Y-59784000D01*
G75*
G02*
X140519000Y-60034000I-250000J0D01*
G01*
X140019000Y-60034000D01*
G75*
G02*
X139769000Y-59784000I0J250000D01*
G01*
G37*
G36*
G01*
X79497000Y-84624000D02*
X79497000Y-83524000D01*
G75*
G02*
X79747000Y-83274000I250000J0D01*
G01*
X82747000Y-83274000D01*
G75*
G02*
X82997000Y-83524000I0J-250000D01*
G01*
X82997000Y-84624000D01*
G75*
G02*
X82747000Y-84874000I-250000J0D01*
G01*
X79747000Y-84874000D01*
G75*
G02*
X79497000Y-84624000I0J250000D01*
G01*
G37*
G36*
G01*
X84897000Y-84624000D02*
X84897000Y-83524000D01*
G75*
G02*
X85147000Y-83274000I250000J0D01*
G01*
X88147000Y-83274000D01*
G75*
G02*
X88397000Y-83524000I0J-250000D01*
G01*
X88397000Y-84624000D01*
G75*
G02*
X88147000Y-84874000I-250000J0D01*
G01*
X85147000Y-84874000D01*
G75*
G02*
X84897000Y-84624000I0J250000D01*
G01*
G37*
G36*
G01*
X93668000Y-112677000D02*
X92768000Y-112677000D01*
G75*
G02*
X92518000Y-112427000I0J250000D01*
G01*
X92518000Y-111902000D01*
G75*
G02*
X92768000Y-111652000I250000J0D01*
G01*
X93668000Y-111652000D01*
G75*
G02*
X93918000Y-111902000I0J-250000D01*
G01*
X93918000Y-112427000D01*
G75*
G02*
X93668000Y-112677000I-250000J0D01*
G01*
G37*
G36*
G01*
X93668000Y-110852000D02*
X92768000Y-110852000D01*
G75*
G02*
X92518000Y-110602000I0J250000D01*
G01*
X92518000Y-110077000D01*
G75*
G02*
X92768000Y-109827000I250000J0D01*
G01*
X93668000Y-109827000D01*
G75*
G02*
X93918000Y-110077000I0J-250000D01*
G01*
X93918000Y-110602000D01*
G75*
G02*
X93668000Y-110852000I-250000J0D01*
G01*
G37*
G36*
G01*
X126926000Y-82456000D02*
X126926000Y-83406000D01*
G75*
G02*
X126676000Y-83656000I-250000J0D01*
G01*
X126176000Y-83656000D01*
G75*
G02*
X125926000Y-83406000I0J250000D01*
G01*
X125926000Y-82456000D01*
G75*
G02*
X126176000Y-82206000I250000J0D01*
G01*
X126676000Y-82206000D01*
G75*
G02*
X126926000Y-82456000I0J-250000D01*
G01*
G37*
G36*
G01*
X125026000Y-82456000D02*
X125026000Y-83406000D01*
G75*
G02*
X124776000Y-83656000I-250000J0D01*
G01*
X124276000Y-83656000D01*
G75*
G02*
X124026000Y-83406000I0J250000D01*
G01*
X124026000Y-82456000D01*
G75*
G02*
X124276000Y-82206000I250000J0D01*
G01*
X124776000Y-82206000D01*
G75*
G02*
X125026000Y-82456000I0J-250000D01*
G01*
G37*
G36*
G01*
X110584000Y-108257000D02*
X109634000Y-108257000D01*
G75*
G02*
X109384000Y-108007000I0J250000D01*
G01*
X109384000Y-107507000D01*
G75*
G02*
X109634000Y-107257000I250000J0D01*
G01*
X110584000Y-107257000D01*
G75*
G02*
X110834000Y-107507000I0J-250000D01*
G01*
X110834000Y-108007000D01*
G75*
G02*
X110584000Y-108257000I-250000J0D01*
G01*
G37*
G36*
G01*
X110584000Y-106357000D02*
X109634000Y-106357000D01*
G75*
G02*
X109384000Y-106107000I0J250000D01*
G01*
X109384000Y-105607000D01*
G75*
G02*
X109634000Y-105357000I250000J0D01*
G01*
X110584000Y-105357000D01*
G75*
G02*
X110834000Y-105607000I0J-250000D01*
G01*
X110834000Y-106107000D01*
G75*
G02*
X110584000Y-106357000I-250000J0D01*
G01*
G37*
G36*
G01*
X127475000Y-108257000D02*
X126525000Y-108257000D01*
G75*
G02*
X126275000Y-108007000I0J250000D01*
G01*
X126275000Y-107507000D01*
G75*
G02*
X126525000Y-107257000I250000J0D01*
G01*
X127475000Y-107257000D01*
G75*
G02*
X127725000Y-107507000I0J-250000D01*
G01*
X127725000Y-108007000D01*
G75*
G02*
X127475000Y-108257000I-250000J0D01*
G01*
G37*
G36*
G01*
X127475000Y-106357000D02*
X126525000Y-106357000D01*
G75*
G02*
X126275000Y-106107000I0J250000D01*
G01*
X126275000Y-105607000D01*
G75*
G02*
X126525000Y-105357000I250000J0D01*
G01*
X127475000Y-105357000D01*
G75*
G02*
X127725000Y-105607000I0J-250000D01*
G01*
X127725000Y-106107000D01*
G75*
G02*
X127475000Y-106357000I-250000J0D01*
G01*
G37*
D10*
X137509000Y-63373000D03*
D11*
X136509000Y-66623000D03*
D10*
X135509000Y-63373000D03*
G36*
G01*
X109400000Y-73283500D02*
X109400000Y-73008500D01*
G75*
G02*
X109537500Y-72871000I137500J0D01*
G01*
X110737500Y-72871000D01*
G75*
G02*
X110875000Y-73008500I0J-137500D01*
G01*
X110875000Y-73283500D01*
G75*
G02*
X110737500Y-73421000I-137500J0D01*
G01*
X109537500Y-73421000D01*
G75*
G02*
X109400000Y-73283500I0J137500D01*
G01*
G37*
G36*
G01*
X109400000Y-74083500D02*
X109400000Y-73808500D01*
G75*
G02*
X109537500Y-73671000I137500J0D01*
G01*
X110737500Y-73671000D01*
G75*
G02*
X110875000Y-73808500I0J-137500D01*
G01*
X110875000Y-74083500D01*
G75*
G02*
X110737500Y-74221000I-137500J0D01*
G01*
X109537500Y-74221000D01*
G75*
G02*
X109400000Y-74083500I0J137500D01*
G01*
G37*
G36*
G01*
X109400000Y-74883500D02*
X109400000Y-74608500D01*
G75*
G02*
X109537500Y-74471000I137500J0D01*
G01*
X110737500Y-74471000D01*
G75*
G02*
X110875000Y-74608500I0J-137500D01*
G01*
X110875000Y-74883500D01*
G75*
G02*
X110737500Y-75021000I-137500J0D01*
G01*
X109537500Y-75021000D01*
G75*
G02*
X109400000Y-74883500I0J137500D01*
G01*
G37*
G36*
G01*
X109400000Y-75683500D02*
X109400000Y-75408500D01*
G75*
G02*
X109537500Y-75271000I137500J0D01*
G01*
X110737500Y-75271000D01*
G75*
G02*
X110875000Y-75408500I0J-137500D01*
G01*
X110875000Y-75683500D01*
G75*
G02*
X110737500Y-75821000I-137500J0D01*
G01*
X109537500Y-75821000D01*
G75*
G02*
X109400000Y-75683500I0J137500D01*
G01*
G37*
G36*
G01*
X109400000Y-76483500D02*
X109400000Y-76208500D01*
G75*
G02*
X109537500Y-76071000I137500J0D01*
G01*
X110737500Y-76071000D01*
G75*
G02*
X110875000Y-76208500I0J-137500D01*
G01*
X110875000Y-76483500D01*
G75*
G02*
X110737500Y-76621000I-137500J0D01*
G01*
X109537500Y-76621000D01*
G75*
G02*
X109400000Y-76483500I0J137500D01*
G01*
G37*
G36*
G01*
X109400000Y-77283500D02*
X109400000Y-77008500D01*
G75*
G02*
X109537500Y-76871000I137500J0D01*
G01*
X110737500Y-76871000D01*
G75*
G02*
X110875000Y-77008500I0J-137500D01*
G01*
X110875000Y-77283500D01*
G75*
G02*
X110737500Y-77421000I-137500J0D01*
G01*
X109537500Y-77421000D01*
G75*
G02*
X109400000Y-77283500I0J137500D01*
G01*
G37*
G36*
G01*
X109400000Y-78083500D02*
X109400000Y-77808500D01*
G75*
G02*
X109537500Y-77671000I137500J0D01*
G01*
X110737500Y-77671000D01*
G75*
G02*
X110875000Y-77808500I0J-137500D01*
G01*
X110875000Y-78083500D01*
G75*
G02*
X110737500Y-78221000I-137500J0D01*
G01*
X109537500Y-78221000D01*
G75*
G02*
X109400000Y-78083500I0J137500D01*
G01*
G37*
G36*
G01*
X109400000Y-78883500D02*
X109400000Y-78608500D01*
G75*
G02*
X109537500Y-78471000I137500J0D01*
G01*
X110737500Y-78471000D01*
G75*
G02*
X110875000Y-78608500I0J-137500D01*
G01*
X110875000Y-78883500D01*
G75*
G02*
X110737500Y-79021000I-137500J0D01*
G01*
X109537500Y-79021000D01*
G75*
G02*
X109400000Y-78883500I0J137500D01*
G01*
G37*
G36*
G01*
X111225000Y-80708500D02*
X111225000Y-79508500D01*
G75*
G02*
X111362500Y-79371000I137500J0D01*
G01*
X111637500Y-79371000D01*
G75*
G02*
X111775000Y-79508500I0J-137500D01*
G01*
X111775000Y-80708500D01*
G75*
G02*
X111637500Y-80846000I-137500J0D01*
G01*
X111362500Y-80846000D01*
G75*
G02*
X111225000Y-80708500I0J137500D01*
G01*
G37*
G36*
G01*
X112025000Y-80708500D02*
X112025000Y-79508500D01*
G75*
G02*
X112162500Y-79371000I137500J0D01*
G01*
X112437500Y-79371000D01*
G75*
G02*
X112575000Y-79508500I0J-137500D01*
G01*
X112575000Y-80708500D01*
G75*
G02*
X112437500Y-80846000I-137500J0D01*
G01*
X112162500Y-80846000D01*
G75*
G02*
X112025000Y-80708500I0J137500D01*
G01*
G37*
G36*
G01*
X112825000Y-80708500D02*
X112825000Y-79508500D01*
G75*
G02*
X112962500Y-79371000I137500J0D01*
G01*
X113237500Y-79371000D01*
G75*
G02*
X113375000Y-79508500I0J-137500D01*
G01*
X113375000Y-80708500D01*
G75*
G02*
X113237500Y-80846000I-137500J0D01*
G01*
X112962500Y-80846000D01*
G75*
G02*
X112825000Y-80708500I0J137500D01*
G01*
G37*
G36*
G01*
X113625000Y-80708500D02*
X113625000Y-79508500D01*
G75*
G02*
X113762500Y-79371000I137500J0D01*
G01*
X114037500Y-79371000D01*
G75*
G02*
X114175000Y-79508500I0J-137500D01*
G01*
X114175000Y-80708500D01*
G75*
G02*
X114037500Y-80846000I-137500J0D01*
G01*
X113762500Y-80846000D01*
G75*
G02*
X113625000Y-80708500I0J137500D01*
G01*
G37*
G36*
G01*
X114425000Y-80708500D02*
X114425000Y-79508500D01*
G75*
G02*
X114562500Y-79371000I137500J0D01*
G01*
X114837500Y-79371000D01*
G75*
G02*
X114975000Y-79508500I0J-137500D01*
G01*
X114975000Y-80708500D01*
G75*
G02*
X114837500Y-80846000I-137500J0D01*
G01*
X114562500Y-80846000D01*
G75*
G02*
X114425000Y-80708500I0J137500D01*
G01*
G37*
G36*
G01*
X115225000Y-80708500D02*
X115225000Y-79508500D01*
G75*
G02*
X115362500Y-79371000I137500J0D01*
G01*
X115637500Y-79371000D01*
G75*
G02*
X115775000Y-79508500I0J-137500D01*
G01*
X115775000Y-80708500D01*
G75*
G02*
X115637500Y-80846000I-137500J0D01*
G01*
X115362500Y-80846000D01*
G75*
G02*
X115225000Y-80708500I0J137500D01*
G01*
G37*
G36*
G01*
X116025000Y-80708500D02*
X116025000Y-79508500D01*
G75*
G02*
X116162500Y-79371000I137500J0D01*
G01*
X116437500Y-79371000D01*
G75*
G02*
X116575000Y-79508500I0J-137500D01*
G01*
X116575000Y-80708500D01*
G75*
G02*
X116437500Y-80846000I-137500J0D01*
G01*
X116162500Y-80846000D01*
G75*
G02*
X116025000Y-80708500I0J137500D01*
G01*
G37*
G36*
G01*
X116825000Y-80708500D02*
X116825000Y-79508500D01*
G75*
G02*
X116962500Y-79371000I137500J0D01*
G01*
X117237500Y-79371000D01*
G75*
G02*
X117375000Y-79508500I0J-137500D01*
G01*
X117375000Y-80708500D01*
G75*
G02*
X117237500Y-80846000I-137500J0D01*
G01*
X116962500Y-80846000D01*
G75*
G02*
X116825000Y-80708500I0J137500D01*
G01*
G37*
G36*
G01*
X117725000Y-78883500D02*
X117725000Y-78608500D01*
G75*
G02*
X117862500Y-78471000I137500J0D01*
G01*
X119062500Y-78471000D01*
G75*
G02*
X119200000Y-78608500I0J-137500D01*
G01*
X119200000Y-78883500D01*
G75*
G02*
X119062500Y-79021000I-137500J0D01*
G01*
X117862500Y-79021000D01*
G75*
G02*
X117725000Y-78883500I0J137500D01*
G01*
G37*
G36*
G01*
X117725000Y-78083500D02*
X117725000Y-77808500D01*
G75*
G02*
X117862500Y-77671000I137500J0D01*
G01*
X119062500Y-77671000D01*
G75*
G02*
X119200000Y-77808500I0J-137500D01*
G01*
X119200000Y-78083500D01*
G75*
G02*
X119062500Y-78221000I-137500J0D01*
G01*
X117862500Y-78221000D01*
G75*
G02*
X117725000Y-78083500I0J137500D01*
G01*
G37*
G36*
G01*
X117725000Y-77283500D02*
X117725000Y-77008500D01*
G75*
G02*
X117862500Y-76871000I137500J0D01*
G01*
X119062500Y-76871000D01*
G75*
G02*
X119200000Y-77008500I0J-137500D01*
G01*
X119200000Y-77283500D01*
G75*
G02*
X119062500Y-77421000I-137500J0D01*
G01*
X117862500Y-77421000D01*
G75*
G02*
X117725000Y-77283500I0J137500D01*
G01*
G37*
G36*
G01*
X117725000Y-76483500D02*
X117725000Y-76208500D01*
G75*
G02*
X117862500Y-76071000I137500J0D01*
G01*
X119062500Y-76071000D01*
G75*
G02*
X119200000Y-76208500I0J-137500D01*
G01*
X119200000Y-76483500D01*
G75*
G02*
X119062500Y-76621000I-137500J0D01*
G01*
X117862500Y-76621000D01*
G75*
G02*
X117725000Y-76483500I0J137500D01*
G01*
G37*
G36*
G01*
X117725000Y-75683500D02*
X117725000Y-75408500D01*
G75*
G02*
X117862500Y-75271000I137500J0D01*
G01*
X119062500Y-75271000D01*
G75*
G02*
X119200000Y-75408500I0J-137500D01*
G01*
X119200000Y-75683500D01*
G75*
G02*
X119062500Y-75821000I-137500J0D01*
G01*
X117862500Y-75821000D01*
G75*
G02*
X117725000Y-75683500I0J137500D01*
G01*
G37*
G36*
G01*
X117725000Y-74883500D02*
X117725000Y-74608500D01*
G75*
G02*
X117862500Y-74471000I137500J0D01*
G01*
X119062500Y-74471000D01*
G75*
G02*
X119200000Y-74608500I0J-137500D01*
G01*
X119200000Y-74883500D01*
G75*
G02*
X119062500Y-75021000I-137500J0D01*
G01*
X117862500Y-75021000D01*
G75*
G02*
X117725000Y-74883500I0J137500D01*
G01*
G37*
G36*
G01*
X117725000Y-74083500D02*
X117725000Y-73808500D01*
G75*
G02*
X117862500Y-73671000I137500J0D01*
G01*
X119062500Y-73671000D01*
G75*
G02*
X119200000Y-73808500I0J-137500D01*
G01*
X119200000Y-74083500D01*
G75*
G02*
X119062500Y-74221000I-137500J0D01*
G01*
X117862500Y-74221000D01*
G75*
G02*
X117725000Y-74083500I0J137500D01*
G01*
G37*
G36*
G01*
X117725000Y-73283500D02*
X117725000Y-73008500D01*
G75*
G02*
X117862500Y-72871000I137500J0D01*
G01*
X119062500Y-72871000D01*
G75*
G02*
X119200000Y-73008500I0J-137500D01*
G01*
X119200000Y-73283500D01*
G75*
G02*
X119062500Y-73421000I-137500J0D01*
G01*
X117862500Y-73421000D01*
G75*
G02*
X117725000Y-73283500I0J137500D01*
G01*
G37*
G36*
G01*
X116825000Y-72383500D02*
X116825000Y-71183500D01*
G75*
G02*
X116962500Y-71046000I137500J0D01*
G01*
X117237500Y-71046000D01*
G75*
G02*
X117375000Y-71183500I0J-137500D01*
G01*
X117375000Y-72383500D01*
G75*
G02*
X117237500Y-72521000I-137500J0D01*
G01*
X116962500Y-72521000D01*
G75*
G02*
X116825000Y-72383500I0J137500D01*
G01*
G37*
G36*
G01*
X116025000Y-72383500D02*
X116025000Y-71183500D01*
G75*
G02*
X116162500Y-71046000I137500J0D01*
G01*
X116437500Y-71046000D01*
G75*
G02*
X116575000Y-71183500I0J-137500D01*
G01*
X116575000Y-72383500D01*
G75*
G02*
X116437500Y-72521000I-137500J0D01*
G01*
X116162500Y-72521000D01*
G75*
G02*
X116025000Y-72383500I0J137500D01*
G01*
G37*
G36*
G01*
X115225000Y-72383500D02*
X115225000Y-71183500D01*
G75*
G02*
X115362500Y-71046000I137500J0D01*
G01*
X115637500Y-71046000D01*
G75*
G02*
X115775000Y-71183500I0J-137500D01*
G01*
X115775000Y-72383500D01*
G75*
G02*
X115637500Y-72521000I-137500J0D01*
G01*
X115362500Y-72521000D01*
G75*
G02*
X115225000Y-72383500I0J137500D01*
G01*
G37*
G36*
G01*
X114425000Y-72383500D02*
X114425000Y-71183500D01*
G75*
G02*
X114562500Y-71046000I137500J0D01*
G01*
X114837500Y-71046000D01*
G75*
G02*
X114975000Y-71183500I0J-137500D01*
G01*
X114975000Y-72383500D01*
G75*
G02*
X114837500Y-72521000I-137500J0D01*
G01*
X114562500Y-72521000D01*
G75*
G02*
X114425000Y-72383500I0J137500D01*
G01*
G37*
G36*
G01*
X113625000Y-72383500D02*
X113625000Y-71183500D01*
G75*
G02*
X113762500Y-71046000I137500J0D01*
G01*
X114037500Y-71046000D01*
G75*
G02*
X114175000Y-71183500I0J-137500D01*
G01*
X114175000Y-72383500D01*
G75*
G02*
X114037500Y-72521000I-137500J0D01*
G01*
X113762500Y-72521000D01*
G75*
G02*
X113625000Y-72383500I0J137500D01*
G01*
G37*
G36*
G01*
X112825000Y-72383500D02*
X112825000Y-71183500D01*
G75*
G02*
X112962500Y-71046000I137500J0D01*
G01*
X113237500Y-71046000D01*
G75*
G02*
X113375000Y-71183500I0J-137500D01*
G01*
X113375000Y-72383500D01*
G75*
G02*
X113237500Y-72521000I-137500J0D01*
G01*
X112962500Y-72521000D01*
G75*
G02*
X112825000Y-72383500I0J137500D01*
G01*
G37*
G36*
G01*
X112025000Y-72383500D02*
X112025000Y-71183500D01*
G75*
G02*
X112162500Y-71046000I137500J0D01*
G01*
X112437500Y-71046000D01*
G75*
G02*
X112575000Y-71183500I0J-137500D01*
G01*
X112575000Y-72383500D01*
G75*
G02*
X112437500Y-72521000I-137500J0D01*
G01*
X112162500Y-72521000D01*
G75*
G02*
X112025000Y-72383500I0J137500D01*
G01*
G37*
G36*
G01*
X111225000Y-72383500D02*
X111225000Y-71183500D01*
G75*
G02*
X111362500Y-71046000I137500J0D01*
G01*
X111637500Y-71046000D01*
G75*
G02*
X111775000Y-71183500I0J-137500D01*
G01*
X111775000Y-72383500D01*
G75*
G02*
X111637500Y-72521000I-137500J0D01*
G01*
X111362500Y-72521000D01*
G75*
G02*
X111225000Y-72383500I0J137500D01*
G01*
G37*
G36*
G01*
X76675000Y-108257000D02*
X75725000Y-108257000D01*
G75*
G02*
X75475000Y-108007000I0J250000D01*
G01*
X75475000Y-107507000D01*
G75*
G02*
X75725000Y-107257000I250000J0D01*
G01*
X76675000Y-107257000D01*
G75*
G02*
X76925000Y-107507000I0J-250000D01*
G01*
X76925000Y-108007000D01*
G75*
G02*
X76675000Y-108257000I-250000J0D01*
G01*
G37*
G36*
G01*
X76675000Y-106357000D02*
X75725000Y-106357000D01*
G75*
G02*
X75475000Y-106107000I0J250000D01*
G01*
X75475000Y-105607000D01*
G75*
G02*
X75725000Y-105357000I250000J0D01*
G01*
X76675000Y-105357000D01*
G75*
G02*
X76925000Y-105607000I0J-250000D01*
G01*
X76925000Y-106107000D01*
G75*
G02*
X76675000Y-106357000I-250000J0D01*
G01*
G37*
G36*
G01*
X84529000Y-78326000D02*
X84529000Y-77376000D01*
G75*
G02*
X84779000Y-77126000I250000J0D01*
G01*
X85279000Y-77126000D01*
G75*
G02*
X85529000Y-77376000I0J-250000D01*
G01*
X85529000Y-78326000D01*
G75*
G02*
X85279000Y-78576000I-250000J0D01*
G01*
X84779000Y-78576000D01*
G75*
G02*
X84529000Y-78326000I0J250000D01*
G01*
G37*
G36*
G01*
X86429000Y-78326000D02*
X86429000Y-77376000D01*
G75*
G02*
X86679000Y-77126000I250000J0D01*
G01*
X87179000Y-77126000D01*
G75*
G02*
X87429000Y-77376000I0J-250000D01*
G01*
X87429000Y-78326000D01*
G75*
G02*
X87179000Y-78576000I-250000J0D01*
G01*
X86679000Y-78576000D01*
G75*
G02*
X86429000Y-78326000I0J250000D01*
G01*
G37*
G36*
G01*
X86890000Y-72495000D02*
X86890000Y-73745000D01*
G75*
G02*
X86740000Y-73895000I-150000J0D01*
G01*
X86440000Y-73895000D01*
G75*
G02*
X86290000Y-73745000I0J150000D01*
G01*
X86290000Y-72495000D01*
G75*
G02*
X86440000Y-72345000I150000J0D01*
G01*
X86740000Y-72345000D01*
G75*
G02*
X86890000Y-72495000I0J-150000D01*
G01*
G37*
G36*
G01*
X85890000Y-72495000D02*
X85890000Y-73745000D01*
G75*
G02*
X85740000Y-73895000I-150000J0D01*
G01*
X85440000Y-73895000D01*
G75*
G02*
X85290000Y-73745000I0J150000D01*
G01*
X85290000Y-72495000D01*
G75*
G02*
X85440000Y-72345000I150000J0D01*
G01*
X85740000Y-72345000D01*
G75*
G02*
X85890000Y-72495000I0J-150000D01*
G01*
G37*
G36*
G01*
X84890000Y-72495000D02*
X84890000Y-73745000D01*
G75*
G02*
X84740000Y-73895000I-150000J0D01*
G01*
X84440000Y-73895000D01*
G75*
G02*
X84290000Y-73745000I0J150000D01*
G01*
X84290000Y-72495000D01*
G75*
G02*
X84440000Y-72345000I150000J0D01*
G01*
X84740000Y-72345000D01*
G75*
G02*
X84890000Y-72495000I0J-150000D01*
G01*
G37*
G36*
G01*
X83890000Y-72495000D02*
X83890000Y-73745000D01*
G75*
G02*
X83740000Y-73895000I-150000J0D01*
G01*
X83440000Y-73895000D01*
G75*
G02*
X83290000Y-73745000I0J150000D01*
G01*
X83290000Y-72495000D01*
G75*
G02*
X83440000Y-72345000I150000J0D01*
G01*
X83740000Y-72345000D01*
G75*
G02*
X83890000Y-72495000I0J-150000D01*
G01*
G37*
G36*
G01*
X88490000Y-68595000D02*
X88490000Y-69895000D01*
G75*
G02*
X88240000Y-70145000I-250000J0D01*
G01*
X87540000Y-70145000D01*
G75*
G02*
X87290000Y-69895000I0J250000D01*
G01*
X87290000Y-68595000D01*
G75*
G02*
X87540000Y-68345000I250000J0D01*
G01*
X88240000Y-68345000D01*
G75*
G02*
X88490000Y-68595000I0J-250000D01*
G01*
G37*
G36*
G01*
X82890000Y-68595000D02*
X82890000Y-69895000D01*
G75*
G02*
X82640000Y-70145000I-250000J0D01*
G01*
X81940000Y-70145000D01*
G75*
G02*
X81690000Y-69895000I0J250000D01*
G01*
X81690000Y-68595000D01*
G75*
G02*
X81940000Y-68345000I250000J0D01*
G01*
X82640000Y-68345000D01*
G75*
G02*
X82890000Y-68595000I0J-250000D01*
G01*
G37*
G36*
G01*
X76650000Y-112677000D02*
X75750000Y-112677000D01*
G75*
G02*
X75500000Y-112427000I0J250000D01*
G01*
X75500000Y-111902000D01*
G75*
G02*
X75750000Y-111652000I250000J0D01*
G01*
X76650000Y-111652000D01*
G75*
G02*
X76900000Y-111902000I0J-250000D01*
G01*
X76900000Y-112427000D01*
G75*
G02*
X76650000Y-112677000I-250000J0D01*
G01*
G37*
G36*
G01*
X76650000Y-110852000D02*
X75750000Y-110852000D01*
G75*
G02*
X75500000Y-110602000I0J250000D01*
G01*
X75500000Y-110077000D01*
G75*
G02*
X75750000Y-109827000I250000J0D01*
G01*
X76650000Y-109827000D01*
G75*
G02*
X76900000Y-110077000I0J-250000D01*
G01*
X76900000Y-110602000D01*
G75*
G02*
X76650000Y-110852000I-250000J0D01*
G01*
G37*
G36*
G01*
X122776000Y-77904000D02*
X121826000Y-77904000D01*
G75*
G02*
X121576000Y-77654000I0J250000D01*
G01*
X121576000Y-77154000D01*
G75*
G02*
X121826000Y-76904000I250000J0D01*
G01*
X122776000Y-76904000D01*
G75*
G02*
X123026000Y-77154000I0J-250000D01*
G01*
X123026000Y-77654000D01*
G75*
G02*
X122776000Y-77904000I-250000J0D01*
G01*
G37*
G36*
G01*
X122776000Y-76004000D02*
X121826000Y-76004000D01*
G75*
G02*
X121576000Y-75754000I0J250000D01*
G01*
X121576000Y-75254000D01*
G75*
G02*
X121826000Y-75004000I250000J0D01*
G01*
X122776000Y-75004000D01*
G75*
G02*
X123026000Y-75254000I0J-250000D01*
G01*
X123026000Y-75754000D01*
G75*
G02*
X122776000Y-76004000I-250000J0D01*
G01*
G37*
G36*
G01*
X74190000Y-72495000D02*
X74190000Y-73745000D01*
G75*
G02*
X74040000Y-73895000I-150000J0D01*
G01*
X73740000Y-73895000D01*
G75*
G02*
X73590000Y-73745000I0J150000D01*
G01*
X73590000Y-72495000D01*
G75*
G02*
X73740000Y-72345000I150000J0D01*
G01*
X74040000Y-72345000D01*
G75*
G02*
X74190000Y-72495000I0J-150000D01*
G01*
G37*
G36*
G01*
X73190000Y-72495000D02*
X73190000Y-73745000D01*
G75*
G02*
X73040000Y-73895000I-150000J0D01*
G01*
X72740000Y-73895000D01*
G75*
G02*
X72590000Y-73745000I0J150000D01*
G01*
X72590000Y-72495000D01*
G75*
G02*
X72740000Y-72345000I150000J0D01*
G01*
X73040000Y-72345000D01*
G75*
G02*
X73190000Y-72495000I0J-150000D01*
G01*
G37*
G36*
G01*
X72190000Y-72495000D02*
X72190000Y-73745000D01*
G75*
G02*
X72040000Y-73895000I-150000J0D01*
G01*
X71740000Y-73895000D01*
G75*
G02*
X71590000Y-73745000I0J150000D01*
G01*
X71590000Y-72495000D01*
G75*
G02*
X71740000Y-72345000I150000J0D01*
G01*
X72040000Y-72345000D01*
G75*
G02*
X72190000Y-72495000I0J-150000D01*
G01*
G37*
G36*
G01*
X71190000Y-72495000D02*
X71190000Y-73745000D01*
G75*
G02*
X71040000Y-73895000I-150000J0D01*
G01*
X70740000Y-73895000D01*
G75*
G02*
X70590000Y-73745000I0J150000D01*
G01*
X70590000Y-72495000D01*
G75*
G02*
X70740000Y-72345000I150000J0D01*
G01*
X71040000Y-72345000D01*
G75*
G02*
X71190000Y-72495000I0J-150000D01*
G01*
G37*
G36*
G01*
X75790000Y-68595000D02*
X75790000Y-69895000D01*
G75*
G02*
X75540000Y-70145000I-250000J0D01*
G01*
X74840000Y-70145000D01*
G75*
G02*
X74590000Y-69895000I0J250000D01*
G01*
X74590000Y-68595000D01*
G75*
G02*
X74840000Y-68345000I250000J0D01*
G01*
X75540000Y-68345000D01*
G75*
G02*
X75790000Y-68595000I0J-250000D01*
G01*
G37*
G36*
G01*
X70190000Y-68595000D02*
X70190000Y-69895000D01*
G75*
G02*
X69940000Y-70145000I-250000J0D01*
G01*
X69240000Y-70145000D01*
G75*
G02*
X68990000Y-69895000I0J250000D01*
G01*
X68990000Y-68595000D01*
G75*
G02*
X69240000Y-68345000I250000J0D01*
G01*
X69940000Y-68345000D01*
G75*
G02*
X70190000Y-68595000I0J-250000D01*
G01*
G37*
G36*
G01*
X93693000Y-108257000D02*
X92743000Y-108257000D01*
G75*
G02*
X92493000Y-108007000I0J250000D01*
G01*
X92493000Y-107507000D01*
G75*
G02*
X92743000Y-107257000I250000J0D01*
G01*
X93693000Y-107257000D01*
G75*
G02*
X93943000Y-107507000I0J-250000D01*
G01*
X93943000Y-108007000D01*
G75*
G02*
X93693000Y-108257000I-250000J0D01*
G01*
G37*
G36*
G01*
X93693000Y-106357000D02*
X92743000Y-106357000D01*
G75*
G02*
X92493000Y-106107000I0J250000D01*
G01*
X92493000Y-105607000D01*
G75*
G02*
X92743000Y-105357000I250000J0D01*
G01*
X93693000Y-105357000D01*
G75*
G02*
X93943000Y-105607000I0J-250000D01*
G01*
X93943000Y-106107000D01*
G75*
G02*
X93693000Y-106357000I-250000J0D01*
G01*
G37*
G36*
G01*
X110559000Y-112677000D02*
X109659000Y-112677000D01*
G75*
G02*
X109409000Y-112427000I0J250000D01*
G01*
X109409000Y-111902000D01*
G75*
G02*
X109659000Y-111652000I250000J0D01*
G01*
X110559000Y-111652000D01*
G75*
G02*
X110809000Y-111902000I0J-250000D01*
G01*
X110809000Y-112427000D01*
G75*
G02*
X110559000Y-112677000I-250000J0D01*
G01*
G37*
G36*
G01*
X110559000Y-110852000D02*
X109659000Y-110852000D01*
G75*
G02*
X109409000Y-110602000I0J250000D01*
G01*
X109409000Y-110077000D01*
G75*
G02*
X109659000Y-109827000I250000J0D01*
G01*
X110559000Y-109827000D01*
G75*
G02*
X110809000Y-110077000I0J-250000D01*
G01*
X110809000Y-110602000D01*
G75*
G02*
X110559000Y-110852000I-250000J0D01*
G01*
G37*
G36*
G01*
X92768000Y-82141000D02*
X93668000Y-82141000D01*
G75*
G02*
X93918000Y-82391000I0J-250000D01*
G01*
X93918000Y-82916000D01*
G75*
G02*
X93668000Y-83166000I-250000J0D01*
G01*
X92768000Y-83166000D01*
G75*
G02*
X92518000Y-82916000I0J250000D01*
G01*
X92518000Y-82391000D01*
G75*
G02*
X92768000Y-82141000I250000J0D01*
G01*
G37*
G36*
G01*
X92768000Y-83966000D02*
X93668000Y-83966000D01*
G75*
G02*
X93918000Y-84216000I0J-250000D01*
G01*
X93918000Y-84741000D01*
G75*
G02*
X93668000Y-84991000I-250000J0D01*
G01*
X92768000Y-84991000D01*
G75*
G02*
X92518000Y-84741000I0J250000D01*
G01*
X92518000Y-84216000D01*
G75*
G02*
X92768000Y-83966000I250000J0D01*
G01*
G37*
G36*
G01*
X129385000Y-85159000D02*
X129385000Y-84259000D01*
G75*
G02*
X129635000Y-84009000I250000J0D01*
G01*
X130160000Y-84009000D01*
G75*
G02*
X130410000Y-84259000I0J-250000D01*
G01*
X130410000Y-85159000D01*
G75*
G02*
X130160000Y-85409000I-250000J0D01*
G01*
X129635000Y-85409000D01*
G75*
G02*
X129385000Y-85159000I0J250000D01*
G01*
G37*
G36*
G01*
X131210000Y-85159000D02*
X131210000Y-84259000D01*
G75*
G02*
X131460000Y-84009000I250000J0D01*
G01*
X131985000Y-84009000D01*
G75*
G02*
X132235000Y-84259000I0J-250000D01*
G01*
X132235000Y-85159000D01*
G75*
G02*
X131985000Y-85409000I-250000J0D01*
G01*
X131460000Y-85409000D01*
G75*
G02*
X131210000Y-85159000I0J250000D01*
G01*
G37*
G36*
G01*
X127450000Y-112677000D02*
X126550000Y-112677000D01*
G75*
G02*
X126300000Y-112427000I0J250000D01*
G01*
X126300000Y-111902000D01*
G75*
G02*
X126550000Y-111652000I250000J0D01*
G01*
X127450000Y-111652000D01*
G75*
G02*
X127700000Y-111902000I0J-250000D01*
G01*
X127700000Y-112427000D01*
G75*
G02*
X127450000Y-112677000I-250000J0D01*
G01*
G37*
G36*
G01*
X127450000Y-110852000D02*
X126550000Y-110852000D01*
G75*
G02*
X126300000Y-110602000I0J250000D01*
G01*
X126300000Y-110077000D01*
G75*
G02*
X126550000Y-109827000I250000J0D01*
G01*
X127450000Y-109827000D01*
G75*
G02*
X127700000Y-110077000I0J-250000D01*
G01*
X127700000Y-110602000D01*
G75*
G02*
X127450000Y-110852000I-250000J0D01*
G01*
G37*
G36*
G01*
X92761750Y-77442000D02*
X93674250Y-77442000D01*
G75*
G02*
X93918000Y-77685750I0J-243750D01*
G01*
X93918000Y-78173250D01*
G75*
G02*
X93674250Y-78417000I-243750J0D01*
G01*
X92761750Y-78417000D01*
G75*
G02*
X92518000Y-78173250I0J243750D01*
G01*
X92518000Y-77685750D01*
G75*
G02*
X92761750Y-77442000I243750J0D01*
G01*
G37*
G36*
G01*
X92761750Y-79317000D02*
X93674250Y-79317000D01*
G75*
G02*
X93918000Y-79560750I0J-243750D01*
G01*
X93918000Y-80048250D01*
G75*
G02*
X93674250Y-80292000I-243750J0D01*
G01*
X92761750Y-80292000D01*
G75*
G02*
X92518000Y-80048250I0J243750D01*
G01*
X92518000Y-79560750D01*
G75*
G02*
X92761750Y-79317000I243750J0D01*
G01*
G37*
G36*
G01*
X101689000Y-63524000D02*
X101389000Y-63524000D01*
G75*
G02*
X101239000Y-63374000I0J150000D01*
G01*
X101239000Y-62199000D01*
G75*
G02*
X101389000Y-62049000I150000J0D01*
G01*
X101689000Y-62049000D01*
G75*
G02*
X101839000Y-62199000I0J-150000D01*
G01*
X101839000Y-63374000D01*
G75*
G02*
X101689000Y-63524000I-150000J0D01*
G01*
G37*
G36*
G01*
X103589000Y-63524000D02*
X103289000Y-63524000D01*
G75*
G02*
X103139000Y-63374000I0J150000D01*
G01*
X103139000Y-62199000D01*
G75*
G02*
X103289000Y-62049000I150000J0D01*
G01*
X103589000Y-62049000D01*
G75*
G02*
X103739000Y-62199000I0J-150000D01*
G01*
X103739000Y-63374000D01*
G75*
G02*
X103589000Y-63524000I-150000J0D01*
G01*
G37*
G36*
G01*
X102639000Y-61649000D02*
X102339000Y-61649000D01*
G75*
G02*
X102189000Y-61499000I0J150000D01*
G01*
X102189000Y-60324000D01*
G75*
G02*
X102339000Y-60174000I150000J0D01*
G01*
X102639000Y-60174000D01*
G75*
G02*
X102789000Y-60324000I0J-150000D01*
G01*
X102789000Y-61499000D01*
G75*
G02*
X102639000Y-61649000I-150000J0D01*
G01*
G37*
M02*
