G04 #@! TF.GenerationSoftware,KiCad,Pcbnew,9.0.9-9.0.9~ubuntu24.04.1*
G04 #@! TF.CreationDate,2026-05-29T11:46:23-06:00*
G04 #@! TF.ProjectId,i2c-headunit,6932632d-6865-4616-9475-6e69742e6b69,rev?*
G04 #@! TF.SameCoordinates,Original*
G04 #@! TF.FileFunction,Copper,L1,Top*
G04 #@! TF.FilePolarity,Positive*
%FSLAX46Y46*%
G04 Gerber Fmt 4.6, Leading zero omitted, Abs format (unit mm)*
G04 Created by KiCad (PCBNEW 9.0.9-9.0.9~ubuntu24.04.1) date 2026-05-29 11:46:23*
%MOMM*%
%LPD*%
G01*
G04 APERTURE LIST*
G04 #@! TA.AperFunction,ConnectorPad*
%ADD10C,0.787400*%
G04 #@! TD*
G04 #@! TA.AperFunction,SMDPad,CuDef*
%ADD11R,1.200000X1.200000*%
G04 #@! TD*
G04 #@! TA.AperFunction,SMDPad,CuDef*
%ADD12R,1.600000X1.500000*%
G04 #@! TD*
G04 #@! TA.AperFunction,ComponentPad*
%ADD13C,6.400000*%
G04 #@! TD*
G04 #@! TA.AperFunction,ComponentPad*
%ADD14C,2.100000*%
G04 #@! TD*
G04 #@! TA.AperFunction,ComponentPad*
%ADD15R,1.498600X1.498600*%
G04 #@! TD*
G04 #@! TA.AperFunction,ComponentPad*
%ADD16C,1.498600*%
G04 #@! TD*
G04 #@! TA.AperFunction,ComponentPad*
%ADD17R,1.700000X1.700000*%
G04 #@! TD*
G04 #@! TA.AperFunction,ComponentPad*
%ADD18C,1.700000*%
G04 #@! TD*
G04 #@! TA.AperFunction,ViaPad*
%ADD19C,0.609600*%
G04 #@! TD*
G04 #@! TA.AperFunction,Conductor*
%ADD20C,0.254000*%
G04 #@! TD*
G04 #@! TA.AperFunction,Conductor*
%ADD21C,0.508000*%
G04 #@! TD*
G04 #@! TA.AperFunction,Conductor*
%ADD22C,0.635000*%
G04 #@! TD*
G04 APERTURE END LIST*
G04 #@! TA.AperFunction,SMDPad,CuDef*
G36*
G01*
X105824000Y-73988000D02*
X106774000Y-73988000D01*
G75*
G02*
X107024000Y-74238000I0J-250000D01*
G01*
X107024000Y-74738000D01*
G75*
G02*
X106774000Y-74988000I-250000J0D01*
G01*
X105824000Y-74988000D01*
G75*
G02*
X105574000Y-74738000I0J250000D01*
G01*
X105574000Y-74238000D01*
G75*
G02*
X105824000Y-73988000I250000J0D01*
G01*
G37*
G04 #@! TD.AperFunction*
G04 #@! TA.AperFunction,SMDPad,CuDef*
G36*
G01*
X105824000Y-75888000D02*
X106774000Y-75888000D01*
G75*
G02*
X107024000Y-76138000I0J-250000D01*
G01*
X107024000Y-76638000D01*
G75*
G02*
X106774000Y-76888000I-250000J0D01*
G01*
X105824000Y-76888000D01*
G75*
G02*
X105574000Y-76638000I0J250000D01*
G01*
X105574000Y-76138000D01*
G75*
G02*
X105824000Y-75888000I250000J0D01*
G01*
G37*
G04 #@! TD.AperFunction*
G04 #@! TA.AperFunction,SMDPad,CuDef*
G36*
G01*
X137869000Y-59784000D02*
X137869000Y-58834000D01*
G75*
G02*
X138119000Y-58584000I250000J0D01*
G01*
X138619000Y-58584000D01*
G75*
G02*
X138869000Y-58834000I0J-250000D01*
G01*
X138869000Y-59784000D01*
G75*
G02*
X138619000Y-60034000I-250000J0D01*
G01*
X138119000Y-60034000D01*
G75*
G02*
X137869000Y-59784000I0J250000D01*
G01*
G37*
G04 #@! TD.AperFunction*
G04 #@! TA.AperFunction,SMDPad,CuDef*
G36*
G01*
X139769000Y-59784000D02*
X139769000Y-58834000D01*
G75*
G02*
X140019000Y-58584000I250000J0D01*
G01*
X140519000Y-58584000D01*
G75*
G02*
X140769000Y-58834000I0J-250000D01*
G01*
X140769000Y-59784000D01*
G75*
G02*
X140519000Y-60034000I-250000J0D01*
G01*
X140019000Y-60034000D01*
G75*
G02*
X139769000Y-59784000I0J250000D01*
G01*
G37*
G04 #@! TD.AperFunction*
G04 #@! TA.AperFunction,SMDPad,CuDef*
G36*
G01*
X79497000Y-84624000D02*
X79497000Y-83524000D01*
G75*
G02*
X79747000Y-83274000I250000J0D01*
G01*
X82747000Y-83274000D01*
G75*
G02*
X82997000Y-83524000I0J-250000D01*
G01*
X82997000Y-84624000D01*
G75*
G02*
X82747000Y-84874000I-250000J0D01*
G01*
X79747000Y-84874000D01*
G75*
G02*
X79497000Y-84624000I0J250000D01*
G01*
G37*
G04 #@! TD.AperFunction*
G04 #@! TA.AperFunction,SMDPad,CuDef*
G36*
G01*
X84897000Y-84624000D02*
X84897000Y-83524000D01*
G75*
G02*
X85147000Y-83274000I250000J0D01*
G01*
X88147000Y-83274000D01*
G75*
G02*
X88397000Y-83524000I0J-250000D01*
G01*
X88397000Y-84624000D01*
G75*
G02*
X88147000Y-84874000I-250000J0D01*
G01*
X85147000Y-84874000D01*
G75*
G02*
X84897000Y-84624000I0J250000D01*
G01*
G37*
G04 #@! TD.AperFunction*
G04 #@! TA.AperFunction,SMDPad,CuDef*
G36*
G01*
X93668000Y-112677000D02*
X92768000Y-112677000D01*
G75*
G02*
X92518000Y-112427000I0J250000D01*
G01*
X92518000Y-111902000D01*
G75*
G02*
X92768000Y-111652000I250000J0D01*
G01*
X93668000Y-111652000D01*
G75*
G02*
X93918000Y-111902000I0J-250000D01*
G01*
X93918000Y-112427000D01*
G75*
G02*
X93668000Y-112677000I-250000J0D01*
G01*
G37*
G04 #@! TD.AperFunction*
G04 #@! TA.AperFunction,SMDPad,CuDef*
G36*
G01*
X93668000Y-110852000D02*
X92768000Y-110852000D01*
G75*
G02*
X92518000Y-110602000I0J250000D01*
G01*
X92518000Y-110077000D01*
G75*
G02*
X92768000Y-109827000I250000J0D01*
G01*
X93668000Y-109827000D01*
G75*
G02*
X93918000Y-110077000I0J-250000D01*
G01*
X93918000Y-110602000D01*
G75*
G02*
X93668000Y-110852000I-250000J0D01*
G01*
G37*
G04 #@! TD.AperFunction*
G04 #@! TA.AperFunction,SMDPad,CuDef*
G36*
G01*
X126926000Y-82456000D02*
X126926000Y-83406000D01*
G75*
G02*
X126676000Y-83656000I-250000J0D01*
G01*
X126176000Y-83656000D01*
G75*
G02*
X125926000Y-83406000I0J250000D01*
G01*
X125926000Y-82456000D01*
G75*
G02*
X126176000Y-82206000I250000J0D01*
G01*
X126676000Y-82206000D01*
G75*
G02*
X126926000Y-82456000I0J-250000D01*
G01*
G37*
G04 #@! TD.AperFunction*
G04 #@! TA.AperFunction,SMDPad,CuDef*
G36*
G01*
X125026000Y-82456000D02*
X125026000Y-83406000D01*
G75*
G02*
X124776000Y-83656000I-250000J0D01*
G01*
X124276000Y-83656000D01*
G75*
G02*
X124026000Y-83406000I0J250000D01*
G01*
X124026000Y-82456000D01*
G75*
G02*
X124276000Y-82206000I250000J0D01*
G01*
X124776000Y-82206000D01*
G75*
G02*
X125026000Y-82456000I0J-250000D01*
G01*
G37*
G04 #@! TD.AperFunction*
D10*
X126111000Y-90170000D03*
X124841000Y-90170000D03*
X126111000Y-88900000D03*
X124841000Y-88900000D03*
X126111000Y-87630000D03*
X124841000Y-87630000D03*
G04 #@! TA.AperFunction,SMDPad,CuDef*
G36*
X126861000Y-72286000D02*
G01*
X126861000Y-72786000D01*
X126856722Y-72786000D01*
X126856722Y-72851263D01*
X126822940Y-72977342D01*
X126757677Y-73090381D01*
X126665381Y-73182677D01*
X126552342Y-73247940D01*
X126426263Y-73281722D01*
X126361000Y-73281722D01*
X126361000Y-73286000D01*
X125861000Y-73286000D01*
X125861000Y-73281722D01*
X125795737Y-73281722D01*
X125669658Y-73247940D01*
X125556619Y-73182677D01*
X125464323Y-73090381D01*
X125399060Y-72977342D01*
X125365278Y-72851263D01*
X125365278Y-72786000D01*
X125361000Y-72786000D01*
X125361000Y-72286000D01*
X126861000Y-72286000D01*
G37*
G04 #@! TD.AperFunction*
G04 #@! TA.AperFunction,SMDPad,CuDef*
G36*
X125365278Y-71486000D02*
G01*
X125365278Y-71420737D01*
X125399060Y-71294658D01*
X125464323Y-71181619D01*
X125556619Y-71089323D01*
X125669658Y-71024060D01*
X125795737Y-70990278D01*
X125861000Y-70990278D01*
X125861000Y-70986000D01*
X126361000Y-70986000D01*
X126361000Y-70990278D01*
X126426263Y-70990278D01*
X126552342Y-71024060D01*
X126665381Y-71089323D01*
X126757677Y-71181619D01*
X126822940Y-71294658D01*
X126856722Y-71420737D01*
X126856722Y-71486000D01*
X126861000Y-71486000D01*
X126861000Y-71986000D01*
X125361000Y-71986000D01*
X125361000Y-71486000D01*
X125365278Y-71486000D01*
G37*
G04 #@! TD.AperFunction*
G04 #@! TA.AperFunction,SMDPad,CuDef*
G36*
G01*
X110584000Y-108257000D02*
X109634000Y-108257000D01*
G75*
G02*
X109384000Y-108007000I0J250000D01*
G01*
X109384000Y-107507000D01*
G75*
G02*
X109634000Y-107257000I250000J0D01*
G01*
X110584000Y-107257000D01*
G75*
G02*
X110834000Y-107507000I0J-250000D01*
G01*
X110834000Y-108007000D01*
G75*
G02*
X110584000Y-108257000I-250000J0D01*
G01*
G37*
G04 #@! TD.AperFunction*
G04 #@! TA.AperFunction,SMDPad,CuDef*
G36*
G01*
X110584000Y-106357000D02*
X109634000Y-106357000D01*
G75*
G02*
X109384000Y-106107000I0J250000D01*
G01*
X109384000Y-105607000D01*
G75*
G02*
X109634000Y-105357000I250000J0D01*
G01*
X110584000Y-105357000D01*
G75*
G02*
X110834000Y-105607000I0J-250000D01*
G01*
X110834000Y-106107000D01*
G75*
G02*
X110584000Y-106357000I-250000J0D01*
G01*
G37*
G04 #@! TD.AperFunction*
G04 #@! TA.AperFunction,SMDPad,CuDef*
G36*
G01*
X127475000Y-108257000D02*
X126525000Y-108257000D01*
G75*
G02*
X126275000Y-108007000I0J250000D01*
G01*
X126275000Y-107507000D01*
G75*
G02*
X126525000Y-107257000I250000J0D01*
G01*
X127475000Y-107257000D01*
G75*
G02*
X127725000Y-107507000I0J-250000D01*
G01*
X127725000Y-108007000D01*
G75*
G02*
X127475000Y-108257000I-250000J0D01*
G01*
G37*
G04 #@! TD.AperFunction*
G04 #@! TA.AperFunction,SMDPad,CuDef*
G36*
G01*
X127475000Y-106357000D02*
X126525000Y-106357000D01*
G75*
G02*
X126275000Y-106107000I0J250000D01*
G01*
X126275000Y-105607000D01*
G75*
G02*
X126525000Y-105357000I250000J0D01*
G01*
X127475000Y-105357000D01*
G75*
G02*
X127725000Y-105607000I0J-250000D01*
G01*
X127725000Y-106107000D01*
G75*
G02*
X127475000Y-106357000I-250000J0D01*
G01*
G37*
G04 #@! TD.AperFunction*
D11*
X137509000Y-63373000D03*
D12*
X136509000Y-66623000D03*
D11*
X135509000Y-63373000D03*
G04 #@! TA.AperFunction,SMDPad,CuDef*
G36*
G01*
X109400000Y-73283500D02*
X109400000Y-73008500D01*
G75*
G02*
X109537500Y-72871000I137500J0D01*
G01*
X110737500Y-72871000D01*
G75*
G02*
X110875000Y-73008500I0J-137500D01*
G01*
X110875000Y-73283500D01*
G75*
G02*
X110737500Y-73421000I-137500J0D01*
G01*
X109537500Y-73421000D01*
G75*
G02*
X109400000Y-73283500I0J137500D01*
G01*
G37*
G04 #@! TD.AperFunction*
G04 #@! TA.AperFunction,SMDPad,CuDef*
G36*
G01*
X109400000Y-74083500D02*
X109400000Y-73808500D01*
G75*
G02*
X109537500Y-73671000I137500J0D01*
G01*
X110737500Y-73671000D01*
G75*
G02*
X110875000Y-73808500I0J-137500D01*
G01*
X110875000Y-74083500D01*
G75*
G02*
X110737500Y-74221000I-137500J0D01*
G01*
X109537500Y-74221000D01*
G75*
G02*
X109400000Y-74083500I0J137500D01*
G01*
G37*
G04 #@! TD.AperFunction*
G04 #@! TA.AperFunction,SMDPad,CuDef*
G36*
G01*
X109400000Y-74883500D02*
X109400000Y-74608500D01*
G75*
G02*
X109537500Y-74471000I137500J0D01*
G01*
X110737500Y-74471000D01*
G75*
G02*
X110875000Y-74608500I0J-137500D01*
G01*
X110875000Y-74883500D01*
G75*
G02*
X110737500Y-75021000I-137500J0D01*
G01*
X109537500Y-75021000D01*
G75*
G02*
X109400000Y-74883500I0J137500D01*
G01*
G37*
G04 #@! TD.AperFunction*
G04 #@! TA.AperFunction,SMDPad,CuDef*
G36*
G01*
X109400000Y-75683500D02*
X109400000Y-75408500D01*
G75*
G02*
X109537500Y-75271000I137500J0D01*
G01*
X110737500Y-75271000D01*
G75*
G02*
X110875000Y-75408500I0J-137500D01*
G01*
X110875000Y-75683500D01*
G75*
G02*
X110737500Y-75821000I-137500J0D01*
G01*
X109537500Y-75821000D01*
G75*
G02*
X109400000Y-75683500I0J137500D01*
G01*
G37*
G04 #@! TD.AperFunction*
G04 #@! TA.AperFunction,SMDPad,CuDef*
G36*
G01*
X109400000Y-76483500D02*
X109400000Y-76208500D01*
G75*
G02*
X109537500Y-76071000I137500J0D01*
G01*
X110737500Y-76071000D01*
G75*
G02*
X110875000Y-76208500I0J-137500D01*
G01*
X110875000Y-76483500D01*
G75*
G02*
X110737500Y-76621000I-137500J0D01*
G01*
X109537500Y-76621000D01*
G75*
G02*
X109400000Y-76483500I0J137500D01*
G01*
G37*
G04 #@! TD.AperFunction*
G04 #@! TA.AperFunction,SMDPad,CuDef*
G36*
G01*
X109400000Y-77283500D02*
X109400000Y-77008500D01*
G75*
G02*
X109537500Y-76871000I137500J0D01*
G01*
X110737500Y-76871000D01*
G75*
G02*
X110875000Y-77008500I0J-137500D01*
G01*
X110875000Y-77283500D01*
G75*
G02*
X110737500Y-77421000I-137500J0D01*
G01*
X109537500Y-77421000D01*
G75*
G02*
X109400000Y-77283500I0J137500D01*
G01*
G37*
G04 #@! TD.AperFunction*
G04 #@! TA.AperFunction,SMDPad,CuDef*
G36*
G01*
X109400000Y-78083500D02*
X109400000Y-77808500D01*
G75*
G02*
X109537500Y-77671000I137500J0D01*
G01*
X110737500Y-77671000D01*
G75*
G02*
X110875000Y-77808500I0J-137500D01*
G01*
X110875000Y-78083500D01*
G75*
G02*
X110737500Y-78221000I-137500J0D01*
G01*
X109537500Y-78221000D01*
G75*
G02*
X109400000Y-78083500I0J137500D01*
G01*
G37*
G04 #@! TD.AperFunction*
G04 #@! TA.AperFunction,SMDPad,CuDef*
G36*
G01*
X109400000Y-78883500D02*
X109400000Y-78608500D01*
G75*
G02*
X109537500Y-78471000I137500J0D01*
G01*
X110737500Y-78471000D01*
G75*
G02*
X110875000Y-78608500I0J-137500D01*
G01*
X110875000Y-78883500D01*
G75*
G02*
X110737500Y-79021000I-137500J0D01*
G01*
X109537500Y-79021000D01*
G75*
G02*
X109400000Y-78883500I0J137500D01*
G01*
G37*
G04 #@! TD.AperFunction*
G04 #@! TA.AperFunction,SMDPad,CuDef*
G36*
G01*
X111225000Y-80708500D02*
X111225000Y-79508500D01*
G75*
G02*
X111362500Y-79371000I137500J0D01*
G01*
X111637500Y-79371000D01*
G75*
G02*
X111775000Y-79508500I0J-137500D01*
G01*
X111775000Y-80708500D01*
G75*
G02*
X111637500Y-80846000I-137500J0D01*
G01*
X111362500Y-80846000D01*
G75*
G02*
X111225000Y-80708500I0J137500D01*
G01*
G37*
G04 #@! TD.AperFunction*
G04 #@! TA.AperFunction,SMDPad,CuDef*
G36*
G01*
X112025000Y-80708500D02*
X112025000Y-79508500D01*
G75*
G02*
X112162500Y-79371000I137500J0D01*
G01*
X112437500Y-79371000D01*
G75*
G02*
X112575000Y-79508500I0J-137500D01*
G01*
X112575000Y-80708500D01*
G75*
G02*
X112437500Y-80846000I-137500J0D01*
G01*
X112162500Y-80846000D01*
G75*
G02*
X112025000Y-80708500I0J137500D01*
G01*
G37*
G04 #@! TD.AperFunction*
G04 #@! TA.AperFunction,SMDPad,CuDef*
G36*
G01*
X112825000Y-80708500D02*
X112825000Y-79508500D01*
G75*
G02*
X112962500Y-79371000I137500J0D01*
G01*
X113237500Y-79371000D01*
G75*
G02*
X113375000Y-79508500I0J-137500D01*
G01*
X113375000Y-80708500D01*
G75*
G02*
X113237500Y-80846000I-137500J0D01*
G01*
X112962500Y-80846000D01*
G75*
G02*
X112825000Y-80708500I0J137500D01*
G01*
G37*
G04 #@! TD.AperFunction*
G04 #@! TA.AperFunction,SMDPad,CuDef*
G36*
G01*
X113625000Y-80708500D02*
X113625000Y-79508500D01*
G75*
G02*
X113762500Y-79371000I137500J0D01*
G01*
X114037500Y-79371000D01*
G75*
G02*
X114175000Y-79508500I0J-137500D01*
G01*
X114175000Y-80708500D01*
G75*
G02*
X114037500Y-80846000I-137500J0D01*
G01*
X113762500Y-80846000D01*
G75*
G02*
X113625000Y-80708500I0J137500D01*
G01*
G37*
G04 #@! TD.AperFunction*
G04 #@! TA.AperFunction,SMDPad,CuDef*
G36*
G01*
X114425000Y-80708500D02*
X114425000Y-79508500D01*
G75*
G02*
X114562500Y-79371000I137500J0D01*
G01*
X114837500Y-79371000D01*
G75*
G02*
X114975000Y-79508500I0J-137500D01*
G01*
X114975000Y-80708500D01*
G75*
G02*
X114837500Y-80846000I-137500J0D01*
G01*
X114562500Y-80846000D01*
G75*
G02*
X114425000Y-80708500I0J137500D01*
G01*
G37*
G04 #@! TD.AperFunction*
G04 #@! TA.AperFunction,SMDPad,CuDef*
G36*
G01*
X115225000Y-80708500D02*
X115225000Y-79508500D01*
G75*
G02*
X115362500Y-79371000I137500J0D01*
G01*
X115637500Y-79371000D01*
G75*
G02*
X115775000Y-79508500I0J-137500D01*
G01*
X115775000Y-80708500D01*
G75*
G02*
X115637500Y-80846000I-137500J0D01*
G01*
X115362500Y-80846000D01*
G75*
G02*
X115225000Y-80708500I0J137500D01*
G01*
G37*
G04 #@! TD.AperFunction*
G04 #@! TA.AperFunction,SMDPad,CuDef*
G36*
G01*
X116025000Y-80708500D02*
X116025000Y-79508500D01*
G75*
G02*
X116162500Y-79371000I137500J0D01*
G01*
X116437500Y-79371000D01*
G75*
G02*
X116575000Y-79508500I0J-137500D01*
G01*
X116575000Y-80708500D01*
G75*
G02*
X116437500Y-80846000I-137500J0D01*
G01*
X116162500Y-80846000D01*
G75*
G02*
X116025000Y-80708500I0J137500D01*
G01*
G37*
G04 #@! TD.AperFunction*
G04 #@! TA.AperFunction,SMDPad,CuDef*
G36*
G01*
X116825000Y-80708500D02*
X116825000Y-79508500D01*
G75*
G02*
X116962500Y-79371000I137500J0D01*
G01*
X117237500Y-79371000D01*
G75*
G02*
X117375000Y-79508500I0J-137500D01*
G01*
X117375000Y-80708500D01*
G75*
G02*
X117237500Y-80846000I-137500J0D01*
G01*
X116962500Y-80846000D01*
G75*
G02*
X116825000Y-80708500I0J137500D01*
G01*
G37*
G04 #@! TD.AperFunction*
G04 #@! TA.AperFunction,SMDPad,CuDef*
G36*
G01*
X117725000Y-78883500D02*
X117725000Y-78608500D01*
G75*
G02*
X117862500Y-78471000I137500J0D01*
G01*
X119062500Y-78471000D01*
G75*
G02*
X119200000Y-78608500I0J-137500D01*
G01*
X119200000Y-78883500D01*
G75*
G02*
X119062500Y-79021000I-137500J0D01*
G01*
X117862500Y-79021000D01*
G75*
G02*
X117725000Y-78883500I0J137500D01*
G01*
G37*
G04 #@! TD.AperFunction*
G04 #@! TA.AperFunction,SMDPad,CuDef*
G36*
G01*
X117725000Y-78083500D02*
X117725000Y-77808500D01*
G75*
G02*
X117862500Y-77671000I137500J0D01*
G01*
X119062500Y-77671000D01*
G75*
G02*
X119200000Y-77808500I0J-137500D01*
G01*
X119200000Y-78083500D01*
G75*
G02*
X119062500Y-78221000I-137500J0D01*
G01*
X117862500Y-78221000D01*
G75*
G02*
X117725000Y-78083500I0J137500D01*
G01*
G37*
G04 #@! TD.AperFunction*
G04 #@! TA.AperFunction,SMDPad,CuDef*
G36*
G01*
X117725000Y-77283500D02*
X117725000Y-77008500D01*
G75*
G02*
X117862500Y-76871000I137500J0D01*
G01*
X119062500Y-76871000D01*
G75*
G02*
X119200000Y-77008500I0J-137500D01*
G01*
X119200000Y-77283500D01*
G75*
G02*
X119062500Y-77421000I-137500J0D01*
G01*
X117862500Y-77421000D01*
G75*
G02*
X117725000Y-77283500I0J137500D01*
G01*
G37*
G04 #@! TD.AperFunction*
G04 #@! TA.AperFunction,SMDPad,CuDef*
G36*
G01*
X117725000Y-76483500D02*
X117725000Y-76208500D01*
G75*
G02*
X117862500Y-76071000I137500J0D01*
G01*
X119062500Y-76071000D01*
G75*
G02*
X119200000Y-76208500I0J-137500D01*
G01*
X119200000Y-76483500D01*
G75*
G02*
X119062500Y-76621000I-137500J0D01*
G01*
X117862500Y-76621000D01*
G75*
G02*
X117725000Y-76483500I0J137500D01*
G01*
G37*
G04 #@! TD.AperFunction*
G04 #@! TA.AperFunction,SMDPad,CuDef*
G36*
G01*
X117725000Y-75683500D02*
X117725000Y-75408500D01*
G75*
G02*
X117862500Y-75271000I137500J0D01*
G01*
X119062500Y-75271000D01*
G75*
G02*
X119200000Y-75408500I0J-137500D01*
G01*
X119200000Y-75683500D01*
G75*
G02*
X119062500Y-75821000I-137500J0D01*
G01*
X117862500Y-75821000D01*
G75*
G02*
X117725000Y-75683500I0J137500D01*
G01*
G37*
G04 #@! TD.AperFunction*
G04 #@! TA.AperFunction,SMDPad,CuDef*
G36*
G01*
X117725000Y-74883500D02*
X117725000Y-74608500D01*
G75*
G02*
X117862500Y-74471000I137500J0D01*
G01*
X119062500Y-74471000D01*
G75*
G02*
X119200000Y-74608500I0J-137500D01*
G01*
X119200000Y-74883500D01*
G75*
G02*
X119062500Y-75021000I-137500J0D01*
G01*
X117862500Y-75021000D01*
G75*
G02*
X117725000Y-74883500I0J137500D01*
G01*
G37*
G04 #@! TD.AperFunction*
G04 #@! TA.AperFunction,SMDPad,CuDef*
G36*
G01*
X117725000Y-74083500D02*
X117725000Y-73808500D01*
G75*
G02*
X117862500Y-73671000I137500J0D01*
G01*
X119062500Y-73671000D01*
G75*
G02*
X119200000Y-73808500I0J-137500D01*
G01*
X119200000Y-74083500D01*
G75*
G02*
X119062500Y-74221000I-137500J0D01*
G01*
X117862500Y-74221000D01*
G75*
G02*
X117725000Y-74083500I0J137500D01*
G01*
G37*
G04 #@! TD.AperFunction*
G04 #@! TA.AperFunction,SMDPad,CuDef*
G36*
G01*
X117725000Y-73283500D02*
X117725000Y-73008500D01*
G75*
G02*
X117862500Y-72871000I137500J0D01*
G01*
X119062500Y-72871000D01*
G75*
G02*
X119200000Y-73008500I0J-137500D01*
G01*
X119200000Y-73283500D01*
G75*
G02*
X119062500Y-73421000I-137500J0D01*
G01*
X117862500Y-73421000D01*
G75*
G02*
X117725000Y-73283500I0J137500D01*
G01*
G37*
G04 #@! TD.AperFunction*
G04 #@! TA.AperFunction,SMDPad,CuDef*
G36*
G01*
X116825000Y-72383500D02*
X116825000Y-71183500D01*
G75*
G02*
X116962500Y-71046000I137500J0D01*
G01*
X117237500Y-71046000D01*
G75*
G02*
X117375000Y-71183500I0J-137500D01*
G01*
X117375000Y-72383500D01*
G75*
G02*
X117237500Y-72521000I-137500J0D01*
G01*
X116962500Y-72521000D01*
G75*
G02*
X116825000Y-72383500I0J137500D01*
G01*
G37*
G04 #@! TD.AperFunction*
G04 #@! TA.AperFunction,SMDPad,CuDef*
G36*
G01*
X116025000Y-72383500D02*
X116025000Y-71183500D01*
G75*
G02*
X116162500Y-71046000I137500J0D01*
G01*
X116437500Y-71046000D01*
G75*
G02*
X116575000Y-71183500I0J-137500D01*
G01*
X116575000Y-72383500D01*
G75*
G02*
X116437500Y-72521000I-137500J0D01*
G01*
X116162500Y-72521000D01*
G75*
G02*
X116025000Y-72383500I0J137500D01*
G01*
G37*
G04 #@! TD.AperFunction*
G04 #@! TA.AperFunction,SMDPad,CuDef*
G36*
G01*
X115225000Y-72383500D02*
X115225000Y-71183500D01*
G75*
G02*
X115362500Y-71046000I137500J0D01*
G01*
X115637500Y-71046000D01*
G75*
G02*
X115775000Y-71183500I0J-137500D01*
G01*
X115775000Y-72383500D01*
G75*
G02*
X115637500Y-72521000I-137500J0D01*
G01*
X115362500Y-72521000D01*
G75*
G02*
X115225000Y-72383500I0J137500D01*
G01*
G37*
G04 #@! TD.AperFunction*
G04 #@! TA.AperFunction,SMDPad,CuDef*
G36*
G01*
X114425000Y-72383500D02*
X114425000Y-71183500D01*
G75*
G02*
X114562500Y-71046000I137500J0D01*
G01*
X114837500Y-71046000D01*
G75*
G02*
X114975000Y-71183500I0J-137500D01*
G01*
X114975000Y-72383500D01*
G75*
G02*
X114837500Y-72521000I-137500J0D01*
G01*
X114562500Y-72521000D01*
G75*
G02*
X114425000Y-72383500I0J137500D01*
G01*
G37*
G04 #@! TD.AperFunction*
G04 #@! TA.AperFunction,SMDPad,CuDef*
G36*
G01*
X113625000Y-72383500D02*
X113625000Y-71183500D01*
G75*
G02*
X113762500Y-71046000I137500J0D01*
G01*
X114037500Y-71046000D01*
G75*
G02*
X114175000Y-71183500I0J-137500D01*
G01*
X114175000Y-72383500D01*
G75*
G02*
X114037500Y-72521000I-137500J0D01*
G01*
X113762500Y-72521000D01*
G75*
G02*
X113625000Y-72383500I0J137500D01*
G01*
G37*
G04 #@! TD.AperFunction*
G04 #@! TA.AperFunction,SMDPad,CuDef*
G36*
G01*
X112825000Y-72383500D02*
X112825000Y-71183500D01*
G75*
G02*
X112962500Y-71046000I137500J0D01*
G01*
X113237500Y-71046000D01*
G75*
G02*
X113375000Y-71183500I0J-137500D01*
G01*
X113375000Y-72383500D01*
G75*
G02*
X113237500Y-72521000I-137500J0D01*
G01*
X112962500Y-72521000D01*
G75*
G02*
X112825000Y-72383500I0J137500D01*
G01*
G37*
G04 #@! TD.AperFunction*
G04 #@! TA.AperFunction,SMDPad,CuDef*
G36*
G01*
X112025000Y-72383500D02*
X112025000Y-71183500D01*
G75*
G02*
X112162500Y-71046000I137500J0D01*
G01*
X112437500Y-71046000D01*
G75*
G02*
X112575000Y-71183500I0J-137500D01*
G01*
X112575000Y-72383500D01*
G75*
G02*
X112437500Y-72521000I-137500J0D01*
G01*
X112162500Y-72521000D01*
G75*
G02*
X112025000Y-72383500I0J137500D01*
G01*
G37*
G04 #@! TD.AperFunction*
G04 #@! TA.AperFunction,SMDPad,CuDef*
G36*
G01*
X111225000Y-72383500D02*
X111225000Y-71183500D01*
G75*
G02*
X111362500Y-71046000I137500J0D01*
G01*
X111637500Y-71046000D01*
G75*
G02*
X111775000Y-71183500I0J-137500D01*
G01*
X111775000Y-72383500D01*
G75*
G02*
X111637500Y-72521000I-137500J0D01*
G01*
X111362500Y-72521000D01*
G75*
G02*
X111225000Y-72383500I0J137500D01*
G01*
G37*
G04 #@! TD.AperFunction*
G04 #@! TA.AperFunction,SMDPad,CuDef*
G36*
G01*
X76675000Y-108257000D02*
X75725000Y-108257000D01*
G75*
G02*
X75475000Y-108007000I0J250000D01*
G01*
X75475000Y-107507000D01*
G75*
G02*
X75725000Y-107257000I250000J0D01*
G01*
X76675000Y-107257000D01*
G75*
G02*
X76925000Y-107507000I0J-250000D01*
G01*
X76925000Y-108007000D01*
G75*
G02*
X76675000Y-108257000I-250000J0D01*
G01*
G37*
G04 #@! TD.AperFunction*
G04 #@! TA.AperFunction,SMDPad,CuDef*
G36*
G01*
X76675000Y-106357000D02*
X75725000Y-106357000D01*
G75*
G02*
X75475000Y-106107000I0J250000D01*
G01*
X75475000Y-105607000D01*
G75*
G02*
X75725000Y-105357000I250000J0D01*
G01*
X76675000Y-105357000D01*
G75*
G02*
X76925000Y-105607000I0J-250000D01*
G01*
X76925000Y-106107000D01*
G75*
G02*
X76675000Y-106357000I-250000J0D01*
G01*
G37*
G04 #@! TD.AperFunction*
G04 #@! TA.AperFunction,SMDPad,CuDef*
G36*
G01*
X84529000Y-78326000D02*
X84529000Y-77376000D01*
G75*
G02*
X84779000Y-77126000I250000J0D01*
G01*
X85279000Y-77126000D01*
G75*
G02*
X85529000Y-77376000I0J-250000D01*
G01*
X85529000Y-78326000D01*
G75*
G02*
X85279000Y-78576000I-250000J0D01*
G01*
X84779000Y-78576000D01*
G75*
G02*
X84529000Y-78326000I0J250000D01*
G01*
G37*
G04 #@! TD.AperFunction*
G04 #@! TA.AperFunction,SMDPad,CuDef*
G36*
G01*
X86429000Y-78326000D02*
X86429000Y-77376000D01*
G75*
G02*
X86679000Y-77126000I250000J0D01*
G01*
X87179000Y-77126000D01*
G75*
G02*
X87429000Y-77376000I0J-250000D01*
G01*
X87429000Y-78326000D01*
G75*
G02*
X87179000Y-78576000I-250000J0D01*
G01*
X86679000Y-78576000D01*
G75*
G02*
X86429000Y-78326000I0J250000D01*
G01*
G37*
G04 #@! TD.AperFunction*
G04 #@! TA.AperFunction,SMDPad,CuDef*
G36*
G01*
X86890000Y-72495000D02*
X86890000Y-73745000D01*
G75*
G02*
X86740000Y-73895000I-150000J0D01*
G01*
X86440000Y-73895000D01*
G75*
G02*
X86290000Y-73745000I0J150000D01*
G01*
X86290000Y-72495000D01*
G75*
G02*
X86440000Y-72345000I150000J0D01*
G01*
X86740000Y-72345000D01*
G75*
G02*
X86890000Y-72495000I0J-150000D01*
G01*
G37*
G04 #@! TD.AperFunction*
G04 #@! TA.AperFunction,SMDPad,CuDef*
G36*
G01*
X85890000Y-72495000D02*
X85890000Y-73745000D01*
G75*
G02*
X85740000Y-73895000I-150000J0D01*
G01*
X85440000Y-73895000D01*
G75*
G02*
X85290000Y-73745000I0J150000D01*
G01*
X85290000Y-72495000D01*
G75*
G02*
X85440000Y-72345000I150000J0D01*
G01*
X85740000Y-72345000D01*
G75*
G02*
X85890000Y-72495000I0J-150000D01*
G01*
G37*
G04 #@! TD.AperFunction*
G04 #@! TA.AperFunction,SMDPad,CuDef*
G36*
G01*
X84890000Y-72495000D02*
X84890000Y-73745000D01*
G75*
G02*
X84740000Y-73895000I-150000J0D01*
G01*
X84440000Y-73895000D01*
G75*
G02*
X84290000Y-73745000I0J150000D01*
G01*
X84290000Y-72495000D01*
G75*
G02*
X84440000Y-72345000I150000J0D01*
G01*
X84740000Y-72345000D01*
G75*
G02*
X84890000Y-72495000I0J-150000D01*
G01*
G37*
G04 #@! TD.AperFunction*
G04 #@! TA.AperFunction,SMDPad,CuDef*
G36*
G01*
X83890000Y-72495000D02*
X83890000Y-73745000D01*
G75*
G02*
X83740000Y-73895000I-150000J0D01*
G01*
X83440000Y-73895000D01*
G75*
G02*
X83290000Y-73745000I0J150000D01*
G01*
X83290000Y-72495000D01*
G75*
G02*
X83440000Y-72345000I150000J0D01*
G01*
X83740000Y-72345000D01*
G75*
G02*
X83890000Y-72495000I0J-150000D01*
G01*
G37*
G04 #@! TD.AperFunction*
G04 #@! TA.AperFunction,SMDPad,CuDef*
G36*
G01*
X88490000Y-68595000D02*
X88490000Y-69895000D01*
G75*
G02*
X88240000Y-70145000I-250000J0D01*
G01*
X87540000Y-70145000D01*
G75*
G02*
X87290000Y-69895000I0J250000D01*
G01*
X87290000Y-68595000D01*
G75*
G02*
X87540000Y-68345000I250000J0D01*
G01*
X88240000Y-68345000D01*
G75*
G02*
X88490000Y-68595000I0J-250000D01*
G01*
G37*
G04 #@! TD.AperFunction*
G04 #@! TA.AperFunction,SMDPad,CuDef*
G36*
G01*
X82890000Y-68595000D02*
X82890000Y-69895000D01*
G75*
G02*
X82640000Y-70145000I-250000J0D01*
G01*
X81940000Y-70145000D01*
G75*
G02*
X81690000Y-69895000I0J250000D01*
G01*
X81690000Y-68595000D01*
G75*
G02*
X81940000Y-68345000I250000J0D01*
G01*
X82640000Y-68345000D01*
G75*
G02*
X82890000Y-68595000I0J-250000D01*
G01*
G37*
G04 #@! TD.AperFunction*
D13*
X148082000Y-55118000D03*
G04 #@! TA.AperFunction,SMDPad,CuDef*
G36*
G01*
X76650000Y-112677000D02*
X75750000Y-112677000D01*
G75*
G02*
X75500000Y-112427000I0J250000D01*
G01*
X75500000Y-111902000D01*
G75*
G02*
X75750000Y-111652000I250000J0D01*
G01*
X76650000Y-111652000D01*
G75*
G02*
X76900000Y-111902000I0J-250000D01*
G01*
X76900000Y-112427000D01*
G75*
G02*
X76650000Y-112677000I-250000J0D01*
G01*
G37*
G04 #@! TD.AperFunction*
G04 #@! TA.AperFunction,SMDPad,CuDef*
G36*
G01*
X76650000Y-110852000D02*
X75750000Y-110852000D01*
G75*
G02*
X75500000Y-110602000I0J250000D01*
G01*
X75500000Y-110077000D01*
G75*
G02*
X75750000Y-109827000I250000J0D01*
G01*
X76650000Y-109827000D01*
G75*
G02*
X76900000Y-110077000I0J-250000D01*
G01*
X76900000Y-110602000D01*
G75*
G02*
X76650000Y-110852000I-250000J0D01*
G01*
G37*
G04 #@! TD.AperFunction*
X148082000Y-110109000D03*
G04 #@! TA.AperFunction,ComponentPad*
G36*
G01*
X91660000Y-95160999D02*
X91660000Y-93561001D01*
G75*
G02*
X91910001Y-93311000I250001J0D01*
G01*
X93509999Y-93311000D01*
G75*
G02*
X93760000Y-93561001I0J-250001D01*
G01*
X93760000Y-95160999D01*
G75*
G02*
X93509999Y-95411000I-250001J0D01*
G01*
X91910001Y-95411000D01*
G75*
G02*
X91660000Y-95160999I0J250001D01*
G01*
G37*
G04 #@! TD.AperFunction*
D14*
X95250000Y-94361000D03*
X97790000Y-94361000D03*
X100330000Y-94361000D03*
X102870000Y-94361000D03*
X105410000Y-94361000D03*
X107950000Y-94361000D03*
X110490000Y-94361000D03*
G04 #@! TA.AperFunction,SMDPad,CuDef*
G36*
G01*
X122776000Y-77904000D02*
X121826000Y-77904000D01*
G75*
G02*
X121576000Y-77654000I0J250000D01*
G01*
X121576000Y-77154000D01*
G75*
G02*
X121826000Y-76904000I250000J0D01*
G01*
X122776000Y-76904000D01*
G75*
G02*
X123026000Y-77154000I0J-250000D01*
G01*
X123026000Y-77654000D01*
G75*
G02*
X122776000Y-77904000I-250000J0D01*
G01*
G37*
G04 #@! TD.AperFunction*
G04 #@! TA.AperFunction,SMDPad,CuDef*
G36*
G01*
X122776000Y-76004000D02*
X121826000Y-76004000D01*
G75*
G02*
X121576000Y-75754000I0J250000D01*
G01*
X121576000Y-75254000D01*
G75*
G02*
X121826000Y-75004000I250000J0D01*
G01*
X122776000Y-75004000D01*
G75*
G02*
X123026000Y-75254000I0J-250000D01*
G01*
X123026000Y-75754000D01*
G75*
G02*
X122776000Y-76004000I-250000J0D01*
G01*
G37*
G04 #@! TD.AperFunction*
D13*
X55118000Y-110109000D03*
X55118000Y-55118000D03*
G04 #@! TA.AperFunction,SMDPad,CuDef*
G36*
G01*
X74190000Y-72495000D02*
X74190000Y-73745000D01*
G75*
G02*
X74040000Y-73895000I-150000J0D01*
G01*
X73740000Y-73895000D01*
G75*
G02*
X73590000Y-73745000I0J150000D01*
G01*
X73590000Y-72495000D01*
G75*
G02*
X73740000Y-72345000I150000J0D01*
G01*
X74040000Y-72345000D01*
G75*
G02*
X74190000Y-72495000I0J-150000D01*
G01*
G37*
G04 #@! TD.AperFunction*
G04 #@! TA.AperFunction,SMDPad,CuDef*
G36*
G01*
X73190000Y-72495000D02*
X73190000Y-73745000D01*
G75*
G02*
X73040000Y-73895000I-150000J0D01*
G01*
X72740000Y-73895000D01*
G75*
G02*
X72590000Y-73745000I0J150000D01*
G01*
X72590000Y-72495000D01*
G75*
G02*
X72740000Y-72345000I150000J0D01*
G01*
X73040000Y-72345000D01*
G75*
G02*
X73190000Y-72495000I0J-150000D01*
G01*
G37*
G04 #@! TD.AperFunction*
G04 #@! TA.AperFunction,SMDPad,CuDef*
G36*
G01*
X72190000Y-72495000D02*
X72190000Y-73745000D01*
G75*
G02*
X72040000Y-73895000I-150000J0D01*
G01*
X71740000Y-73895000D01*
G75*
G02*
X71590000Y-73745000I0J150000D01*
G01*
X71590000Y-72495000D01*
G75*
G02*
X71740000Y-72345000I150000J0D01*
G01*
X72040000Y-72345000D01*
G75*
G02*
X72190000Y-72495000I0J-150000D01*
G01*
G37*
G04 #@! TD.AperFunction*
G04 #@! TA.AperFunction,SMDPad,CuDef*
G36*
G01*
X71190000Y-72495000D02*
X71190000Y-73745000D01*
G75*
G02*
X71040000Y-73895000I-150000J0D01*
G01*
X70740000Y-73895000D01*
G75*
G02*
X70590000Y-73745000I0J150000D01*
G01*
X70590000Y-72495000D01*
G75*
G02*
X70740000Y-72345000I150000J0D01*
G01*
X71040000Y-72345000D01*
G75*
G02*
X71190000Y-72495000I0J-150000D01*
G01*
G37*
G04 #@! TD.AperFunction*
G04 #@! TA.AperFunction,SMDPad,CuDef*
G36*
G01*
X75790000Y-68595000D02*
X75790000Y-69895000D01*
G75*
G02*
X75540000Y-70145000I-250000J0D01*
G01*
X74840000Y-70145000D01*
G75*
G02*
X74590000Y-69895000I0J250000D01*
G01*
X74590000Y-68595000D01*
G75*
G02*
X74840000Y-68345000I250000J0D01*
G01*
X75540000Y-68345000D01*
G75*
G02*
X75790000Y-68595000I0J-250000D01*
G01*
G37*
G04 #@! TD.AperFunction*
G04 #@! TA.AperFunction,SMDPad,CuDef*
G36*
G01*
X70190000Y-68595000D02*
X70190000Y-69895000D01*
G75*
G02*
X69940000Y-70145000I-250000J0D01*
G01*
X69240000Y-70145000D01*
G75*
G02*
X68990000Y-69895000I0J250000D01*
G01*
X68990000Y-68595000D01*
G75*
G02*
X69240000Y-68345000I250000J0D01*
G01*
X69940000Y-68345000D01*
G75*
G02*
X70190000Y-68595000I0J-250000D01*
G01*
G37*
G04 #@! TD.AperFunction*
G04 #@! TA.AperFunction,SMDPad,CuDef*
G36*
G01*
X93693000Y-108257000D02*
X92743000Y-108257000D01*
G75*
G02*
X92493000Y-108007000I0J250000D01*
G01*
X92493000Y-107507000D01*
G75*
G02*
X92743000Y-107257000I250000J0D01*
G01*
X93693000Y-107257000D01*
G75*
G02*
X93943000Y-107507000I0J-250000D01*
G01*
X93943000Y-108007000D01*
G75*
G02*
X93693000Y-108257000I-250000J0D01*
G01*
G37*
G04 #@! TD.AperFunction*
G04 #@! TA.AperFunction,SMDPad,CuDef*
G36*
G01*
X93693000Y-106357000D02*
X92743000Y-106357000D01*
G75*
G02*
X92493000Y-106107000I0J250000D01*
G01*
X92493000Y-105607000D01*
G75*
G02*
X92743000Y-105357000I250000J0D01*
G01*
X93693000Y-105357000D01*
G75*
G02*
X93943000Y-105607000I0J-250000D01*
G01*
X93943000Y-106107000D01*
G75*
G02*
X93693000Y-106357000I-250000J0D01*
G01*
G37*
G04 #@! TD.AperFunction*
G04 #@! TA.AperFunction,SMDPad,CuDef*
G36*
G01*
X110559000Y-112677000D02*
X109659000Y-112677000D01*
G75*
G02*
X109409000Y-112427000I0J250000D01*
G01*
X109409000Y-111902000D01*
G75*
G02*
X109659000Y-111652000I250000J0D01*
G01*
X110559000Y-111652000D01*
G75*
G02*
X110809000Y-111902000I0J-250000D01*
G01*
X110809000Y-112427000D01*
G75*
G02*
X110559000Y-112677000I-250000J0D01*
G01*
G37*
G04 #@! TD.AperFunction*
G04 #@! TA.AperFunction,SMDPad,CuDef*
G36*
G01*
X110559000Y-110852000D02*
X109659000Y-110852000D01*
G75*
G02*
X109409000Y-110602000I0J250000D01*
G01*
X109409000Y-110077000D01*
G75*
G02*
X109659000Y-109827000I250000J0D01*
G01*
X110559000Y-109827000D01*
G75*
G02*
X110809000Y-110077000I0J-250000D01*
G01*
X110809000Y-110602000D01*
G75*
G02*
X110559000Y-110852000I-250000J0D01*
G01*
G37*
G04 #@! TD.AperFunction*
G04 #@! TA.AperFunction,SMDPad,CuDef*
G36*
X123559000Y-72286000D02*
G01*
X123559000Y-72786000D01*
X123554722Y-72786000D01*
X123554722Y-72851263D01*
X123520940Y-72977342D01*
X123455677Y-73090381D01*
X123363381Y-73182677D01*
X123250342Y-73247940D01*
X123124263Y-73281722D01*
X123059000Y-73281722D01*
X123059000Y-73286000D01*
X122559000Y-73286000D01*
X122559000Y-73281722D01*
X122493737Y-73281722D01*
X122367658Y-73247940D01*
X122254619Y-73182677D01*
X122162323Y-73090381D01*
X122097060Y-72977342D01*
X122063278Y-72851263D01*
X122063278Y-72786000D01*
X122059000Y-72786000D01*
X122059000Y-72286000D01*
X123559000Y-72286000D01*
G37*
G04 #@! TD.AperFunction*
G04 #@! TA.AperFunction,SMDPad,CuDef*
G36*
X122063278Y-71486000D02*
G01*
X122063278Y-71420737D01*
X122097060Y-71294658D01*
X122162323Y-71181619D01*
X122254619Y-71089323D01*
X122367658Y-71024060D01*
X122493737Y-70990278D01*
X122559000Y-70990278D01*
X122559000Y-70986000D01*
X123059000Y-70986000D01*
X123059000Y-70990278D01*
X123124263Y-70990278D01*
X123250342Y-71024060D01*
X123363381Y-71089323D01*
X123455677Y-71181619D01*
X123520940Y-71294658D01*
X123554722Y-71420737D01*
X123554722Y-71486000D01*
X123559000Y-71486000D01*
X123559000Y-71986000D01*
X122059000Y-71986000D01*
X122059000Y-71486000D01*
X122063278Y-71486000D01*
G37*
G04 #@! TD.AperFunction*
G04 #@! TA.AperFunction,SMDPad,CuDef*
G36*
G01*
X92768000Y-82141000D02*
X93668000Y-82141000D01*
G75*
G02*
X93918000Y-82391000I0J-250000D01*
G01*
X93918000Y-82916000D01*
G75*
G02*
X93668000Y-83166000I-250000J0D01*
G01*
X92768000Y-83166000D01*
G75*
G02*
X92518000Y-82916000I0J250000D01*
G01*
X92518000Y-82391000D01*
G75*
G02*
X92768000Y-82141000I250000J0D01*
G01*
G37*
G04 #@! TD.AperFunction*
G04 #@! TA.AperFunction,SMDPad,CuDef*
G36*
G01*
X92768000Y-83966000D02*
X93668000Y-83966000D01*
G75*
G02*
X93918000Y-84216000I0J-250000D01*
G01*
X93918000Y-84741000D01*
G75*
G02*
X93668000Y-84991000I-250000J0D01*
G01*
X92768000Y-84991000D01*
G75*
G02*
X92518000Y-84741000I0J250000D01*
G01*
X92518000Y-84216000D01*
G75*
G02*
X92768000Y-83966000I250000J0D01*
G01*
G37*
G04 #@! TD.AperFunction*
G04 #@! TA.AperFunction,SMDPad,CuDef*
G36*
G01*
X129385000Y-85159000D02*
X129385000Y-84259000D01*
G75*
G02*
X129635000Y-84009000I250000J0D01*
G01*
X130160000Y-84009000D01*
G75*
G02*
X130410000Y-84259000I0J-250000D01*
G01*
X130410000Y-85159000D01*
G75*
G02*
X130160000Y-85409000I-250000J0D01*
G01*
X129635000Y-85409000D01*
G75*
G02*
X129385000Y-85159000I0J250000D01*
G01*
G37*
G04 #@! TD.AperFunction*
G04 #@! TA.AperFunction,SMDPad,CuDef*
G36*
G01*
X131210000Y-85159000D02*
X131210000Y-84259000D01*
G75*
G02*
X131460000Y-84009000I250000J0D01*
G01*
X131985000Y-84009000D01*
G75*
G02*
X132235000Y-84259000I0J-250000D01*
G01*
X132235000Y-85159000D01*
G75*
G02*
X131985000Y-85409000I-250000J0D01*
G01*
X131460000Y-85409000D01*
G75*
G02*
X131210000Y-85159000I0J250000D01*
G01*
G37*
G04 #@! TD.AperFunction*
G04 #@! TA.AperFunction,SMDPad,CuDef*
G36*
G01*
X127450000Y-112677000D02*
X126550000Y-112677000D01*
G75*
G02*
X126300000Y-112427000I0J250000D01*
G01*
X126300000Y-111902000D01*
G75*
G02*
X126550000Y-111652000I250000J0D01*
G01*
X127450000Y-111652000D01*
G75*
G02*
X127700000Y-111902000I0J-250000D01*
G01*
X127700000Y-112427000D01*
G75*
G02*
X127450000Y-112677000I-250000J0D01*
G01*
G37*
G04 #@! TD.AperFunction*
G04 #@! TA.AperFunction,SMDPad,CuDef*
G36*
G01*
X127450000Y-110852000D02*
X126550000Y-110852000D01*
G75*
G02*
X126300000Y-110602000I0J250000D01*
G01*
X126300000Y-110077000D01*
G75*
G02*
X126550000Y-109827000I250000J0D01*
G01*
X127450000Y-109827000D01*
G75*
G02*
X127700000Y-110077000I0J-250000D01*
G01*
X127700000Y-110602000D01*
G75*
G02*
X127450000Y-110852000I-250000J0D01*
G01*
G37*
G04 #@! TD.AperFunction*
G04 #@! TA.AperFunction,SMDPad,CuDef*
G36*
G01*
X92761750Y-77442000D02*
X93674250Y-77442000D01*
G75*
G02*
X93918000Y-77685750I0J-243750D01*
G01*
X93918000Y-78173250D01*
G75*
G02*
X93674250Y-78417000I-243750J0D01*
G01*
X92761750Y-78417000D01*
G75*
G02*
X92518000Y-78173250I0J243750D01*
G01*
X92518000Y-77685750D01*
G75*
G02*
X92761750Y-77442000I243750J0D01*
G01*
G37*
G04 #@! TD.AperFunction*
G04 #@! TA.AperFunction,SMDPad,CuDef*
G36*
G01*
X92761750Y-79317000D02*
X93674250Y-79317000D01*
G75*
G02*
X93918000Y-79560750I0J-243750D01*
G01*
X93918000Y-80048250D01*
G75*
G02*
X93674250Y-80292000I-243750J0D01*
G01*
X92761750Y-80292000D01*
G75*
G02*
X92518000Y-80048250I0J243750D01*
G01*
X92518000Y-79560750D01*
G75*
G02*
X92761750Y-79317000I243750J0D01*
G01*
G37*
G04 #@! TD.AperFunction*
G04 #@! TA.AperFunction,SMDPad,CuDef*
G36*
G01*
X101689000Y-63524000D02*
X101389000Y-63524000D01*
G75*
G02*
X101239000Y-63374000I0J150000D01*
G01*
X101239000Y-62199000D01*
G75*
G02*
X101389000Y-62049000I150000J0D01*
G01*
X101689000Y-62049000D01*
G75*
G02*
X101839000Y-62199000I0J-150000D01*
G01*
X101839000Y-63374000D01*
G75*
G02*
X101689000Y-63524000I-150000J0D01*
G01*
G37*
G04 #@! TD.AperFunction*
G04 #@! TA.AperFunction,SMDPad,CuDef*
G36*
G01*
X103589000Y-63524000D02*
X103289000Y-63524000D01*
G75*
G02*
X103139000Y-63374000I0J150000D01*
G01*
X103139000Y-62199000D01*
G75*
G02*
X103289000Y-62049000I150000J0D01*
G01*
X103589000Y-62049000D01*
G75*
G02*
X103739000Y-62199000I0J-150000D01*
G01*
X103739000Y-63374000D01*
G75*
G02*
X103589000Y-63524000I-150000J0D01*
G01*
G37*
G04 #@! TD.AperFunction*
G04 #@! TA.AperFunction,SMDPad,CuDef*
G36*
G01*
X102639000Y-61649000D02*
X102339000Y-61649000D01*
G75*
G02*
X102189000Y-61499000I0J150000D01*
G01*
X102189000Y-60324000D01*
G75*
G02*
X102339000Y-60174000I150000J0D01*
G01*
X102639000Y-60174000D01*
G75*
G02*
X102789000Y-60324000I0J-150000D01*
G01*
X102789000Y-61499000D01*
G75*
G02*
X102639000Y-61649000I-150000J0D01*
G01*
G37*
G04 #@! TD.AperFunction*
D15*
X79450001Y-117394599D03*
D16*
X72950000Y-117394599D03*
X79450001Y-121894600D03*
X72950000Y-121894600D03*
D17*
X140589000Y-55118000D03*
D18*
X138049000Y-55118000D03*
X135509000Y-55118000D03*
X132969000Y-55118000D03*
X130429000Y-55118000D03*
X127889000Y-55118000D03*
X125349000Y-55118000D03*
X122809000Y-55118000D03*
X120269000Y-55118000D03*
X117729000Y-55118000D03*
X115189000Y-55118000D03*
X112649000Y-55118000D03*
X110109000Y-55118000D03*
X107569000Y-55118000D03*
X105029000Y-55118000D03*
X102489000Y-55118000D03*
D15*
X113308201Y-117394599D03*
D16*
X106808200Y-117394599D03*
X113308201Y-121894600D03*
X106808200Y-121894600D03*
D15*
X130250001Y-117394599D03*
D16*
X123750000Y-117394599D03*
X130250001Y-121894600D03*
X123750000Y-121894600D03*
D15*
X96391801Y-117394599D03*
D16*
X89891800Y-117394599D03*
X96391801Y-121894600D03*
X89891800Y-121894600D03*
D19*
X117856000Y-67691000D03*
X119634000Y-69469000D03*
X121793000Y-87249000D03*
X127254000Y-90170000D03*
X121793000Y-86233000D03*
X127254000Y-88900000D03*
X76962000Y-69342000D03*
X76962000Y-70231000D03*
X123317000Y-83820000D03*
X89535000Y-75819000D03*
X126238000Y-104582000D03*
X88646000Y-79756000D03*
X123317000Y-85344000D03*
X107677000Y-76346000D03*
X110871000Y-104582000D03*
X87757000Y-79756000D03*
X67818000Y-70231000D03*
X87757000Y-74930000D03*
X124460000Y-71501000D03*
X139065000Y-63373000D03*
X123698000Y-87630000D03*
X76962000Y-104582000D03*
X123317000Y-84582000D03*
X124460000Y-70739000D03*
X86868000Y-74930000D03*
X108566000Y-76346000D03*
X87757000Y-82423000D03*
X87757000Y-75819000D03*
X88646000Y-74930000D03*
X75438000Y-104582000D03*
X89535000Y-74930000D03*
X93980000Y-104582000D03*
X88646000Y-81534000D03*
X67818000Y-68453000D03*
X76962000Y-68453000D03*
X88646000Y-82423000D03*
X120923000Y-75546000D03*
X104726500Y-62786500D03*
X89535000Y-81534000D03*
X92456000Y-104582000D03*
X111379000Y-76346000D03*
X67818000Y-69342000D03*
X89535000Y-82423000D03*
X88646000Y-80645000D03*
X88646000Y-75819000D03*
X89535000Y-79756000D03*
X109347000Y-104582000D03*
X117240000Y-75546000D03*
X87757000Y-80645000D03*
X86868000Y-75819000D03*
X127762000Y-104582000D03*
X120034000Y-75546000D03*
X87757000Y-81534000D03*
X89535000Y-80645000D03*
X86868000Y-79756000D03*
X79629000Y-73533000D03*
X115500000Y-67691000D03*
X91694000Y-67691000D03*
X69723000Y-73533000D03*
X114681000Y-66802000D03*
X91694000Y-66802000D03*
X69723000Y-72644000D03*
X79629000Y-72644000D03*
X110490000Y-79756000D03*
X111379000Y-74746000D03*
D20*
X119634000Y-69469000D02*
X125984000Y-69469000D01*
X126426000Y-82931000D02*
X127635000Y-82931000D01*
X113900000Y-66567000D02*
X114681000Y-65786000D01*
X127127000Y-87630000D02*
X126111000Y-87630000D01*
X115951000Y-65786000D02*
X117856000Y-67691000D01*
X127635000Y-84709000D02*
X127635000Y-87122000D01*
X127635000Y-82931000D02*
X127635000Y-84709000D01*
X114681000Y-65786000D02*
X115951000Y-65786000D01*
X127635000Y-87122000D02*
X127127000Y-87630000D01*
X125984000Y-69469000D02*
X127635000Y-71120000D01*
X113900000Y-71696000D02*
X113900000Y-66567000D01*
X127635000Y-71120000D02*
X127635000Y-82931000D01*
X129897500Y-84709000D02*
X127635000Y-84709000D01*
X127254000Y-90170000D02*
X126111000Y-90170000D01*
X121793000Y-87249000D02*
X117100000Y-82556000D01*
X117100000Y-82556000D02*
X117100000Y-80196000D01*
X118550000Y-78746000D02*
X118550000Y-82990000D01*
X118550000Y-82990000D02*
X121793000Y-86233000D01*
X127254000Y-88900000D02*
X126111000Y-88900000D01*
D21*
X107677000Y-76346000D02*
X106341000Y-76346000D01*
D20*
X123317000Y-84582000D02*
X123317000Y-87249000D01*
X110109000Y-106045000D02*
X110109000Y-104582000D01*
D21*
X118550000Y-75546000D02*
X117240000Y-75546000D01*
D20*
X124460000Y-71501000D02*
X126096000Y-71501000D01*
D22*
X140589000Y-57277000D02*
X140589000Y-55118000D01*
D20*
X76200000Y-104582000D02*
X76962000Y-104582000D01*
X124460000Y-71501000D02*
X122824000Y-71501000D01*
X76200000Y-104582000D02*
X75438000Y-104582000D01*
D21*
X118550000Y-75546000D02*
X120034000Y-75546000D01*
X108566000Y-76346000D02*
X107677000Y-76346000D01*
X110050000Y-76346000D02*
X111379000Y-76346000D01*
D20*
X93218000Y-104582000D02*
X92456000Y-104582000D01*
X123317000Y-87249000D02*
X123698000Y-87630000D01*
X93218000Y-106045000D02*
X93218000Y-104582000D01*
X127000000Y-104582000D02*
X127762000Y-104582000D01*
X110109000Y-104582000D02*
X109347000Y-104582000D01*
D21*
X73890000Y-73120000D02*
X73890000Y-69977000D01*
D20*
X123698000Y-82931000D02*
X124526000Y-82931000D01*
D21*
X103439000Y-62786500D02*
X104726500Y-62786500D01*
D20*
X93218000Y-104582000D02*
X93980000Y-104582000D01*
D22*
X140269000Y-57597000D02*
X140589000Y-57277000D01*
D21*
X120034000Y-75546000D02*
X120923000Y-75546000D01*
D22*
X140269000Y-59309000D02*
X140269000Y-57597000D01*
D20*
X127000000Y-106045000D02*
X127000000Y-104582000D01*
X123317000Y-83820000D02*
X123317000Y-84582000D01*
X110109000Y-104582000D02*
X110871000Y-104582000D01*
X124841000Y-87630000D02*
X123698000Y-87630000D01*
D22*
X124460000Y-70739000D02*
X124460000Y-71501000D01*
D21*
X106341000Y-76346000D02*
X106299000Y-76388000D01*
D20*
X137509000Y-63373000D02*
X139065000Y-63373000D01*
D21*
X122259000Y-75546000D02*
X122301000Y-75504000D01*
D20*
X93218000Y-77929500D02*
X89232500Y-77929500D01*
X76200000Y-106045000D02*
X76200000Y-104582000D01*
D21*
X86590000Y-84017000D02*
X86647000Y-84074000D01*
X110050000Y-76346000D02*
X108566000Y-76346000D01*
D20*
X127000000Y-104582000D02*
X126238000Y-104582000D01*
X123317000Y-83312000D02*
X123698000Y-82931000D01*
X123317000Y-83820000D02*
X123317000Y-83312000D01*
D21*
X120923000Y-75546000D02*
X122259000Y-75546000D01*
D20*
X122428000Y-88900000D02*
X124841000Y-88900000D01*
X116300000Y-82772000D02*
X122428000Y-88900000D01*
X116300000Y-80196000D02*
X116300000Y-82772000D01*
X127000000Y-112164500D02*
X127000000Y-121869200D01*
X127025400Y-121894600D02*
X130250001Y-121894600D01*
X123750000Y-121894600D02*
X127025400Y-121894600D01*
X110134400Y-121894600D02*
X113308201Y-121894600D01*
X110109000Y-112164500D02*
X110109000Y-121869200D01*
X106808200Y-121894600D02*
X110134400Y-121894600D01*
X89891800Y-121894600D02*
X93192600Y-121894600D01*
X93218000Y-112164500D02*
X93218000Y-121869200D01*
X93192600Y-121894600D02*
X96391801Y-121894600D01*
X76225400Y-121894600D02*
X79450001Y-121894600D01*
X76200000Y-112164500D02*
X76200000Y-121869200D01*
X72950000Y-121894600D02*
X76225400Y-121894600D01*
X93218000Y-82653500D02*
X93218000Y-79804500D01*
X107061000Y-103886000D02*
X113100000Y-97847000D01*
X85852000Y-109093000D02*
X91059000Y-103886000D01*
X76200000Y-109093000D02*
X76200000Y-110339500D01*
X76200000Y-109093000D02*
X85852000Y-109093000D01*
X91059000Y-103886000D02*
X107061000Y-103886000D01*
X113100000Y-97847000D02*
X113100000Y-80196000D01*
X76200000Y-107757000D02*
X76200000Y-109093000D01*
D21*
X102489000Y-60911500D02*
X102489000Y-55118000D01*
D20*
X132969000Y-55118000D02*
X118550000Y-69537000D01*
X118550000Y-69537000D02*
X118550000Y-73146000D01*
X130429000Y-55118000D02*
X130429000Y-56896000D01*
X130429000Y-56896000D02*
X117100000Y-70225000D01*
X117100000Y-70225000D02*
X117100000Y-71696000D01*
X127889000Y-55118000D02*
X127889000Y-58674000D01*
X127889000Y-58674000D02*
X116300000Y-70263000D01*
X116300000Y-70263000D02*
X116300000Y-71696000D01*
X135509000Y-64770000D02*
X135509000Y-55118000D01*
X136509000Y-65770000D02*
X135509000Y-64770000D01*
X136509000Y-66623000D02*
X136509000Y-65770000D01*
X122539000Y-73946000D02*
X122825000Y-73660000D01*
X122825000Y-73660000D02*
X122825000Y-72786000D01*
X118550000Y-73946000D02*
X122555000Y-73946000D01*
X125730000Y-74549000D02*
X126111000Y-74168000D01*
X118550000Y-74746000D02*
X121088000Y-74746000D01*
X121088000Y-74746000D02*
X121285000Y-74549000D01*
X126111000Y-74168000D02*
X126111000Y-72786000D01*
X121285000Y-74549000D02*
X125730000Y-74549000D01*
X115189000Y-56642000D02*
X113100000Y-58731000D01*
X113100000Y-58731000D02*
X113100000Y-71696000D01*
X115189000Y-55118000D02*
X115189000Y-56642000D01*
X112300000Y-56991000D02*
X112300000Y-71696000D01*
X112649000Y-55118000D02*
X112649000Y-56642000D01*
X112649000Y-56642000D02*
X112300000Y-56991000D01*
X110109000Y-55118000D02*
X110109000Y-56642000D01*
X111500000Y-58033000D02*
X111500000Y-71696000D01*
X110109000Y-56642000D02*
X111500000Y-58033000D01*
X110871000Y-59944000D02*
X110871000Y-70358000D01*
X107569000Y-55118000D02*
X107569000Y-56642000D01*
X110050000Y-71179000D02*
X110050000Y-73146000D01*
X107569000Y-56642000D02*
X110871000Y-59944000D01*
X110871000Y-70358000D02*
X110050000Y-71179000D01*
X110050000Y-73946000D02*
X108744000Y-73946000D01*
X108458000Y-71882000D02*
X110236000Y-70104000D01*
X108744000Y-73946000D02*
X108458000Y-73660000D01*
X101981000Y-64389000D02*
X101539000Y-63947000D01*
X101539000Y-63947000D02*
X101539000Y-62786500D01*
X108712000Y-64389000D02*
X101981000Y-64389000D01*
X108458000Y-73660000D02*
X108458000Y-71882000D01*
X110236000Y-70104000D02*
X110236000Y-65913000D01*
X110236000Y-65913000D02*
X108712000Y-64389000D01*
X115500000Y-108134000D02*
X116332000Y-108966000D01*
X127000000Y-107757000D02*
X127000000Y-108966000D01*
X127000000Y-108966000D02*
X127000000Y-110339500D01*
X115500000Y-80196000D02*
X115500000Y-108134000D01*
X116332000Y-108966000D02*
X127000000Y-108966000D01*
X113792000Y-108966000D02*
X110109000Y-108966000D01*
X110109000Y-108966000D02*
X110109000Y-110339500D01*
X114700000Y-80196000D02*
X114700000Y-108058000D01*
X110109000Y-107757000D02*
X110109000Y-108966000D01*
X114700000Y-108058000D02*
X113792000Y-108966000D01*
X93218000Y-107757000D02*
X93218000Y-108966000D01*
X113900000Y-98190000D02*
X103124000Y-108966000D01*
X93218000Y-108966000D02*
X93218000Y-110339500D01*
X113900000Y-80196000D02*
X113900000Y-98190000D01*
X103124000Y-108966000D02*
X93218000Y-108966000D01*
X84590000Y-73120000D02*
X84590000Y-74160000D01*
X83820000Y-71247000D02*
X84590000Y-72017000D01*
X84328000Y-74422000D02*
X80518000Y-74422000D01*
X80518000Y-74422000D02*
X79629000Y-73533000D01*
X79248000Y-67310000D02*
X78740000Y-67818000D01*
X78740000Y-67818000D02*
X78740000Y-70612000D01*
X71890000Y-74160000D02*
X71890000Y-73120000D01*
X69723000Y-74168000D02*
X69977000Y-74422000D01*
X84590000Y-72017000D02*
X84590000Y-73120000D01*
X69977000Y-74422000D02*
X71628000Y-74422000D01*
X91694000Y-67691000D02*
X91059000Y-67691000D01*
X69723000Y-73533000D02*
X69723000Y-74168000D01*
X91059000Y-67691000D02*
X90678000Y-67310000D01*
X84590000Y-74160000D02*
X84328000Y-74422000D01*
X71628000Y-74422000D02*
X71890000Y-74160000D01*
X78740000Y-70612000D02*
X79375000Y-71247000D01*
X90678000Y-67310000D02*
X79248000Y-67310000D01*
X79375000Y-71247000D02*
X83820000Y-71247000D01*
X115500000Y-67691000D02*
X115500000Y-71696000D01*
X114681000Y-66802000D02*
X114700000Y-66821000D01*
X80772000Y-72644000D02*
X79629000Y-72644000D01*
X81248000Y-73120000D02*
X80772000Y-72644000D01*
X79121000Y-71755000D02*
X83336000Y-71755000D01*
X114700000Y-66821000D02*
X114700000Y-71696000D01*
X83590000Y-72009000D02*
X83590000Y-73120000D01*
X69723000Y-72644000D02*
X70866000Y-72644000D01*
X78232000Y-67564000D02*
X78232000Y-70866000D01*
X83590000Y-73120000D02*
X81248000Y-73120000D01*
X83336000Y-71755000D02*
X83590000Y-72009000D01*
X91694000Y-66802000D02*
X78994000Y-66802000D01*
X78232000Y-70866000D02*
X79121000Y-71755000D01*
X78994000Y-66802000D02*
X78232000Y-67564000D01*
X107823000Y-78105000D02*
X107823000Y-79502000D01*
X95250000Y-92075000D02*
X95250000Y-94361000D01*
X110050000Y-77146000D02*
X108782000Y-77146000D01*
X108782000Y-77146000D02*
X107823000Y-78105000D01*
X107823000Y-79502000D02*
X95250000Y-92075000D01*
X97790000Y-92075000D02*
X97790000Y-94361000D01*
X108458000Y-78359000D02*
X108458000Y-81407000D01*
X108871000Y-77946000D02*
X108458000Y-78359000D01*
X108458000Y-81407000D02*
X97790000Y-92075000D01*
X110050000Y-77946000D02*
X108871000Y-77946000D01*
X109728000Y-82677000D02*
X100330000Y-92075000D01*
X109728000Y-78740000D02*
X109728000Y-82677000D01*
X100330000Y-92075000D02*
X100330000Y-94361000D01*
X110050000Y-74746000D02*
X111379000Y-74746000D01*
X110490000Y-79756000D02*
X110490000Y-84455000D01*
X110490000Y-84455000D02*
X102870000Y-92075000D01*
X102870000Y-92075000D02*
X102870000Y-94361000D01*
X105410000Y-92075000D02*
X105410000Y-94361000D01*
X111500000Y-85985000D02*
X105410000Y-92075000D01*
X111500000Y-80196000D02*
X111500000Y-85985000D01*
X107950000Y-92075000D02*
X107950000Y-94361000D01*
X112300000Y-80196000D02*
X112300000Y-87725000D01*
X112300000Y-87725000D02*
X107950000Y-92075000D01*
G04 #@! TA.AperFunction,Conductor*
G36*
X104563075Y-55310993D02*
G01*
X104628901Y-55425007D01*
X104721993Y-55518099D01*
X104836007Y-55583925D01*
X104904051Y-55602157D01*
X104264831Y-56241378D01*
X104317249Y-56279463D01*
X104317251Y-56279464D01*
X104507707Y-56376506D01*
X104507713Y-56376509D01*
X104710996Y-56442559D01*
X104922126Y-56476000D01*
X105135874Y-56476000D01*
X105347003Y-56442559D01*
X105550286Y-56376509D01*
X105550292Y-56376506D01*
X105740750Y-56279463D01*
X105793167Y-56241378D01*
X105793167Y-56241376D01*
X105153948Y-55602157D01*
X105221993Y-55583925D01*
X105336007Y-55518099D01*
X105429099Y-55425007D01*
X105494925Y-55310993D01*
X105513157Y-55242948D01*
X106152376Y-55882167D01*
X106152378Y-55882167D01*
X106190463Y-55829750D01*
X106287506Y-55639292D01*
X106287509Y-55639286D01*
X106313241Y-55560092D01*
X106353314Y-55501486D01*
X106418711Y-55473849D01*
X106488668Y-55485956D01*
X106540974Y-55533962D01*
X106545341Y-55541825D01*
X106545418Y-55541976D01*
X106545420Y-55541981D01*
X106596342Y-55641921D01*
X106624349Y-55696887D01*
X106726536Y-55837535D01*
X106849464Y-55960463D01*
X106894342Y-55993069D01*
X106990116Y-56062653D01*
X107118703Y-56128171D01*
X107170318Y-56176919D01*
X107187500Y-56240438D01*
X107187500Y-56692223D01*
X107187499Y-56692223D01*
X107213498Y-56789251D01*
X107213501Y-56789258D01*
X107230837Y-56819284D01*
X107230837Y-56819285D01*
X107263721Y-56876243D01*
X107263729Y-56876253D01*
X110452595Y-60065118D01*
X110486621Y-60127430D01*
X110489500Y-60154213D01*
X110489500Y-65322787D01*
X110469498Y-65390908D01*
X110415842Y-65437401D01*
X110345568Y-65447505D01*
X110280988Y-65418011D01*
X110274405Y-65411882D01*
X108946253Y-64083729D01*
X108946243Y-64083721D01*
X108859258Y-64033500D01*
X108847792Y-64030427D01*
X108762225Y-64007500D01*
X108762223Y-64007500D01*
X103760127Y-64007500D01*
X103692006Y-63987498D01*
X103645513Y-63933842D01*
X103635409Y-63863568D01*
X103664903Y-63798988D01*
X103707961Y-63770438D01*
X103706719Y-63768000D01*
X103829723Y-63705326D01*
X103920326Y-63614723D01*
X103933493Y-63588882D01*
X103978498Y-63500555D01*
X103993500Y-63405834D01*
X103993500Y-63405830D01*
X103994219Y-63401291D01*
X104024630Y-63337137D01*
X104084898Y-63299610D01*
X104118668Y-63295000D01*
X104454933Y-63295000D01*
X104503151Y-63304591D01*
X104510616Y-63307683D01*
X104510618Y-63307684D01*
X104652867Y-63345800D01*
X104652869Y-63345800D01*
X104800131Y-63345800D01*
X104800133Y-63345800D01*
X104942382Y-63307684D01*
X105069918Y-63234051D01*
X105174051Y-63129918D01*
X105247684Y-63002382D01*
X105285800Y-62860133D01*
X105285800Y-62712867D01*
X105247684Y-62570618D01*
X105174051Y-62443082D01*
X105174049Y-62443080D01*
X105174045Y-62443075D01*
X105069924Y-62338954D01*
X105069914Y-62338946D01*
X104942382Y-62265316D01*
X104915071Y-62257998D01*
X104800133Y-62227200D01*
X104652867Y-62227200D01*
X104581742Y-62246258D01*
X104510616Y-62265316D01*
X104503151Y-62268409D01*
X104454933Y-62278000D01*
X104118668Y-62278000D01*
X104050547Y-62257998D01*
X104004054Y-62204342D01*
X103994219Y-62171709D01*
X103993500Y-62167167D01*
X103993500Y-62167166D01*
X103978498Y-62072445D01*
X103946990Y-62010607D01*
X103920326Y-61958276D01*
X103829723Y-61867673D01*
X103715553Y-61809501D01*
X103650836Y-61799251D01*
X103620834Y-61794500D01*
X103257166Y-61794500D01*
X103244079Y-61796572D01*
X103159029Y-61810042D01*
X103088618Y-61800942D01*
X103034305Y-61755219D01*
X103013333Y-61687390D01*
X103025514Y-61635009D01*
X103025435Y-61634984D01*
X103025734Y-61634062D01*
X103027053Y-61628389D01*
X103028498Y-61625555D01*
X103043500Y-61530834D01*
X103043500Y-60292166D01*
X103028498Y-60197445D01*
X103028498Y-60197444D01*
X103011233Y-60163559D01*
X102997500Y-60106357D01*
X102997500Y-56175728D01*
X103017502Y-56107607D01*
X103063900Y-56065632D01*
X103063661Y-56065241D01*
X103065743Y-56063964D01*
X103066303Y-56063458D01*
X103067884Y-56062653D01*
X103208533Y-55960465D01*
X103331465Y-55837533D01*
X103433653Y-55696884D01*
X103512580Y-55541981D01*
X103512581Y-55541975D01*
X103512658Y-55541826D01*
X103561406Y-55490210D01*
X103630321Y-55473144D01*
X103697522Y-55496044D01*
X103741675Y-55551642D01*
X103744758Y-55560091D01*
X103770492Y-55639289D01*
X103770493Y-55639292D01*
X103867535Y-55829748D01*
X103867536Y-55829750D01*
X103905620Y-55882167D01*
X103905621Y-55882168D01*
X104544841Y-55242947D01*
X104563075Y-55310993D01*
G37*
G04 #@! TD.AperFunction*
G04 #@! TA.AperFunction,Conductor*
G36*
X152214621Y-50947502D02*
G01*
X152261114Y-51001158D01*
X152272500Y-51053500D01*
X152272500Y-114046500D01*
X152252498Y-114114621D01*
X152198842Y-114161114D01*
X152146500Y-114172500D01*
X133578639Y-114172500D01*
X133531775Y-114191911D01*
X133495911Y-114227775D01*
X133476500Y-114274638D01*
X133476500Y-124206500D01*
X133456498Y-124274621D01*
X133402842Y-124321114D01*
X133350500Y-124332500D01*
X69849500Y-124332500D01*
X69781379Y-124312498D01*
X69734886Y-124258842D01*
X69723500Y-124206500D01*
X69723500Y-121795731D01*
X71946200Y-121795731D01*
X71946200Y-121795734D01*
X71946200Y-121993466D01*
X71984775Y-122187398D01*
X72060444Y-122370078D01*
X72133845Y-122479931D01*
X72170297Y-122534484D01*
X72170302Y-122534490D01*
X72310109Y-122674297D01*
X72310115Y-122674302D01*
X72474522Y-122784156D01*
X72657202Y-122859825D01*
X72851134Y-122898400D01*
X72851135Y-122898400D01*
X73048865Y-122898400D01*
X73048866Y-122898400D01*
X73242798Y-122859825D01*
X73425478Y-122784156D01*
X73589885Y-122674302D01*
X73729702Y-122534485D01*
X73839556Y-122370078D01*
X73841579Y-122365192D01*
X73846266Y-122353880D01*
X73890815Y-122298600D01*
X73958179Y-122276180D01*
X73962674Y-122276100D01*
X76175175Y-122276100D01*
X78437327Y-122276100D01*
X78505448Y-122296102D01*
X78551941Y-122349758D01*
X78553735Y-122353880D01*
X78560443Y-122370075D01*
X78560444Y-122370077D01*
X78670298Y-122534484D01*
X78670303Y-122534490D01*
X78810110Y-122674297D01*
X78810116Y-122674302D01*
X78974523Y-122784156D01*
X79157203Y-122859825D01*
X79351135Y-122898400D01*
X79351136Y-122898400D01*
X79548866Y-122898400D01*
X79548867Y-122898400D01*
X79742799Y-122859825D01*
X79925479Y-122784156D01*
X80089886Y-122674302D01*
X80229703Y-122534485D01*
X80339557Y-122370078D01*
X80415226Y-122187398D01*
X80453801Y-121993466D01*
X80453801Y-121795734D01*
X80453800Y-121795731D01*
X88888000Y-121795731D01*
X88888000Y-121795734D01*
X88888000Y-121993466D01*
X88926575Y-122187398D01*
X89002244Y-122370078D01*
X89075645Y-122479931D01*
X89112097Y-122534484D01*
X89112102Y-122534490D01*
X89251909Y-122674297D01*
X89251915Y-122674302D01*
X89416322Y-122784156D01*
X89599002Y-122859825D01*
X89792934Y-122898400D01*
X89792935Y-122898400D01*
X89990665Y-122898400D01*
X89990666Y-122898400D01*
X90184598Y-122859825D01*
X90367278Y-122784156D01*
X90531685Y-122674302D01*
X90671502Y-122534485D01*
X90781356Y-122370078D01*
X90783379Y-122365192D01*
X90788066Y-122353880D01*
X90832615Y-122298600D01*
X90899979Y-122276180D01*
X90904474Y-122276100D01*
X93142375Y-122276100D01*
X95379127Y-122276100D01*
X95447248Y-122296102D01*
X95493741Y-122349758D01*
X95495535Y-122353880D01*
X95502243Y-122370075D01*
X95502244Y-122370077D01*
X95612098Y-122534484D01*
X95612103Y-122534490D01*
X95751910Y-122674297D01*
X95751916Y-122674302D01*
X95916323Y-122784156D01*
X96099003Y-122859825D01*
X96292935Y-122898400D01*
X96292936Y-122898400D01*
X96490666Y-122898400D01*
X96490667Y-122898400D01*
X96684599Y-122859825D01*
X96867279Y-122784156D01*
X97031686Y-122674302D01*
X97171503Y-122534485D01*
X97281357Y-122370078D01*
X97357026Y-122187398D01*
X97395601Y-121993466D01*
X97395601Y-121795734D01*
X97395600Y-121795731D01*
X105804400Y-121795731D01*
X105804400Y-121795734D01*
X105804400Y-121993466D01*
X105842975Y-122187398D01*
X105918644Y-122370078D01*
X105992045Y-122479931D01*
X106028497Y-122534484D01*
X106028502Y-122534490D01*
X106168309Y-122674297D01*
X106168315Y-122674302D01*
X106332722Y-122784156D01*
X106515402Y-122859825D01*
X106709334Y-122898400D01*
X106709335Y-122898400D01*
X106907065Y-122898400D01*
X106907066Y-122898400D01*
X107100998Y-122859825D01*
X107283678Y-122784156D01*
X107448085Y-122674302D01*
X107587902Y-122534485D01*
X107697756Y-122370078D01*
X107699779Y-122365192D01*
X107704466Y-122353880D01*
X107749015Y-122298600D01*
X107816379Y-122276180D01*
X107820874Y-122276100D01*
X110084175Y-122276100D01*
X112295527Y-122276100D01*
X112363648Y-122296102D01*
X112410141Y-122349758D01*
X112411935Y-122353880D01*
X112418643Y-122370075D01*
X112418644Y-122370077D01*
X112528498Y-122534484D01*
X112528503Y-122534490D01*
X112668310Y-122674297D01*
X112668316Y-122674302D01*
X112832723Y-122784156D01*
X113015403Y-122859825D01*
X113209335Y-122898400D01*
X113209336Y-122898400D01*
X113407066Y-122898400D01*
X113407067Y-122898400D01*
X113600999Y-122859825D01*
X113783679Y-122784156D01*
X113948086Y-122674302D01*
X114087903Y-122534485D01*
X114197757Y-122370078D01*
X114273426Y-122187398D01*
X114312001Y-121993466D01*
X114312001Y-121795734D01*
X114312000Y-121795731D01*
X122746200Y-121795731D01*
X122746200Y-121795734D01*
X122746200Y-121993466D01*
X122784775Y-122187398D01*
X122860444Y-122370078D01*
X122933845Y-122479931D01*
X122970297Y-122534484D01*
X122970302Y-122534490D01*
X123110109Y-122674297D01*
X123110115Y-122674302D01*
X123274522Y-122784156D01*
X123457202Y-122859825D01*
X123651134Y-122898400D01*
X123651135Y-122898400D01*
X123848865Y-122898400D01*
X123848866Y-122898400D01*
X124042798Y-122859825D01*
X124225478Y-122784156D01*
X124389885Y-122674302D01*
X124529702Y-122534485D01*
X124639556Y-122370078D01*
X124641579Y-122365192D01*
X124646266Y-122353880D01*
X124690815Y-122298600D01*
X124758179Y-122276180D01*
X124762674Y-122276100D01*
X126975175Y-122276100D01*
X129237327Y-122276100D01*
X129305448Y-122296102D01*
X129351941Y-122349758D01*
X129353735Y-122353880D01*
X129360443Y-122370075D01*
X129360444Y-122370077D01*
X129470298Y-122534484D01*
X129470303Y-122534490D01*
X129610110Y-122674297D01*
X129610116Y-122674302D01*
X129774523Y-122784156D01*
X129957203Y-122859825D01*
X130151135Y-122898400D01*
X130151136Y-122898400D01*
X130348866Y-122898400D01*
X130348867Y-122898400D01*
X130542799Y-122859825D01*
X130725479Y-122784156D01*
X130889886Y-122674302D01*
X131029703Y-122534485D01*
X131139557Y-122370078D01*
X131215226Y-122187398D01*
X131253801Y-121993466D01*
X131253801Y-121795734D01*
X131215226Y-121601802D01*
X131139557Y-121419122D01*
X131029703Y-121254715D01*
X131029698Y-121254709D01*
X130889891Y-121114902D01*
X130889885Y-121114897D01*
X130835332Y-121078445D01*
X130725479Y-121005044D01*
X130542799Y-120929375D01*
X130348869Y-120890800D01*
X130348867Y-120890800D01*
X130151135Y-120890800D01*
X130151132Y-120890800D01*
X129957202Y-120929375D01*
X129957197Y-120929377D01*
X129774523Y-121005044D01*
X129610116Y-121114897D01*
X129610110Y-121114902D01*
X129470303Y-121254709D01*
X129470298Y-121254715D01*
X129360444Y-121419122D01*
X129360443Y-121419124D01*
X129353735Y-121435320D01*
X129309186Y-121490600D01*
X129241822Y-121513020D01*
X129237327Y-121513100D01*
X127507500Y-121513100D01*
X127439379Y-121493098D01*
X127392886Y-121439442D01*
X127381500Y-121387100D01*
X127381500Y-116620229D01*
X129246201Y-116620229D01*
X129246201Y-118168962D01*
X129246202Y-118168972D01*
X129260966Y-118243199D01*
X129317217Y-118327383D01*
X129401398Y-118383632D01*
X129401400Y-118383633D01*
X129475634Y-118398399D01*
X131024367Y-118398398D01*
X131024370Y-118398397D01*
X131024374Y-118398397D01*
X131073627Y-118388600D01*
X131098602Y-118383633D01*
X131182785Y-118327383D01*
X131239035Y-118243200D01*
X131253801Y-118168966D01*
X131253800Y-116620233D01*
X131253799Y-116620229D01*
X131253799Y-116620225D01*
X131239035Y-116545998D01*
X131182784Y-116461814D01*
X131098603Y-116405565D01*
X131024368Y-116390799D01*
X129475637Y-116390799D01*
X129475627Y-116390800D01*
X129401400Y-116405564D01*
X129317216Y-116461815D01*
X129260967Y-116545996D01*
X129246201Y-116620229D01*
X127381500Y-116620229D01*
X127381500Y-113057184D01*
X127401502Y-112989063D01*
X127455158Y-112942570D01*
X127494999Y-112932789D01*
X127494900Y-112931860D01*
X127532546Y-112927812D01*
X127558342Y-112925040D01*
X127694267Y-112874342D01*
X127810404Y-112787404D01*
X127897342Y-112671267D01*
X127948040Y-112535342D01*
X127954500Y-112475255D01*
X127954499Y-111853746D01*
X127948040Y-111793658D01*
X127897342Y-111657733D01*
X127810404Y-111541596D01*
X127694267Y-111454658D01*
X127694265Y-111454657D01*
X127694266Y-111454657D01*
X127558349Y-111403962D01*
X127558344Y-111403960D01*
X127558342Y-111403960D01*
X127528298Y-111400730D01*
X127498256Y-111397500D01*
X126501753Y-111397500D01*
X126501729Y-111397502D01*
X126441660Y-111403959D01*
X126441658Y-111403959D01*
X126305733Y-111454657D01*
X126189596Y-111541596D01*
X126102657Y-111657734D01*
X126051962Y-111793650D01*
X126051960Y-111793658D01*
X126045500Y-111853737D01*
X126045500Y-112475246D01*
X126045502Y-112475270D01*
X126051959Y-112535339D01*
X126051959Y-112535341D01*
X126102657Y-112671266D01*
X126102987Y-112671707D01*
X126189596Y-112787404D01*
X126305733Y-112874342D01*
X126441658Y-112925040D01*
X126500060Y-112931318D01*
X126501735Y-112931499D01*
X126501745Y-112931500D01*
X126505102Y-112931861D01*
X126504937Y-112933393D01*
X126566135Y-112954941D01*
X126609723Y-113010982D01*
X126618500Y-113057185D01*
X126618500Y-121387100D01*
X126598498Y-121455221D01*
X126544842Y-121501714D01*
X126492500Y-121513100D01*
X124762674Y-121513100D01*
X124694553Y-121493098D01*
X124648060Y-121439442D01*
X124646266Y-121435320D01*
X124639557Y-121419124D01*
X124639556Y-121419122D01*
X124529702Y-121254715D01*
X124529697Y-121254709D01*
X124389890Y-121114902D01*
X124389884Y-121114897D01*
X124335331Y-121078445D01*
X124225478Y-121005044D01*
X124042798Y-120929375D01*
X123848868Y-120890800D01*
X123848866Y-120890800D01*
X123651134Y-120890800D01*
X123651131Y-120890800D01*
X123457201Y-120929375D01*
X123457196Y-120929377D01*
X123274522Y-121005044D01*
X123110115Y-121114897D01*
X123110109Y-121114902D01*
X122970302Y-121254709D01*
X122970297Y-121254715D01*
X122860444Y-121419122D01*
X122784777Y-121601796D01*
X122784775Y-121601801D01*
X122746200Y-121795731D01*
X114312000Y-121795731D01*
X114273426Y-121601802D01*
X114197757Y-121419122D01*
X114087903Y-121254715D01*
X114087898Y-121254709D01*
X113948091Y-121114902D01*
X113948085Y-121114897D01*
X113893532Y-121078445D01*
X113783679Y-121005044D01*
X113600999Y-120929375D01*
X113407069Y-120890800D01*
X113407067Y-120890800D01*
X113209335Y-120890800D01*
X113209332Y-120890800D01*
X113015402Y-120929375D01*
X113015397Y-120929377D01*
X112832723Y-121005044D01*
X112668316Y-121114897D01*
X112668310Y-121114902D01*
X112528503Y-121254709D01*
X112528498Y-121254715D01*
X112418644Y-121419122D01*
X112418643Y-121419124D01*
X112411935Y-121435320D01*
X112367386Y-121490600D01*
X112300022Y-121513020D01*
X112295527Y-121513100D01*
X110616500Y-121513100D01*
X110548379Y-121493098D01*
X110501886Y-121439442D01*
X110490500Y-121387100D01*
X110490500Y-116620229D01*
X112304401Y-116620229D01*
X112304401Y-118168962D01*
X112304402Y-118168972D01*
X112319166Y-118243199D01*
X112375417Y-118327383D01*
X112459598Y-118383632D01*
X112459600Y-118383633D01*
X112533834Y-118398399D01*
X114082567Y-118398398D01*
X114082570Y-118398397D01*
X114082574Y-118398397D01*
X114131827Y-118388600D01*
X114156802Y-118383633D01*
X114240985Y-118327383D01*
X114297235Y-118243200D01*
X114312001Y-118168966D01*
X114312000Y-117295730D01*
X122746200Y-117295730D01*
X122746200Y-117295733D01*
X122746200Y-117493465D01*
X122784775Y-117687397D01*
X122860444Y-117870077D01*
X122933845Y-117979930D01*
X122970297Y-118034483D01*
X122970302Y-118034489D01*
X123110109Y-118174296D01*
X123110115Y-118174301D01*
X123274522Y-118284155D01*
X123457202Y-118359824D01*
X123651134Y-118398399D01*
X123651135Y-118398399D01*
X123848865Y-118398399D01*
X123848866Y-118398399D01*
X124042798Y-118359824D01*
X124225478Y-118284155D01*
X124389885Y-118174301D01*
X124529702Y-118034484D01*
X124639556Y-117870077D01*
X124715225Y-117687397D01*
X124753800Y-117493465D01*
X124753800Y-117295733D01*
X124715225Y-117101801D01*
X124639556Y-116919121D01*
X124529702Y-116754714D01*
X124529697Y-116754708D01*
X124389890Y-116614901D01*
X124389884Y-116614896D01*
X124286768Y-116545996D01*
X124225478Y-116505043D01*
X124042798Y-116429374D01*
X123848868Y-116390799D01*
X123848866Y-116390799D01*
X123651134Y-116390799D01*
X123651131Y-116390799D01*
X123457201Y-116429374D01*
X123457196Y-116429376D01*
X123274522Y-116505043D01*
X123110115Y-116614896D01*
X123110109Y-116614901D01*
X122970302Y-116754708D01*
X122970297Y-116754714D01*
X122860444Y-116919121D01*
X122784777Y-117101795D01*
X122784775Y-117101800D01*
X122746200Y-117295730D01*
X114312000Y-117295730D01*
X114312000Y-116620233D01*
X114311999Y-116620229D01*
X114311999Y-116620225D01*
X114297235Y-116545998D01*
X114240984Y-116461814D01*
X114156803Y-116405565D01*
X114082568Y-116390799D01*
X112533837Y-116390799D01*
X112533827Y-116390800D01*
X112459600Y-116405564D01*
X112375416Y-116461815D01*
X112319167Y-116545996D01*
X112304401Y-116620229D01*
X110490500Y-116620229D01*
X110490500Y-113057184D01*
X110510502Y-112989063D01*
X110564158Y-112942570D01*
X110603999Y-112932789D01*
X110603900Y-112931860D01*
X110641546Y-112927812D01*
X110667342Y-112925040D01*
X110803267Y-112874342D01*
X110919404Y-112787404D01*
X111006342Y-112671267D01*
X111057040Y-112535342D01*
X111063500Y-112475255D01*
X111063499Y-111853746D01*
X111057040Y-111793658D01*
X111006342Y-111657733D01*
X110919404Y-111541596D01*
X110803267Y-111454658D01*
X110803265Y-111454657D01*
X110803266Y-111454657D01*
X110667349Y-111403962D01*
X110667344Y-111403960D01*
X110667342Y-111403960D01*
X110637298Y-111400730D01*
X110607256Y-111397500D01*
X109610753Y-111397500D01*
X109610729Y-111397502D01*
X109550660Y-111403959D01*
X109550658Y-111403959D01*
X109414733Y-111454657D01*
X109298596Y-111541596D01*
X109211657Y-111657734D01*
X109160962Y-111793650D01*
X109160960Y-111793658D01*
X109154500Y-111853737D01*
X109154500Y-112475246D01*
X109154502Y-112475270D01*
X109160959Y-112535339D01*
X109160959Y-112535341D01*
X109211657Y-112671266D01*
X109211987Y-112671707D01*
X109298596Y-112787404D01*
X109414733Y-112874342D01*
X109550658Y-112925040D01*
X109609060Y-112931318D01*
X109610735Y-112931499D01*
X109610745Y-112931500D01*
X109614102Y-112931861D01*
X109613937Y-112933393D01*
X109675135Y-112954941D01*
X109718723Y-113010982D01*
X109727500Y-113057185D01*
X109727500Y-121387100D01*
X109707498Y-121455221D01*
X109653842Y-121501714D01*
X109601500Y-121513100D01*
X107820874Y-121513100D01*
X107752753Y-121493098D01*
X107706260Y-121439442D01*
X107704466Y-121435320D01*
X107697757Y-121419124D01*
X107697756Y-121419122D01*
X107587902Y-121254715D01*
X107587897Y-121254709D01*
X107448090Y-121114902D01*
X107448084Y-121114897D01*
X107393531Y-121078445D01*
X107283678Y-121005044D01*
X107100998Y-120929375D01*
X106907068Y-120890800D01*
X106907066Y-120890800D01*
X106709334Y-120890800D01*
X106709331Y-120890800D01*
X106515401Y-120929375D01*
X106515396Y-120929377D01*
X106332722Y-121005044D01*
X106168315Y-121114897D01*
X106168309Y-121114902D01*
X106028502Y-121254709D01*
X106028497Y-121254715D01*
X105918644Y-121419122D01*
X105842977Y-121601796D01*
X105842975Y-121601801D01*
X105804400Y-121795731D01*
X97395600Y-121795731D01*
X97357026Y-121601802D01*
X97281357Y-121419122D01*
X97171503Y-121254715D01*
X97171498Y-121254709D01*
X97031691Y-121114902D01*
X97031685Y-121114897D01*
X96977132Y-121078445D01*
X96867279Y-121005044D01*
X96684599Y-120929375D01*
X96490669Y-120890800D01*
X96490667Y-120890800D01*
X96292935Y-120890800D01*
X96292932Y-120890800D01*
X96099002Y-120929375D01*
X96098997Y-120929377D01*
X95916323Y-121005044D01*
X95751916Y-121114897D01*
X95751910Y-121114902D01*
X95612103Y-121254709D01*
X95612098Y-121254715D01*
X95502244Y-121419122D01*
X95502243Y-121419124D01*
X95495535Y-121435320D01*
X95450986Y-121490600D01*
X95383622Y-121513020D01*
X95379127Y-121513100D01*
X93725500Y-121513100D01*
X93657379Y-121493098D01*
X93610886Y-121439442D01*
X93599500Y-121387100D01*
X93599500Y-116620229D01*
X95388001Y-116620229D01*
X95388001Y-118168962D01*
X95388002Y-118168972D01*
X95402766Y-118243199D01*
X95459017Y-118327383D01*
X95543198Y-118383632D01*
X95543200Y-118383633D01*
X95617434Y-118398399D01*
X97166167Y-118398398D01*
X97166170Y-118398397D01*
X97166174Y-118398397D01*
X97215427Y-118388600D01*
X97240402Y-118383633D01*
X97324585Y-118327383D01*
X97380835Y-118243200D01*
X97395601Y-118168966D01*
X97395600Y-117295730D01*
X105804400Y-117295730D01*
X105804400Y-117295733D01*
X105804400Y-117493465D01*
X105842975Y-117687397D01*
X105918644Y-117870077D01*
X105992045Y-117979930D01*
X106028497Y-118034483D01*
X106028502Y-118034489D01*
X106168309Y-118174296D01*
X106168315Y-118174301D01*
X106332722Y-118284155D01*
X106515402Y-118359824D01*
X106709334Y-118398399D01*
X106709335Y-118398399D01*
X106907065Y-118398399D01*
X106907066Y-118398399D01*
X107100998Y-118359824D01*
X107283678Y-118284155D01*
X107448085Y-118174301D01*
X107587902Y-118034484D01*
X107697756Y-117870077D01*
X107773425Y-117687397D01*
X107812000Y-117493465D01*
X107812000Y-117295733D01*
X107773425Y-117101801D01*
X107697756Y-116919121D01*
X107587902Y-116754714D01*
X107587897Y-116754708D01*
X107448090Y-116614901D01*
X107448084Y-116614896D01*
X107344968Y-116545996D01*
X107283678Y-116505043D01*
X107100998Y-116429374D01*
X106907068Y-116390799D01*
X106907066Y-116390799D01*
X106709334Y-116390799D01*
X106709331Y-116390799D01*
X106515401Y-116429374D01*
X106515396Y-116429376D01*
X106332722Y-116505043D01*
X106168315Y-116614896D01*
X106168309Y-116614901D01*
X106028502Y-116754708D01*
X106028497Y-116754714D01*
X105918644Y-116919121D01*
X105842977Y-117101795D01*
X105842975Y-117101800D01*
X105804400Y-117295730D01*
X97395600Y-117295730D01*
X97395600Y-116620233D01*
X97395599Y-116620229D01*
X97395599Y-116620225D01*
X97380835Y-116545998D01*
X97324584Y-116461814D01*
X97240403Y-116405565D01*
X97166168Y-116390799D01*
X95617437Y-116390799D01*
X95617427Y-116390800D01*
X95543200Y-116405564D01*
X95459016Y-116461815D01*
X95402767Y-116545996D01*
X95388001Y-116620229D01*
X93599500Y-116620229D01*
X93599500Y-113057184D01*
X93619502Y-112989063D01*
X93673158Y-112942570D01*
X93712999Y-112932789D01*
X93712900Y-112931860D01*
X93750546Y-112927812D01*
X93776342Y-112925040D01*
X93912267Y-112874342D01*
X94028404Y-112787404D01*
X94115342Y-112671267D01*
X94166040Y-112535342D01*
X94172500Y-112475255D01*
X94172499Y-111853746D01*
X94166040Y-111793658D01*
X94115342Y-111657733D01*
X94028404Y-111541596D01*
X93912267Y-111454658D01*
X93912265Y-111454657D01*
X93912266Y-111454657D01*
X93776349Y-111403962D01*
X93776344Y-111403960D01*
X93776342Y-111403960D01*
X93746298Y-111400730D01*
X93716256Y-111397500D01*
X92719753Y-111397500D01*
X92719729Y-111397502D01*
X92659660Y-111403959D01*
X92659658Y-111403959D01*
X92523733Y-111454657D01*
X92407596Y-111541596D01*
X92320657Y-111657734D01*
X92269962Y-111793650D01*
X92269960Y-111793658D01*
X92263500Y-111853737D01*
X92263500Y-112475246D01*
X92263502Y-112475270D01*
X92269959Y-112535339D01*
X92269959Y-112535341D01*
X92320657Y-112671266D01*
X92320987Y-112671707D01*
X92407596Y-112787404D01*
X92523733Y-112874342D01*
X92659658Y-112925040D01*
X92718060Y-112931318D01*
X92719735Y-112931499D01*
X92719745Y-112931500D01*
X92723102Y-112931861D01*
X92722937Y-112933393D01*
X92784135Y-112954941D01*
X92827723Y-113010982D01*
X92836500Y-113057185D01*
X92836500Y-121387100D01*
X92816498Y-121455221D01*
X92762842Y-121501714D01*
X92710500Y-121513100D01*
X90904474Y-121513100D01*
X90836353Y-121493098D01*
X90789860Y-121439442D01*
X90788066Y-121435320D01*
X90781357Y-121419124D01*
X90781356Y-121419122D01*
X90671502Y-121254715D01*
X90671497Y-121254709D01*
X90531690Y-121114902D01*
X90531684Y-121114897D01*
X90477131Y-121078445D01*
X90367278Y-121005044D01*
X90184598Y-120929375D01*
X89990668Y-120890800D01*
X89990666Y-120890800D01*
X89792934Y-120890800D01*
X89792931Y-120890800D01*
X89599001Y-120929375D01*
X89598996Y-120929377D01*
X89416322Y-121005044D01*
X89251915Y-121114897D01*
X89251909Y-121114902D01*
X89112102Y-121254709D01*
X89112097Y-121254715D01*
X89002244Y-121419122D01*
X88926577Y-121601796D01*
X88926575Y-121601801D01*
X88888000Y-121795731D01*
X80453800Y-121795731D01*
X80415226Y-121601802D01*
X80339557Y-121419122D01*
X80229703Y-121254715D01*
X80229698Y-121254709D01*
X80089891Y-121114902D01*
X80089885Y-121114897D01*
X80035332Y-121078445D01*
X79925479Y-121005044D01*
X79742799Y-120929375D01*
X79548869Y-120890800D01*
X79548867Y-120890800D01*
X79351135Y-120890800D01*
X79351132Y-120890800D01*
X79157202Y-120929375D01*
X79157197Y-120929377D01*
X78974523Y-121005044D01*
X78810116Y-121114897D01*
X78810110Y-121114902D01*
X78670303Y-121254709D01*
X78670298Y-121254715D01*
X78560444Y-121419122D01*
X78560443Y-121419124D01*
X78553735Y-121435320D01*
X78509186Y-121490600D01*
X78441822Y-121513020D01*
X78437327Y-121513100D01*
X76707500Y-121513100D01*
X76639379Y-121493098D01*
X76592886Y-121439442D01*
X76581500Y-121387100D01*
X76581500Y-116620229D01*
X78446201Y-116620229D01*
X78446201Y-118168962D01*
X78446202Y-118168972D01*
X78460966Y-118243199D01*
X78517217Y-118327383D01*
X78601398Y-118383632D01*
X78601400Y-118383633D01*
X78675634Y-118398399D01*
X80224367Y-118398398D01*
X80224370Y-118398397D01*
X80224374Y-118398397D01*
X80273627Y-118388600D01*
X80298602Y-118383633D01*
X80382785Y-118327383D01*
X80439035Y-118243200D01*
X80453801Y-118168966D01*
X80453800Y-117295730D01*
X88888000Y-117295730D01*
X88888000Y-117295733D01*
X88888000Y-117493465D01*
X88926575Y-117687397D01*
X89002244Y-117870077D01*
X89075645Y-117979930D01*
X89112097Y-118034483D01*
X89112102Y-118034489D01*
X89251909Y-118174296D01*
X89251915Y-118174301D01*
X89416322Y-118284155D01*
X89599002Y-118359824D01*
X89792934Y-118398399D01*
X89792935Y-118398399D01*
X89990665Y-118398399D01*
X89990666Y-118398399D01*
X90184598Y-118359824D01*
X90367278Y-118284155D01*
X90531685Y-118174301D01*
X90671502Y-118034484D01*
X90781356Y-117870077D01*
X90857025Y-117687397D01*
X90895600Y-117493465D01*
X90895600Y-117295733D01*
X90857025Y-117101801D01*
X90781356Y-116919121D01*
X90671502Y-116754714D01*
X90671497Y-116754708D01*
X90531690Y-116614901D01*
X90531684Y-116614896D01*
X90428568Y-116545996D01*
X90367278Y-116505043D01*
X90184598Y-116429374D01*
X89990668Y-116390799D01*
X89990666Y-116390799D01*
X89792934Y-116390799D01*
X89792931Y-116390799D01*
X89599001Y-116429374D01*
X89598996Y-116429376D01*
X89416322Y-116505043D01*
X89251915Y-116614896D01*
X89251909Y-116614901D01*
X89112102Y-116754708D01*
X89112097Y-116754714D01*
X89002244Y-116919121D01*
X88926577Y-117101795D01*
X88926575Y-117101800D01*
X88888000Y-117295730D01*
X80453800Y-117295730D01*
X80453800Y-116620233D01*
X80453799Y-116620229D01*
X80453799Y-116620225D01*
X80439035Y-116545998D01*
X80382784Y-116461814D01*
X80298603Y-116405565D01*
X80224368Y-116390799D01*
X78675637Y-116390799D01*
X78675627Y-116390800D01*
X78601400Y-116405564D01*
X78517216Y-116461815D01*
X78460967Y-116545996D01*
X78446201Y-116620229D01*
X76581500Y-116620229D01*
X76581500Y-113057184D01*
X76601502Y-112989063D01*
X76655158Y-112942570D01*
X76694999Y-112932789D01*
X76694900Y-112931860D01*
X76732546Y-112927812D01*
X76758342Y-112925040D01*
X76894267Y-112874342D01*
X77010404Y-112787404D01*
X77097342Y-112671267D01*
X77148040Y-112535342D01*
X77154500Y-112475255D01*
X77154499Y-111853746D01*
X77148040Y-111793658D01*
X77097342Y-111657733D01*
X77010404Y-111541596D01*
X76894267Y-111454658D01*
X76894265Y-111454657D01*
X76894266Y-111454657D01*
X76758349Y-111403962D01*
X76758344Y-111403960D01*
X76758342Y-111403960D01*
X76728298Y-111400730D01*
X76698256Y-111397500D01*
X75701753Y-111397500D01*
X75701729Y-111397502D01*
X75641660Y-111403959D01*
X75641658Y-111403959D01*
X75505733Y-111454657D01*
X75389596Y-111541596D01*
X75302657Y-111657734D01*
X75251962Y-111793650D01*
X75251960Y-111793658D01*
X75245500Y-111853737D01*
X75245500Y-112475246D01*
X75245502Y-112475270D01*
X75251959Y-112535339D01*
X75251959Y-112535341D01*
X75302657Y-112671266D01*
X75302987Y-112671707D01*
X75389596Y-112787404D01*
X75505733Y-112874342D01*
X75641658Y-112925040D01*
X75700060Y-112931318D01*
X75701735Y-112931499D01*
X75701745Y-112931500D01*
X75705102Y-112931861D01*
X75704937Y-112933393D01*
X75766135Y-112954941D01*
X75809723Y-113010982D01*
X75818500Y-113057185D01*
X75818500Y-121387100D01*
X75798498Y-121455221D01*
X75744842Y-121501714D01*
X75692500Y-121513100D01*
X73962674Y-121513100D01*
X73894553Y-121493098D01*
X73848060Y-121439442D01*
X73846266Y-121435320D01*
X73839557Y-121419124D01*
X73839556Y-121419122D01*
X73729702Y-121254715D01*
X73729697Y-121254709D01*
X73589890Y-121114902D01*
X73589884Y-121114897D01*
X73535331Y-121078445D01*
X73425478Y-121005044D01*
X73242798Y-120929375D01*
X73048868Y-120890800D01*
X73048866Y-120890800D01*
X72851134Y-120890800D01*
X72851131Y-120890800D01*
X72657201Y-120929375D01*
X72657196Y-120929377D01*
X72474522Y-121005044D01*
X72310115Y-121114897D01*
X72310109Y-121114902D01*
X72170302Y-121254709D01*
X72170297Y-121254715D01*
X72060444Y-121419122D01*
X71984777Y-121601796D01*
X71984775Y-121601801D01*
X71946200Y-121795731D01*
X69723500Y-121795731D01*
X69723500Y-117295730D01*
X71946200Y-117295730D01*
X71946200Y-117295733D01*
X71946200Y-117493465D01*
X71984775Y-117687397D01*
X72060444Y-117870077D01*
X72133845Y-117979930D01*
X72170297Y-118034483D01*
X72170302Y-118034489D01*
X72310109Y-118174296D01*
X72310115Y-118174301D01*
X72474522Y-118284155D01*
X72657202Y-118359824D01*
X72851134Y-118398399D01*
X72851135Y-118398399D01*
X73048865Y-118398399D01*
X73048866Y-118398399D01*
X73242798Y-118359824D01*
X73425478Y-118284155D01*
X73589885Y-118174301D01*
X73729702Y-118034484D01*
X73839556Y-117870077D01*
X73915225Y-117687397D01*
X73953800Y-117493465D01*
X73953800Y-117295733D01*
X73915225Y-117101801D01*
X73839556Y-116919121D01*
X73729702Y-116754714D01*
X73729697Y-116754708D01*
X73589890Y-116614901D01*
X73589884Y-116614896D01*
X73486768Y-116545996D01*
X73425478Y-116505043D01*
X73242798Y-116429374D01*
X73048868Y-116390799D01*
X73048866Y-116390799D01*
X72851134Y-116390799D01*
X72851131Y-116390799D01*
X72657201Y-116429374D01*
X72657196Y-116429376D01*
X72474522Y-116505043D01*
X72310115Y-116614896D01*
X72310109Y-116614901D01*
X72170302Y-116754708D01*
X72170297Y-116754714D01*
X72060444Y-116919121D01*
X71984777Y-117101795D01*
X71984775Y-117101800D01*
X71946200Y-117295730D01*
X69723500Y-117295730D01*
X69723500Y-114274638D01*
X69704088Y-114227775D01*
X69668224Y-114191911D01*
X69621361Y-114172500D01*
X51053500Y-114172500D01*
X50985379Y-114152498D01*
X50938886Y-114098842D01*
X50927500Y-114046500D01*
X50927500Y-109939284D01*
X51663500Y-109939284D01*
X51663500Y-110278715D01*
X51696767Y-110616476D01*
X51696769Y-110616492D01*
X51762986Y-110949387D01*
X51766935Y-110962404D01*
X51861514Y-111274189D01*
X51861515Y-111274193D01*
X51991403Y-111587770D01*
X52151404Y-111887112D01*
X52339966Y-112169316D01*
X52339971Y-112169322D01*
X52555292Y-112431692D01*
X52555310Y-112431711D01*
X52795288Y-112671689D01*
X52795307Y-112671707D01*
X52936283Y-112787403D01*
X53057675Y-112887027D01*
X53057679Y-112887029D01*
X53057683Y-112887033D01*
X53312333Y-113057184D01*
X53339890Y-113075597D01*
X53639230Y-113235597D01*
X53952811Y-113365486D01*
X54277613Y-113464014D01*
X54610508Y-113530231D01*
X54948291Y-113563500D01*
X54948300Y-113563500D01*
X55287700Y-113563500D01*
X55287709Y-113563500D01*
X55625492Y-113530231D01*
X55958387Y-113464014D01*
X56283189Y-113365486D01*
X56596770Y-113235597D01*
X56896110Y-113075597D01*
X57178325Y-112887027D01*
X57440698Y-112671702D01*
X57680702Y-112431698D01*
X57896027Y-112169325D01*
X58084597Y-111887110D01*
X58244597Y-111587770D01*
X58374486Y-111274189D01*
X58473014Y-110949387D01*
X58539231Y-110616492D01*
X58572500Y-110278709D01*
X58572500Y-109939291D01*
X58539231Y-109601508D01*
X58473014Y-109268613D01*
X58374486Y-108943811D01*
X58244597Y-108630230D01*
X58084597Y-108330890D01*
X57986599Y-108184225D01*
X57896033Y-108048683D01*
X57896028Y-108048677D01*
X57896027Y-108048675D01*
X57793534Y-107923787D01*
X57680707Y-107786307D01*
X57680689Y-107786288D01*
X57440711Y-107546310D01*
X57440692Y-107546292D01*
X57334006Y-107458737D01*
X75220500Y-107458737D01*
X75220500Y-108055246D01*
X75220502Y-108055270D01*
X75226959Y-108115339D01*
X75226959Y-108115341D01*
X75277657Y-108251266D01*
X75277658Y-108251267D01*
X75364596Y-108367404D01*
X75480733Y-108454342D01*
X75616658Y-108505040D01*
X75676745Y-108511500D01*
X75692496Y-108511499D01*
X75760615Y-108531497D01*
X75807111Y-108585151D01*
X75818500Y-108637499D01*
X75818500Y-109446815D01*
X75798498Y-109514936D01*
X75744842Y-109561429D01*
X75705002Y-109571233D01*
X75705100Y-109572140D01*
X75641660Y-109578959D01*
X75641658Y-109578959D01*
X75505733Y-109629657D01*
X75389596Y-109716596D01*
X75302657Y-109832734D01*
X75251962Y-109968650D01*
X75251960Y-109968658D01*
X75245500Y-110028737D01*
X75245500Y-110650246D01*
X75245502Y-110650270D01*
X75251959Y-110710339D01*
X75251959Y-110710341D01*
X75302657Y-110846266D01*
X75302658Y-110846267D01*
X75389596Y-110962404D01*
X75505733Y-111049342D01*
X75641658Y-111100040D01*
X75701745Y-111106500D01*
X76698254Y-111106499D01*
X76758342Y-111100040D01*
X76894267Y-111049342D01*
X77010404Y-110962404D01*
X77097342Y-110846267D01*
X77148040Y-110710342D01*
X77154500Y-110650255D01*
X77154499Y-110028746D01*
X77148040Y-109968658D01*
X77097342Y-109832733D01*
X77010404Y-109716596D01*
X76990062Y-109701368D01*
X76947516Y-109644533D01*
X76942450Y-109573717D01*
X76976475Y-109511405D01*
X77038787Y-109477380D01*
X77065571Y-109474500D01*
X85902223Y-109474500D01*
X85902225Y-109474500D01*
X85999254Y-109448501D01*
X85999257Y-109448499D01*
X85999258Y-109448499D01*
X86046614Y-109421158D01*
X86086247Y-109398276D01*
X86157276Y-109327247D01*
X91180118Y-104304405D01*
X91242430Y-104270379D01*
X91269213Y-104267500D01*
X91797034Y-104267500D01*
X91865155Y-104287502D01*
X91911648Y-104341158D01*
X91921752Y-104411432D01*
X91918741Y-104426111D01*
X91896700Y-104508368D01*
X91896700Y-104655631D01*
X91896699Y-104655631D01*
X91934816Y-104797882D01*
X92008446Y-104925414D01*
X92008454Y-104925424D01*
X92112575Y-105029545D01*
X92112580Y-105029549D01*
X92112582Y-105029551D01*
X92240118Y-105103184D01*
X92268391Y-105110759D01*
X92329013Y-105147710D01*
X92360035Y-105211570D01*
X92351607Y-105282065D01*
X92336649Y-105307974D01*
X92295657Y-105362733D01*
X92244962Y-105498650D01*
X92244960Y-105498658D01*
X92238500Y-105558737D01*
X92238500Y-106155246D01*
X92238502Y-106155270D01*
X92244959Y-106215339D01*
X92244959Y-106215341D01*
X92295657Y-106351266D01*
X92295658Y-106351267D01*
X92382596Y-106467404D01*
X92498733Y-106554342D01*
X92634658Y-106605040D01*
X92694745Y-106611500D01*
X93741254Y-106611499D01*
X93801342Y-106605040D01*
X93937267Y-106554342D01*
X94053404Y-106467404D01*
X94140342Y-106351267D01*
X94191040Y-106215342D01*
X94197500Y-106155255D01*
X94197499Y-105558746D01*
X94191040Y-105498658D01*
X94140342Y-105362733D01*
X94099348Y-105307971D01*
X94074540Y-105241454D01*
X94089632Y-105172080D01*
X94139834Y-105121878D01*
X94167605Y-105110760D01*
X94195882Y-105103184D01*
X94323418Y-105029551D01*
X94427551Y-104925418D01*
X94501184Y-104797882D01*
X94539300Y-104655633D01*
X94539300Y-104508367D01*
X94517259Y-104426110D01*
X94518949Y-104355135D01*
X94558743Y-104296339D01*
X94624007Y-104268391D01*
X94638966Y-104267500D01*
X106978787Y-104267500D01*
X107046908Y-104287502D01*
X107093401Y-104341158D01*
X107103505Y-104411432D01*
X107074011Y-104476012D01*
X107067882Y-104482595D01*
X103002882Y-108547595D01*
X102940570Y-108581621D01*
X102913787Y-108584500D01*
X94140499Y-108584500D01*
X94072378Y-108564498D01*
X94025885Y-108510842D01*
X94015781Y-108440568D01*
X94045275Y-108375988D01*
X94051404Y-108369405D01*
X94053401Y-108367407D01*
X94053402Y-108367405D01*
X94053404Y-108367404D01*
X94140342Y-108251267D01*
X94191040Y-108115342D01*
X94197500Y-108055255D01*
X94197499Y-107458746D01*
X94191040Y-107398658D01*
X94140342Y-107262733D01*
X94053404Y-107146596D01*
X93937267Y-107059658D01*
X93937265Y-107059657D01*
X93937266Y-107059657D01*
X93801349Y-107008962D01*
X93801344Y-107008960D01*
X93801342Y-107008960D01*
X93771298Y-107005730D01*
X93741256Y-107002500D01*
X92694753Y-107002500D01*
X92694729Y-107002502D01*
X92634660Y-107008959D01*
X92634658Y-107008959D01*
X92498733Y-107059657D01*
X92382596Y-107146596D01*
X92295657Y-107262734D01*
X92244962Y-107398650D01*
X92244960Y-107398658D01*
X92238500Y-107458737D01*
X92238500Y-108055246D01*
X92238502Y-108055270D01*
X92244959Y-108115339D01*
X92244959Y-108115341D01*
X92295657Y-108251266D01*
X92295658Y-108251267D01*
X92382596Y-108367404D01*
X92498733Y-108454342D01*
X92634658Y-108505040D01*
X92694745Y-108511500D01*
X92710496Y-108511499D01*
X92778615Y-108531497D01*
X92825111Y-108585151D01*
X92836500Y-108637499D01*
X92836500Y-109446815D01*
X92816498Y-109514936D01*
X92762842Y-109561429D01*
X92723002Y-109571233D01*
X92723100Y-109572140D01*
X92659660Y-109578959D01*
X92659658Y-109578959D01*
X92523733Y-109629657D01*
X92407596Y-109716596D01*
X92320657Y-109832734D01*
X92269962Y-109968650D01*
X92269960Y-109968658D01*
X92263500Y-110028737D01*
X92263500Y-110650246D01*
X92263502Y-110650270D01*
X92269959Y-110710339D01*
X92269959Y-110710341D01*
X92320657Y-110846266D01*
X92320658Y-110846267D01*
X92407596Y-110962404D01*
X92523733Y-111049342D01*
X92659658Y-111100040D01*
X92719745Y-111106500D01*
X93716254Y-111106499D01*
X93776342Y-111100040D01*
X93912267Y-111049342D01*
X94028404Y-110962404D01*
X94115342Y-110846267D01*
X94166040Y-110710342D01*
X94172500Y-110650255D01*
X94172499Y-110028746D01*
X94166040Y-109968658D01*
X94115342Y-109832733D01*
X94028404Y-109716596D01*
X93912267Y-109629658D01*
X93912265Y-109629657D01*
X93912266Y-109629657D01*
X93810111Y-109591555D01*
X93753275Y-109549008D01*
X93728465Y-109482488D01*
X93743557Y-109413114D01*
X93793759Y-109362912D01*
X93854144Y-109347500D01*
X103174223Y-109347500D01*
X103174225Y-109347500D01*
X103271254Y-109321501D01*
X103271257Y-109321499D01*
X103271258Y-109321499D01*
X103314750Y-109296388D01*
X103358247Y-109271276D01*
X103429276Y-109200247D01*
X103446996Y-109182527D01*
X103446998Y-109182523D01*
X107973890Y-104655631D01*
X108787699Y-104655631D01*
X108825816Y-104797882D01*
X108899446Y-104925414D01*
X108899454Y-104925424D01*
X109003575Y-105029545D01*
X109003580Y-105029549D01*
X109003582Y-105029551D01*
X109131118Y-105103184D01*
X109159391Y-105110759D01*
X109220013Y-105147710D01*
X109251035Y-105211570D01*
X109242607Y-105282065D01*
X109227649Y-105307974D01*
X109186657Y-105362733D01*
X109135962Y-105498650D01*
X109135960Y-105498658D01*
X109129500Y-105558737D01*
X109129500Y-106155246D01*
X109129502Y-106155270D01*
X109135959Y-106215339D01*
X109135959Y-106215341D01*
X109186657Y-106351266D01*
X109186658Y-106351267D01*
X109273596Y-106467404D01*
X109389733Y-106554342D01*
X109525658Y-106605040D01*
X109585745Y-106611500D01*
X110632254Y-106611499D01*
X110692342Y-106605040D01*
X110828267Y-106554342D01*
X110944404Y-106467404D01*
X111031342Y-106351267D01*
X111082040Y-106215342D01*
X111088500Y-106155255D01*
X111088499Y-105558746D01*
X111082040Y-105498658D01*
X111031342Y-105362733D01*
X110990348Y-105307971D01*
X110965540Y-105241454D01*
X110980632Y-105172080D01*
X111030834Y-105121878D01*
X111058605Y-105110760D01*
X111086882Y-105103184D01*
X111214418Y-105029551D01*
X111318551Y-104925418D01*
X111392184Y-104797882D01*
X111430300Y-104655633D01*
X111430300Y-104508367D01*
X111392184Y-104366118D01*
X111335247Y-104267500D01*
X111318553Y-104238585D01*
X111318545Y-104238575D01*
X111214424Y-104134454D01*
X111214414Y-104134446D01*
X111086882Y-104060816D01*
X110944633Y-104022700D01*
X110797367Y-104022700D01*
X110702534Y-104048110D01*
X110655117Y-104060816D01*
X110527585Y-104134446D01*
X110527575Y-104134454D01*
X110498435Y-104163595D01*
X110436123Y-104197621D01*
X110409340Y-104200500D01*
X109808660Y-104200500D01*
X109740539Y-104180498D01*
X109719565Y-104163595D01*
X109690424Y-104134454D01*
X109690414Y-104134446D01*
X109562882Y-104060816D01*
X109420633Y-104022700D01*
X109273367Y-104022700D01*
X109178534Y-104048110D01*
X109131117Y-104060816D01*
X109003585Y-104134446D01*
X109003575Y-104134454D01*
X108899454Y-104238575D01*
X108899446Y-104238585D01*
X108825816Y-104366117D01*
X108787700Y-104508368D01*
X108787700Y-104655631D01*
X108787699Y-104655631D01*
X107973890Y-104655631D01*
X114103405Y-98526115D01*
X114165717Y-98492090D01*
X114236532Y-98497155D01*
X114293368Y-98539702D01*
X114318179Y-98606222D01*
X114318500Y-98615211D01*
X114318500Y-107847787D01*
X114298498Y-107915908D01*
X114281595Y-107936882D01*
X113670882Y-108547595D01*
X113608570Y-108581621D01*
X113581787Y-108584500D01*
X111031499Y-108584500D01*
X110963378Y-108564498D01*
X110916885Y-108510842D01*
X110906781Y-108440568D01*
X110936275Y-108375988D01*
X110942404Y-108369405D01*
X110944401Y-108367407D01*
X110944402Y-108367405D01*
X110944404Y-108367404D01*
X111031342Y-108251267D01*
X111082040Y-108115342D01*
X111088500Y-108055255D01*
X111088499Y-107458746D01*
X111082040Y-107398658D01*
X111031342Y-107262733D01*
X110944404Y-107146596D01*
X110828267Y-107059658D01*
X110828265Y-107059657D01*
X110828266Y-107059657D01*
X110692349Y-107008962D01*
X110692344Y-107008960D01*
X110692342Y-107008960D01*
X110662298Y-107005730D01*
X110632256Y-107002500D01*
X109585753Y-107002500D01*
X109585729Y-107002502D01*
X109525660Y-107008959D01*
X109525658Y-107008959D01*
X109389733Y-107059657D01*
X109273596Y-107146596D01*
X109186657Y-107262734D01*
X109135962Y-107398650D01*
X109135960Y-107398658D01*
X109129500Y-107458737D01*
X109129500Y-108055246D01*
X109129502Y-108055270D01*
X109135959Y-108115339D01*
X109135959Y-108115341D01*
X109186657Y-108251266D01*
X109186658Y-108251267D01*
X109273596Y-108367404D01*
X109389733Y-108454342D01*
X109525658Y-108505040D01*
X109585745Y-108511500D01*
X109601496Y-108511499D01*
X109669615Y-108531497D01*
X109716111Y-108585151D01*
X109727500Y-108637499D01*
X109727500Y-109446815D01*
X109707498Y-109514936D01*
X109653842Y-109561429D01*
X109614002Y-109571233D01*
X109614100Y-109572140D01*
X109550660Y-109578959D01*
X109550658Y-109578959D01*
X109414733Y-109629657D01*
X109298596Y-109716596D01*
X109211657Y-109832734D01*
X109160962Y-109968650D01*
X109160960Y-109968658D01*
X109154500Y-110028737D01*
X109154500Y-110650246D01*
X109154502Y-110650270D01*
X109160959Y-110710339D01*
X109160959Y-110710341D01*
X109211657Y-110846266D01*
X109211658Y-110846267D01*
X109298596Y-110962404D01*
X109414733Y-111049342D01*
X109550658Y-111100040D01*
X109610745Y-111106500D01*
X110607254Y-111106499D01*
X110667342Y-111100040D01*
X110803267Y-111049342D01*
X110919404Y-110962404D01*
X111006342Y-110846267D01*
X111057040Y-110710342D01*
X111063500Y-110650255D01*
X111063499Y-110028746D01*
X111057040Y-109968658D01*
X111006342Y-109832733D01*
X110919404Y-109716596D01*
X110803267Y-109629658D01*
X110803265Y-109629657D01*
X110803266Y-109629657D01*
X110701111Y-109591555D01*
X110644275Y-109549008D01*
X110619465Y-109482488D01*
X110634557Y-109413114D01*
X110684759Y-109362912D01*
X110745144Y-109347500D01*
X113842223Y-109347500D01*
X113842225Y-109347500D01*
X113939254Y-109321501D01*
X113939257Y-109321499D01*
X113939258Y-109321499D01*
X113982750Y-109296388D01*
X114026247Y-109271276D01*
X114097276Y-109200247D01*
X114981452Y-108316071D01*
X115003746Y-108303896D01*
X115023717Y-108288192D01*
X115034369Y-108287174D01*
X115043764Y-108282045D01*
X115069106Y-108283857D01*
X115094392Y-108281443D01*
X115103903Y-108286346D01*
X115114579Y-108287110D01*
X115134915Y-108302333D01*
X115157497Y-108313975D01*
X115167560Y-108326771D01*
X115171415Y-108329657D01*
X115179663Y-108342160D01*
X115191854Y-108363276D01*
X115191855Y-108363277D01*
X115194723Y-108368246D01*
X115194729Y-108368253D01*
X116097746Y-109271270D01*
X116097751Y-109271274D01*
X116097753Y-109271276D01*
X116184747Y-109321502D01*
X116281775Y-109347501D01*
X116281777Y-109347501D01*
X116389943Y-109347501D01*
X116389959Y-109347500D01*
X126363857Y-109347500D01*
X126431978Y-109367502D01*
X126478471Y-109421158D01*
X126488575Y-109491432D01*
X126459081Y-109556012D01*
X126407893Y-109591553D01*
X126305733Y-109629658D01*
X126305732Y-109629658D01*
X126305731Y-109629659D01*
X126189596Y-109716596D01*
X126102657Y-109832734D01*
X126051962Y-109968650D01*
X126051960Y-109968658D01*
X126045500Y-110028737D01*
X126045500Y-110650246D01*
X126045502Y-110650270D01*
X126051959Y-110710339D01*
X126051959Y-110710341D01*
X126102657Y-110846266D01*
X126102658Y-110846267D01*
X126189596Y-110962404D01*
X126305733Y-111049342D01*
X126441658Y-111100040D01*
X126501745Y-111106500D01*
X127498254Y-111106499D01*
X127558342Y-111100040D01*
X127694267Y-111049342D01*
X127810404Y-110962404D01*
X127897342Y-110846267D01*
X127948040Y-110710342D01*
X127954500Y-110650255D01*
X127954499Y-110028746D01*
X127948040Y-109968658D01*
X127937084Y-109939284D01*
X144627500Y-109939284D01*
X144627500Y-110278715D01*
X144660767Y-110616476D01*
X144660769Y-110616492D01*
X144726986Y-110949387D01*
X144730935Y-110962404D01*
X144825514Y-111274189D01*
X144825515Y-111274193D01*
X144955403Y-111587770D01*
X145115404Y-111887112D01*
X145303966Y-112169316D01*
X145303971Y-112169322D01*
X145519292Y-112431692D01*
X145519310Y-112431711D01*
X145759288Y-112671689D01*
X145759307Y-112671707D01*
X145900283Y-112787403D01*
X146021675Y-112887027D01*
X146021679Y-112887029D01*
X146021683Y-112887033D01*
X146276333Y-113057184D01*
X146303890Y-113075597D01*
X146603230Y-113235597D01*
X146916811Y-113365486D01*
X147241613Y-113464014D01*
X147574508Y-113530231D01*
X147912291Y-113563500D01*
X147912300Y-113563500D01*
X148251700Y-113563500D01*
X148251709Y-113563500D01*
X148589492Y-113530231D01*
X148922387Y-113464014D01*
X149247189Y-113365486D01*
X149560770Y-113235597D01*
X149860110Y-113075597D01*
X150142325Y-112887027D01*
X150404698Y-112671702D01*
X150644702Y-112431698D01*
X150860027Y-112169325D01*
X151048597Y-111887110D01*
X151208597Y-111587770D01*
X151338486Y-111274189D01*
X151437014Y-110949387D01*
X151503231Y-110616492D01*
X151536500Y-110278709D01*
X151536500Y-109939291D01*
X151503231Y-109601508D01*
X151437014Y-109268613D01*
X151338486Y-108943811D01*
X151208597Y-108630230D01*
X151048597Y-108330890D01*
X150950599Y-108184225D01*
X150860033Y-108048683D01*
X150860028Y-108048677D01*
X150860027Y-108048675D01*
X150757534Y-107923787D01*
X150644707Y-107786307D01*
X150644689Y-107786288D01*
X150404711Y-107546310D01*
X150404692Y-107546292D01*
X150221146Y-107395660D01*
X150142325Y-107330973D01*
X150142321Y-107330970D01*
X150142316Y-107330966D01*
X149860112Y-107142404D01*
X149560770Y-106982403D01*
X149247193Y-106852515D01*
X149247189Y-106852514D01*
X148922387Y-106753986D01*
X148922384Y-106753985D01*
X148922383Y-106753985D01*
X148589497Y-106687770D01*
X148589492Y-106687769D01*
X148589485Y-106687768D01*
X148589476Y-106687767D01*
X148251715Y-106654500D01*
X148251709Y-106654500D01*
X147912291Y-106654500D01*
X147912284Y-106654500D01*
X147574523Y-106687767D01*
X147574511Y-106687768D01*
X147574508Y-106687769D01*
X147574505Y-106687769D01*
X147574502Y-106687770D01*
X147241616Y-106753985D01*
X146916810Y-106852514D01*
X146916806Y-106852515D01*
X146603229Y-106982403D01*
X146303887Y-107142404D01*
X146021683Y-107330966D01*
X146021677Y-107330971D01*
X145759307Y-107546292D01*
X145759288Y-107546310D01*
X145519310Y-107786288D01*
X145519292Y-107786307D01*
X145303971Y-108048677D01*
X145303966Y-108048683D01*
X145115404Y-108330887D01*
X144955403Y-108630229D01*
X144825515Y-108943806D01*
X144825514Y-108943810D01*
X144726985Y-109268616D01*
X144660770Y-109601502D01*
X144660767Y-109601523D01*
X144627500Y-109939284D01*
X127937084Y-109939284D01*
X127897342Y-109832733D01*
X127810404Y-109716596D01*
X127694267Y-109629658D01*
X127694265Y-109629657D01*
X127694266Y-109629657D01*
X127558349Y-109578962D01*
X127558344Y-109578960D01*
X127558342Y-109578960D01*
X127535706Y-109576526D01*
X127494899Y-109572139D01*
X127495060Y-109570639D01*
X127433754Y-109548978D01*
X127390227Y-109492890D01*
X127381500Y-109446814D01*
X127381500Y-108637499D01*
X127401502Y-108569378D01*
X127455158Y-108522885D01*
X127507500Y-108511499D01*
X127523247Y-108511499D01*
X127523254Y-108511499D01*
X127583342Y-108505040D01*
X127719267Y-108454342D01*
X127835404Y-108367404D01*
X127922342Y-108251267D01*
X127973040Y-108115342D01*
X127979500Y-108055255D01*
X127979499Y-107458746D01*
X127973040Y-107398658D01*
X127922342Y-107262733D01*
X127835404Y-107146596D01*
X127719267Y-107059658D01*
X127719265Y-107059657D01*
X127719266Y-107059657D01*
X127583349Y-107008962D01*
X127583344Y-107008960D01*
X127583342Y-107008960D01*
X127553298Y-107005730D01*
X127523256Y-107002500D01*
X126476753Y-107002500D01*
X126476729Y-107002502D01*
X126416660Y-107008959D01*
X126416658Y-107008959D01*
X126280733Y-107059657D01*
X126164596Y-107146596D01*
X126077657Y-107262734D01*
X126026962Y-107398650D01*
X126026960Y-107398658D01*
X126020500Y-107458737D01*
X126020500Y-108055246D01*
X126020502Y-108055270D01*
X126026959Y-108115339D01*
X126026959Y-108115341D01*
X126077657Y-108251266D01*
X126164598Y-108367407D01*
X126166596Y-108369405D01*
X126167949Y-108371884D01*
X126169997Y-108374619D01*
X126169603Y-108374913D01*
X126200622Y-108431717D01*
X126195557Y-108502532D01*
X126153010Y-108559368D01*
X126086490Y-108584179D01*
X126077501Y-108584500D01*
X116542213Y-108584500D01*
X116474092Y-108564498D01*
X116453118Y-108547595D01*
X115918405Y-108012882D01*
X115884379Y-107950570D01*
X115881500Y-107923787D01*
X115881500Y-104655631D01*
X125678699Y-104655631D01*
X125716816Y-104797882D01*
X125790446Y-104925414D01*
X125790454Y-104925424D01*
X125894575Y-105029545D01*
X125894580Y-105029549D01*
X125894582Y-105029551D01*
X126022118Y-105103184D01*
X126050391Y-105110759D01*
X126111013Y-105147710D01*
X126142035Y-105211570D01*
X126133607Y-105282065D01*
X126118649Y-105307974D01*
X126077657Y-105362733D01*
X126026962Y-105498650D01*
X126026960Y-105498658D01*
X126020500Y-105558737D01*
X126020500Y-106155246D01*
X126020502Y-106155270D01*
X126026959Y-106215339D01*
X126026959Y-106215341D01*
X126077657Y-106351266D01*
X126077658Y-106351267D01*
X126164596Y-106467404D01*
X126280733Y-106554342D01*
X126416658Y-106605040D01*
X126476745Y-106611500D01*
X127523254Y-106611499D01*
X127583342Y-106605040D01*
X127719267Y-106554342D01*
X127835404Y-106467404D01*
X127922342Y-106351267D01*
X127973040Y-106215342D01*
X127979500Y-106155255D01*
X127979499Y-105558746D01*
X127973040Y-105498658D01*
X127922342Y-105362733D01*
X127881348Y-105307971D01*
X127856540Y-105241454D01*
X127871632Y-105172080D01*
X127921834Y-105121878D01*
X127949605Y-105110760D01*
X127977882Y-105103184D01*
X128105418Y-105029551D01*
X128209551Y-104925418D01*
X128283184Y-104797882D01*
X128321300Y-104655633D01*
X128321300Y-104508367D01*
X128283184Y-104366118D01*
X128226247Y-104267500D01*
X128209553Y-104238585D01*
X128209545Y-104238575D01*
X128105424Y-104134454D01*
X128105414Y-104134446D01*
X127977882Y-104060816D01*
X127835633Y-104022700D01*
X127688367Y-104022700D01*
X127593534Y-104048110D01*
X127546117Y-104060816D01*
X127418585Y-104134446D01*
X127418575Y-104134454D01*
X127389435Y-104163595D01*
X127327123Y-104197621D01*
X127300340Y-104200500D01*
X126699660Y-104200500D01*
X126631539Y-104180498D01*
X126610565Y-104163595D01*
X126581424Y-104134454D01*
X126581414Y-104134446D01*
X126453882Y-104060816D01*
X126311633Y-104022700D01*
X126164367Y-104022700D01*
X126069534Y-104048110D01*
X126022117Y-104060816D01*
X125894585Y-104134446D01*
X125894575Y-104134454D01*
X125790454Y-104238575D01*
X125790446Y-104238585D01*
X125716816Y-104366117D01*
X125678700Y-104508368D01*
X125678700Y-104655631D01*
X125678699Y-104655631D01*
X115881500Y-104655631D01*
X115881500Y-83197214D01*
X115901502Y-83129093D01*
X115955158Y-83082600D01*
X116025432Y-83072496D01*
X116090012Y-83101990D01*
X116096595Y-83108119D01*
X122193746Y-89205270D01*
X122193751Y-89205274D01*
X122193753Y-89205276D01*
X122280747Y-89255502D01*
X122377775Y-89281501D01*
X122377777Y-89281501D01*
X122485943Y-89281501D01*
X122485959Y-89281500D01*
X124253616Y-89281500D01*
X124321737Y-89301502D01*
X124342711Y-89318404D01*
X124427797Y-89403490D01*
X124533962Y-89474427D01*
X124631542Y-89514846D01*
X124651924Y-89523289D01*
X124651925Y-89523289D01*
X124651927Y-89523290D01*
X124739582Y-89540725D01*
X124802491Y-89573632D01*
X124837623Y-89635327D01*
X124841000Y-89664304D01*
X124841000Y-90170000D01*
X125346695Y-90170000D01*
X125414816Y-90190002D01*
X125461309Y-90243658D01*
X125470274Y-90271417D01*
X125487710Y-90359073D01*
X125536573Y-90477038D01*
X125536574Y-90477039D01*
X125548039Y-90494198D01*
X125569254Y-90561951D01*
X125550471Y-90630418D01*
X125497653Y-90677861D01*
X125443274Y-90690200D01*
X125402148Y-90690200D01*
X125294241Y-90711664D01*
X125257291Y-90719014D01*
X125257290Y-90719014D01*
X125257287Y-90719015D01*
X125120834Y-90775537D01*
X124998031Y-90857591D01*
X124998025Y-90857596D01*
X124893596Y-90962025D01*
X124893591Y-90962031D01*
X124811537Y-91084834D01*
X124755015Y-91221287D01*
X124726200Y-91366148D01*
X124726200Y-91366151D01*
X124726200Y-91513849D01*
X124755014Y-91658709D01*
X124811536Y-91795164D01*
X124893592Y-91917970D01*
X124998030Y-92022408D01*
X125120836Y-92104464D01*
X125257291Y-92160986D01*
X125402151Y-92189800D01*
X125402152Y-92189800D01*
X125549848Y-92189800D01*
X125549849Y-92189800D01*
X125694709Y-92160986D01*
X125831164Y-92104464D01*
X125953970Y-92022408D01*
X126058408Y-91917970D01*
X126140464Y-91795164D01*
X126196986Y-91658709D01*
X126225800Y-91513849D01*
X126225800Y-91366151D01*
X126196986Y-91221291D01*
X126140464Y-91084836D01*
X126092002Y-91012308D01*
X126070788Y-90944556D01*
X126089571Y-90876089D01*
X126142388Y-90828646D01*
X126172186Y-90818728D01*
X126174840Y-90818200D01*
X126174842Y-90818200D01*
X126300073Y-90793290D01*
X126418038Y-90744427D01*
X126524203Y-90673490D01*
X126609289Y-90588404D01*
X126636663Y-90573456D01*
X126662886Y-90556604D01*
X126669184Y-90555698D01*
X126671601Y-90554379D01*
X126698384Y-90551500D01*
X126792340Y-90551500D01*
X126860461Y-90571502D01*
X126881435Y-90588405D01*
X126910575Y-90617545D01*
X126910580Y-90617549D01*
X126910582Y-90617551D01*
X127038118Y-90691184D01*
X127180367Y-90729300D01*
X127180369Y-90729300D01*
X127327631Y-90729300D01*
X127327633Y-90729300D01*
X127469882Y-90691184D01*
X127597418Y-90617551D01*
X127701551Y-90513418D01*
X127775184Y-90385882D01*
X127813300Y-90243633D01*
X127813300Y-90096367D01*
X127775184Y-89954118D01*
X127701551Y-89826582D01*
X127701549Y-89826580D01*
X127701545Y-89826575D01*
X127597424Y-89722454D01*
X127597414Y-89722446D01*
X127462730Y-89644687D01*
X127464341Y-89641896D01*
X127420872Y-89606880D01*
X127398439Y-89539521D01*
X127415984Y-89470726D01*
X127463433Y-89426532D01*
X127462730Y-89425313D01*
X127500527Y-89403491D01*
X127597418Y-89347551D01*
X127701551Y-89243418D01*
X127775184Y-89115882D01*
X127813300Y-88973633D01*
X127813300Y-88826367D01*
X127775184Y-88684118D01*
X127701551Y-88556582D01*
X127701549Y-88556580D01*
X127701545Y-88556575D01*
X127597424Y-88452454D01*
X127597414Y-88452446D01*
X127469882Y-88378816D01*
X127327633Y-88340700D01*
X127180367Y-88340700D01*
X127085534Y-88366110D01*
X127038117Y-88378816D01*
X126910585Y-88452446D01*
X126910575Y-88452454D01*
X126881435Y-88481595D01*
X126854066Y-88496539D01*
X126827838Y-88513396D01*
X126821539Y-88514301D01*
X126819123Y-88515621D01*
X126792340Y-88518500D01*
X126698384Y-88518500D01*
X126630263Y-88498498D01*
X126609289Y-88481596D01*
X126580139Y-88452446D01*
X126524203Y-88396510D01*
X126524199Y-88396507D01*
X126524194Y-88396503D01*
X126484177Y-88369765D01*
X126438649Y-88315289D01*
X126429800Y-88244846D01*
X126460441Y-88180801D01*
X126484177Y-88160235D01*
X126524194Y-88133496D01*
X126524193Y-88133496D01*
X126524203Y-88133490D01*
X126609289Y-88048404D01*
X126671601Y-88014379D01*
X126698384Y-88011500D01*
X127177223Y-88011500D01*
X127177225Y-88011500D01*
X127274254Y-87985501D01*
X127274257Y-87985499D01*
X127274258Y-87985499D01*
X127358195Y-87937038D01*
X127361247Y-87935276D01*
X127432276Y-87864247D01*
X127449985Y-87846538D01*
X127449991Y-87846530D01*
X127858871Y-87437649D01*
X127858881Y-87437642D01*
X127940270Y-87356253D01*
X127940276Y-87356247D01*
X127990501Y-87269254D01*
X128016500Y-87172225D01*
X128016500Y-85216500D01*
X128036502Y-85148379D01*
X128090158Y-85101886D01*
X128142500Y-85090500D01*
X129004816Y-85090500D01*
X129072937Y-85110502D01*
X129119430Y-85164158D01*
X129129210Y-85203999D01*
X129130140Y-85203900D01*
X129136959Y-85267339D01*
X129136959Y-85267341D01*
X129187657Y-85403266D01*
X129198412Y-85417633D01*
X129274596Y-85519404D01*
X129390733Y-85606342D01*
X129526658Y-85657040D01*
X129586745Y-85663500D01*
X130208254Y-85663499D01*
X130268342Y-85657040D01*
X130404267Y-85606342D01*
X130520404Y-85519404D01*
X130607342Y-85403267D01*
X130658040Y-85267342D01*
X130664500Y-85207255D01*
X130664499Y-84210746D01*
X130658040Y-84150658D01*
X130607342Y-84014733D01*
X130520404Y-83898596D01*
X130404267Y-83811658D01*
X130404265Y-83811657D01*
X130404266Y-83811657D01*
X130268349Y-83760962D01*
X130268344Y-83760960D01*
X130268342Y-83760960D01*
X130238298Y-83757730D01*
X130208256Y-83754500D01*
X129586753Y-83754500D01*
X129586729Y-83754502D01*
X129526660Y-83760959D01*
X129526658Y-83760959D01*
X129390733Y-83811657D01*
X129274596Y-83898596D01*
X129187657Y-84014734D01*
X129136962Y-84150650D01*
X129136960Y-84150658D01*
X129130139Y-84214101D01*
X129128639Y-84213939D01*
X129106978Y-84275246D01*
X129050890Y-84318773D01*
X129004814Y-84327500D01*
X128142500Y-84327500D01*
X128074379Y-84307498D01*
X128027886Y-84253842D01*
X128016500Y-84201500D01*
X128016500Y-71180388D01*
X128016501Y-71180375D01*
X128016501Y-71069776D01*
X128014111Y-71060855D01*
X127990502Y-70972747D01*
X127989762Y-70971465D01*
X127940278Y-70885756D01*
X127940270Y-70885746D01*
X126218248Y-69163725D01*
X126218247Y-69163724D01*
X126204002Y-69155500D01*
X126179752Y-69141499D01*
X126131258Y-69113501D01*
X126131255Y-69113500D01*
X126131254Y-69113499D01*
X126131252Y-69113498D01*
X126131251Y-69113498D01*
X126105253Y-69106532D01*
X126034225Y-69087500D01*
X126034223Y-69087500D01*
X120095660Y-69087500D01*
X120027539Y-69067498D01*
X120023876Y-69065052D01*
X120014569Y-69058600D01*
X119977418Y-69021449D01*
X119879054Y-68964658D01*
X119874782Y-68961697D01*
X119855624Y-68937960D01*
X119834573Y-68915882D01*
X119833558Y-68910619D01*
X119830193Y-68906449D01*
X119826910Y-68876129D01*
X119821136Y-68846169D01*
X119823128Y-68841191D01*
X119822552Y-68835865D01*
X119836183Y-68808581D01*
X119847523Y-68780257D01*
X119853956Y-68773009D01*
X119854284Y-68772354D01*
X119854821Y-68772034D01*
X119857463Y-68769058D01*
X126396520Y-62230000D01*
X134366000Y-62230000D01*
X134366000Y-67945000D01*
X138684000Y-67945000D01*
X138684000Y-64014147D01*
X138704002Y-63946026D01*
X138757658Y-63899533D01*
X138827932Y-63889429D01*
X138842612Y-63892440D01*
X138849115Y-63894182D01*
X138849118Y-63894184D01*
X138991367Y-63932300D01*
X138991370Y-63932300D01*
X139138631Y-63932300D01*
X139138633Y-63932300D01*
X139280882Y-63894184D01*
X139408418Y-63820551D01*
X139512551Y-63716418D01*
X139586184Y-63588882D01*
X139624300Y-63446633D01*
X139624300Y-63299367D01*
X139586184Y-63157118D01*
X139512551Y-63029582D01*
X139512549Y-63029580D01*
X139512545Y-63029575D01*
X139408424Y-62925454D01*
X139408414Y-62925446D01*
X139280882Y-62851816D01*
X139138633Y-62813700D01*
X138991367Y-62813700D01*
X138919155Y-62833049D01*
X138842611Y-62853559D01*
X138771634Y-62851869D01*
X138712839Y-62812075D01*
X138684891Y-62746810D01*
X138684000Y-62731852D01*
X138684000Y-62230000D01*
X136016500Y-62230000D01*
X135948379Y-62209998D01*
X135901886Y-62156342D01*
X135890500Y-62104000D01*
X135890500Y-56240438D01*
X135894856Y-56225601D01*
X135894194Y-56210150D01*
X135904655Y-56192227D01*
X135910502Y-56172317D01*
X135922742Y-56161243D01*
X135929985Y-56148835D01*
X135959295Y-56128172D01*
X136087884Y-56062653D01*
X136228533Y-55960465D01*
X136351465Y-55837533D01*
X136453653Y-55696884D01*
X136532580Y-55541981D01*
X136532581Y-55541975D01*
X136532658Y-55541826D01*
X136581406Y-55490210D01*
X136650321Y-55473144D01*
X136717522Y-55496044D01*
X136761675Y-55551642D01*
X136764758Y-55560091D01*
X136790492Y-55639289D01*
X136790493Y-55639292D01*
X136887535Y-55829748D01*
X136887536Y-55829750D01*
X136925620Y-55882167D01*
X136925621Y-55882168D01*
X137564841Y-55242947D01*
X137583075Y-55310993D01*
X137648901Y-55425007D01*
X137741993Y-55518099D01*
X137856007Y-55583925D01*
X137924051Y-55602157D01*
X137284831Y-56241378D01*
X137337249Y-56279463D01*
X137337251Y-56279464D01*
X137527707Y-56376506D01*
X137527713Y-56376509D01*
X137730996Y-56442559D01*
X137942126Y-56476000D01*
X138155874Y-56476000D01*
X138367003Y-56442559D01*
X138570286Y-56376509D01*
X138570292Y-56376506D01*
X138760750Y-56279463D01*
X138813167Y-56241378D01*
X138813167Y-56241376D01*
X138173948Y-55602157D01*
X138241993Y-55583925D01*
X138356007Y-55518099D01*
X138449099Y-55425007D01*
X138514925Y-55310993D01*
X138533157Y-55242948D01*
X139172376Y-55882167D01*
X139172378Y-55882167D01*
X139210463Y-55829750D01*
X139246232Y-55759549D01*
X139294980Y-55707933D01*
X139363895Y-55690866D01*
X139431096Y-55713766D01*
X139475250Y-55769363D01*
X139484500Y-55816749D01*
X139484500Y-55993063D01*
X139484501Y-55993073D01*
X139499265Y-56067300D01*
X139555516Y-56151484D01*
X139639697Y-56207733D01*
X139639699Y-56207734D01*
X139713933Y-56222500D01*
X139891000Y-56222499D01*
X139959120Y-56242501D01*
X140005613Y-56296156D01*
X140017000Y-56348499D01*
X140017000Y-56987878D01*
X140008215Y-57017796D01*
X140001588Y-57048262D01*
X139997773Y-57053357D01*
X139996998Y-57055999D01*
X139980096Y-57076973D01*
X139917784Y-57139286D01*
X139917781Y-57139287D01*
X139811291Y-57245777D01*
X139811283Y-57245787D01*
X139735983Y-57376211D01*
X139735980Y-57376218D01*
X139697000Y-57521696D01*
X139697000Y-58383001D01*
X139676998Y-58451122D01*
X139660095Y-58472096D01*
X139658598Y-58473592D01*
X139571657Y-58589734D01*
X139520962Y-58725650D01*
X139520960Y-58725658D01*
X139514500Y-58785737D01*
X139514500Y-59832246D01*
X139514502Y-59832270D01*
X139520959Y-59892339D01*
X139520959Y-59892341D01*
X139571657Y-60028266D01*
X139571658Y-60028267D01*
X139658596Y-60144404D01*
X139774733Y-60231342D01*
X139910658Y-60282040D01*
X139970745Y-60288500D01*
X140567254Y-60288499D01*
X140627342Y-60282040D01*
X140763267Y-60231342D01*
X140879404Y-60144404D01*
X140966342Y-60028267D01*
X141017040Y-59892342D01*
X141023500Y-59832255D01*
X141023499Y-58785746D01*
X141017040Y-58725658D01*
X140966342Y-58589733D01*
X140879404Y-58473596D01*
X140879403Y-58473595D01*
X140879401Y-58473592D01*
X140877905Y-58472096D01*
X140876890Y-58470238D01*
X140874003Y-58466381D01*
X140874557Y-58465965D01*
X140843879Y-58409784D01*
X140841000Y-58383001D01*
X140841000Y-57886121D01*
X140861002Y-57818000D01*
X140877905Y-57797025D01*
X140942425Y-57732505D01*
X141046714Y-57628217D01*
X141084366Y-57563000D01*
X141122017Y-57497788D01*
X141122017Y-57497787D01*
X141122019Y-57497784D01*
X141161000Y-57352306D01*
X141161000Y-57201695D01*
X141161000Y-56348499D01*
X141181002Y-56280378D01*
X141234658Y-56233885D01*
X141287000Y-56222499D01*
X141464064Y-56222499D01*
X141464066Y-56222499D01*
X141464069Y-56222498D01*
X141464072Y-56222498D01*
X141500663Y-56215219D01*
X141538301Y-56207734D01*
X141622484Y-56151484D01*
X141678734Y-56067301D01*
X141693500Y-55993067D01*
X141693499Y-54948284D01*
X144627500Y-54948284D01*
X144627500Y-55287715D01*
X144660767Y-55625476D01*
X144660770Y-55625497D01*
X144702946Y-55837533D01*
X144726986Y-55958387D01*
X144769494Y-56098515D01*
X144825514Y-56283189D01*
X144825515Y-56283193D01*
X144955403Y-56596770D01*
X145115404Y-56896112D01*
X145303966Y-57178316D01*
X145303970Y-57178321D01*
X145303973Y-57178325D01*
X145359338Y-57245787D01*
X145519292Y-57440692D01*
X145519310Y-57440711D01*
X145759288Y-57680689D01*
X145759307Y-57680707D01*
X145901041Y-57797025D01*
X146021675Y-57896027D01*
X146021679Y-57896029D01*
X146021683Y-57896033D01*
X146303887Y-58084595D01*
X146303890Y-58084597D01*
X146603230Y-58244597D01*
X146916811Y-58374486D01*
X147241613Y-58473014D01*
X147574508Y-58539231D01*
X147912291Y-58572500D01*
X147912300Y-58572500D01*
X148251700Y-58572500D01*
X148251709Y-58572500D01*
X148589492Y-58539231D01*
X148922387Y-58473014D01*
X149247189Y-58374486D01*
X149560770Y-58244597D01*
X149860110Y-58084597D01*
X150142325Y-57896027D01*
X150404698Y-57680702D01*
X150644702Y-57440698D01*
X150860027Y-57178325D01*
X151048597Y-56896110D01*
X151208597Y-56596770D01*
X151338486Y-56283189D01*
X151437014Y-55958387D01*
X151503231Y-55625492D01*
X151536500Y-55287709D01*
X151536500Y-54948291D01*
X151503231Y-54610508D01*
X151437014Y-54277613D01*
X151338486Y-53952811D01*
X151208597Y-53639230D01*
X151048597Y-53339890D01*
X151048595Y-53339887D01*
X150860033Y-53057683D01*
X150860028Y-53057677D01*
X150860027Y-53057675D01*
X150770233Y-52948261D01*
X150644707Y-52795307D01*
X150644689Y-52795288D01*
X150404711Y-52555310D01*
X150404692Y-52555292D01*
X150221146Y-52404660D01*
X150142325Y-52339973D01*
X150142321Y-52339970D01*
X150142316Y-52339966D01*
X149860112Y-52151404D01*
X149560770Y-51991403D01*
X149247193Y-51861515D01*
X149247189Y-51861514D01*
X148922387Y-51762986D01*
X148922384Y-51762985D01*
X148922383Y-51762985D01*
X148589497Y-51696770D01*
X148589492Y-51696769D01*
X148589485Y-51696768D01*
X148589476Y-51696767D01*
X148251715Y-51663500D01*
X148251709Y-51663500D01*
X147912291Y-51663500D01*
X147912284Y-51663500D01*
X147574523Y-51696767D01*
X147574511Y-51696768D01*
X147574508Y-51696769D01*
X147574505Y-51696769D01*
X147574502Y-51696770D01*
X147241616Y-51762985D01*
X146916810Y-51861514D01*
X146916806Y-51861515D01*
X146603229Y-51991403D01*
X146303887Y-52151404D01*
X146021683Y-52339966D01*
X146021677Y-52339971D01*
X145759307Y-52555292D01*
X145759288Y-52555310D01*
X145519310Y-52795288D01*
X145519292Y-52795307D01*
X145303971Y-53057677D01*
X145303966Y-53057683D01*
X145115404Y-53339887D01*
X144955403Y-53639229D01*
X144825515Y-53952806D01*
X144825514Y-53952810D01*
X144726985Y-54277616D01*
X144660770Y-54610502D01*
X144660767Y-54610523D01*
X144627500Y-54948284D01*
X141693499Y-54948284D01*
X141693499Y-54242934D01*
X141693498Y-54242930D01*
X141693498Y-54242926D01*
X141678734Y-54168699D01*
X141629102Y-54094421D01*
X141622484Y-54084516D01*
X141556907Y-54040698D01*
X141538302Y-54028266D01*
X141464067Y-54013500D01*
X139713936Y-54013500D01*
X139713926Y-54013501D01*
X139639699Y-54028265D01*
X139555515Y-54084516D01*
X139499266Y-54168697D01*
X139484500Y-54242930D01*
X139484500Y-54419247D01*
X139464498Y-54487368D01*
X139410842Y-54533861D01*
X139340568Y-54543965D01*
X139275988Y-54514471D01*
X139246233Y-54476450D01*
X139210464Y-54406251D01*
X139210463Y-54406249D01*
X139172378Y-54353831D01*
X138533157Y-54993051D01*
X138514925Y-54925007D01*
X138449099Y-54810993D01*
X138356007Y-54717901D01*
X138241993Y-54652075D01*
X138173947Y-54633841D01*
X138813168Y-53994621D01*
X138813167Y-53994620D01*
X138760750Y-53956536D01*
X138760748Y-53956535D01*
X138570292Y-53859493D01*
X138570286Y-53859490D01*
X138367003Y-53793440D01*
X138155874Y-53760000D01*
X137942126Y-53760000D01*
X137730996Y-53793440D01*
X137527713Y-53859490D01*
X137527707Y-53859493D01*
X137337253Y-53956534D01*
X137284831Y-53994621D01*
X137284831Y-53994622D01*
X137924051Y-54633842D01*
X137856007Y-54652075D01*
X137741993Y-54717901D01*
X137648901Y-54810993D01*
X137583075Y-54925007D01*
X137564842Y-54993051D01*
X136925622Y-54353831D01*
X136925621Y-54353831D01*
X136887534Y-54406253D01*
X136790493Y-54596707D01*
X136764758Y-54675909D01*
X136724683Y-54734514D01*
X136659286Y-54762150D01*
X136589330Y-54750042D01*
X136537024Y-54702036D01*
X136532658Y-54694174D01*
X136532581Y-54694023D01*
X136532580Y-54694019D01*
X136453653Y-54539116D01*
X136357122Y-54406253D01*
X136351463Y-54398464D01*
X136228535Y-54275536D01*
X136087884Y-54173347D01*
X136051699Y-54154910D01*
X135932981Y-54094420D01*
X135932978Y-54094419D01*
X135932976Y-54094418D01*
X135767642Y-54040698D01*
X135767640Y-54040697D01*
X135767638Y-54040697D01*
X135595926Y-54013500D01*
X135422074Y-54013500D01*
X135250362Y-54040697D01*
X135250360Y-54040697D01*
X135250357Y-54040698D01*
X135085023Y-54094418D01*
X135085017Y-54094421D01*
X134930112Y-54173349D01*
X134789464Y-54275536D01*
X134666536Y-54398464D01*
X134564349Y-54539112D01*
X134485421Y-54694017D01*
X134485418Y-54694023D01*
X134431698Y-54859357D01*
X134431697Y-54859360D01*
X134431697Y-54859362D01*
X134404500Y-55031074D01*
X134404500Y-55204926D01*
X134417612Y-55287709D01*
X134431698Y-55376642D01*
X134485369Y-55541826D01*
X134485420Y-55541981D01*
X134536342Y-55641921D01*
X134564349Y-55696887D01*
X134666536Y-55837535D01*
X134789464Y-55960463D01*
X134834342Y-55993069D01*
X134930116Y-56062653D01*
X135058703Y-56128171D01*
X135110318Y-56176919D01*
X135127500Y-56240438D01*
X135127500Y-62104000D01*
X135107498Y-62172121D01*
X135053842Y-62218614D01*
X135001500Y-62230000D01*
X134366000Y-62230000D01*
X126396520Y-62230000D01*
X132445078Y-56181442D01*
X132507388Y-56147418D01*
X132573105Y-56150705D01*
X132710362Y-56195303D01*
X132882074Y-56222500D01*
X132882077Y-56222500D01*
X133055923Y-56222500D01*
X133055926Y-56222500D01*
X133227638Y-56195303D01*
X133392981Y-56141580D01*
X133547884Y-56062653D01*
X133688533Y-55960465D01*
X133811465Y-55837533D01*
X133913653Y-55696884D01*
X133992580Y-55541981D01*
X134046303Y-55376638D01*
X134073500Y-55204926D01*
X134073500Y-55031074D01*
X134046303Y-54859362D01*
X133992580Y-54694019D01*
X133913653Y-54539116D01*
X133817122Y-54406253D01*
X133811463Y-54398464D01*
X133688535Y-54275536D01*
X133547887Y-54173349D01*
X133547886Y-54173348D01*
X133547884Y-54173347D01*
X133392981Y-54094420D01*
X133392978Y-54094419D01*
X133392976Y-54094418D01*
X133227642Y-54040698D01*
X133227640Y-54040697D01*
X133227638Y-54040697D01*
X133055926Y-54013500D01*
X132882074Y-54013500D01*
X132710362Y-54040697D01*
X132710360Y-54040697D01*
X132710357Y-54040698D01*
X132545023Y-54094418D01*
X132545017Y-54094421D01*
X132390112Y-54173349D01*
X132249464Y-54275536D01*
X132126536Y-54398464D01*
X132024349Y-54539112D01*
X131945421Y-54694017D01*
X131945418Y-54694023D01*
X131891698Y-54859357D01*
X131891697Y-54859360D01*
X131891697Y-54859362D01*
X131864500Y-55031074D01*
X131864500Y-55204926D01*
X131891697Y-55376638D01*
X131932262Y-55501486D01*
X131936293Y-55513890D01*
X131938321Y-55584857D01*
X131905556Y-55641921D01*
X131025593Y-56521883D01*
X130963283Y-56555907D01*
X130892468Y-56550843D01*
X130835632Y-56508296D01*
X130810821Y-56441776D01*
X130810500Y-56432787D01*
X130810500Y-56240438D01*
X130830502Y-56172317D01*
X130879296Y-56128171D01*
X131007884Y-56062653D01*
X131148533Y-55960465D01*
X131271465Y-55837533D01*
X131373653Y-55696884D01*
X131452580Y-55541981D01*
X131506303Y-55376638D01*
X131533500Y-55204926D01*
X131533500Y-55031074D01*
X131506303Y-54859362D01*
X131452580Y-54694019D01*
X131373653Y-54539116D01*
X131277122Y-54406253D01*
X131271463Y-54398464D01*
X131148535Y-54275536D01*
X131007887Y-54173349D01*
X131007886Y-54173348D01*
X131007884Y-54173347D01*
X130852981Y-54094420D01*
X130852978Y-54094419D01*
X130852976Y-54094418D01*
X130687642Y-54040698D01*
X130687640Y-54040697D01*
X130687638Y-54040697D01*
X130515926Y-54013500D01*
X130342074Y-54013500D01*
X130170362Y-54040697D01*
X130170360Y-54040697D01*
X130170357Y-54040698D01*
X130005023Y-54094418D01*
X130005017Y-54094421D01*
X129850112Y-54173349D01*
X129709464Y-54275536D01*
X129586536Y-54398464D01*
X129484349Y-54539112D01*
X129405421Y-54694017D01*
X129405418Y-54694023D01*
X129351698Y-54859357D01*
X129351697Y-54859360D01*
X129351697Y-54859362D01*
X129324500Y-55031074D01*
X129324500Y-55204926D01*
X129337612Y-55287709D01*
X129351698Y-55376642D01*
X129405369Y-55541826D01*
X129405420Y-55541981D01*
X129456342Y-55641921D01*
X129484349Y-55696887D01*
X129586536Y-55837535D01*
X129709464Y-55960463D01*
X129754342Y-55993069D01*
X129850116Y-56062653D01*
X129978703Y-56128171D01*
X130030318Y-56176919D01*
X130047500Y-56240438D01*
X130047500Y-56685787D01*
X130027498Y-56753908D01*
X130010595Y-56774882D01*
X128485595Y-58299882D01*
X128423283Y-58333908D01*
X128352468Y-58328843D01*
X128295632Y-58286296D01*
X128270821Y-58219776D01*
X128270500Y-58210787D01*
X128270500Y-56240438D01*
X128290502Y-56172317D01*
X128339296Y-56128171D01*
X128467884Y-56062653D01*
X128608533Y-55960465D01*
X128731465Y-55837533D01*
X128833653Y-55696884D01*
X128912580Y-55541981D01*
X128966303Y-55376638D01*
X128993500Y-55204926D01*
X128993500Y-55031074D01*
X128966303Y-54859362D01*
X128912580Y-54694019D01*
X128833653Y-54539116D01*
X128737122Y-54406253D01*
X128731463Y-54398464D01*
X128608535Y-54275536D01*
X128467887Y-54173349D01*
X128467886Y-54173348D01*
X128467884Y-54173347D01*
X128312981Y-54094420D01*
X128312978Y-54094419D01*
X128312976Y-54094418D01*
X128147642Y-54040698D01*
X128147640Y-54040697D01*
X128147638Y-54040697D01*
X127975926Y-54013500D01*
X127802074Y-54013500D01*
X127630362Y-54040697D01*
X127630360Y-54040697D01*
X127630357Y-54040698D01*
X127465023Y-54094418D01*
X127465017Y-54094421D01*
X127310112Y-54173349D01*
X127169464Y-54275536D01*
X127046536Y-54398464D01*
X126944349Y-54539112D01*
X126865421Y-54694017D01*
X126865418Y-54694023D01*
X126811698Y-54859357D01*
X126811697Y-54859360D01*
X126811697Y-54859362D01*
X126784500Y-55031074D01*
X126784500Y-55204926D01*
X126797612Y-55287709D01*
X126811698Y-55376642D01*
X126865369Y-55541826D01*
X126865420Y-55541981D01*
X126916342Y-55641921D01*
X126944349Y-55696887D01*
X127046536Y-55837535D01*
X127169464Y-55960463D01*
X127214342Y-55993069D01*
X127310116Y-56062653D01*
X127438703Y-56128171D01*
X127490318Y-56176919D01*
X127507500Y-56240438D01*
X127507500Y-58463786D01*
X127487498Y-58531907D01*
X127470595Y-58552881D01*
X118555949Y-67467526D01*
X118493637Y-67501552D01*
X118422822Y-67496487D01*
X118365986Y-67453940D01*
X118357735Y-67441431D01*
X118303553Y-67347585D01*
X118303545Y-67347575D01*
X118199424Y-67243454D01*
X118199414Y-67243446D01*
X118071882Y-67169816D01*
X117929633Y-67131700D01*
X117929631Y-67131700D01*
X117888413Y-67131700D01*
X117820292Y-67111698D01*
X117799318Y-67094795D01*
X116185253Y-65480729D01*
X116185249Y-65480726D01*
X116185247Y-65480724D01*
X116157534Y-65464724D01*
X116098254Y-65430499D01*
X116001225Y-65404500D01*
X116001223Y-65404500D01*
X114738959Y-65404500D01*
X114738943Y-65404499D01*
X114731225Y-65404499D01*
X114630775Y-65404499D01*
X114582261Y-65417498D01*
X114533745Y-65430498D01*
X114446756Y-65480721D01*
X114446746Y-65480729D01*
X113696595Y-66230881D01*
X113634283Y-66264907D01*
X113563468Y-66259842D01*
X113506632Y-66217295D01*
X113481821Y-66150775D01*
X113481500Y-66141786D01*
X113481500Y-58941213D01*
X113501502Y-58873092D01*
X113518405Y-58852118D01*
X115494270Y-56876253D01*
X115494276Y-56876247D01*
X115527162Y-56819286D01*
X115544501Y-56789254D01*
X115570500Y-56692225D01*
X115570500Y-56240438D01*
X115590502Y-56172317D01*
X115639296Y-56128171D01*
X115767884Y-56062653D01*
X115908533Y-55960465D01*
X116031465Y-55837533D01*
X116133653Y-55696884D01*
X116212580Y-55541981D01*
X116266303Y-55376638D01*
X116293500Y-55204926D01*
X116293500Y-55031074D01*
X116624500Y-55031074D01*
X116624500Y-55204926D01*
X116637612Y-55287709D01*
X116651698Y-55376642D01*
X116705369Y-55541826D01*
X116705420Y-55541981D01*
X116756342Y-55641921D01*
X116784349Y-55696887D01*
X116886536Y-55837535D01*
X117009464Y-55960463D01*
X117054342Y-55993069D01*
X117150116Y-56062653D01*
X117305019Y-56141580D01*
X117470362Y-56195303D01*
X117642074Y-56222500D01*
X117642077Y-56222500D01*
X117815923Y-56222500D01*
X117815926Y-56222500D01*
X117987638Y-56195303D01*
X118152981Y-56141580D01*
X118307884Y-56062653D01*
X118448533Y-55960465D01*
X118571465Y-55837533D01*
X118673653Y-55696884D01*
X118752580Y-55541981D01*
X118806303Y-55376638D01*
X118833500Y-55204926D01*
X118833500Y-55031074D01*
X119164500Y-55031074D01*
X119164500Y-55204926D01*
X119177612Y-55287709D01*
X119191698Y-55376642D01*
X119245369Y-55541826D01*
X119245420Y-55541981D01*
X119296342Y-55641921D01*
X119324349Y-55696887D01*
X119426536Y-55837535D01*
X119549464Y-55960463D01*
X119594342Y-55993069D01*
X119690116Y-56062653D01*
X119845019Y-56141580D01*
X120010362Y-56195303D01*
X120182074Y-56222500D01*
X120182077Y-56222500D01*
X120355923Y-56222500D01*
X120355926Y-56222500D01*
X120527638Y-56195303D01*
X120692981Y-56141580D01*
X120847884Y-56062653D01*
X120988533Y-55960465D01*
X121111465Y-55837533D01*
X121213653Y-55696884D01*
X121292580Y-55541981D01*
X121346303Y-55376638D01*
X121373500Y-55204926D01*
X121373500Y-55031074D01*
X121704500Y-55031074D01*
X121704500Y-55204926D01*
X121717612Y-55287709D01*
X121731698Y-55376642D01*
X121785369Y-55541826D01*
X121785420Y-55541981D01*
X121836342Y-55641921D01*
X121864349Y-55696887D01*
X121966536Y-55837535D01*
X122089464Y-55960463D01*
X122134342Y-55993069D01*
X122230116Y-56062653D01*
X122385019Y-56141580D01*
X122550362Y-56195303D01*
X122722074Y-56222500D01*
X122722077Y-56222500D01*
X122895923Y-56222500D01*
X122895926Y-56222500D01*
X123067638Y-56195303D01*
X123232981Y-56141580D01*
X123387884Y-56062653D01*
X123528533Y-55960465D01*
X123651465Y-55837533D01*
X123753653Y-55696884D01*
X123832580Y-55541981D01*
X123886303Y-55376638D01*
X123913500Y-55204926D01*
X123913500Y-55031074D01*
X124244500Y-55031074D01*
X124244500Y-55204926D01*
X124257612Y-55287709D01*
X124271698Y-55376642D01*
X124325369Y-55541826D01*
X124325420Y-55541981D01*
X124376342Y-55641921D01*
X124404349Y-55696887D01*
X124506536Y-55837535D01*
X124629464Y-55960463D01*
X124674342Y-55993069D01*
X124770116Y-56062653D01*
X124925019Y-56141580D01*
X125090362Y-56195303D01*
X125262074Y-56222500D01*
X125262077Y-56222500D01*
X125435923Y-56222500D01*
X125435926Y-56222500D01*
X125607638Y-56195303D01*
X125772981Y-56141580D01*
X125927884Y-56062653D01*
X126068533Y-55960465D01*
X126191465Y-55837533D01*
X126293653Y-55696884D01*
X126372580Y-55541981D01*
X126426303Y-55376638D01*
X126453500Y-55204926D01*
X126453500Y-55031074D01*
X126426303Y-54859362D01*
X126372580Y-54694019D01*
X126293653Y-54539116D01*
X126197122Y-54406253D01*
X126191463Y-54398464D01*
X126068535Y-54275536D01*
X125927887Y-54173349D01*
X125927886Y-54173348D01*
X125927884Y-54173347D01*
X125772981Y-54094420D01*
X125772978Y-54094419D01*
X125772976Y-54094418D01*
X125607642Y-54040698D01*
X125607640Y-54040697D01*
X125607638Y-54040697D01*
X125435926Y-54013500D01*
X125262074Y-54013500D01*
X125090362Y-54040697D01*
X125090360Y-54040697D01*
X125090357Y-54040698D01*
X124925023Y-54094418D01*
X124925017Y-54094421D01*
X124770112Y-54173349D01*
X124629464Y-54275536D01*
X124506536Y-54398464D01*
X124404349Y-54539112D01*
X124325421Y-54694017D01*
X124325418Y-54694023D01*
X124271698Y-54859357D01*
X124271697Y-54859360D01*
X124271697Y-54859362D01*
X124244500Y-55031074D01*
X123913500Y-55031074D01*
X123886303Y-54859362D01*
X123832580Y-54694019D01*
X123753653Y-54539116D01*
X123657122Y-54406253D01*
X123651463Y-54398464D01*
X123528535Y-54275536D01*
X123387887Y-54173349D01*
X123387886Y-54173348D01*
X123387884Y-54173347D01*
X123232981Y-54094420D01*
X123232978Y-54094419D01*
X123232976Y-54094418D01*
X123067642Y-54040698D01*
X123067640Y-54040697D01*
X123067638Y-54040697D01*
X122895926Y-54013500D01*
X122722074Y-54013500D01*
X122550362Y-54040697D01*
X122550360Y-54040697D01*
X122550357Y-54040698D01*
X122385023Y-54094418D01*
X122385017Y-54094421D01*
X122230112Y-54173349D01*
X122089464Y-54275536D01*
X121966536Y-54398464D01*
X121864349Y-54539112D01*
X121785421Y-54694017D01*
X121785418Y-54694023D01*
X121731698Y-54859357D01*
X121731697Y-54859360D01*
X121731697Y-54859362D01*
X121704500Y-55031074D01*
X121373500Y-55031074D01*
X121346303Y-54859362D01*
X121292580Y-54694019D01*
X121213653Y-54539116D01*
X121117122Y-54406253D01*
X121111463Y-54398464D01*
X120988535Y-54275536D01*
X120847887Y-54173349D01*
X120847886Y-54173348D01*
X120847884Y-54173347D01*
X120692981Y-54094420D01*
X120692978Y-54094419D01*
X120692976Y-54094418D01*
X120527642Y-54040698D01*
X120527640Y-54040697D01*
X120527638Y-54040697D01*
X120355926Y-54013500D01*
X120182074Y-54013500D01*
X120010362Y-54040697D01*
X120010360Y-54040697D01*
X120010357Y-54040698D01*
X119845023Y-54094418D01*
X119845017Y-54094421D01*
X119690112Y-54173349D01*
X119549464Y-54275536D01*
X119426536Y-54398464D01*
X119324349Y-54539112D01*
X119245421Y-54694017D01*
X119245418Y-54694023D01*
X119191698Y-54859357D01*
X119191697Y-54859360D01*
X119191697Y-54859362D01*
X119164500Y-55031074D01*
X118833500Y-55031074D01*
X118806303Y-54859362D01*
X118752580Y-54694019D01*
X118673653Y-54539116D01*
X118577122Y-54406253D01*
X118571463Y-54398464D01*
X118448535Y-54275536D01*
X118307887Y-54173349D01*
X118307886Y-54173348D01*
X118307884Y-54173347D01*
X118152981Y-54094420D01*
X118152978Y-54094419D01*
X118152976Y-54094418D01*
X117987642Y-54040698D01*
X117987640Y-54040697D01*
X117987638Y-54040697D01*
X117815926Y-54013500D01*
X117642074Y-54013500D01*
X117470362Y-54040697D01*
X117470360Y-54040697D01*
X117470357Y-54040698D01*
X117305023Y-54094418D01*
X117305017Y-54094421D01*
X117150112Y-54173349D01*
X117009464Y-54275536D01*
X116886536Y-54398464D01*
X116784349Y-54539112D01*
X116705421Y-54694017D01*
X116705418Y-54694023D01*
X116651698Y-54859357D01*
X116651697Y-54859360D01*
X116651697Y-54859362D01*
X116624500Y-55031074D01*
X116293500Y-55031074D01*
X116266303Y-54859362D01*
X116212580Y-54694019D01*
X116133653Y-54539116D01*
X116037122Y-54406253D01*
X116031463Y-54398464D01*
X115908535Y-54275536D01*
X115767887Y-54173349D01*
X115767886Y-54173348D01*
X115767884Y-54173347D01*
X115612981Y-54094420D01*
X115612978Y-54094419D01*
X115612976Y-54094418D01*
X115447642Y-54040698D01*
X115447640Y-54040697D01*
X115447638Y-54040697D01*
X115275926Y-54013500D01*
X115102074Y-54013500D01*
X114930362Y-54040697D01*
X114930360Y-54040697D01*
X114930357Y-54040698D01*
X114765023Y-54094418D01*
X114765017Y-54094421D01*
X114610112Y-54173349D01*
X114469464Y-54275536D01*
X114346536Y-54398464D01*
X114244349Y-54539112D01*
X114165421Y-54694017D01*
X114165418Y-54694023D01*
X114111698Y-54859357D01*
X114111697Y-54859360D01*
X114111697Y-54859362D01*
X114084500Y-55031074D01*
X114084500Y-55204926D01*
X114097612Y-55287709D01*
X114111698Y-55376642D01*
X114165369Y-55541826D01*
X114165420Y-55541981D01*
X114216342Y-55641921D01*
X114244349Y-55696887D01*
X114346536Y-55837535D01*
X114469464Y-55960463D01*
X114514342Y-55993069D01*
X114610116Y-56062653D01*
X114738703Y-56128171D01*
X114749947Y-56138790D01*
X114764012Y-56145214D01*
X114775229Y-56162668D01*
X114790318Y-56176919D01*
X114794628Y-56192853D01*
X114802396Y-56204940D01*
X114807500Y-56240438D01*
X114807500Y-56431787D01*
X114787498Y-56499908D01*
X114770595Y-56520882D01*
X112896595Y-58394882D01*
X112834283Y-58428908D01*
X112763468Y-58423843D01*
X112706632Y-58381296D01*
X112681821Y-58314776D01*
X112681500Y-58305787D01*
X112681500Y-57201212D01*
X112701502Y-57133091D01*
X112718399Y-57112122D01*
X112876068Y-56954453D01*
X112876075Y-56954448D01*
X112954270Y-56876253D01*
X112954276Y-56876247D01*
X113004501Y-56789254D01*
X113004502Y-56789253D01*
X113030501Y-56692225D01*
X113030501Y-56591775D01*
X113030501Y-56584058D01*
X113030500Y-56584040D01*
X113030500Y-56240438D01*
X113050502Y-56172317D01*
X113099296Y-56128171D01*
X113227884Y-56062653D01*
X113368533Y-55960465D01*
X113491465Y-55837533D01*
X113593653Y-55696884D01*
X113672580Y-55541981D01*
X113726303Y-55376638D01*
X113753500Y-55204926D01*
X113753500Y-55031074D01*
X113726303Y-54859362D01*
X113672580Y-54694019D01*
X113593653Y-54539116D01*
X113497122Y-54406253D01*
X113491463Y-54398464D01*
X113368535Y-54275536D01*
X113227887Y-54173349D01*
X113227886Y-54173348D01*
X113227884Y-54173347D01*
X113072981Y-54094420D01*
X113072978Y-54094419D01*
X113072976Y-54094418D01*
X112907642Y-54040698D01*
X112907640Y-54040697D01*
X112907638Y-54040697D01*
X112735926Y-54013500D01*
X112562074Y-54013500D01*
X112390362Y-54040697D01*
X112390360Y-54040697D01*
X112390357Y-54040698D01*
X112225023Y-54094418D01*
X112225017Y-54094421D01*
X112070112Y-54173349D01*
X111929464Y-54275536D01*
X111806536Y-54398464D01*
X111704349Y-54539112D01*
X111625421Y-54694017D01*
X111625418Y-54694023D01*
X111571698Y-54859357D01*
X111571697Y-54859360D01*
X111571697Y-54859362D01*
X111544500Y-55031074D01*
X111544500Y-55204926D01*
X111557612Y-55287709D01*
X111571698Y-55376642D01*
X111625369Y-55541826D01*
X111625420Y-55541981D01*
X111676342Y-55641921D01*
X111704349Y-55696887D01*
X111806536Y-55837535D01*
X111929464Y-55960463D01*
X111974342Y-55993069D01*
X112070116Y-56062653D01*
X112198703Y-56128171D01*
X112209947Y-56138790D01*
X112224012Y-56145214D01*
X112235229Y-56162668D01*
X112250318Y-56176919D01*
X112254628Y-56192853D01*
X112262396Y-56204940D01*
X112267500Y-56240438D01*
X112267500Y-56431785D01*
X112247498Y-56499906D01*
X112230595Y-56520880D01*
X112048030Y-56703445D01*
X112048028Y-56703448D01*
X111994729Y-56756746D01*
X111994721Y-56756756D01*
X111944500Y-56843741D01*
X111918500Y-56940776D01*
X111918500Y-57607787D01*
X111898498Y-57675908D01*
X111844842Y-57722401D01*
X111774568Y-57732505D01*
X111709988Y-57703011D01*
X111703405Y-57696882D01*
X110527405Y-56520882D01*
X110512460Y-56493513D01*
X110495604Y-56467285D01*
X110494698Y-56460986D01*
X110493379Y-56458570D01*
X110490500Y-56431787D01*
X110490500Y-56240438D01*
X110510502Y-56172317D01*
X110559296Y-56128171D01*
X110687884Y-56062653D01*
X110828533Y-55960465D01*
X110951465Y-55837533D01*
X111053653Y-55696884D01*
X111132580Y-55541981D01*
X111186303Y-55376638D01*
X111213500Y-55204926D01*
X111213500Y-55031074D01*
X111186303Y-54859362D01*
X111132580Y-54694019D01*
X111053653Y-54539116D01*
X110957122Y-54406253D01*
X110951463Y-54398464D01*
X110828535Y-54275536D01*
X110687887Y-54173349D01*
X110687886Y-54173348D01*
X110687884Y-54173347D01*
X110532981Y-54094420D01*
X110532978Y-54094419D01*
X110532976Y-54094418D01*
X110367642Y-54040698D01*
X110367640Y-54040697D01*
X110367638Y-54040697D01*
X110195926Y-54013500D01*
X110022074Y-54013500D01*
X109850362Y-54040697D01*
X109850360Y-54040697D01*
X109850357Y-54040698D01*
X109685023Y-54094418D01*
X109685017Y-54094421D01*
X109530112Y-54173349D01*
X109389464Y-54275536D01*
X109266536Y-54398464D01*
X109164349Y-54539112D01*
X109085421Y-54694017D01*
X109085418Y-54694023D01*
X109031698Y-54859357D01*
X109031697Y-54859360D01*
X109031697Y-54859362D01*
X109004500Y-55031074D01*
X109004500Y-55204926D01*
X109017612Y-55287709D01*
X109031698Y-55376642D01*
X109085369Y-55541826D01*
X109085420Y-55541981D01*
X109136342Y-55641921D01*
X109164349Y-55696887D01*
X109266536Y-55837535D01*
X109389464Y-55960463D01*
X109434342Y-55993069D01*
X109530116Y-56062653D01*
X109658703Y-56128171D01*
X109710318Y-56176919D01*
X109727500Y-56240438D01*
X109727500Y-56692223D01*
X109727499Y-56692223D01*
X109753498Y-56789251D01*
X109753501Y-56789258D01*
X109770837Y-56819284D01*
X109770837Y-56819285D01*
X109803721Y-56876243D01*
X109803729Y-56876253D01*
X111081595Y-58154118D01*
X111115620Y-58216430D01*
X111118500Y-58243213D01*
X111118500Y-59347787D01*
X111098498Y-59415908D01*
X111044842Y-59462401D01*
X110974568Y-59472505D01*
X110909988Y-59443011D01*
X110903405Y-59436882D01*
X107987405Y-56520882D01*
X107972460Y-56493513D01*
X107955604Y-56467285D01*
X107954698Y-56460986D01*
X107953379Y-56458570D01*
X107950500Y-56431787D01*
X107950500Y-56240438D01*
X107970502Y-56172317D01*
X108019296Y-56128171D01*
X108147884Y-56062653D01*
X108288533Y-55960465D01*
X108411465Y-55837533D01*
X108513653Y-55696884D01*
X108592580Y-55541981D01*
X108646303Y-55376638D01*
X108673500Y-55204926D01*
X108673500Y-55031074D01*
X108646303Y-54859362D01*
X108592580Y-54694019D01*
X108513653Y-54539116D01*
X108417122Y-54406253D01*
X108411463Y-54398464D01*
X108288535Y-54275536D01*
X108147887Y-54173349D01*
X108147886Y-54173348D01*
X108147884Y-54173347D01*
X107992981Y-54094420D01*
X107992978Y-54094419D01*
X107992976Y-54094418D01*
X107827642Y-54040698D01*
X107827640Y-54040697D01*
X107827638Y-54040697D01*
X107655926Y-54013500D01*
X107482074Y-54013500D01*
X107310362Y-54040697D01*
X107310360Y-54040697D01*
X107310357Y-54040698D01*
X107145023Y-54094418D01*
X107145017Y-54094421D01*
X106990112Y-54173349D01*
X106849464Y-54275536D01*
X106726536Y-54398464D01*
X106624348Y-54539113D01*
X106545341Y-54694174D01*
X106496592Y-54745789D01*
X106427678Y-54762855D01*
X106360476Y-54739954D01*
X106316324Y-54684356D01*
X106313241Y-54675908D01*
X106287507Y-54596709D01*
X106287506Y-54596707D01*
X106190464Y-54406251D01*
X106190463Y-54406249D01*
X106152378Y-54353831D01*
X105513157Y-54993051D01*
X105494925Y-54925007D01*
X105429099Y-54810993D01*
X105336007Y-54717901D01*
X105221993Y-54652075D01*
X105153947Y-54633841D01*
X105793168Y-53994621D01*
X105793167Y-53994620D01*
X105740750Y-53956536D01*
X105740748Y-53956535D01*
X105550292Y-53859493D01*
X105550286Y-53859490D01*
X105347003Y-53793440D01*
X105135874Y-53760000D01*
X104922126Y-53760000D01*
X104710996Y-53793440D01*
X104507713Y-53859490D01*
X104507707Y-53859493D01*
X104317253Y-53956534D01*
X104264831Y-53994621D01*
X104264831Y-53994622D01*
X104904051Y-54633842D01*
X104836007Y-54652075D01*
X104721993Y-54717901D01*
X104628901Y-54810993D01*
X104563075Y-54925007D01*
X104544842Y-54993051D01*
X103905622Y-54353831D01*
X103905621Y-54353831D01*
X103867534Y-54406253D01*
X103770493Y-54596707D01*
X103744758Y-54675909D01*
X103704683Y-54734514D01*
X103639286Y-54762150D01*
X103569330Y-54750042D01*
X103517024Y-54702036D01*
X103512658Y-54694174D01*
X103512581Y-54694023D01*
X103512580Y-54694019D01*
X103433653Y-54539116D01*
X103337122Y-54406253D01*
X103331463Y-54398464D01*
X103208535Y-54275536D01*
X103067884Y-54173347D01*
X103031699Y-54154910D01*
X102912981Y-54094420D01*
X102912978Y-54094419D01*
X102912976Y-54094418D01*
X102747642Y-54040698D01*
X102747640Y-54040697D01*
X102747638Y-54040697D01*
X102575926Y-54013500D01*
X102402074Y-54013500D01*
X102230362Y-54040697D01*
X102230360Y-54040697D01*
X102230357Y-54040698D01*
X102065023Y-54094418D01*
X102065017Y-54094421D01*
X101910112Y-54173349D01*
X101769464Y-54275536D01*
X101646536Y-54398464D01*
X101544349Y-54539112D01*
X101465421Y-54694017D01*
X101465418Y-54694023D01*
X101411698Y-54859357D01*
X101411697Y-54859360D01*
X101411697Y-54859362D01*
X101384500Y-55031074D01*
X101384500Y-55204926D01*
X101397612Y-55287709D01*
X101411698Y-55376642D01*
X101465369Y-55541826D01*
X101465420Y-55541981D01*
X101516342Y-55641921D01*
X101544349Y-55696887D01*
X101646536Y-55837535D01*
X101769464Y-55960463D01*
X101769467Y-55960465D01*
X101910116Y-56062653D01*
X101911696Y-56063458D01*
X101912189Y-56063923D01*
X101914339Y-56065241D01*
X101914062Y-56065692D01*
X101963313Y-56112200D01*
X101980500Y-56175728D01*
X101980500Y-60106357D01*
X101966767Y-60163559D01*
X101949501Y-60197444D01*
X101934500Y-60292167D01*
X101934500Y-61530832D01*
X101949501Y-61625556D01*
X101950948Y-61628395D01*
X101951665Y-61632214D01*
X101952565Y-61634984D01*
X101952206Y-61635100D01*
X101964049Y-61698173D01*
X101937346Y-61763956D01*
X101879317Y-61804860D01*
X101818970Y-61810042D01*
X101735934Y-61796891D01*
X101720834Y-61794500D01*
X101357166Y-61794500D01*
X101331266Y-61798602D01*
X101262446Y-61809501D01*
X101148276Y-61867673D01*
X101057673Y-61958276D01*
X100999501Y-62072446D01*
X100984500Y-62167167D01*
X100984500Y-63405832D01*
X100999501Y-63500553D01*
X101057673Y-63614723D01*
X101120595Y-63677645D01*
X101154621Y-63739957D01*
X101157500Y-63766740D01*
X101157500Y-63997223D01*
X101157499Y-63997223D01*
X101180677Y-64083724D01*
X101183499Y-64094254D01*
X101218428Y-64154753D01*
X101233724Y-64181247D01*
X101233727Y-64181250D01*
X101671318Y-64618840D01*
X101671339Y-64618863D01*
X101746746Y-64694270D01*
X101746751Y-64694274D01*
X101746753Y-64694276D01*
X101746754Y-64694277D01*
X101746756Y-64694278D01*
X101833741Y-64744499D01*
X101833743Y-64744499D01*
X101833746Y-64744501D01*
X101930775Y-64770500D01*
X108501787Y-64770500D01*
X108569908Y-64790502D01*
X108590882Y-64807405D01*
X109817595Y-66034117D01*
X109851620Y-66096429D01*
X109854500Y-66123212D01*
X109854500Y-69893787D01*
X109834498Y-69961908D01*
X109817595Y-69982882D01*
X108223753Y-71576724D01*
X108188239Y-71612238D01*
X108152725Y-71647751D01*
X108152721Y-71647756D01*
X108102500Y-71734741D01*
X108076500Y-71831776D01*
X108076500Y-73710223D01*
X108076499Y-73710223D01*
X108076500Y-73710225D01*
X108102499Y-73807254D01*
X108134524Y-73862723D01*
X108134524Y-73862725D01*
X108152721Y-73894243D01*
X108152723Y-73894245D01*
X108152724Y-73894247D01*
X108438724Y-74180247D01*
X108509753Y-74251276D01*
X108509754Y-74251277D01*
X108509756Y-74251278D01*
X108596741Y-74301499D01*
X108596743Y-74301499D01*
X108596746Y-74301501D01*
X108693775Y-74327500D01*
X108794225Y-74327500D01*
X109038068Y-74327500D01*
X109106189Y-74347502D01*
X109152682Y-74401158D01*
X109162786Y-74471432D01*
X109161338Y-74477656D01*
X109160039Y-74485853D01*
X109160039Y-74485855D01*
X109153029Y-74530118D01*
X109145500Y-74577654D01*
X109145500Y-74914346D01*
X109160038Y-75006144D01*
X109208132Y-75100533D01*
X109216412Y-75116784D01*
X109304216Y-75204588D01*
X109414855Y-75260961D01*
X109506651Y-75275500D01*
X110768348Y-75275499D01*
X110860145Y-75260961D01*
X110954404Y-75212933D01*
X111024180Y-75199830D01*
X111074605Y-75216081D01*
X111163118Y-75267184D01*
X111305367Y-75305300D01*
X111305369Y-75305300D01*
X111452631Y-75305300D01*
X111452633Y-75305300D01*
X111594882Y-75267184D01*
X111722418Y-75193551D01*
X111826551Y-75089418D01*
X111900184Y-74961882D01*
X111938300Y-74819633D01*
X111938300Y-74672367D01*
X111900184Y-74530118D01*
X111826551Y-74402582D01*
X111826549Y-74402580D01*
X111826545Y-74402575D01*
X111722424Y-74298454D01*
X111722414Y-74298446D01*
X111594882Y-74224816D01*
X111540428Y-74210225D01*
X111452633Y-74186700D01*
X111305367Y-74186700D01*
X111305363Y-74186700D01*
X111288108Y-74191324D01*
X111217132Y-74189633D01*
X111158337Y-74149838D01*
X111130390Y-74084574D01*
X111129499Y-74069631D01*
X111129499Y-73777652D01*
X111114961Y-73685855D01*
X111072846Y-73603199D01*
X111059743Y-73533427D01*
X111072847Y-73488798D01*
X111114961Y-73406145D01*
X111129500Y-73314349D01*
X111129499Y-72977652D01*
X111120209Y-72918990D01*
X111118586Y-72908742D01*
X111127687Y-72838331D01*
X111173410Y-72784018D01*
X111241238Y-72763047D01*
X111262738Y-72764585D01*
X111331651Y-72775500D01*
X111668348Y-72775499D01*
X111760145Y-72760961D01*
X111842800Y-72718846D01*
X111912573Y-72705743D01*
X111957198Y-72718845D01*
X112039855Y-72760961D01*
X112131651Y-72775500D01*
X112468348Y-72775499D01*
X112560145Y-72760961D01*
X112642800Y-72718846D01*
X112712573Y-72705743D01*
X112757198Y-72718845D01*
X112839855Y-72760961D01*
X112931651Y-72775500D01*
X113268348Y-72775499D01*
X113360145Y-72760961D01*
X113442800Y-72718846D01*
X113512573Y-72705743D01*
X113557198Y-72718845D01*
X113639855Y-72760961D01*
X113731651Y-72775500D01*
X114068348Y-72775499D01*
X114160145Y-72760961D01*
X114242800Y-72718846D01*
X114312573Y-72705743D01*
X114357198Y-72718845D01*
X114439855Y-72760961D01*
X114531651Y-72775500D01*
X114868348Y-72775499D01*
X114960145Y-72760961D01*
X115042800Y-72718846D01*
X115112573Y-72705743D01*
X115157198Y-72718845D01*
X115239855Y-72760961D01*
X115331651Y-72775500D01*
X115668348Y-72775499D01*
X115760145Y-72760961D01*
X115842800Y-72718846D01*
X115912573Y-72705743D01*
X115957198Y-72718845D01*
X116039855Y-72760961D01*
X116131651Y-72775500D01*
X116468348Y-72775499D01*
X116560145Y-72760961D01*
X116642800Y-72718846D01*
X116712573Y-72705743D01*
X116757198Y-72718845D01*
X116839855Y-72760961D01*
X116931651Y-72775500D01*
X117268348Y-72775499D01*
X117337256Y-72764586D01*
X117407667Y-72773687D01*
X117461981Y-72819409D01*
X117482952Y-72887238D01*
X117481414Y-72908739D01*
X117479791Y-72918991D01*
X117470500Y-72977654D01*
X117470500Y-73314346D01*
X117485038Y-73406145D01*
X117527152Y-73488798D01*
X117540256Y-73558574D01*
X117527152Y-73603202D01*
X117485040Y-73685851D01*
X117485039Y-73685853D01*
X117485039Y-73685855D01*
X117470630Y-73776834D01*
X117470500Y-73777654D01*
X117470500Y-74114346D01*
X117485038Y-74206145D01*
X117527152Y-74288798D01*
X117540256Y-74358574D01*
X117527152Y-74403202D01*
X117485040Y-74485851D01*
X117485039Y-74485853D01*
X117485039Y-74485855D01*
X117478029Y-74530118D01*
X117470500Y-74577654D01*
X117470500Y-74864526D01*
X117450498Y-74932647D01*
X117396842Y-74979140D01*
X117326568Y-74989244D01*
X117315127Y-74986896D01*
X117313634Y-74986700D01*
X117313633Y-74986700D01*
X117166367Y-74986700D01*
X117080408Y-75009733D01*
X117024117Y-75024816D01*
X116896585Y-75098446D01*
X116896575Y-75098454D01*
X116792454Y-75202575D01*
X116792446Y-75202585D01*
X116718816Y-75330117D01*
X116680700Y-75472368D01*
X116680700Y-75619631D01*
X116680699Y-75619631D01*
X116718816Y-75761882D01*
X116792446Y-75889414D01*
X116792454Y-75889424D01*
X116896575Y-75993545D01*
X116896580Y-75993549D01*
X116896582Y-75993551D01*
X116896583Y-75993552D01*
X116896585Y-75993553D01*
X116904750Y-75998267D01*
X117024118Y-76067184D01*
X117166367Y-76105300D01*
X117166369Y-76105300D01*
X117313632Y-76105300D01*
X117313633Y-76105300D01*
X117313633Y-76105299D01*
X117321819Y-76104222D01*
X117322054Y-76106011D01*
X117382850Y-76107451D01*
X117441651Y-76147237D01*
X117469607Y-76212498D01*
X117470500Y-76227473D01*
X117470500Y-76514346D01*
X117485038Y-76606145D01*
X117527152Y-76688798D01*
X117540256Y-76758574D01*
X117527152Y-76803202D01*
X117485040Y-76885851D01*
X117485039Y-76885853D01*
X117485039Y-76885855D01*
X117474205Y-76954262D01*
X117470500Y-76977654D01*
X117470500Y-77314346D01*
X117485038Y-77406144D01*
X117519787Y-77474342D01*
X117541412Y-77516784D01*
X117629216Y-77604588D01*
X117739855Y-77660961D01*
X117831651Y-77675500D01*
X119093348Y-77675499D01*
X119185145Y-77660961D01*
X119295784Y-77604588D01*
X119383588Y-77516784D01*
X119439961Y-77406145D01*
X119454500Y-77314349D01*
X119454499Y-76977652D01*
X119439961Y-76885855D01*
X119397846Y-76803199D01*
X119384743Y-76733427D01*
X119397847Y-76688798D01*
X119439961Y-76606145D01*
X119454500Y-76514349D01*
X119454499Y-76180499D01*
X119457090Y-76171674D01*
X119455781Y-76162568D01*
X119466936Y-76138141D01*
X119474501Y-76112380D01*
X119481453Y-76106355D01*
X119485275Y-76097988D01*
X119507862Y-76083471D01*
X119528156Y-76065887D01*
X119538841Y-76063562D01*
X119545001Y-76059604D01*
X119580499Y-76054500D01*
X119762433Y-76054500D01*
X119810651Y-76064091D01*
X119818116Y-76067183D01*
X119818118Y-76067184D01*
X119960367Y-76105300D01*
X119960369Y-76105300D01*
X120107631Y-76105300D01*
X120107633Y-76105300D01*
X120249882Y-76067184D01*
X120249885Y-76067181D01*
X120257349Y-76064091D01*
X120305567Y-76054500D01*
X120651433Y-76054500D01*
X120699651Y-76064091D01*
X120707116Y-76067183D01*
X120707118Y-76067184D01*
X120849367Y-76105300D01*
X120849369Y-76105300D01*
X120996631Y-76105300D01*
X120996633Y-76105300D01*
X121138882Y-76067184D01*
X121138885Y-76067181D01*
X121146349Y-76064091D01*
X121154659Y-76062438D01*
X121159069Y-76059604D01*
X121194567Y-76054500D01*
X121357681Y-76054500D01*
X121425802Y-76074502D01*
X121458548Y-76104989D01*
X121465596Y-76114404D01*
X121581733Y-76201342D01*
X121717658Y-76252040D01*
X121777745Y-76258500D01*
X122824254Y-76258499D01*
X122884342Y-76252040D01*
X123020267Y-76201342D01*
X123136404Y-76114404D01*
X123223342Y-75998267D01*
X123274040Y-75862342D01*
X123280500Y-75802255D01*
X123280499Y-75205746D01*
X123274040Y-75145658D01*
X123257208Y-75100532D01*
X123252143Y-75029718D01*
X123286168Y-74967405D01*
X123348480Y-74933380D01*
X123375264Y-74930500D01*
X125780223Y-74930500D01*
X125780225Y-74930500D01*
X125877254Y-74904501D01*
X125877257Y-74904499D01*
X125877258Y-74904499D01*
X125946493Y-74864526D01*
X125964247Y-74854276D01*
X126035276Y-74783247D01*
X126052996Y-74765527D01*
X126052998Y-74765524D01*
X126338064Y-74480458D01*
X126338071Y-74480452D01*
X126416270Y-74402253D01*
X126416276Y-74402247D01*
X126466501Y-74315254D01*
X126492500Y-74218225D01*
X126492500Y-73633739D01*
X126512502Y-73565618D01*
X126566158Y-73519125D01*
X126585883Y-73512033D01*
X126621158Y-73502582D01*
X126683743Y-73476659D01*
X126797757Y-73410833D01*
X126851501Y-73369593D01*
X126944593Y-73276501D01*
X126985833Y-73222757D01*
X127018381Y-73166383D01*
X127069764Y-73117390D01*
X127139477Y-73103954D01*
X127205388Y-73130340D01*
X127246570Y-73188173D01*
X127253500Y-73229383D01*
X127253500Y-82008501D01*
X127233498Y-82076622D01*
X127179842Y-82123115D01*
X127109568Y-82133219D01*
X127044988Y-82103725D01*
X127038405Y-82097596D01*
X127036407Y-82095598D01*
X126949573Y-82030596D01*
X126920267Y-82008658D01*
X126920265Y-82008657D01*
X126920266Y-82008657D01*
X126784349Y-81957962D01*
X126784344Y-81957960D01*
X126784342Y-81957960D01*
X126754298Y-81954730D01*
X126724256Y-81951500D01*
X126127753Y-81951500D01*
X126127729Y-81951502D01*
X126067660Y-81957959D01*
X126067658Y-81957959D01*
X125931733Y-82008657D01*
X125815596Y-82095596D01*
X125728657Y-82211734D01*
X125677962Y-82347650D01*
X125677960Y-82347658D01*
X125671500Y-82407737D01*
X125671500Y-83454246D01*
X125671502Y-83454270D01*
X125677959Y-83514339D01*
X125677959Y-83514341D01*
X125728657Y-83650266D01*
X125728658Y-83650267D01*
X125815596Y-83766404D01*
X125931733Y-83853342D01*
X126067658Y-83904040D01*
X126127745Y-83910500D01*
X126724254Y-83910499D01*
X126784342Y-83904040D01*
X126920267Y-83853342D01*
X127036404Y-83766404D01*
X127036405Y-83766402D01*
X127036407Y-83766401D01*
X127038405Y-83764404D01*
X127040884Y-83763050D01*
X127043619Y-83761003D01*
X127043913Y-83761396D01*
X127100717Y-83730378D01*
X127171532Y-83735443D01*
X127228368Y-83777990D01*
X127253179Y-83844510D01*
X127253500Y-83853499D01*
X127253500Y-85756932D01*
X127233498Y-85825053D01*
X127179842Y-85871546D01*
X127109568Y-85881650D01*
X127044988Y-85852156D01*
X127038405Y-85846027D01*
X126969974Y-85777596D01*
X126969970Y-85777592D01*
X126847164Y-85695536D01*
X126737521Y-85650120D01*
X126710712Y-85639015D01*
X126710710Y-85639014D01*
X126710709Y-85639014D01*
X126637788Y-85624509D01*
X126565851Y-85610200D01*
X126565849Y-85610200D01*
X126418151Y-85610200D01*
X126418148Y-85610200D01*
X126310241Y-85631664D01*
X126273291Y-85639014D01*
X126273290Y-85639014D01*
X126273287Y-85639015D01*
X126189552Y-85673700D01*
X126156435Y-85687418D01*
X126136834Y-85695537D01*
X126014031Y-85777591D01*
X126014025Y-85777596D01*
X125909596Y-85882025D01*
X125909591Y-85882031D01*
X125827537Y-86004834D01*
X125771015Y-86141287D01*
X125742200Y-86286148D01*
X125742200Y-86286151D01*
X125742200Y-86433849D01*
X125771014Y-86578709D01*
X125827536Y-86715164D01*
X125909592Y-86837970D01*
X125909593Y-86837971D01*
X125913031Y-86843116D01*
X125911566Y-86844094D01*
X125936046Y-86901732D01*
X125924064Y-86971711D01*
X125876152Y-87024103D01*
X125859114Y-87032727D01*
X125803961Y-87055573D01*
X125697801Y-87126507D01*
X125697794Y-87126512D01*
X125607512Y-87216794D01*
X125607506Y-87216801D01*
X125580765Y-87256823D01*
X125526288Y-87302351D01*
X125455844Y-87311198D01*
X125391801Y-87280557D01*
X125371235Y-87256823D01*
X125344493Y-87216801D01*
X125344487Y-87216794D01*
X125254205Y-87126512D01*
X125254203Y-87126510D01*
X125148038Y-87055573D01*
X125148039Y-87055573D01*
X125148037Y-87055572D01*
X125148035Y-87055571D01*
X125092886Y-87032727D01*
X125037606Y-86988178D01*
X125015186Y-86920814D01*
X125032745Y-86852023D01*
X125038983Y-86843125D01*
X125038969Y-86843116D01*
X125042406Y-86837971D01*
X125042408Y-86837970D01*
X125124464Y-86715164D01*
X125180986Y-86578709D01*
X125209800Y-86433849D01*
X125209800Y-86286151D01*
X125180986Y-86141291D01*
X125124464Y-86004836D01*
X125042408Y-85882030D01*
X124937970Y-85777592D01*
X124815164Y-85695536D01*
X124705521Y-85650120D01*
X124678712Y-85639015D01*
X124678710Y-85639014D01*
X124678709Y-85639014D01*
X124605788Y-85624509D01*
X124533851Y-85610200D01*
X124533849Y-85610200D01*
X124386151Y-85610200D01*
X124386148Y-85610200D01*
X124278241Y-85631664D01*
X124241291Y-85639014D01*
X124241290Y-85639014D01*
X124241287Y-85639015D01*
X124104832Y-85695537D01*
X124104831Y-85695538D01*
X123992511Y-85770588D01*
X123924759Y-85791803D01*
X123856292Y-85773020D01*
X123808849Y-85720202D01*
X123797492Y-85650120D01*
X123813391Y-85602824D01*
X123838184Y-85559882D01*
X123876300Y-85417633D01*
X123876300Y-85270367D01*
X123838184Y-85128118D01*
X123779225Y-85025999D01*
X123762488Y-84957005D01*
X123779226Y-84900000D01*
X123838184Y-84797882D01*
X123876300Y-84655633D01*
X123876300Y-84508367D01*
X123838184Y-84366118D01*
X123779225Y-84263999D01*
X123778179Y-84259687D01*
X123775183Y-84256412D01*
X123769882Y-84225486D01*
X123762488Y-84195005D01*
X123763728Y-84189575D01*
X123763190Y-84186436D01*
X123767235Y-84174216D01*
X123772363Y-84151765D01*
X123775373Y-84144672D01*
X123838184Y-84035882D01*
X123866645Y-83929663D01*
X123870088Y-83921554D01*
X123887236Y-83900650D01*
X123901314Y-83877555D01*
X123909410Y-83873622D01*
X123915118Y-83866665D01*
X123940849Y-83858350D01*
X123965175Y-83846534D01*
X123974624Y-83847436D01*
X123982675Y-83844835D01*
X124002606Y-83850108D01*
X124030103Y-83852734D01*
X124031732Y-83853341D01*
X124031733Y-83853342D01*
X124167658Y-83904040D01*
X124227745Y-83910500D01*
X124824254Y-83910499D01*
X124884342Y-83904040D01*
X125020267Y-83853342D01*
X125136404Y-83766404D01*
X125223342Y-83650267D01*
X125274040Y-83514342D01*
X125280500Y-83454255D01*
X125280499Y-82407746D01*
X125274040Y-82347658D01*
X125223342Y-82211733D01*
X125136404Y-82095596D01*
X125020267Y-82008658D01*
X125020265Y-82008657D01*
X125020266Y-82008657D01*
X124884349Y-81957962D01*
X124884344Y-81957960D01*
X124884342Y-81957960D01*
X124854298Y-81954730D01*
X124824256Y-81951500D01*
X124227753Y-81951500D01*
X124227729Y-81951502D01*
X124167660Y-81957959D01*
X124167658Y-81957959D01*
X124031733Y-82008657D01*
X123915596Y-82095596D01*
X123828657Y-82211734D01*
X123777962Y-82347650D01*
X123777960Y-82347658D01*
X123771500Y-82407737D01*
X123771500Y-82423500D01*
X123751498Y-82491621D01*
X123697842Y-82538114D01*
X123655810Y-82547257D01*
X123655964Y-82548422D01*
X123647776Y-82549499D01*
X123550741Y-82575500D01*
X123463756Y-82625721D01*
X123463746Y-82625729D01*
X123399910Y-82689566D01*
X123399898Y-82689576D01*
X123065030Y-83024445D01*
X123065028Y-83024448D01*
X123011729Y-83077746D01*
X123011721Y-83077756D01*
X122961500Y-83164741D01*
X122935500Y-83261776D01*
X122935500Y-83358340D01*
X122915498Y-83426461D01*
X122898595Y-83447435D01*
X122869454Y-83476575D01*
X122869446Y-83476585D01*
X122795816Y-83604117D01*
X122783450Y-83650267D01*
X122761985Y-83730378D01*
X122757700Y-83746368D01*
X122757700Y-83893631D01*
X122757699Y-83893631D01*
X122781863Y-83983812D01*
X122795816Y-84035882D01*
X122828099Y-84091798D01*
X122854774Y-84138001D01*
X122871511Y-84206996D01*
X122854774Y-84263999D01*
X122795816Y-84366118D01*
X122757700Y-84508368D01*
X122757700Y-84655631D01*
X122757699Y-84655631D01*
X122781863Y-84745812D01*
X122795816Y-84797882D01*
X122828099Y-84853798D01*
X122854774Y-84900001D01*
X122871511Y-84968996D01*
X122854774Y-85025999D01*
X122817535Y-85090500D01*
X122795816Y-85128118D01*
X122758512Y-85267339D01*
X122757700Y-85270368D01*
X122757700Y-85417631D01*
X122757699Y-85417631D01*
X122795816Y-85559882D01*
X122869446Y-85687414D01*
X122869448Y-85687417D01*
X122869449Y-85687418D01*
X122898595Y-85716564D01*
X122932620Y-85778874D01*
X122935500Y-85805659D01*
X122935500Y-87299223D01*
X122935499Y-87299223D01*
X122961498Y-87396251D01*
X122961501Y-87396258D01*
X122979410Y-87427277D01*
X122987291Y-87440927D01*
X123011724Y-87483247D01*
X123105431Y-87576954D01*
X123108760Y-87580875D01*
X123121173Y-87608805D01*
X123135820Y-87635629D01*
X123136689Y-87643718D01*
X123137594Y-87645753D01*
X123137190Y-87648371D01*
X123138700Y-87662413D01*
X123138700Y-87703631D01*
X123138699Y-87703631D01*
X123176816Y-87845882D01*
X123250446Y-87973414D01*
X123250454Y-87973424D01*
X123354575Y-88077545D01*
X123354580Y-88077549D01*
X123354582Y-88077551D01*
X123482118Y-88151184D01*
X123624367Y-88189300D01*
X123624369Y-88189300D01*
X123771631Y-88189300D01*
X123771633Y-88189300D01*
X123913882Y-88151184D01*
X124041418Y-88077551D01*
X124044265Y-88074704D01*
X124070565Y-88048405D01*
X124097933Y-88033460D01*
X124124162Y-88016604D01*
X124130460Y-88015698D01*
X124132877Y-88014379D01*
X124159660Y-88011500D01*
X124253616Y-88011500D01*
X124321737Y-88031502D01*
X124342711Y-88048404D01*
X124427797Y-88133490D01*
X124427800Y-88133492D01*
X124427801Y-88133493D01*
X124467823Y-88160235D01*
X124483955Y-88179538D01*
X124503133Y-88195823D01*
X124506324Y-88206304D01*
X124513351Y-88214712D01*
X124516485Y-88239672D01*
X124523815Y-88263741D01*
X124520832Y-88274286D01*
X124522198Y-88285156D01*
X124511342Y-88307845D01*
X124504495Y-88332058D01*
X124495171Y-88341644D01*
X124491557Y-88349199D01*
X124481281Y-88359395D01*
X124474899Y-88365037D01*
X124427797Y-88396510D01*
X124339976Y-88484330D01*
X124337076Y-88486895D01*
X124308302Y-88500384D01*
X124280399Y-88515621D01*
X124274435Y-88516262D01*
X124272793Y-88517032D01*
X124270331Y-88516703D01*
X124253616Y-88518500D01*
X122638213Y-88518500D01*
X122570092Y-88498498D01*
X122549118Y-88481595D01*
X122016472Y-87948949D01*
X121982446Y-87886637D01*
X121987511Y-87815822D01*
X122030058Y-87758986D01*
X122042551Y-87750744D01*
X122136418Y-87696551D01*
X122240551Y-87592418D01*
X122314184Y-87464882D01*
X122352300Y-87322633D01*
X122352300Y-87175367D01*
X122314184Y-87033118D01*
X122240551Y-86905582D01*
X122240549Y-86905580D01*
X122240545Y-86905575D01*
X122165065Y-86830095D01*
X122131039Y-86767783D01*
X122136104Y-86696968D01*
X122165065Y-86651905D01*
X122240545Y-86576424D01*
X122240551Y-86576418D01*
X122314184Y-86448882D01*
X122352300Y-86306633D01*
X122352300Y-86159367D01*
X122314184Y-86017118D01*
X122240551Y-85889582D01*
X122240549Y-85889580D01*
X122240545Y-85889575D01*
X122136424Y-85785454D01*
X122136414Y-85785446D01*
X122008882Y-85711816D01*
X121948132Y-85695538D01*
X121866633Y-85673700D01*
X121866631Y-85673700D01*
X121825413Y-85673700D01*
X121757292Y-85653698D01*
X121736318Y-85636795D01*
X118968405Y-82868882D01*
X118934379Y-82806570D01*
X118931500Y-82779787D01*
X118931500Y-79401499D01*
X118951502Y-79333378D01*
X119005158Y-79286885D01*
X119057500Y-79275499D01*
X119093346Y-79275499D01*
X119093348Y-79275499D01*
X119185145Y-79260961D01*
X119295784Y-79204588D01*
X119383588Y-79116784D01*
X119439961Y-79006145D01*
X119454500Y-78914349D01*
X119454499Y-78577652D01*
X119439961Y-78485855D01*
X119383588Y-78375216D01*
X119295784Y-78287412D01*
X119295783Y-78287411D01*
X119240464Y-78259225D01*
X119185145Y-78231039D01*
X119093349Y-78216500D01*
X119093345Y-78216500D01*
X117831653Y-78216500D01*
X117739855Y-78231038D01*
X117629216Y-78287411D01*
X117541411Y-78375216D01*
X117487962Y-78480118D01*
X117485039Y-78485855D01*
X117470500Y-78577651D01*
X117470500Y-78577654D01*
X117470500Y-78914348D01*
X117481413Y-78983258D01*
X117472312Y-79053669D01*
X117426588Y-79107982D01*
X117358759Y-79128952D01*
X117337261Y-79127414D01*
X117268349Y-79116500D01*
X117268345Y-79116500D01*
X116931653Y-79116500D01*
X116839854Y-79131038D01*
X116757202Y-79173152D01*
X116687426Y-79186256D01*
X116642798Y-79173152D01*
X116560148Y-79131040D01*
X116560146Y-79131039D01*
X116560145Y-79131039D01*
X116468349Y-79116500D01*
X116468345Y-79116500D01*
X116131653Y-79116500D01*
X116039854Y-79131038D01*
X115957202Y-79173152D01*
X115887426Y-79186256D01*
X115842798Y-79173152D01*
X115760148Y-79131040D01*
X115760146Y-79131039D01*
X115760145Y-79131039D01*
X115668349Y-79116500D01*
X115668345Y-79116500D01*
X115331653Y-79116500D01*
X115239854Y-79131038D01*
X115157202Y-79173152D01*
X115087426Y-79186256D01*
X115042798Y-79173152D01*
X114960148Y-79131040D01*
X114960146Y-79131039D01*
X114960145Y-79131039D01*
X114868349Y-79116500D01*
X114868345Y-79116500D01*
X114531653Y-79116500D01*
X114439854Y-79131038D01*
X114357202Y-79173152D01*
X114287426Y-79186256D01*
X114242798Y-79173152D01*
X114160148Y-79131040D01*
X114160146Y-79131039D01*
X114160145Y-79131039D01*
X114068349Y-79116500D01*
X114068345Y-79116500D01*
X113731653Y-79116500D01*
X113639854Y-79131038D01*
X113557202Y-79173152D01*
X113487426Y-79186256D01*
X113442798Y-79173152D01*
X113360148Y-79131040D01*
X113360146Y-79131039D01*
X113360145Y-79131039D01*
X113268349Y-79116500D01*
X113268345Y-79116500D01*
X112931653Y-79116500D01*
X112839854Y-79131038D01*
X112757202Y-79173152D01*
X112687426Y-79186256D01*
X112642798Y-79173152D01*
X112560148Y-79131040D01*
X112560146Y-79131039D01*
X112560145Y-79131039D01*
X112468349Y-79116500D01*
X112468345Y-79116500D01*
X112131653Y-79116500D01*
X112039854Y-79131038D01*
X111957202Y-79173152D01*
X111887426Y-79186256D01*
X111842798Y-79173152D01*
X111760148Y-79131040D01*
X111760146Y-79131039D01*
X111760145Y-79131039D01*
X111668349Y-79116500D01*
X111668345Y-79116500D01*
X111331651Y-79116500D01*
X111262741Y-79127413D01*
X111192330Y-79118312D01*
X111138017Y-79072588D01*
X111117047Y-79004759D01*
X111118585Y-78983262D01*
X111129500Y-78914349D01*
X111129499Y-78577652D01*
X111114961Y-78485855D01*
X111072846Y-78403199D01*
X111059743Y-78333427D01*
X111072845Y-78288801D01*
X111114961Y-78206145D01*
X111129500Y-78114349D01*
X111129499Y-77777652D01*
X111114961Y-77685855D01*
X111072846Y-77603199D01*
X111059743Y-77533427D01*
X111072845Y-77488801D01*
X111114961Y-77406145D01*
X111129500Y-77314349D01*
X111129499Y-77022381D01*
X111149501Y-76954262D01*
X111203156Y-76907769D01*
X111273430Y-76897664D01*
X111288101Y-76900673D01*
X111305367Y-76905300D01*
X111305369Y-76905300D01*
X111452631Y-76905300D01*
X111452633Y-76905300D01*
X111594882Y-76867184D01*
X111722418Y-76793551D01*
X111826551Y-76689418D01*
X111900184Y-76561882D01*
X111938300Y-76419633D01*
X111938300Y-76272367D01*
X111900184Y-76130118D01*
X111826551Y-76002582D01*
X111826549Y-76002580D01*
X111826545Y-76002575D01*
X111722424Y-75898454D01*
X111722414Y-75898446D01*
X111594882Y-75824816D01*
X111563850Y-75816501D01*
X111452633Y-75786700D01*
X111305367Y-75786700D01*
X111247316Y-75802255D01*
X111163116Y-75824816D01*
X111155651Y-75827909D01*
X111147340Y-75829561D01*
X111142931Y-75832396D01*
X111107433Y-75837500D01*
X110899986Y-75837500D01*
X110861047Y-75831332D01*
X110860144Y-75831038D01*
X110793449Y-75820475D01*
X110768349Y-75816500D01*
X110768347Y-75816500D01*
X109506653Y-75816500D01*
X109414853Y-75831039D01*
X109413946Y-75831334D01*
X109375013Y-75837500D01*
X108837567Y-75837500D01*
X108789349Y-75827909D01*
X108781883Y-75824816D01*
X108697684Y-75802255D01*
X108639633Y-75786700D01*
X108492367Y-75786700D01*
X108434316Y-75802255D01*
X108350116Y-75824816D01*
X108342651Y-75827909D01*
X108294433Y-75837500D01*
X107948567Y-75837500D01*
X107900349Y-75827909D01*
X107892883Y-75824816D01*
X107808684Y-75802255D01*
X107750633Y-75786700D01*
X107603367Y-75786700D01*
X107545316Y-75802255D01*
X107461116Y-75824816D01*
X107453651Y-75827909D01*
X107445340Y-75829561D01*
X107440931Y-75832396D01*
X107405433Y-75837500D01*
X107242319Y-75837500D01*
X107174198Y-75817498D01*
X107141451Y-75787010D01*
X107134403Y-75777595D01*
X107095396Y-75748396D01*
X107018267Y-75690658D01*
X107018265Y-75690657D01*
X107018266Y-75690657D01*
X106882349Y-75639962D01*
X106882344Y-75639960D01*
X106882342Y-75639960D01*
X106852298Y-75636730D01*
X106822256Y-75633500D01*
X105775753Y-75633500D01*
X105775729Y-75633502D01*
X105715660Y-75639959D01*
X105715658Y-75639959D01*
X105579733Y-75690657D01*
X105463596Y-75777596D01*
X105376657Y-75893734D01*
X105325962Y-76029650D01*
X105325960Y-76029658D01*
X105319500Y-76089737D01*
X105319500Y-76686246D01*
X105319502Y-76686270D01*
X105325959Y-76746339D01*
X105325959Y-76746341D01*
X105376657Y-76882266D01*
X105388184Y-76897664D01*
X105463596Y-76998404D01*
X105579733Y-77085342D01*
X105715658Y-77136040D01*
X105775745Y-77142500D01*
X106822254Y-77142499D01*
X106882342Y-77136040D01*
X107018267Y-77085342D01*
X107134404Y-76998404D01*
X107202252Y-76907769D01*
X107204332Y-76904991D01*
X107208048Y-76902208D01*
X107209976Y-76897988D01*
X107236197Y-76881136D01*
X107261167Y-76862444D01*
X107266889Y-76861411D01*
X107269702Y-76859604D01*
X107305200Y-76854500D01*
X107405433Y-76854500D01*
X107453651Y-76864091D01*
X107461116Y-76867183D01*
X107461118Y-76867184D01*
X107603367Y-76905300D01*
X107603369Y-76905300D01*
X107750631Y-76905300D01*
X107750633Y-76905300D01*
X107892882Y-76867184D01*
X107892885Y-76867181D01*
X107900349Y-76864091D01*
X107948567Y-76854500D01*
X108229785Y-76854500D01*
X108297906Y-76874502D01*
X108344399Y-76928158D01*
X108354503Y-76998432D01*
X108325009Y-77063012D01*
X108318881Y-77069595D01*
X107588753Y-77799724D01*
X107588752Y-77799724D01*
X107517729Y-77870746D01*
X107517721Y-77870756D01*
X107467500Y-77957741D01*
X107441500Y-78054776D01*
X107441500Y-79291787D01*
X107421498Y-79359908D01*
X107404595Y-79380882D01*
X95015753Y-91769724D01*
X94990313Y-91795164D01*
X94944725Y-91840751D01*
X94944721Y-91840756D01*
X94894500Y-91927741D01*
X94868500Y-92024776D01*
X94868500Y-93021780D01*
X94848498Y-93089901D01*
X94794842Y-93136394D01*
X94781438Y-93141611D01*
X94775084Y-93143676D01*
X94749250Y-93152070D01*
X94749244Y-93152073D01*
X94566289Y-93245293D01*
X94400172Y-93365984D01*
X94254987Y-93511169D01*
X94254982Y-93511175D01*
X94237602Y-93535097D01*
X94181379Y-93578450D01*
X94110643Y-93584525D01*
X94047852Y-93551392D01*
X94012941Y-93489572D01*
X94010389Y-93474503D01*
X94008041Y-93452664D01*
X94008040Y-93452662D01*
X94008040Y-93452659D01*
X93957342Y-93316733D01*
X93870404Y-93200596D01*
X93754267Y-93113658D01*
X93618341Y-93062960D01*
X93618340Y-93062959D01*
X93618335Y-93062958D01*
X93558266Y-93056500D01*
X93558254Y-93056500D01*
X91861746Y-93056500D01*
X91861733Y-93056500D01*
X91801664Y-93062958D01*
X91801659Y-93062960D01*
X91665733Y-93113658D01*
X91665732Y-93113658D01*
X91665731Y-93113659D01*
X91549596Y-93200596D01*
X91462659Y-93316731D01*
X91411958Y-93452664D01*
X91405500Y-93512733D01*
X91405500Y-95209266D01*
X91411958Y-95269335D01*
X91411959Y-95269340D01*
X91411960Y-95269341D01*
X91462658Y-95405267D01*
X91549596Y-95521404D01*
X91665733Y-95608342D01*
X91801659Y-95659040D01*
X91801662Y-95659040D01*
X91801664Y-95659041D01*
X91861733Y-95665499D01*
X91861741Y-95665499D01*
X91861746Y-95665500D01*
X91861750Y-95665500D01*
X93558250Y-95665500D01*
X93558254Y-95665500D01*
X93558259Y-95665499D01*
X93558266Y-95665499D01*
X93618335Y-95659041D01*
X93618336Y-95659040D01*
X93618341Y-95659040D01*
X93754267Y-95608342D01*
X93870404Y-95521404D01*
X93957342Y-95405267D01*
X94008040Y-95269341D01*
X94008041Y-95269335D01*
X94010389Y-95247496D01*
X94037558Y-95181904D01*
X94095875Y-95141412D01*
X94166827Y-95138878D01*
X94227885Y-95175105D01*
X94237599Y-95186899D01*
X94254983Y-95210825D01*
X94254985Y-95210827D01*
X94254987Y-95210830D01*
X94400172Y-95356015D01*
X94400175Y-95356017D01*
X94566293Y-95476709D01*
X94749246Y-95569928D01*
X94944529Y-95633379D01*
X95147334Y-95665500D01*
X95147337Y-95665500D01*
X95352663Y-95665500D01*
X95352666Y-95665500D01*
X95555471Y-95633379D01*
X95750754Y-95569928D01*
X95933707Y-95476709D01*
X96099825Y-95356017D01*
X96245017Y-95210825D01*
X96365709Y-95044707D01*
X96407734Y-94962227D01*
X96456481Y-94910614D01*
X96525396Y-94893548D01*
X96592598Y-94916449D01*
X96632265Y-94962227D01*
X96674291Y-95044707D01*
X96674293Y-95044710D01*
X96794984Y-95210827D01*
X96940172Y-95356015D01*
X96940175Y-95356017D01*
X97106293Y-95476709D01*
X97289246Y-95569928D01*
X97484529Y-95633379D01*
X97687334Y-95665500D01*
X97687337Y-95665500D01*
X97892663Y-95665500D01*
X97892666Y-95665500D01*
X98095471Y-95633379D01*
X98290754Y-95569928D01*
X98473707Y-95476709D01*
X98639825Y-95356017D01*
X98785017Y-95210825D01*
X98905709Y-95044707D01*
X98947734Y-94962227D01*
X98996481Y-94910614D01*
X99065396Y-94893548D01*
X99132598Y-94916449D01*
X99172265Y-94962227D01*
X99214291Y-95044707D01*
X99214293Y-95044710D01*
X99334984Y-95210827D01*
X99480172Y-95356015D01*
X99480175Y-95356017D01*
X99646293Y-95476709D01*
X99829246Y-95569928D01*
X100024529Y-95633379D01*
X100227334Y-95665500D01*
X100227337Y-95665500D01*
X100432663Y-95665500D01*
X100432666Y-95665500D01*
X100635471Y-95633379D01*
X100830754Y-95569928D01*
X101013707Y-95476709D01*
X101179825Y-95356017D01*
X101325017Y-95210825D01*
X101445709Y-95044707D01*
X101487734Y-94962227D01*
X101536481Y-94910614D01*
X101605396Y-94893548D01*
X101672598Y-94916449D01*
X101712265Y-94962227D01*
X101754291Y-95044707D01*
X101754293Y-95044710D01*
X101874984Y-95210827D01*
X102020172Y-95356015D01*
X102020175Y-95356017D01*
X102186293Y-95476709D01*
X102369246Y-95569928D01*
X102564529Y-95633379D01*
X102767334Y-95665500D01*
X102767337Y-95665500D01*
X102972663Y-95665500D01*
X102972666Y-95665500D01*
X103175471Y-95633379D01*
X103370754Y-95569928D01*
X103553707Y-95476709D01*
X103719825Y-95356017D01*
X103865017Y-95210825D01*
X103985709Y-95044707D01*
X104027734Y-94962227D01*
X104076481Y-94910614D01*
X104145396Y-94893548D01*
X104212598Y-94916449D01*
X104252265Y-94962227D01*
X104294291Y-95044707D01*
X104294293Y-95044710D01*
X104414984Y-95210827D01*
X104560172Y-95356015D01*
X104560175Y-95356017D01*
X104726293Y-95476709D01*
X104909246Y-95569928D01*
X105104529Y-95633379D01*
X105307334Y-95665500D01*
X105307337Y-95665500D01*
X105512663Y-95665500D01*
X105512666Y-95665500D01*
X105715471Y-95633379D01*
X105910754Y-95569928D01*
X106093707Y-95476709D01*
X106259825Y-95356017D01*
X106405017Y-95210825D01*
X106525709Y-95044707D01*
X106567734Y-94962227D01*
X106616481Y-94910614D01*
X106685396Y-94893548D01*
X106752598Y-94916449D01*
X106792265Y-94962227D01*
X106834291Y-95044707D01*
X106834293Y-95044710D01*
X106954984Y-95210827D01*
X107100172Y-95356015D01*
X107100175Y-95356017D01*
X107266293Y-95476709D01*
X107449246Y-95569928D01*
X107644529Y-95633379D01*
X107847334Y-95665500D01*
X107847337Y-95665500D01*
X108052663Y-95665500D01*
X108052666Y-95665500D01*
X108255471Y-95633379D01*
X108450754Y-95569928D01*
X108633707Y-95476709D01*
X108799825Y-95356017D01*
X108945017Y-95210825D01*
X108961392Y-95188286D01*
X109017611Y-95144932D01*
X109088347Y-95138855D01*
X109151140Y-95171985D01*
X109165264Y-95188285D01*
X109223435Y-95268351D01*
X109223437Y-95268351D01*
X109965016Y-94526771D01*
X109977482Y-94573292D01*
X110049890Y-94698708D01*
X110152292Y-94801110D01*
X110277708Y-94873518D01*
X110324226Y-94885982D01*
X109582647Y-95627561D01*
X109582647Y-95627563D01*
X109673427Y-95693519D01*
X109891933Y-95804854D01*
X109891939Y-95804857D01*
X110125162Y-95880635D01*
X110125159Y-95880635D01*
X110367386Y-95919000D01*
X110612614Y-95919000D01*
X110854838Y-95880635D01*
X111088060Y-95804857D01*
X111088066Y-95804854D01*
X111306571Y-95693519D01*
X111306582Y-95693513D01*
X111397351Y-95627563D01*
X111397351Y-95627561D01*
X110655773Y-94885982D01*
X110702292Y-94873518D01*
X110827708Y-94801110D01*
X110930110Y-94698708D01*
X111002518Y-94573292D01*
X111014982Y-94526772D01*
X111756561Y-95268351D01*
X111756563Y-95268351D01*
X111822513Y-95177582D01*
X111822519Y-95177571D01*
X111933854Y-94959066D01*
X111933857Y-94959060D01*
X112009635Y-94725838D01*
X112048000Y-94483613D01*
X112048000Y-94238386D01*
X112009635Y-93996161D01*
X111933857Y-93762939D01*
X111933854Y-93762933D01*
X111822519Y-93544427D01*
X111756563Y-93453647D01*
X111756561Y-93453647D01*
X111014982Y-94195226D01*
X111002518Y-94148708D01*
X110930110Y-94023292D01*
X110827708Y-93920890D01*
X110702292Y-93848482D01*
X110655772Y-93836017D01*
X111397351Y-93094437D01*
X111397351Y-93094435D01*
X111306573Y-93028481D01*
X111088066Y-92917145D01*
X111088060Y-92917142D01*
X110854837Y-92841364D01*
X110854840Y-92841364D01*
X110612614Y-92803000D01*
X110367386Y-92803000D01*
X110125161Y-92841364D01*
X109891939Y-92917142D01*
X109891933Y-92917145D01*
X109673426Y-93028481D01*
X109582647Y-93094435D01*
X109582647Y-93094437D01*
X110324227Y-93836017D01*
X110277708Y-93848482D01*
X110152292Y-93920890D01*
X110049890Y-94023292D01*
X109977482Y-94148708D01*
X109965017Y-94195227D01*
X109223437Y-93453647D01*
X109223435Y-93453647D01*
X109165264Y-93533713D01*
X109109042Y-93577067D01*
X109038305Y-93583142D01*
X108975514Y-93550011D01*
X108961393Y-93533714D01*
X108945017Y-93511174D01*
X108799827Y-93365984D01*
X108633711Y-93245293D01*
X108545988Y-93200596D01*
X108450754Y-93152072D01*
X108450751Y-93152071D01*
X108450749Y-93152070D01*
X108428684Y-93144901D01*
X108418563Y-93141612D01*
X108359958Y-93101539D01*
X108332321Y-93036143D01*
X108331500Y-93021780D01*
X108331500Y-92285213D01*
X108351502Y-92217092D01*
X108368405Y-92196118D01*
X112503405Y-88061118D01*
X112565717Y-88027092D01*
X112636532Y-88032157D01*
X112693368Y-88074704D01*
X112718179Y-88141224D01*
X112718500Y-88150213D01*
X112718500Y-97636787D01*
X112698498Y-97704908D01*
X112681595Y-97725882D01*
X106939882Y-103467595D01*
X106877570Y-103501621D01*
X106850787Y-103504500D01*
X91008775Y-103504500D01*
X90949390Y-103520412D01*
X90911741Y-103530500D01*
X90824756Y-103580721D01*
X90824746Y-103580729D01*
X85730882Y-108674595D01*
X85668570Y-108708621D01*
X85641787Y-108711500D01*
X76928170Y-108711500D01*
X76860049Y-108691498D01*
X76813556Y-108637842D01*
X76803452Y-108567568D01*
X76832946Y-108502988D01*
X76884133Y-108467446D01*
X76919267Y-108454342D01*
X77035404Y-108367404D01*
X77122342Y-108251267D01*
X77173040Y-108115342D01*
X77179500Y-108055255D01*
X77179499Y-107458746D01*
X77173040Y-107398658D01*
X77122342Y-107262733D01*
X77035404Y-107146596D01*
X76919267Y-107059658D01*
X76919265Y-107059657D01*
X76919266Y-107059657D01*
X76783349Y-107008962D01*
X76783344Y-107008960D01*
X76783342Y-107008960D01*
X76753298Y-107005730D01*
X76723256Y-107002500D01*
X75676753Y-107002500D01*
X75676729Y-107002502D01*
X75616660Y-107008959D01*
X75616658Y-107008959D01*
X75480733Y-107059657D01*
X75364596Y-107146596D01*
X75277657Y-107262734D01*
X75226962Y-107398650D01*
X75226960Y-107398658D01*
X75220500Y-107458737D01*
X57334006Y-107458737D01*
X57257146Y-107395660D01*
X57178325Y-107330973D01*
X57178321Y-107330970D01*
X57178316Y-107330966D01*
X56896112Y-107142404D01*
X56596770Y-106982403D01*
X56283193Y-106852515D01*
X56283189Y-106852514D01*
X55958387Y-106753986D01*
X55958384Y-106753985D01*
X55958383Y-106753985D01*
X55625497Y-106687770D01*
X55625492Y-106687769D01*
X55625485Y-106687768D01*
X55625476Y-106687767D01*
X55287715Y-106654500D01*
X55287709Y-106654500D01*
X54948291Y-106654500D01*
X54948284Y-106654500D01*
X54610523Y-106687767D01*
X54610511Y-106687768D01*
X54610508Y-106687769D01*
X54610505Y-106687769D01*
X54610502Y-106687770D01*
X54277616Y-106753985D01*
X53952810Y-106852514D01*
X53952806Y-106852515D01*
X53639229Y-106982403D01*
X53339887Y-107142404D01*
X53057683Y-107330966D01*
X53057677Y-107330971D01*
X52795307Y-107546292D01*
X52795288Y-107546310D01*
X52555310Y-107786288D01*
X52555292Y-107786307D01*
X52339971Y-108048677D01*
X52339966Y-108048683D01*
X52151404Y-108330887D01*
X51991403Y-108630229D01*
X51861515Y-108943806D01*
X51861514Y-108943810D01*
X51762985Y-109268616D01*
X51696770Y-109601502D01*
X51696767Y-109601523D01*
X51663500Y-109939284D01*
X50927500Y-109939284D01*
X50927500Y-104655631D01*
X74878699Y-104655631D01*
X74916816Y-104797882D01*
X74990446Y-104925414D01*
X74990454Y-104925424D01*
X75094575Y-105029545D01*
X75094580Y-105029549D01*
X75094582Y-105029551D01*
X75222118Y-105103184D01*
X75250391Y-105110759D01*
X75311013Y-105147710D01*
X75342035Y-105211570D01*
X75333607Y-105282065D01*
X75318649Y-105307974D01*
X75277657Y-105362733D01*
X75226962Y-105498650D01*
X75226960Y-105498658D01*
X75220500Y-105558737D01*
X75220500Y-106155246D01*
X75220502Y-106155270D01*
X75226959Y-106215339D01*
X75226959Y-106215341D01*
X75277657Y-106351266D01*
X75277658Y-106351267D01*
X75364596Y-106467404D01*
X75480733Y-106554342D01*
X75616658Y-106605040D01*
X75676745Y-106611500D01*
X76723254Y-106611499D01*
X76783342Y-106605040D01*
X76919267Y-106554342D01*
X77035404Y-106467404D01*
X77122342Y-106351267D01*
X77173040Y-106215342D01*
X77179500Y-106155255D01*
X77179499Y-105558746D01*
X77173040Y-105498658D01*
X77122342Y-105362733D01*
X77081348Y-105307971D01*
X77056540Y-105241454D01*
X77071632Y-105172080D01*
X77121834Y-105121878D01*
X77149605Y-105110760D01*
X77177882Y-105103184D01*
X77305418Y-105029551D01*
X77409551Y-104925418D01*
X77483184Y-104797882D01*
X77521300Y-104655633D01*
X77521300Y-104508367D01*
X77483184Y-104366118D01*
X77426247Y-104267500D01*
X77409553Y-104238585D01*
X77409545Y-104238575D01*
X77305424Y-104134454D01*
X77305414Y-104134446D01*
X77177882Y-104060816D01*
X77035633Y-104022700D01*
X76888367Y-104022700D01*
X76793534Y-104048110D01*
X76746117Y-104060816D01*
X76618585Y-104134446D01*
X76618575Y-104134454D01*
X76589435Y-104163595D01*
X76527123Y-104197621D01*
X76500340Y-104200500D01*
X75899660Y-104200500D01*
X75831539Y-104180498D01*
X75810565Y-104163595D01*
X75781424Y-104134454D01*
X75781414Y-104134446D01*
X75653882Y-104060816D01*
X75511633Y-104022700D01*
X75364367Y-104022700D01*
X75269534Y-104048110D01*
X75222117Y-104060816D01*
X75094585Y-104134446D01*
X75094575Y-104134454D01*
X74990454Y-104238575D01*
X74990446Y-104238585D01*
X74916816Y-104366117D01*
X74878700Y-104508368D01*
X74878700Y-104655631D01*
X74878699Y-104655631D01*
X50927500Y-104655631D01*
X50927500Y-72717631D01*
X69163699Y-72717631D01*
X69201816Y-72859882D01*
X69275446Y-72987414D01*
X69275454Y-72987424D01*
X69287435Y-72999405D01*
X69321461Y-73061717D01*
X69316396Y-73132532D01*
X69287435Y-73177595D01*
X69275454Y-73189575D01*
X69275446Y-73189585D01*
X69201816Y-73317117D01*
X69187758Y-73369581D01*
X69169292Y-73438500D01*
X69163700Y-73459368D01*
X69163700Y-73606631D01*
X69163699Y-73606631D01*
X69201816Y-73748882D01*
X69275446Y-73876414D01*
X69275448Y-73876417D01*
X69275449Y-73876418D01*
X69304595Y-73905564D01*
X69338620Y-73967874D01*
X69341500Y-73994659D01*
X69341500Y-74218223D01*
X69341499Y-74218223D01*
X69367500Y-74315258D01*
X69400131Y-74371775D01*
X69417721Y-74402243D01*
X69417723Y-74402245D01*
X69417724Y-74402247D01*
X69671724Y-74656247D01*
X69742753Y-74727276D01*
X69742754Y-74727277D01*
X69742756Y-74727278D01*
X69829741Y-74777499D01*
X69829743Y-74777499D01*
X69829746Y-74777501D01*
X69926775Y-74803500D01*
X69926777Y-74803500D01*
X71678223Y-74803500D01*
X71678225Y-74803500D01*
X71775254Y-74777501D01*
X71775257Y-74777499D01*
X71775258Y-74777499D01*
X71818750Y-74752388D01*
X71862247Y-74727276D01*
X71933276Y-74656247D01*
X72195276Y-74394247D01*
X72223131Y-74346000D01*
X72245500Y-74307257D01*
X72245500Y-74307256D01*
X72245502Y-74307253D01*
X72271500Y-74210225D01*
X72271500Y-74137740D01*
X72291502Y-74069619D01*
X72308405Y-74048645D01*
X72371324Y-73985725D01*
X72371326Y-73985723D01*
X72373964Y-73980545D01*
X72429498Y-73871555D01*
X72444500Y-73776834D01*
X72444500Y-72463166D01*
X72429498Y-72368445D01*
X72388763Y-72288499D01*
X72371326Y-72254276D01*
X72280723Y-72163673D01*
X72166553Y-72105501D01*
X72101836Y-72095251D01*
X72071834Y-72090500D01*
X71708166Y-72090500D01*
X71682266Y-72094602D01*
X71613446Y-72105501D01*
X71499276Y-72163673D01*
X71499274Y-72163675D01*
X71479095Y-72183855D01*
X71416783Y-72217881D01*
X71345968Y-72212816D01*
X71300905Y-72183855D01*
X71280723Y-72163673D01*
X71166553Y-72105501D01*
X71101836Y-72095251D01*
X71071834Y-72090500D01*
X70708166Y-72090500D01*
X70682266Y-72094602D01*
X70613446Y-72105501D01*
X70499276Y-72163673D01*
X70499274Y-72163675D01*
X70437355Y-72225595D01*
X70409986Y-72240539D01*
X70383758Y-72257396D01*
X70377459Y-72258301D01*
X70375043Y-72259621D01*
X70348260Y-72262500D01*
X70184660Y-72262500D01*
X70116539Y-72242498D01*
X70095565Y-72225595D01*
X70066424Y-72196454D01*
X70066414Y-72196446D01*
X69938882Y-72122816D01*
X69904607Y-72113632D01*
X69796633Y-72084700D01*
X69649367Y-72084700D01*
X69571738Y-72105501D01*
X69507117Y-72122816D01*
X69379585Y-72196446D01*
X69379575Y-72196454D01*
X69275454Y-72300575D01*
X69275446Y-72300585D01*
X69201816Y-72428117D01*
X69187043Y-72483251D01*
X69166848Y-72558621D01*
X69163700Y-72570368D01*
X69163700Y-72717631D01*
X69163699Y-72717631D01*
X50927500Y-72717631D01*
X50927500Y-67944002D01*
X66923500Y-67944002D01*
X66923500Y-70613006D01*
X66929430Y-70668161D01*
X66936654Y-70701368D01*
X66940816Y-70720501D01*
X66948166Y-70747291D01*
X66990103Y-70820938D01*
X66998270Y-70835279D01*
X66998275Y-70835286D01*
X67044752Y-70888923D01*
X67044769Y-70888941D01*
X67073044Y-70916225D01*
X67078051Y-70921056D01*
X67167770Y-70967987D01*
X67235891Y-70987989D01*
X67309000Y-70998500D01*
X73255500Y-70998500D01*
X73323621Y-71018502D01*
X73370114Y-71072158D01*
X73381500Y-71124500D01*
X73381500Y-72277357D01*
X73367767Y-72334559D01*
X73350501Y-72368444D01*
X73341051Y-72428117D01*
X73335500Y-72463166D01*
X73335500Y-73776834D01*
X73335630Y-73777652D01*
X73350501Y-73871553D01*
X73408673Y-73985723D01*
X73499276Y-74076326D01*
X73556361Y-74105412D01*
X73613445Y-74134498D01*
X73708166Y-74149500D01*
X73708168Y-74149500D01*
X74071832Y-74149500D01*
X74071834Y-74149500D01*
X74166555Y-74134498D01*
X74280723Y-74076326D01*
X74371326Y-73985723D01*
X74429498Y-73871555D01*
X74444500Y-73776834D01*
X74444500Y-72463166D01*
X74429498Y-72368445D01*
X74429498Y-72368444D01*
X74412233Y-72334559D01*
X74398500Y-72277357D01*
X74398500Y-71124500D01*
X74418502Y-71056379D01*
X74472158Y-71009886D01*
X74524500Y-70998500D01*
X77470994Y-70998500D01*
X77471000Y-70998500D01*
X77526159Y-70992570D01*
X77578501Y-70981184D01*
X77605291Y-70973834D01*
X77689618Y-70925814D01*
X77758708Y-70909489D01*
X77825660Y-70933108D01*
X77869215Y-70989175D01*
X77873671Y-71002698D01*
X77876499Y-71013256D01*
X77903981Y-71060855D01*
X77926721Y-71100243D01*
X77926729Y-71100253D01*
X78886746Y-72060270D01*
X78886751Y-72060274D01*
X78886753Y-72060276D01*
X78886754Y-72060277D01*
X78886756Y-72060278D01*
X78973742Y-72110500D01*
X78973744Y-72110500D01*
X78973747Y-72110502D01*
X79070775Y-72136500D01*
X79070779Y-72136500D01*
X79074709Y-72137018D01*
X79077780Y-72138376D01*
X79078752Y-72138637D01*
X79078711Y-72138788D01*
X79139637Y-72165739D01*
X79178730Y-72225003D01*
X79179577Y-72295994D01*
X79167386Y-72324939D01*
X79107817Y-72428117D01*
X79107816Y-72428118D01*
X79072848Y-72558621D01*
X79069700Y-72570368D01*
X79069700Y-72717631D01*
X79069699Y-72717631D01*
X79107816Y-72859882D01*
X79181446Y-72987414D01*
X79181454Y-72987424D01*
X79193435Y-72999405D01*
X79227461Y-73061717D01*
X79222396Y-73132532D01*
X79193435Y-73177595D01*
X79181454Y-73189575D01*
X79181446Y-73189585D01*
X79107816Y-73317117D01*
X79093758Y-73369581D01*
X79075292Y-73438500D01*
X79069700Y-73459368D01*
X79069700Y-73606631D01*
X79069699Y-73606631D01*
X79107816Y-73748882D01*
X79181446Y-73876414D01*
X79181454Y-73876424D01*
X79285575Y-73980545D01*
X79285580Y-73980549D01*
X79285582Y-73980551D01*
X79285583Y-73980552D01*
X79285585Y-73980553D01*
X79297968Y-73987702D01*
X79413118Y-74054184D01*
X79555367Y-74092300D01*
X79596587Y-74092300D01*
X79664708Y-74112302D01*
X79685677Y-74129200D01*
X80283753Y-74727276D01*
X80283754Y-74727277D01*
X80283756Y-74727278D01*
X80370742Y-74777500D01*
X80370744Y-74777500D01*
X80370747Y-74777502D01*
X80467775Y-74803500D01*
X80467776Y-74803500D01*
X84378223Y-74803500D01*
X84378225Y-74803500D01*
X84475254Y-74777501D01*
X84475257Y-74777499D01*
X84475258Y-74777499D01*
X84518750Y-74752388D01*
X84562247Y-74727276D01*
X84633276Y-74656247D01*
X84895276Y-74394247D01*
X84923131Y-74346000D01*
X84945500Y-74307257D01*
X84945500Y-74307256D01*
X84945502Y-74307253D01*
X84971500Y-74210225D01*
X84971500Y-74137740D01*
X84991502Y-74069619D01*
X85008405Y-74048645D01*
X85071324Y-73985725D01*
X85071326Y-73985723D01*
X85073964Y-73980545D01*
X85129498Y-73871555D01*
X85144500Y-73776834D01*
X85144500Y-72463166D01*
X85129498Y-72368445D01*
X85088763Y-72288499D01*
X85071326Y-72254276D01*
X85008405Y-72191355D01*
X84974379Y-72129043D01*
X84971500Y-72102260D01*
X84971500Y-71966776D01*
X84969356Y-71958775D01*
X84945501Y-71869746D01*
X84945499Y-71869743D01*
X84945499Y-71869741D01*
X84895278Y-71782756D01*
X84895270Y-71782746D01*
X84819863Y-71707339D01*
X84819840Y-71707318D01*
X84326118Y-71213595D01*
X84292093Y-71151283D01*
X84297158Y-71080467D01*
X84339705Y-71023632D01*
X84406225Y-70998821D01*
X84415214Y-70998500D01*
X85847500Y-70998500D01*
X85915621Y-71018502D01*
X85962114Y-71072158D01*
X85973500Y-71124500D01*
X85973500Y-79243500D01*
X85953498Y-79311621D01*
X85899842Y-79358114D01*
X85847500Y-79369500D01*
X84707993Y-79369500D01*
X84652838Y-79375430D01*
X84600516Y-79386812D01*
X84600510Y-79386813D01*
X84600499Y-79386816D01*
X84587707Y-79390325D01*
X84573710Y-79394165D01*
X84573709Y-79394166D01*
X84502971Y-79434446D01*
X84485720Y-79444270D01*
X84485713Y-79444275D01*
X84432076Y-79490752D01*
X84432058Y-79490769D01*
X84399944Y-79524049D01*
X84399944Y-79524050D01*
X84353014Y-79613767D01*
X84353013Y-79613770D01*
X84333011Y-79681891D01*
X84322500Y-79755000D01*
X84322500Y-79755002D01*
X84322500Y-85091010D01*
X84328430Y-85146163D01*
X84339817Y-85198508D01*
X84347162Y-85225285D01*
X84347166Y-85225294D01*
X84397258Y-85313266D01*
X84397262Y-85313271D01*
X84397264Y-85313274D01*
X84443756Y-85366931D01*
X84443757Y-85366932D01*
X84443773Y-85366948D01*
X84472049Y-85394233D01*
X84477043Y-85399052D01*
X84477046Y-85399053D01*
X84477048Y-85399055D01*
X84512562Y-85417633D01*
X84566760Y-85445985D01*
X84634880Y-85465989D01*
X84707990Y-85476503D01*
X84708553Y-85476503D01*
X90308090Y-85476645D01*
X90355033Y-85471591D01*
X90363311Y-85470701D01*
X90363312Y-85470700D01*
X90363329Y-85470699D01*
X90415741Y-85459282D01*
X90442601Y-85451901D01*
X90530558Y-85401747D01*
X90584187Y-85355223D01*
X90616292Y-85321913D01*
X90663170Y-85232167D01*
X90683132Y-85164034D01*
X90693600Y-85090919D01*
X90690338Y-79513083D01*
X92263500Y-79513083D01*
X92263500Y-80095900D01*
X92263502Y-80095921D01*
X92269879Y-80155246D01*
X92269879Y-80155248D01*
X92269880Y-80155250D01*
X92310200Y-80263355D01*
X92319950Y-80289494D01*
X92405810Y-80404189D01*
X92520505Y-80490049D01*
X92520507Y-80490049D01*
X92520509Y-80490051D01*
X92654750Y-80540120D01*
X92714091Y-80546500D01*
X92714105Y-80546499D01*
X92717232Y-80546668D01*
X92784187Y-80570281D01*
X92827746Y-80626344D01*
X92836500Y-80672488D01*
X92836500Y-81760815D01*
X92816498Y-81828936D01*
X92762842Y-81875429D01*
X92723002Y-81885233D01*
X92723100Y-81886140D01*
X92659660Y-81892959D01*
X92659658Y-81892959D01*
X92523733Y-81943657D01*
X92407596Y-82030596D01*
X92320657Y-82146734D01*
X92269962Y-82282650D01*
X92269960Y-82282658D01*
X92263500Y-82342737D01*
X92263500Y-82964246D01*
X92263502Y-82964270D01*
X92269959Y-83024339D01*
X92269959Y-83024341D01*
X92320657Y-83160266D01*
X92320658Y-83160267D01*
X92407596Y-83276404D01*
X92523733Y-83363342D01*
X92659658Y-83414040D01*
X92719745Y-83420500D01*
X93716254Y-83420499D01*
X93776342Y-83414040D01*
X93912267Y-83363342D01*
X94028404Y-83276404D01*
X94115342Y-83160267D01*
X94166040Y-83024342D01*
X94172500Y-82964255D01*
X94172499Y-82342746D01*
X94166040Y-82282658D01*
X94115342Y-82146733D01*
X94028404Y-82030596D01*
X93912267Y-81943658D01*
X93912265Y-81943657D01*
X93912266Y-81943657D01*
X93776349Y-81892962D01*
X93776344Y-81892960D01*
X93776342Y-81892960D01*
X93753706Y-81890526D01*
X93712899Y-81886139D01*
X93713060Y-81884639D01*
X93651754Y-81862978D01*
X93608227Y-81806890D01*
X93599500Y-81760814D01*
X93599500Y-80672487D01*
X93619502Y-80604366D01*
X93673158Y-80557873D01*
X93718765Y-80546667D01*
X93721900Y-80546499D01*
X93721908Y-80546499D01*
X93721915Y-80546498D01*
X93721919Y-80546498D01*
X93739593Y-80544597D01*
X93781250Y-80540120D01*
X93915491Y-80490051D01*
X94030189Y-80404189D01*
X94116051Y-80289491D01*
X94166120Y-80155250D01*
X94172500Y-80095909D01*
X94172499Y-79513092D01*
X94166120Y-79453750D01*
X94116051Y-79319509D01*
X94116049Y-79319507D01*
X94116049Y-79319505D01*
X94030189Y-79204810D01*
X93915494Y-79118950D01*
X93883036Y-79106844D01*
X93781250Y-79068880D01*
X93751579Y-79065690D01*
X93721910Y-79062500D01*
X92714099Y-79062500D01*
X92714078Y-79062502D01*
X92654753Y-79068879D01*
X92654750Y-79068879D01*
X92654750Y-79068880D01*
X92628614Y-79078628D01*
X92520505Y-79118950D01*
X92405810Y-79204810D01*
X92319950Y-79319505D01*
X92269880Y-79453750D01*
X92263500Y-79513083D01*
X90690338Y-79513083D01*
X90690113Y-79128952D01*
X90689709Y-78437074D01*
X90709671Y-78368941D01*
X90763300Y-78322417D01*
X90815709Y-78311000D01*
X92193866Y-78311000D01*
X92261987Y-78331002D01*
X92308480Y-78384658D01*
X92311915Y-78392952D01*
X92314870Y-78400873D01*
X92319950Y-78414494D01*
X92405810Y-78529189D01*
X92520505Y-78615049D01*
X92520507Y-78615049D01*
X92520509Y-78615051D01*
X92654750Y-78665120D01*
X92714091Y-78671500D01*
X93721908Y-78671499D01*
X93781250Y-78665120D01*
X93915491Y-78615051D01*
X93965448Y-78577654D01*
X94030189Y-78529189D01*
X94116049Y-78414494D01*
X94116049Y-78414493D01*
X94116051Y-78414491D01*
X94166120Y-78280250D01*
X94172500Y-78220909D01*
X94172499Y-77638092D01*
X94166120Y-77578750D01*
X94116051Y-77444509D01*
X94116049Y-77444507D01*
X94116049Y-77444505D01*
X94030189Y-77329810D01*
X93915494Y-77243950D01*
X93883036Y-77231844D01*
X93781250Y-77193880D01*
X93751579Y-77190690D01*
X93721910Y-77187500D01*
X92714099Y-77187500D01*
X92714078Y-77187502D01*
X92654753Y-77193879D01*
X92520505Y-77243950D01*
X92405810Y-77329810D01*
X92319950Y-77444505D01*
X92319949Y-77444509D01*
X92311920Y-77466033D01*
X92269375Y-77522868D01*
X92202855Y-77547679D01*
X92193866Y-77548000D01*
X90815115Y-77548000D01*
X90746994Y-77527998D01*
X90700501Y-77474342D01*
X90689115Y-77422074D01*
X90688905Y-77063012D01*
X90683683Y-68133139D01*
X90703645Y-68065009D01*
X90757274Y-68018485D01*
X90827542Y-68008340D01*
X90872683Y-68023949D01*
X90911741Y-68046499D01*
X90911743Y-68046499D01*
X90911746Y-68046501D01*
X91008775Y-68072500D01*
X91109225Y-68072500D01*
X91232340Y-68072500D01*
X91300461Y-68092502D01*
X91321435Y-68109405D01*
X91350575Y-68138545D01*
X91350580Y-68138549D01*
X91350582Y-68138551D01*
X91478118Y-68212184D01*
X91620367Y-68250300D01*
X91620369Y-68250300D01*
X91767631Y-68250300D01*
X91767633Y-68250300D01*
X91909882Y-68212184D01*
X92037418Y-68138551D01*
X92141551Y-68034418D01*
X92215184Y-67906882D01*
X92253300Y-67764633D01*
X92253300Y-67617367D01*
X92215184Y-67475118D01*
X92141551Y-67347582D01*
X92129564Y-67335595D01*
X92095539Y-67273287D01*
X92100602Y-67202471D01*
X92129564Y-67157404D01*
X92141551Y-67145418D01*
X92215184Y-67017882D01*
X92253300Y-66875633D01*
X92253300Y-66728367D01*
X92215184Y-66586118D01*
X92170121Y-66508066D01*
X92141553Y-66458585D01*
X92141545Y-66458575D01*
X92037424Y-66354454D01*
X92037414Y-66354446D01*
X91909882Y-66280816D01*
X91767633Y-66242700D01*
X91620367Y-66242700D01*
X91525534Y-66268110D01*
X91478117Y-66280816D01*
X91350585Y-66354446D01*
X91350575Y-66354454D01*
X91321435Y-66383595D01*
X91259123Y-66417621D01*
X91232340Y-66420500D01*
X79051959Y-66420500D01*
X79051943Y-66420499D01*
X79044225Y-66420499D01*
X78943775Y-66420499D01*
X78895261Y-66433498D01*
X78846745Y-66446498D01*
X78759756Y-66496721D01*
X78759750Y-66496726D01*
X78528110Y-66728367D01*
X77997753Y-67258724D01*
X77962239Y-67294238D01*
X77926725Y-67329751D01*
X77926721Y-67329756D01*
X77876500Y-67416741D01*
X77850499Y-67513776D01*
X77849422Y-67521964D01*
X77845817Y-67521489D01*
X77830498Y-67573663D01*
X77776842Y-67620156D01*
X77706568Y-67630260D01*
X77666100Y-67617191D01*
X77631220Y-67598946D01*
X77612230Y-67589013D01*
X77544109Y-67569011D01*
X77471000Y-67558500D01*
X67309000Y-67558500D01*
X67308993Y-67558500D01*
X67253838Y-67564430D01*
X67201516Y-67575812D01*
X67201510Y-67575813D01*
X67201499Y-67575816D01*
X67188707Y-67579325D01*
X67174710Y-67583165D01*
X67174709Y-67583166D01*
X67122784Y-67612734D01*
X67086720Y-67633270D01*
X67086713Y-67633275D01*
X67033076Y-67679752D01*
X67033058Y-67679769D01*
X67000944Y-67713049D01*
X67000944Y-67713050D01*
X66954014Y-67802767D01*
X66954013Y-67802770D01*
X66934011Y-67870891D01*
X66923533Y-67943772D01*
X66923500Y-67944002D01*
X50927500Y-67944002D01*
X50927500Y-54948284D01*
X51663500Y-54948284D01*
X51663500Y-55287715D01*
X51696767Y-55625476D01*
X51696770Y-55625497D01*
X51738946Y-55837533D01*
X51762986Y-55958387D01*
X51805494Y-56098515D01*
X51861514Y-56283189D01*
X51861515Y-56283193D01*
X51991403Y-56596770D01*
X52151404Y-56896112D01*
X52339966Y-57178316D01*
X52339970Y-57178321D01*
X52339973Y-57178325D01*
X52395338Y-57245787D01*
X52555292Y-57440692D01*
X52555310Y-57440711D01*
X52795288Y-57680689D01*
X52795307Y-57680707D01*
X52937041Y-57797025D01*
X53057675Y-57896027D01*
X53057679Y-57896029D01*
X53057683Y-57896033D01*
X53339887Y-58084595D01*
X53339890Y-58084597D01*
X53639230Y-58244597D01*
X53952811Y-58374486D01*
X54277613Y-58473014D01*
X54610508Y-58539231D01*
X54948291Y-58572500D01*
X54948300Y-58572500D01*
X55287700Y-58572500D01*
X55287709Y-58572500D01*
X55625492Y-58539231D01*
X55958387Y-58473014D01*
X56283189Y-58374486D01*
X56596770Y-58244597D01*
X56896110Y-58084597D01*
X57178325Y-57896027D01*
X57440698Y-57680702D01*
X57680702Y-57440698D01*
X57896027Y-57178325D01*
X58084597Y-56896110D01*
X58244597Y-56596770D01*
X58374486Y-56283189D01*
X58473014Y-55958387D01*
X58539231Y-55625492D01*
X58572500Y-55287709D01*
X58572500Y-54948291D01*
X58539231Y-54610508D01*
X58473014Y-54277613D01*
X58374486Y-53952811D01*
X58244597Y-53639230D01*
X58084597Y-53339890D01*
X58084595Y-53339887D01*
X57896033Y-53057683D01*
X57896028Y-53057677D01*
X57896027Y-53057675D01*
X57806233Y-52948261D01*
X57680707Y-52795307D01*
X57680689Y-52795288D01*
X57440711Y-52555310D01*
X57440692Y-52555292D01*
X57257146Y-52404660D01*
X57178325Y-52339973D01*
X57178321Y-52339970D01*
X57178316Y-52339966D01*
X56896112Y-52151404D01*
X56596770Y-51991403D01*
X56283193Y-51861515D01*
X56283189Y-51861514D01*
X55958387Y-51762986D01*
X55958384Y-51762985D01*
X55958383Y-51762985D01*
X55625497Y-51696770D01*
X55625492Y-51696769D01*
X55625485Y-51696768D01*
X55625476Y-51696767D01*
X55287715Y-51663500D01*
X55287709Y-51663500D01*
X54948291Y-51663500D01*
X54948284Y-51663500D01*
X54610523Y-51696767D01*
X54610511Y-51696768D01*
X54610508Y-51696769D01*
X54610505Y-51696769D01*
X54610502Y-51696770D01*
X54277616Y-51762985D01*
X53952810Y-51861514D01*
X53952806Y-51861515D01*
X53639229Y-51991403D01*
X53339887Y-52151404D01*
X53057683Y-52339966D01*
X53057677Y-52339971D01*
X52795307Y-52555292D01*
X52795288Y-52555310D01*
X52555310Y-52795288D01*
X52555292Y-52795307D01*
X52339971Y-53057677D01*
X52339966Y-53057683D01*
X52151404Y-53339887D01*
X51991403Y-53639229D01*
X51861515Y-53952806D01*
X51861514Y-53952810D01*
X51762985Y-54277616D01*
X51696770Y-54610502D01*
X51696767Y-54610523D01*
X51663500Y-54948284D01*
X50927500Y-54948284D01*
X50927500Y-51053500D01*
X50947502Y-50985379D01*
X51001158Y-50938886D01*
X51053500Y-50927500D01*
X152146500Y-50927500D01*
X152214621Y-50947502D01*
G37*
G04 #@! TD.AperFunction*
G04 #@! TA.AperFunction,Conductor*
G36*
X77539121Y-67838002D02*
G01*
X77585614Y-67891658D01*
X77597000Y-67944000D01*
X77597000Y-70613000D01*
X77576998Y-70681121D01*
X77523342Y-70727614D01*
X77471000Y-70739000D01*
X67309000Y-70739000D01*
X67240879Y-70718998D01*
X67194386Y-70665342D01*
X67183000Y-70613000D01*
X67183000Y-67944000D01*
X67203002Y-67875879D01*
X67256658Y-67829386D01*
X67309000Y-67818000D01*
X77471000Y-67818000D01*
X77539121Y-67838002D01*
G37*
G04 #@! TD.AperFunction*
G04 #@! TA.AperFunction,Conductor*
G36*
X90366195Y-67838002D02*
G01*
X90412688Y-67891658D01*
X90424073Y-67943924D01*
X90425708Y-70739000D01*
X90434100Y-85091071D01*
X90414138Y-85159204D01*
X90360509Y-85205728D01*
X90308097Y-85217145D01*
X84707997Y-85217003D01*
X84639877Y-85196999D01*
X84593385Y-85143342D01*
X84582000Y-85091003D01*
X84582000Y-79755000D01*
X84602002Y-79686879D01*
X84655658Y-79640386D01*
X84708000Y-79629000D01*
X86233000Y-79629000D01*
X86233000Y-70739000D01*
X79501000Y-70739000D01*
X79432879Y-70718998D01*
X79386386Y-70665342D01*
X79375000Y-70613000D01*
X79375000Y-67944000D01*
X79395002Y-67875879D01*
X79448658Y-67829386D01*
X79501000Y-67818000D01*
X90298074Y-67818000D01*
X90366195Y-67838002D01*
G37*
G04 #@! TD.AperFunction*
M02*
